<?xml version="1.0" encoding="utf-8" standalone="no"?>
<!DOCTYPE svg PUBLIC "-//W3C//DTD SVG 1.1//EN"
  "http://www.w3.org/Graphics/SVG/1.1/DTD/svg11.dtd">
<svg xmlns:xlink="http://www.w3.org/1999/xlink" width="432pt" height="216pt" viewBox="0 0 432 216" xmlns="http://www.w3.org/2000/svg" version="1.1">
 <metadata>
  <rdf:RDF xmlns:dc="http://purl.org/dc/elements/1.1/" xmlns:cc="http://creativecommons.org/ns#" xmlns:rdf="http://www.w3.org/1999/02/22-rdf-syntax-ns#">
   <cc:Work>
    <dc:type rdf:resource="http://purl.org/dc/dcmitype/StillImage"/>
    <dc:date>2025-10-21T17:25:25.385730</dc:date>
    <dc:format>image/svg+xml</dc:format>
    <dc:creator>
     <cc:Agent>
      <dc:title>Matplotlib v3.9.4, https://matplotlib.org/</dc:title>
     </cc:Agent>
    </dc:creator>
   </cc:Work>
  </rdf:RDF>
 </metadata>
 <defs>
  <style type="text/css">*{stroke-linejoin: round; stroke-linecap: butt}</style>
 </defs>
 <g id="figure_1">
  <g id="patch_1">
   <path d="M 0 216 
L 432 216 
L 432 0 
L 0 0 
L 0 216 
z
" style="fill: none"/>
  </g>
  <g id="axes_1">
   <g id="patch_2">
    <path d="M 10.8 205.2 
L 356.603942 205.2 
L 356.603942 30.528 
L 10.8 30.528 
L 10.8 205.2 
z
" style="fill: none"/>
   </g>
   <g id="matplotlib.axis_1"/>
   <g id="matplotlib.axis_2">
    <g id="ytick_1">
     <g id="line2d_1">
      <defs>
       <path id="m1a5440c739" d="M 4 0 
L -4 -0 
" style="stroke: #000000; stroke-width: 2"/>
      </defs>
      <g>
       <use xlink:href="#m1a5440c739" x="26.518361" y="46.407273" style="stroke: #000000; stroke-width: 2"/>
      </g>
     </g>
     <g id="text_1">
      <!-- 1 -->
      <g transform="translate(12.655861 50.206491) scale(0.1 -0.1)">
       <defs>
        <path id="DejaVuSans-31" d="M 794 531 
L 1825 531 
L 1825 4091 
L 703 3866 
L 703 4441 
L 1819 4666 
L 2450 4666 
L 2450 531 
L 3481 531 
L 3481 0 
L 794 0 
L 794 531 
z
" transform="scale(0.015625)"/>
       </defs>
       <use xlink:href="#DejaVuSans-31"/>
      </g>
     </g>
    </g>
   </g>
   <g id="line2d_2">
    <path d="M 26.518361 125.803636 
L 271.545793 125.803636 
L 271.549358 101.267147 
L 271.645594 182.35642 
L 271.720444 186.200335 
L 271.773908 184.581211 
L 271.838066 172.429683 
L 271.895094 98.909748 
L 272.037666 65.430096 
L 272.04123 65.405981 
L 272.069745 65.863356 
L 272.126773 70.811396 
L 272.187366 100.14278 
L 272.358453 186.191667 
L 272.362017 186.189691 
L 272.394096 185.566455 
L 272.451124 179.8725 
L 272.508153 149.904793 
L 272.67211 65.433321 
L 272.675675 65.436416 
L 272.679239 65.405266 
L 272.711318 65.938153 
L 272.779039 73.592288 
L 272.836068 115.599483 
L 272.967947 185.688451 
L 273.000026 186.199152 
L 273.046361 184.943555 
L 273.114083 173.164693 
L 273.167547 106.107997 
L 273.306555 65.501789 
L 273.317248 65.411919 
L 273.360019 66.365747 
L 273.420612 74.24702 
L 273.474077 113.467394 
L 273.60952 185.755448 
L 273.638034 186.202667 
L 273.687934 184.75986 
L 273.748527 174.811985 
L 273.798428 123.694034 
L 273.926742 65.907356 
L 273.958821 65.411075 
L 274.005157 66.68634 
L 274.072878 78.570168 
L 274.126343 146.039594 
L 274.26535 186.109221 
L 274.276043 186.198483 
L 274.318815 185.221148 
L 274.379408 177.262813 
L 274.432872 137.408054 
L 274.568315 65.843757 
L 274.59683 65.405003 
L 274.64673 66.871547 
L 274.707323 76.920676 
L 274.757223 129.096873 
L 274.889102 185.799778 
L 274.917616 186.192628 
L 274.963952 184.897279 
L 275.031674 172.907437 
L 275.085138 105.031915 
L 275.224145 65.493495 
L 275.234838 65.40643 
L 275.27761 66.406038 
L 275.338203 74.443956 
L 275.391667 114.979759 
L 275.523546 185.679102 
L 275.555625 186.200842 
L 275.601961 184.959752 
L 275.669682 173.259397 
L 275.719582 112.288571 
L 275.85859 65.53332 
L 275.872847 65.414645 
L 275.904926 65.896991 
L 275.972647 73.3136 
L 276.029676 112.947551 
L 276.165119 185.749637 
L 276.193634 186.20227 
L 276.243534 184.778382 
L 276.304127 174.904668 
L 276.354027 124.59446 
L 276.482341 65.915849 
L 276.51442 65.40879 
L 276.560756 66.669267 
L 276.628477 78.474316 
L 276.681942 145.63466 
L 276.820949 186.106342 
L 276.831642 186.196198 
L 276.874414 185.2364 
L 276.935007 177.336104 
L 276.988471 137.961235 
L 277.123914 65.849849 
L 277.152429 65.404605 
L 277.202329 66.853511 
L 277.262922 76.826456 
L 277.312822 128.211276 
L 277.441137 185.702608 
L 277.473215 186.195354 
L 277.519551 184.915109 
L 277.587273 173.004907 
L 277.640737 105.43322 
L 277.779745 65.496989 
L 277.790438 65.40812 
L 277.833209 66.391155 
L 277.893802 74.369155 
L 277.947266 114.389615 
L 278.079145 185.66912 
L 278.111224 186.202007 
L 278.15756 184.97525 
L 278.225281 173.353551 
L 278.275182 112.779335 
L 278.414189 65.538479 
L 278.432011 65.415605 
L 278.464089 66.032702 
L 278.524682 72.411121 
L 278.585275 112.449942 
L 278.724283 185.849165 
L 278.749233 186.201292 
L 278.795569 185.026222 
L 278.86329 173.697878 
L 278.91319 114.779826 
L 279.048634 65.643604 
L 279.070019 65.406938 
L 279.112791 66.478274 
L 279.173384 74.853835 
L 279.226848 118.643019 
L 279.355163 185.58277 
L 279.387242 186.193565 
L 279.440706 184.626606 
L 279.501299 174.046412 
L 279.551199 117.16578 
L 279.686642 65.655982 
L 279.708028 65.404804 
L 279.7508 66.429994 
L 279.807828 73.63255 
L 279.864857 116.02963 
L 279.996736 185.694325 
L 280.028815 186.197765 
L 280.07515 184.932384 
L 280.142872 173.10112 
L 280.196336 105.83741 
L 280.335344 65.500022 
L 280.346037 65.41027 
L 280.388808 66.37598 
L 280.449401 74.295461 
L 280.502866 113.827503 
L 280.638309 185.759424 
L 280.666823 186.202601 
L 280.716723 184.747704 
L 280.777316 174.749524 
L 280.827217 123.099276 
L 280.959095 65.812978 
L 280.98761 65.412797 
L 281.033946 66.69805 
L 281.101667 78.634704 
L 281.155132 146.308191 
L 281.294139 186.111398 
L 281.304832 186.199771 
L 281.347604 185.21112 
L 281.408197 177.213299 
L 281.461661 137.024142 
L 281.59354 65.934757 
L 281.625619 65.405592 
L 281.671954 66.63711 
L 281.739676 78.285061 
L 281.789576 138.993775 
L 281.928584 186.070578 
L 281.946405 186.190687 
L 281.978484 185.5705 
L 282.039077 179.176402 
L 282.09967 138.993775 
L 282.238677 65.75486 
L 282.263627 65.405592 
L 282.309963 66.585338 
L 282.377685 77.940794 
L 282.427585 137.024142 
L 282.563028 185.96488 
L 282.584414 186.199771 
L 282.627185 185.124901 
L 282.687778 176.727626 
L 282.741243 132.706398 
L 282.869557 66.020381 
L 282.901636 65.412797 
L 282.9551 66.985728 
L 283.015693 77.592793 
L 283.065594 134.675697 
L 283.201037 185.952418 
L 283.222423 186.202601 
L 283.265194 185.172633 
L 283.322223 177.954488 
L 283.379251 135.357383 
L 283.51113 65.910117 
L 283.543209 65.41027 
L 283.589545 66.680581 
L 283.657266 78.5381 
L 283.710731 145.904852 
L 283.849738 186.10821 
L 283.860431 186.197765 
L 283.903203 185.226208 
L 283.963796 177.28738 
L 284.01726 137.595401 
L 284.152703 65.845819 
L 284.181218 65.404804 
L 284.231118 66.865581 
L 284.291711 76.889158 
L 284.341611 128.803246 
L 284.47349 185.797012 
L 284.502004 186.193565 
L 284.54834 184.903279 
L 284.616062 172.940082 
L 284.669526 105.1653 
L 284.808534 65.49471 
L 284.819226 65.406938 
L 284.861998 66.401115 
L 284.922591 74.418909 
L 284.976055 114.779826 
L 285.107934 185.675843 
L 285.140013 186.201292 
L 285.186349 184.964997 
L 285.25407 173.29083 
L 285.303971 112.449942 
L 285.442978 65.534975 
L 285.457235 65.415605 
L 285.492878 66.040818 
L 285.549907 71.734773 
L 285.606936 101.70248 
L 285.770893 186.173951 
L 285.774457 186.170856 
L 285.778022 186.202007 
L 285.8101 185.66912 
L 285.877822 178.014985 
L 285.934851 136.00779 
L 286.06673 65.918822 
L 286.098808 65.40812 
L 286.145144 66.663718 
L 286.212866 78.44258 
L 286.26633 145.499276 
L 286.405338 186.105483 
L 286.41603 186.195354 
L 286.458802 185.241526 
L 286.519395 177.360252 
L 286.572859 138.139879 
L 286.708303 65.851825 
L 286.736817 65.404605 
L 286.786717 66.847412 
L 286.84731 76.795288 
L 286.89721 127.913239 
L 287.025525 185.699916 
L 287.057603 186.196198 
L 287.103939 184.920933 
L 287.171661 173.037105 
L 287.225125 105.567679 
L 287.364133 65.498051 
L 287.374826 65.40879 
L 287.417597 66.386124 
L 287.47819 74.344459 
L 287.531655 114.199218 
L 287.667098 185.763516 
L 287.695612 186.20227 
L 287.745512 184.735725 
L 287.806105 174.686597 
L 287.856005 122.5104 
L 287.987884 65.807495 
L 288.016399 65.414645 
L 288.062735 66.709994 
L 288.130456 78.699836 
L 288.183921 146.575358 
L 288.322928 186.113777 
L 288.333621 186.200842 
L 288.376392 185.201234 
L 288.436986 177.163317 
L 288.49045 136.627514 
L 288.622329 65.928171 
L 288.654407 65.40643 
L 288.700743 66.647521 
L 288.768465 78.347875 
L 288.818365 139.318702 
L 288.957373 186.073952 
L 288.97163 186.192628 
L 289.003708 185.710282 
L 289.07143 178.293672 
L 289.128459 138.659722 
L 289.263902 65.857635 
L 289.292416 65.405003 
L 289.342316 66.828891 
L 289.402909 76.702605 
L 289.452809 127.012813 
L 289.581124 185.691424 
L 289.613203 186.198483 
L 289.659539 184.938005 
L 289.72726 173.132957 
L 289.780725 105.972613 
L 289.919732 65.500931 
L 289.930425 65.411075 
L 289.973196 66.370872 
L 290.033789 74.271169 
L 290.087254 113.646037 
L 290.222697 185.757424 
L 290.251211 186.202667 
L 290.301112 184.753761 
L 290.361705 174.780817 
L 290.411605 123.395996 
L 290.539919 65.904665 
L 290.571998 65.411919 
L 290.618334 66.692164 
L 290.686055 78.602366 
L 290.73952 146.174053 
L 290.878527 186.110284 
L 290.88922 186.199152 
L 290.931992 185.216118 
L 290.992585 177.238118 
L 291.046049 137.217657 
L 291.177928 65.938153 
L 291.210007 65.405266 
L 291.256343 66.632023 
L 291.324064 78.253722 
L 291.373964 138.827937 
L 291.512972 186.068794 
L 291.530793 186.191667 
L 291.562872 185.574571 
L 291.623465 179.196151 
L 291.684058 139.157331 
L 291.823065 65.758108 
L 291.848015 65.405981 
L 291.894351 66.581051 
L 291.962073 77.909395 
L 292.011973 136.827447 
L 292.147416 185.963669 
L 292.168802 186.200335 
L 292.211573 185.128999 
L 292.272166 176.753438 
L 292.325631 132.964254 
L 292.453946 66.024503 
L 292.486024 65.413707 
L 292.539489 66.980667 
L 292.600082 77.56086 
L 292.649982 134.441492 
L 292.785425 185.951291 
L 292.806811 186.202468 
L 292.849582 185.177279 
L 292.906611 177.974723 
L 292.96364 135.577642 
L 293.095519 65.912947 
L 293.127597 65.409507 
L 293.173933 66.674889 
L 293.241655 78.506153 
L 293.295119 145.769863 
L 293.434127 186.107251 
L 293.444819 186.197003 
L 293.487591 185.231293 
L 293.548184 177.311811 
L 293.601648 137.779769 
L 293.737092 65.847848 
L 293.765606 65.404672 
L 293.815506 66.859569 
L 293.876099 76.857749 
L 293.925999 128.507997 
L 294.057878 185.794295 
L 294.086392 186.194475 
L 294.132728 184.909223 
L 294.20045 172.972569 
L 294.253914 105.299081 
L 294.392922 65.495875 
L 294.403615 65.407502 
L 294.446386 66.396153 
L 294.506979 74.393973 
L 294.560444 114.58313 
L 294.692323 185.672515 
L 294.724401 186.20168 
L 294.770737 184.970163 
L 294.838459 173.322212 
L 294.888359 112.613497 
L 295.027366 65.536695 
L 295.045188 65.416586 
L 295.077266 66.036772 
L 295.137859 72.430871 
L 295.198452 112.613497 
L 295.33746 185.852412 
L 295.36241 186.20168 
L 295.408746 185.021935 
L 295.476467 173.666478 
L 295.526367 114.58313 
L 295.661811 65.642392 
L 295.683196 65.407502 
L 295.725968 66.482372 
L 295.786561 74.879647 
L 295.840025 118.900875 
L 295.96834 185.586891 
L 296.000419 186.194475 
L 296.053883 184.621545 
L 296.114476 174.01448 
L 296.164376 116.931576 
L 296.299819 65.654855 
L 296.321205 65.404672 
L 296.363977 66.43464 
L 296.421005 73.652785 
L 296.478034 116.24989 
L 296.609913 185.697156 
L 296.641992 186.197003 
L 296.688328 184.926692 
L 296.756049 173.069173 
L 296.809514 105.702421 
L 296.948521 65.499062 
L 296.959214 65.409507 
L 297.001985 66.381065 
L 297.062578 74.319893 
L 297.116043 114.011872 
L 297.251486 185.761454 
L 297.28 186.202468 
L 297.329901 184.741692 
L 297.390494 174.718115 
L 297.440394 122.804027 
L 297.572273 65.810261 
L 297.600787 65.413707 
L 297.647123 66.703994 
L 297.714844 78.667191 
L 297.768309 146.441972 
L 297.907316 186.112562 
L 297.918009 186.200335 
L 297.960781 185.206158 
L 298.021374 177.188364 
L 298.074838 136.827447 
L 298.206717 65.931429 
L 298.238796 65.405981 
L 298.285131 66.642276 
L 298.352853 78.316443 
L 298.402753 139.157331 
L 298.541761 186.072298 
L 298.556018 186.191667 
L 298.591661 185.566455 
L 298.64869 179.8725 
L 298.705718 149.904793 
L 298.869676 65.433321 
L 298.87324 65.436416 
L 298.876804 65.405266 
L 298.908883 65.938153 
L 298.976605 73.592288 
L 299.033633 115.599483 
L 299.165512 185.688451 
L 299.197591 186.199152 
L 299.243927 184.943555 
L 299.311648 173.164693 
L 299.365113 106.107997 
L 299.50412 65.501789 
L 299.514813 65.411919 
L 299.557585 66.365747 
L 299.618178 74.24702 
L 299.671642 113.467394 
L 299.807085 185.755448 
L 299.8356 186.202667 
L 299.8855 184.75986 
L 299.946093 174.811985 
L 299.995993 123.694034 
L 300.124308 65.907356 
L 300.156386 65.411075 
L 300.202722 66.68634 
L 300.270444 78.570168 
L 300.323908 146.039594 
L 300.462915 186.109221 
L 300.473608 186.198483 
L 300.51638 185.221148 
L 300.576973 177.262813 
L 300.630437 137.408054 
L 300.765881 65.843757 
L 300.794395 65.405003 
L 300.844295 66.871547 
L 300.904888 76.920676 
L 300.954788 129.096873 
L 301.086667 185.799778 
L 301.115181 186.192628 
L 301.161517 184.897279 
L 301.229239 172.907437 
L 301.282703 105.031915 
L 301.421711 65.493495 
L 301.432404 65.40643 
L 301.475175 66.406038 
L 301.535768 74.443956 
L 301.589233 114.979759 
L 301.721111 185.679102 
L 301.75319 186.200842 
L 301.799526 184.959752 
L 301.867248 173.259397 
L 301.917148 112.288571 
L 302.056155 65.53332 
L 302.070412 65.414645 
L 302.102491 65.896991 
L 302.170213 73.3136 
L 302.227241 112.947551 
L 302.362685 185.749637 
L 302.391199 186.20227 
L 302.441099 184.778382 
L 302.501692 174.904668 
L 302.551592 124.59446 
L 302.679907 65.915849 
L 302.711985 65.40879 
L 302.758321 66.669267 
L 302.826043 78.474316 
L 302.879507 145.63466 
L 303.018515 186.106342 
L 303.029208 186.196198 
L 303.071979 185.2364 
L 303.132572 177.336104 
L 303.186037 137.961235 
L 303.32148 65.849849 
L 303.349994 65.404605 
L 303.399894 66.853511 
L 303.460487 76.826456 
L 303.510387 128.211276 
L 303.638702 185.702608 
L 303.670781 186.195354 
L 303.717116 184.915109 
L 303.784838 173.004907 
L 303.838302 105.43322 
L 303.97731 65.496989 
L 303.988003 65.40812 
L 304.030774 66.391155 
L 304.091367 74.369155 
L 304.144832 114.389615 
L 304.276711 185.66912 
L 304.308789 186.202007 
L 304.355125 184.97525 
L 304.422847 173.353551 
L 304.472747 112.779335 
L 304.611754 65.538479 
L 304.629576 65.415605 
L 304.661655 66.032702 
L 304.722248 72.411121 
L 304.782841 112.449942 
L 304.921848 185.849165 
L 304.946798 186.201292 
L 304.993134 185.026222 
L 305.060856 173.697878 
L 305.110756 114.779826 
L 305.246199 65.643604 
L 305.267585 65.406938 
L 305.310356 66.478274 
L 305.370949 74.853835 
L 305.424414 118.643019 
L 305.552728 185.58277 
L 305.584807 186.193565 
L 305.638271 184.626606 
L 305.698864 174.046412 
L 305.748764 117.16578 
L 305.884208 65.655982 
L 305.905593 65.404804 
L 305.948365 66.429994 
L 306.005394 73.63255 
L 306.062422 116.02963 
L 306.194301 185.694325 
L 306.22638 186.197765 
L 306.272716 184.932384 
L 306.340437 173.10112 
L 306.393902 105.83741 
L 306.532909 65.500022 
L 306.543602 65.41027 
L 306.586374 66.37598 
L 306.646967 74.295461 
L 306.700431 113.827503 
L 306.835874 185.759424 
L 306.864389 186.202601 
L 306.914289 184.747704 
L 306.974882 174.749524 
L 307.024782 123.099276 
L 307.156661 65.812978 
L 307.185175 65.412797 
L 307.231511 66.69805 
L 307.299233 78.634704 
L 307.352697 146.308191 
L 307.491704 186.111398 
L 307.502397 186.199771 
L 307.545169 185.21112 
L 307.605762 177.213299 
L 307.659226 137.024142 
L 307.791105 65.934757 
L 307.823184 65.405592 
L 307.86952 66.63711 
L 307.937241 78.285061 
L 307.987141 138.993775 
L 308.126149 186.070578 
L 308.14397 186.190687 
L 308.176049 185.5705 
L 308.236642 179.176402 
L 308.297235 138.993775 
L 308.436243 65.75486 
L 308.461193 65.405592 
L 308.507528 66.585338 
L 308.57525 77.940794 
L 308.62515 137.024142 
L 308.760593 185.96488 
L 308.781979 186.199771 
L 308.824751 185.124901 
L 308.885344 176.727626 
L 308.938808 132.706398 
L 309.067123 66.020381 
L 309.099201 65.412797 
L 309.152666 66.985728 
L 309.213259 77.592793 
L 309.263159 134.675697 
L 309.398602 185.952418 
L 309.419988 186.202601 
L 309.462759 185.172633 
L 309.519788 177.954488 
L 309.576817 135.357383 
L 309.708696 65.910117 
L 309.740774 65.41027 
L 309.78711 66.680581 
L 309.854832 78.5381 
L 309.908296 145.904852 
L 310.047304 186.10821 
L 310.057997 186.197765 
L 310.100768 185.226208 
L 310.161361 177.28738 
L 310.214826 137.595401 
L 310.350269 65.845819 
L 310.378783 65.404804 
L 310.428683 66.865581 
L 310.489276 76.889158 
L 310.539176 128.803246 
L 310.671055 185.797012 
L 310.69957 186.193565 
L 310.745905 184.903279 
L 310.813627 172.940082 
L 310.867091 105.1653 
L 311.006099 65.49471 
L 311.016792 65.406938 
L 311.059563 66.401115 
L 311.120156 74.418909 
L 311.173621 114.779826 
L 311.3055 185.675843 
L 311.337578 186.201292 
L 311.383914 184.964997 
L 311.451636 173.29083 
L 311.501536 112.449942 
L 311.640543 65.534975 
L 311.654801 65.415605 
L 311.690443 66.040818 
L 311.747472 71.734773 
L 311.804501 101.70248 
L 311.968458 186.173951 
L 311.972023 186.170856 
L 311.975587 186.202007 
L 312.007666 185.66912 
L 312.075387 178.014985 
L 312.132416 136.00779 
L 312.264295 65.918822 
L 312.296374 65.40812 
L 312.342709 66.663718 
L 312.410431 78.44258 
L 312.463895 145.499276 
L 312.602903 186.105483 
L 312.613596 186.195354 
L 312.656367 185.241526 
L 312.71696 177.360252 
L 312.770425 138.139879 
L 312.905868 65.851825 
L 312.934382 65.404605 
L 312.984282 66.847412 
L 313.044875 76.795288 
L 313.094776 127.913239 
L 313.22309 185.699916 
L 313.255169 186.196198 
L 313.301505 184.920933 
L 313.369226 173.037105 
L 313.422691 105.567679 
L 313.561698 65.498051 
L 313.572391 65.40879 
L 313.615163 66.386124 
L 313.675756 74.344459 
L 313.72922 114.199218 
L 313.864663 185.763516 
L 313.893178 186.20227 
L 313.943078 184.735725 
L 314.003671 174.686597 
L 314.053571 122.5104 
L 314.18545 65.807495 
L 314.213964 65.414645 
L 314.2603 66.709994 
L 314.328021 78.699836 
L 314.381486 146.575358 
L 314.520493 186.113777 
L 314.531186 186.200842 
L 314.573958 185.201234 
L 314.634551 177.163317 
L 314.688015 136.627514 
L 314.819894 65.928171 
L 314.851973 65.40643 
L 314.898309 66.647521 
L 314.96603 78.347875 
L 315.01593 139.318702 
L 315.154938 186.073952 
L 315.169195 186.192628 
L 315.201274 185.710282 
L 315.268995 178.293672 
L 315.326024 138.659722 
L 315.461467 65.857635 
L 315.489982 65.405003 
L 315.539882 66.828891 
L 315.600475 76.702605 
L 315.650375 127.012813 
L 315.778689 185.691424 
L 315.810768 186.198483 
L 315.857104 184.938005 
L 315.924825 173.132957 
L 315.97829 105.972613 
L 316.117297 65.500931 
L 316.12799 65.411075 
L 316.170762 66.370872 
L 316.231355 74.271169 
L 316.284819 113.646037 
L 316.420262 185.757424 
L 316.448777 186.202667 
L 316.498677 184.753761 
L 316.55927 174.780817 
L 316.60917 123.395996 
L 316.737485 65.904665 
L 316.769563 65.411919 
L 316.815899 66.692164 
L 316.883621 78.602366 
L 316.937085 146.174053 
L 317.076093 186.110284 
L 317.086786 186.199152 
L 317.129557 185.216118 
L 317.19015 177.238118 
L 317.243614 137.217657 
L 317.375493 65.938153 
L 317.407572 65.405266 
L 317.453908 66.632023 
L 317.521629 78.253722 
L 317.57153 138.827937 
L 317.710537 186.068794 
L 317.728359 186.191667 
L 317.760437 185.574571 
L 317.82103 179.196151 
L 317.881623 139.157331 
L 318.020631 65.758108 
L 318.045581 65.405981 
L 318.091917 66.581051 
L 318.159638 77.909395 
L 318.209538 136.827447 
L 318.344982 185.963669 
L 318.366367 186.200335 
L 318.409139 185.128999 
L 318.469732 176.753438 
L 318.523196 132.964254 
L 318.651511 66.024503 
L 318.683589 65.413707 
L 318.737054 66.980667 
L 318.797647 77.56086 
L 318.847547 134.441492 
L 318.98299 185.951291 
L 319.004376 186.202468 
L 319.047148 185.177279 
L 319.104176 177.974723 
L 319.161205 135.577642 
L 319.293084 65.912947 
L 319.325163 65.409507 
L 319.371498 66.674889 
L 319.43922 78.506153 
L 319.492684 145.769863 
L 319.631692 186.107251 
L 319.642385 186.197003 
L 319.685156 185.231293 
L 319.745749 177.311811 
L 319.799214 137.779769 
L 319.934657 65.847848 
L 319.963171 65.404672 
L 320.013071 66.859569 
L 320.073664 76.857749 
L 320.123565 128.507997 
L 320.255443 185.794295 
L 320.283958 186.194475 
L 320.330294 184.909223 
L 320.398015 172.972569 
L 320.45148 105.299081 
L 320.590487 65.495875 
L 320.60118 65.407502 
L 320.643952 66.396153 
L 320.704545 74.393973 
L 320.758009 114.58313 
L 320.889888 185.672515 
L 320.921967 186.20168 
L 320.968302 184.970163 
L 321.036024 173.322212 
L 321.085924 112.613497 
L 321.224932 65.536695 
L 321.242753 65.416586 
L 321.274832 66.036772 
L 321.335425 72.430871 
L 321.396018 112.613497 
L 321.535025 185.852412 
L 321.559975 186.20168 
L 321.606311 185.021935 
L 321.674033 173.666478 
L 321.723933 114.58313 
L 321.859376 65.642392 
L 321.880762 65.407502 
L 321.923533 66.482372 
L 321.984126 74.879647 
L 322.037591 118.900875 
L 322.165905 185.586891 
L 322.197984 186.194475 
L 322.251448 184.621545 
L 322.312041 174.01448 
L 322.361942 116.931576 
L 322.497385 65.654855 
L 322.51877 65.404672 
L 322.561542 66.43464 
L 322.618571 73.652785 
L 322.675599 116.24989 
L 322.807478 185.697156 
L 322.839557 186.197003 
L 322.885893 184.926692 
L 322.953614 173.069173 
L 323.007079 105.702421 
L 323.146086 65.499062 
L 323.156779 65.409507 
L 323.199551 66.381065 
L 323.260144 74.319893 
L 323.313608 114.011872 
L 323.449051 185.761454 
L 323.477566 186.202468 
L 323.527466 184.741692 
L 323.588059 174.718115 
L 323.637959 122.804027 
L 323.769838 65.810261 
L 323.798352 65.413707 
L 323.844688 66.703994 
L 323.91241 78.667191 
L 323.965874 146.441972 
L 324.104882 186.112562 
L 324.115574 186.200335 
L 324.158346 185.206158 
L 324.218939 177.188364 
L 324.272403 136.827447 
L 324.404282 65.931429 
L 324.436361 65.405981 
L 324.482697 66.642276 
L 324.550418 78.316443 
L 324.600319 139.157331 
L 324.739326 186.072298 
L 324.753583 186.191667 
L 324.789226 185.566455 
L 324.846255 179.8725 
L 324.903284 149.904793 
L 325.067241 65.433321 
L 325.070805 65.436416 
L 325.07437 65.405266 
L 325.106448 65.938153 
L 325.17417 73.592288 
L 325.231199 115.599483 
L 325.363078 185.688451 
L 325.395156 186.199152 
L 325.441492 184.943555 
L 325.509214 173.164693 
L 325.562678 106.107997 
L 325.701686 65.501789 
L 325.712378 65.411919 
L 325.75515 66.365747 
L 325.815743 74.24702 
L 325.869207 113.467394 
L 326.004651 185.755448 
L 326.033165 186.202667 
L 326.083065 184.75986 
L 326.143658 174.811985 
L 326.193558 123.694034 
L 326.321873 65.907356 
L 326.353951 65.411075 
L 326.400287 66.68634 
L 326.468009 78.570168 
L 326.521473 146.039594 
L 326.660481 186.109221 
L 326.671174 186.198483 
L 326.713945 185.221148 
L 326.774538 177.262813 
L 326.828003 137.408054 
L 326.963446 65.843757 
L 326.99196 65.405003 
L 327.04186 66.871547 
L 327.102453 76.920676 
L 327.152353 129.096873 
L 327.284232 185.799778 
L 327.312747 186.192628 
L 327.359083 184.897279 
L 327.426804 172.907437 
L 327.480269 105.031915 
L 327.619276 65.493495 
L 327.629969 65.40643 
L 327.67274 66.406038 
L 327.733333 74.443956 
L 327.786798 114.979759 
L 327.918677 185.679102 
L 327.950755 186.200842 
L 327.997091 184.959752 
L 328.064813 173.259397 
L 328.114713 112.288571 
L 328.253721 65.53332 
L 328.267978 65.414645 
L 328.300056 65.896991 
L 328.367778 73.3136 
L 328.424807 112.947551 
L 328.56025 185.749637 
L 328.588764 186.20227 
L 328.638664 184.778382 
L 328.699257 174.904668 
L 328.749157 124.59446 
L 328.877472 65.915849 
L 328.909551 65.40879 
L 328.955887 66.669267 
L 329.023608 78.474316 
L 329.077073 145.63466 
L 329.21608 186.106342 
L 329.226773 186.196198 
L 329.269544 185.2364 
L 329.330137 177.336104 
L 329.383602 137.961235 
L 329.519045 65.849849 
L 329.547559 65.404605 
L 329.59746 66.853511 
L 329.658053 76.826456 
L 329.707953 128.211276 
L 329.836267 185.702608 
L 329.868346 186.195354 
L 329.914682 184.915109 
L 329.982403 173.004907 
L 330.035868 105.43322 
L 330.174875 65.496989 
L 330.185568 65.40812 
L 330.22834 66.391155 
L 330.288933 74.369155 
L 330.342397 114.389615 
L 330.474276 185.66912 
L 330.506355 186.202007 
L 330.552691 184.97525 
L 330.620412 173.353551 
L 330.670312 112.779335 
L 330.80932 65.538479 
L 330.827141 65.415605 
L 330.85922 66.032702 
L 330.919813 72.411121 
L 330.980406 112.449942 
L 331.119413 185.849165 
L 331.144363 186.201292 
L 331.190699 185.026222 
L 331.258421 173.697878 
L 331.308321 114.779826 
L 331.443764 65.643604 
L 331.46515 65.406938 
L 331.507921 66.478274 
L 331.568514 74.853835 
L 331.621979 118.643019 
L 331.750294 185.58277 
L 331.782372 186.193565 
L 331.835837 184.626606 
L 331.89643 174.046412 
L 331.94633 117.16578 
L 332.081773 65.655982 
L 332.103159 65.404804 
L 332.14593 66.429994 
L 332.202959 73.63255 
L 332.259988 116.02963 
L 332.391867 185.694325 
L 332.423945 186.197765 
L 332.470281 184.932384 
L 332.538003 173.10112 
L 332.591467 105.83741 
L 332.730475 65.500022 
L 332.741167 65.41027 
L 332.783939 66.37598 
L 332.844532 74.295461 
L 332.897996 113.827503 
L 333.03344 185.759424 
L 333.061954 186.202601 
L 333.111854 184.747704 
L 333.172447 174.749524 
L 333.222347 123.099276 
L 333.354226 65.812978 
L 333.38274 65.412797 
L 333.429076 66.69805 
L 333.496798 78.634704 
L 333.550262 146.308191 
L 333.68927 186.111398 
L 333.699963 186.199771 
L 333.742734 185.21112 
L 333.803327 177.213299 
L 333.856792 137.024142 
L 333.988671 65.934757 
L 334.020749 65.405592 
L 334.067085 66.63711 
L 334.134807 78.285061 
L 334.184707 138.993775 
L 334.323714 186.070578 
L 334.341536 186.190687 
L 334.373614 185.5705 
L 334.434207 179.176402 
L 334.4948 138.993775 
L 334.633808 65.75486 
L 334.658758 65.405592 
L 334.705094 66.585338 
L 334.772815 77.940794 
L 334.822715 137.024142 
L 334.958159 185.96488 
L 334.979544 186.199771 
L 335.022316 185.124901 
L 335.082909 176.727626 
L 335.136373 132.706398 
L 335.264688 66.020381 
L 335.296767 65.412797 
L 335.350231 66.985728 
L 335.410824 77.592793 
L 335.460724 134.675697 
L 335.596167 185.952418 
L 335.617553 186.202601 
L 335.660325 185.172633 
L 335.717353 177.954488 
L 335.774382 135.357383 
L 335.906261 65.910117 
L 335.93834 65.41027 
L 335.984675 66.680581 
L 336.052397 78.5381 
L 336.105862 145.904852 
L 336.244869 186.10821 
L 336.255562 186.197765 
L 336.298333 185.226208 
L 336.358926 177.28738 
L 336.412391 137.595401 
L 336.547834 65.845819 
L 336.554963 65.650433 
L 336.66902 125.803636 
L 340.885581 125.803636 
L 340.885581 125.803636 
" clip-path="url(#p2d711a6d43)" style="fill: none; stroke: #0000ff; stroke-width: 2; stroke-linecap: square"/>
   </g>
   <g id="line2d_3">
    <defs>
     <path id="m2715bb8d3e" d="M 3 0 
L -3 -3 
L -3 3 
z
" style="stroke: #000000; stroke-linejoin: miter"/>
    </defs>
    <g>
     <use xlink:href="#m2715bb8d3e" x="356.603942" y="125.803636" style="stroke: #000000; stroke-linejoin: miter"/>
    </g>
   </g>
   <g id="line2d_4">
    <defs>
     <path id="me3bf3390d5" d="M 0 -3 
L -3 3 
L 3 3 
z
" style="stroke: #000000; stroke-linejoin: miter"/>
    </defs>
    <g>
     <use xlink:href="#me3bf3390d5" x="26.518361" y="30.528" style="stroke: #000000; stroke-linejoin: miter"/>
    </g>
   </g>
   <g id="patch_3">
    <path d="M 26.518361 205.2 
L 26.518361 30.528 
" style="fill: none; stroke: #000000; stroke-width: 2; stroke-linejoin: miter; stroke-linecap: square"/>
   </g>
   <g id="patch_4">
    <path d="M 10.8 125.803636 
L 356.603942 125.803636 
" style="fill: none; stroke: #000000; stroke-width: 2; stroke-linejoin: miter; stroke-linecap: square"/>
   </g>
   <g id="text_2">
    <!-- t / s -->
    <g transform="translate(395.900468 129.666761) scale(0.14 -0.14)">
     <defs>
      <path id="DejaVuSans-74" d="M 1172 4494 
L 1172 3500 
L 2356 3500 
L 2356 3053 
L 1172 3053 
L 1172 1153 
Q 1172 725 1289 603 
Q 1406 481 1766 481 
L 2356 481 
L 2356 0 
L 1766 0 
Q 1100 0 847 248 
Q 594 497 594 1153 
L 594 3053 
L 172 3053 
L 172 3500 
L 594 3500 
L 594 4494 
L 1172 4494 
z
" transform="scale(0.015625)"/>
      <path id="DejaVuSans-20" transform="scale(0.015625)"/>
      <path id="DejaVuSans-2f" d="M 1625 4666 
L 2156 4666 
L 531 -594 
L 0 -594 
L 1625 4666 
z
" transform="scale(0.015625)"/>
      <path id="DejaVuSans-73" d="M 2834 3397 
L 2834 2853 
Q 2591 2978 2328 3040 
Q 2066 3103 1784 3103 
Q 1356 3103 1142 2972 
Q 928 2841 928 2578 
Q 928 2378 1081 2264 
Q 1234 2150 1697 2047 
L 1894 2003 
Q 2506 1872 2764 1633 
Q 3022 1394 3022 966 
Q 3022 478 2636 193 
Q 2250 -91 1575 -91 
Q 1294 -91 989 -36 
Q 684 19 347 128 
L 347 722 
Q 666 556 975 473 
Q 1284 391 1588 391 
Q 1994 391 2212 530 
Q 2431 669 2431 922 
Q 2431 1156 2273 1281 
Q 2116 1406 1581 1522 
L 1381 1569 
Q 847 1681 609 1914 
Q 372 2147 372 2553 
Q 372 3047 722 3315 
Q 1072 3584 1716 3584 
Q 2034 3584 2315 3537 
Q 2597 3491 2834 3397 
z
" transform="scale(0.015625)"/>
     </defs>
     <use xlink:href="#DejaVuSans-74"/>
     <use xlink:href="#DejaVuSans-20" x="39.208984"/>
     <use xlink:href="#DejaVuSans-2f" x="70.996094"/>
     <use xlink:href="#DejaVuSans-20" x="104.6875"/>
     <use xlink:href="#DejaVuSans-73" x="136.474609"/>
    </g>
   </g>
   <g id="text_3">
    <!-- A -->
    <g transform="translate(21.729923 21.264728) scale(0.14 -0.14)">
     <defs>
      <path id="DejaVuSans-41" d="M 2188 4044 
L 1331 1722 
L 3047 1722 
L 2188 4044 
z
M 1831 4666 
L 2547 4666 
L 4325 0 
L 3669 0 
L 3244 1197 
L 1141 1197 
L 716 0 
L 50 0 
L 1831 4666 
z
" transform="scale(0.015625)"/>
     </defs>
     <use xlink:href="#DejaVuSans-41"/>
    </g>
   </g>
  </g>
 </g>
 <defs>
  <clipPath id="p2d711a6d43">
   <rect x="10.8" y="30.528" width="345.803942" height="174.672"/>
  </clipPath>
 </defs>
</svg>
