<?xml version="1.0" encoding="utf-8" standalone="no"?>
<!DOCTYPE svg PUBLIC "-//W3C//DTD SVG 1.1//EN"
  "http://www.w3.org/Graphics/SVG/1.1/DTD/svg11.dtd">
<svg xmlns:xlink="http://www.w3.org/1999/xlink" width="432pt" height="216pt" viewBox="0 0 432 216" xmlns="http://www.w3.org/2000/svg" version="1.1">
 <metadata>
  <rdf:RDF xmlns:dc="http://purl.org/dc/elements/1.1/" xmlns:cc="http://creativecommons.org/ns#" xmlns:rdf="http://www.w3.org/1999/02/22-rdf-syntax-ns#">
   <cc:Work>
    <dc:type rdf:resource="http://purl.org/dc/dcmitype/StillImage"/>
    <dc:date>2025-10-20T10:54:32.460735</dc:date>
    <dc:format>image/svg+xml</dc:format>
    <dc:creator>
     <cc:Agent>
      <dc:title>Matplotlib v3.9.4, https://matplotlib.org/</dc:title>
     </cc:Agent>
    </dc:creator>
   </cc:Work>
  </rdf:RDF>
 </metadata>
 <defs>
  <style type="text/css">*{stroke-linejoin: round; stroke-linecap: butt}</style>
 </defs>
 <g id="figure_1">
  <g id="patch_1">
   <path d="M 0 216 
L 432 216 
L 432 0 
L 0 0 
L 0 216 
z
" style="fill: none"/>
  </g>
  <g id="axes_1">
   <g id="patch_2">
    <path d="M 10.8 205.2 
L 387.343227 205.2 
L 387.343227 30.528 
L 10.8 30.528 
L 10.8 205.2 
z
" style="fill: none"/>
   </g>
   <g id="matplotlib.axis_1"/>
   <g id="matplotlib.axis_2">
    <g id="ytick_1">
     <g id="line2d_1">
      <defs>
       <path id="m63c4eb6aac" d="M 4 0 
L -4 -0 
" style="stroke: #000000; stroke-width: 2"/>
      </defs>
      <g>
       <use xlink:href="#m63c4eb6aac" x="27.915601" y="46.407273" style="stroke: #000000; stroke-width: 2"/>
      </g>
     </g>
     <g id="text_1">
      <!-- 1 -->
      <g transform="translate(14.053101 50.206491) scale(0.1 -0.1)">
       <defs>
        <path id="DejaVuSans-31" d="M 794 531 
L 1825 531 
L 1825 4091 
L 703 3866 
L 703 4441 
L 1819 4666 
L 2450 4666 
L 2450 531 
L 3481 531 
L 3481 0 
L 794 0 
L 794 531 
z
" transform="scale(0.015625)"/>
       </defs>
       <use xlink:href="#DejaVuSans-31"/>
      </g>
     </g>
    </g>
   </g>
   <g id="line2d_2">
    <path d="M 27.915601 125.803636 
L 35.586459 103.799994 
L 39.421888 93.340581 
L 43.257317 83.520094 
L 46.133888 76.690876 
L 49.01046 70.40577 
L 51.887031 64.73441 
L 53.804746 61.325802 
L 55.72246 58.234842 
L 57.640175 55.476757 
L 59.557889 53.065135 
L 61.475604 51.011856 
L 63.393318 49.327037 
L 65.311032 48.018976 
L 67.228747 47.094119 
L 69.146461 46.557022 
L 71.064176 46.41033 
L 72.98189 46.654766 
L 74.899605 47.289126 
L 76.817319 48.310286 
L 78.735033 49.713213 
L 80.652748 51.490997 
L 82.570462 53.63488 
L 84.488177 56.134299 
L 86.405891 58.976942 
L 88.323605 62.148804 
L 90.24132 65.63426 
L 93.117892 71.412467 
L 95.994463 77.793266 
L 98.871035 84.705965 
L 102.706464 94.617184 
L 106.541892 105.142202 
L 112.295036 121.625159 
L 121.883608 149.14271 
L 125.719037 159.533294 
L 129.554466 169.260026 
L 132.431037 176.00366 
L 135.307609 182.191135 
L 138.18418 187.753902 
L 140.101895 191.084612 
L 142.019609 194.093718 
L 143.937324 196.766396 
L 145.855038 199.089478 
L 147.772753 201.05152 
L 149.690467 202.642856 
L 151.608181 203.855646 
L 153.525896 204.683917 
L 155.44361 205.123586 
L 157.361325 205.172488 
L 159.279039 204.830383 
L 161.196753 204.098955 
L 163.114468 202.981808 
L 165.032182 201.484445 
L 166.949897 199.614244 
L 168.867611 197.380418 
L 170.785326 194.793971 
L 172.70304 191.867646 
L 174.620754 188.615859 
L 177.497326 183.163399 
L 180.373898 177.07546 
L 183.250469 170.419487 
L 186.127041 163.269222 
L 189.96247 153.104233 
L 194.756756 139.666903 
L 210.098471 95.903392 
L 213.9339 85.904495 
L 216.810472 78.910445 
L 219.687043 72.435917 
L 222.563615 66.552643 
L 225.440187 61.325802 
L 227.357901 58.234842 
L 229.275615 55.476757 
L 231.19333 53.065135 
L 233.111044 51.011856 
L 235.028759 49.327037 
L 236.946473 48.018976 
L 238.864188 47.094119 
L 240.781902 46.557022 
L 242.699616 46.41033 
L 244.617331 46.654766 
L 246.535045 47.289126 
L 248.45276 48.310286 
L 250.370474 49.713213 
L 252.288188 51.490997 
L 254.205903 53.63488 
L 256.123617 56.134299 
L 258.041332 58.976942 
L 259.959046 62.148804 
L 261.876761 65.63426 
L 264.753332 71.412467 
L 267.629904 77.793266 
L 270.506475 84.705965 
L 274.341904 94.617184 
L 278.177333 105.142202 
L 283.930476 121.625159 
L 293.519049 149.14271 
L 297.354477 159.533294 
L 301.189906 169.260026 
L 304.066478 176.00366 
L 306.943049 182.191135 
L 309.819621 187.753902 
L 311.737336 191.084612 
L 313.65505 194.093718 
L 315.572764 196.766396 
L 317.490479 199.089478 
L 319.408193 201.05152 
L 321.325908 202.642856 
L 323.243622 203.855646 
L 325.161336 204.683917 
L 327.079051 205.123586 
L 328.996765 205.172488 
L 330.91448 204.830383 
L 332.832194 204.098955 
L 334.749909 202.981808 
L 336.667623 201.484445 
L 338.585337 199.614244 
L 340.503052 197.380418 
L 342.420766 194.793971 
L 344.338481 191.867646 
L 346.256195 188.615859 
L 349.132767 183.163399 
L 352.009338 177.07546 
L 354.88591 170.419487 
L 357.762482 163.269222 
L 361.59791 153.104233 
L 366.392197 139.666903 
L 370.227625 128.590003 
L 370.227625 128.590003 
" clip-path="url(#paa1ce564f9)" style="fill: none; stroke: #0000ff; stroke-width: 2; stroke-linecap: square"/>
   </g>
   <g id="line2d_3">
    <defs>
     <path id="ma42a7df20a" d="M 3 0 
L -3 -3 
L -3 3 
z
" style="stroke: #000000; stroke-linejoin: miter"/>
    </defs>
    <g>
     <use xlink:href="#ma42a7df20a" x="387.343227" y="125.803636" style="stroke: #000000; stroke-linejoin: miter"/>
    </g>
   </g>
   <g id="line2d_4">
    <defs>
     <path id="m468945fbe7" d="M 0 -3 
L -3 3 
L 3 3 
z
" style="stroke: #000000; stroke-linejoin: miter"/>
    </defs>
    <g>
     <use xlink:href="#m468945fbe7" x="27.915601" y="30.528" style="stroke: #000000; stroke-linejoin: miter"/>
    </g>
   </g>
   <g id="patch_3">
    <path d="M 27.915601 205.2 
L 27.915601 30.528 
" style="fill: none; stroke: #000000; stroke-width: 2; stroke-linejoin: miter; stroke-linecap: square"/>
   </g>
   <g id="patch_4">
    <path d="M 10.8 125.803636 
L 387.343227 125.803636 
" style="fill: none; stroke: #000000; stroke-width: 2; stroke-linejoin: miter; stroke-linecap: square"/>
   </g>
   <g id="text_2">
    <!-- t / s -->
    <g transform="translate(395.561016 129.666761) scale(0.14 -0.14)">
     <defs>
      <path id="DejaVuSans-74" d="M 1172 4494 
L 1172 3500 
L 2356 3500 
L 2356 3053 
L 1172 3053 
L 1172 1153 
Q 1172 725 1289 603 
Q 1406 481 1766 481 
L 2356 481 
L 2356 0 
L 1766 0 
Q 1100 0 847 248 
Q 594 497 594 1153 
L 594 3053 
L 172 3053 
L 172 3500 
L 594 3500 
L 594 4494 
L 1172 4494 
z
" transform="scale(0.015625)"/>
      <path id="DejaVuSans-20" transform="scale(0.015625)"/>
      <path id="DejaVuSans-2f" d="M 1625 4666 
L 2156 4666 
L 531 -594 
L 0 -594 
L 1625 4666 
z
" transform="scale(0.015625)"/>
      <path id="DejaVuSans-73" d="M 2834 3397 
L 2834 2853 
Q 2591 2978 2328 3040 
Q 2066 3103 1784 3103 
Q 1356 3103 1142 2972 
Q 928 2841 928 2578 
Q 928 2378 1081 2264 
Q 1234 2150 1697 2047 
L 1894 2003 
Q 2506 1872 2764 1633 
Q 3022 1394 3022 966 
Q 3022 478 2636 193 
Q 2250 -91 1575 -91 
Q 1294 -91 989 -36 
Q 684 19 347 128 
L 347 722 
Q 666 556 975 473 
Q 1284 391 1588 391 
Q 1994 391 2212 530 
Q 2431 669 2431 922 
Q 2431 1156 2273 1281 
Q 2116 1406 1581 1522 
L 1381 1569 
Q 847 1681 609 1914 
Q 372 2147 372 2553 
Q 372 3047 722 3315 
Q 1072 3584 1716 3584 
Q 2034 3584 2315 3537 
Q 2597 3491 2834 3397 
z
" transform="scale(0.015625)"/>
     </defs>
     <use xlink:href="#DejaVuSans-74"/>
     <use xlink:href="#DejaVuSans-20" x="39.208984"/>
     <use xlink:href="#DejaVuSans-2f" x="70.996094"/>
     <use xlink:href="#DejaVuSans-20" x="104.6875"/>
     <use xlink:href="#DejaVuSans-73" x="136.474609"/>
    </g>
   </g>
   <g id="text_3">
    <!-- A -->
    <g transform="translate(23.127164 21.264728) scale(0.14 -0.14)">
     <defs>
      <path id="DejaVuSans-41" d="M 2188 4044 
L 1331 1722 
L 3047 1722 
L 2188 4044 
z
M 1831 4666 
L 2547 4666 
L 4325 0 
L 3669 0 
L 3244 1197 
L 1141 1197 
L 716 0 
L 50 0 
L 1831 4666 
z
" transform="scale(0.015625)"/>
     </defs>
     <use xlink:href="#DejaVuSans-41"/>
    </g>
   </g>
  </g>
 </g>
 <defs>
  <clipPath id="paa1ce564f9">
   <rect x="10.8" y="30.528" width="376.543227" height="174.672"/>
  </clipPath>
 </defs>
</svg>
