<?xml version="1.0" encoding="utf-8" standalone="no"?>
<!DOCTYPE svg PUBLIC "-//W3C//DTD SVG 1.1//EN"
  "http://www.w3.org/Graphics/SVG/1.1/DTD/svg11.dtd">
<svg xmlns:xlink="http://www.w3.org/1999/xlink" width="432pt" height="216pt" viewBox="0 0 432 216" xmlns="http://www.w3.org/2000/svg" version="1.1">
 <metadata>
  <rdf:RDF xmlns:dc="http://purl.org/dc/elements/1.1/" xmlns:cc="http://creativecommons.org/ns#" xmlns:rdf="http://www.w3.org/1999/02/22-rdf-syntax-ns#">
   <cc:Work>
    <dc:type rdf:resource="http://purl.org/dc/dcmitype/StillImage"/>
    <dc:date>2025-10-21T17:25:25.519816</dc:date>
    <dc:format>image/svg+xml</dc:format>
    <dc:creator>
     <cc:Agent>
      <dc:title>Matplotlib v3.9.4, https://matplotlib.org/</dc:title>
     </cc:Agent>
    </dc:creator>
   </cc:Work>
  </rdf:RDF>
 </metadata>
 <defs>
  <style type="text/css">*{stroke-linejoin: round; stroke-linecap: butt}</style>
 </defs>
 <g id="figure_1">
  <g id="patch_1">
   <path d="M 0 216 
L 432 216 
L 432 0 
L 0 0 
L 0 216 
z
" style="fill: none"/>
  </g>
  <g id="axes_1">
   <g id="patch_2">
    <path d="M 10.8 205.2 
L 356.603942 205.2 
L 356.603942 30.528 
L 10.8 30.528 
L 10.8 205.2 
z
" style="fill: none"/>
   </g>
   <g id="matplotlib.axis_1"/>
   <g id="matplotlib.axis_2">
    <g id="ytick_1">
     <g id="line2d_1">
      <defs>
       <path id="m69aa356b78" d="M 4 0 
L -4 -0 
" style="stroke: #000000; stroke-width: 2"/>
      </defs>
      <g>
       <use xlink:href="#m69aa356b78" x="26.518361" y="46.407273" style="stroke: #000000; stroke-width: 2"/>
      </g>
     </g>
     <g id="text_1">
      <!-- 1 -->
      <g transform="translate(12.655861 50.206491) scale(0.1 -0.1)">
       <defs>
        <path id="DejaVuSans-31" d="M 794 531 
L 1825 531 
L 1825 4091 
L 703 3866 
L 703 4441 
L 1819 4666 
L 2450 4666 
L 2450 531 
L 3481 531 
L 3481 0 
L 794 0 
L 794 531 
z
" transform="scale(0.015625)"/>
       </defs>
       <use xlink:href="#DejaVuSans-31"/>
      </g>
     </g>
    </g>
   </g>
   <g id="line2d_2">
    <path d="M 26.518361 125.803636 
L 63.597718 125.803636 
L 63.711775 65.786853 
L 63.736725 65.411919 
L 63.786625 66.753207 
L 63.850783 77.624679 
L 63.900683 134.906416 
L 64.036126 185.953532 
L 64.057512 186.202667 
L 64.100283 185.168039 
L 64.157312 177.934173 
L 64.214341 135.133644 
L 64.34622 65.907356 
L 64.378298 65.411075 
L 64.424634 66.68634 
L 64.492356 78.570168 
L 64.54582 146.039594 
L 64.684828 186.109221 
L 64.69552 186.198483 
L 64.738292 185.221148 
L 64.798885 177.262813 
L 64.852349 137.408054 
L 64.987793 65.843757 
L 65.016307 65.405003 
L 65.066207 66.871547 
L 65.1268 76.920676 
L 65.1767 129.096873 
L 65.308579 185.799778 
L 65.337093 186.192628 
L 65.383429 184.897279 
L 65.451151 172.907437 
L 65.504615 105.031915 
L 65.643623 65.493495 
L 65.654316 65.40643 
L 65.697087 66.406038 
L 65.75768 74.443956 
L 65.811145 114.979759 
L 65.943024 185.679102 
L 65.975102 186.200842 
L 66.021438 184.959752 
L 66.08916 173.259397 
L 66.13906 112.288571 
L 66.278067 65.53332 
L 66.292324 65.414645 
L 66.324403 65.896991 
L 66.392125 73.3136 
L 66.449153 112.947551 
L 66.584597 185.749637 
L 66.613111 186.20227 
L 66.663011 184.778382 
L 66.723604 174.904668 
L 66.773504 124.59446 
L 66.901819 65.915849 
L 66.933897 65.40879 
L 66.980233 66.669267 
L 67.047955 78.474316 
L 67.101419 145.63466 
L 67.240427 186.106342 
L 67.25112 186.196198 
L 67.293891 185.2364 
L 67.354484 177.336104 
L 67.407949 137.961235 
L 67.543392 65.849849 
L 67.571906 65.404605 
L 67.621806 66.853511 
L 67.682399 76.826456 
L 67.732299 128.211276 
L 67.860614 185.702608 
L 67.892693 186.195354 
L 67.939029 184.915109 
L 68.00675 173.004907 
L 68.060215 105.43322 
L 68.199222 65.496989 
L 68.209915 65.40812 
L 68.252686 66.391155 
L 68.313279 74.369155 
L 68.366744 114.389615 
L 68.498623 185.66912 
L 68.530701 186.202007 
L 68.577037 184.97525 
L 68.644759 173.353551 
L 68.694659 112.779335 
L 68.833666 65.538479 
L 68.851488 65.415605 
L 68.883567 66.032702 
L 68.94416 72.411121 
L 69.004753 112.449942 
L 69.14376 185.849165 
L 69.16871 186.201292 
L 69.215046 185.026222 
L 69.282768 173.697878 
L 69.332668 114.779826 
L 69.468111 65.643604 
L 69.489497 65.406938 
L 69.532268 66.478274 
L 69.592861 74.853835 
L 69.646326 118.643019 
L 69.77464 185.58277 
L 69.806719 186.193565 
L 69.860183 184.626606 
L 69.920776 174.046412 
L 69.970676 117.16578 
L 70.10612 65.655982 
L 70.127505 65.404804 
L 70.170277 66.429994 
L 70.227306 73.63255 
L 70.284334 116.02963 
L 70.416213 185.694325 
L 70.448292 186.197765 
L 70.494628 184.932384 
L 70.562349 173.10112 
L 70.615814 105.83741 
L 70.754821 65.500022 
L 70.765514 65.41027 
L 70.808286 66.37598 
L 70.868879 74.295461 
L 70.922343 113.827503 
L 71.057786 185.759424 
L 71.086301 186.202601 
L 71.136201 184.747704 
L 71.196794 174.749524 
L 71.246694 123.099276 
L 71.378573 65.812978 
L 71.407087 65.412797 
L 71.453423 66.69805 
L 71.521145 78.634704 
L 71.574609 146.308191 
L 71.713617 186.111398 
L 71.724309 186.199771 
L 71.767081 185.21112 
L 71.827674 177.213299 
L 71.881138 137.024142 
L 72.013017 65.934757 
L 72.045096 65.405592 
L 72.091432 66.63711 
L 72.159153 78.285061 
L 72.209053 138.993775 
L 72.348061 186.070578 
L 72.365882 186.190687 
L 72.397961 185.5705 
L 72.458554 179.176402 
L 72.519147 138.993775 
L 72.658155 65.75486 
L 72.683105 65.405592 
L 72.72944 66.585338 
L 72.797162 77.940794 
L 72.847062 137.024142 
L 72.982505 185.96488 
L 73.003891 186.199771 
L 73.046663 185.124901 
L 73.107256 176.727626 
L 73.16072 132.706398 
L 73.289035 66.020381 
L 73.321113 65.412797 
L 73.374578 66.985728 
L 73.435171 77.592793 
L 73.485071 134.675697 
L 73.620514 185.952418 
L 73.6419 186.202601 
L 73.684671 185.172633 
L 73.7417 177.954488 
L 73.798729 135.357383 
L 73.930608 65.910117 
L 73.962686 65.41027 
L 74.009022 66.680581 
L 74.076744 78.5381 
L 74.130208 145.904852 
L 74.269216 186.10821 
L 74.279909 186.197765 
L 74.32268 185.226208 
L 74.383273 177.28738 
L 74.436738 137.595401 
L 74.572181 65.845819 
L 74.600695 65.404804 
L 74.650595 66.865581 
L 74.711188 76.889158 
L 74.761088 128.803246 
L 74.892967 185.797012 
L 74.921482 186.193565 
L 74.967818 184.903279 
L 75.035539 172.940082 
L 75.089004 105.1653 
L 75.228011 65.49471 
L 75.238704 65.406938 
L 75.281475 66.401115 
L 75.342068 74.418909 
L 75.395533 114.779826 
L 75.527412 185.675843 
L 75.55949 186.201292 
L 75.605826 184.964997 
L 75.673548 173.29083 
L 75.723448 112.449942 
L 75.862455 65.534975 
L 75.876713 65.415605 
L 75.912356 66.040818 
L 75.969384 71.734773 
L 76.026413 101.70248 
L 76.190371 186.173951 
L 76.193935 186.170856 
L 76.197499 186.202007 
L 76.229578 185.66912 
L 76.297299 178.014985 
L 76.354328 136.00779 
L 76.486207 65.918822 
L 76.518286 65.40812 
L 76.564621 66.663718 
L 76.5967 69.751332 
L 76.710758 125.803636 
L 80.927318 125.803636 
L 80.991475 65.411919 
L 81.041376 66.939179 
L 81.101969 77.30421 
L 81.151869 132.445357 
L 81.283748 185.836216 
L 81.308698 186.199152 
L 81.358598 184.822461 
L 81.422755 173.823918 
L 81.472655 115.599483 
L 81.608098 65.648215 
L 81.629484 65.405266 
L 81.672256 66.461425 
L 81.729284 73.776111 
L 81.786313 117.644591 
L 81.914628 185.566455 
L 81.950271 186.191667 
L 82.000171 184.647081 
L 82.060764 174.174536 
L 82.110664 118.137104 
L 82.246107 65.660703 
L 82.267493 65.405981 
L 82.310264 66.410921 
L 82.370857 74.469106 
L 82.424322 115.182983 
L 82.556201 185.682289 
L 82.588279 186.200335 
L 82.634615 184.954429 
L 82.702337 173.227903 
L 82.752237 112.129287 
L 82.891244 65.531732 
L 82.905502 65.413707 
L 82.93758 65.899484 
L 83.005302 73.333542 
L 83.062331 113.118239 
L 83.197774 185.751559 
L 83.226288 186.202468 
L 83.276188 184.772174 
L 83.336781 174.873918 
L 83.386681 124.293427 
L 83.514996 65.912947 
L 83.547075 65.409507 
L 83.59341 66.674889 
L 83.661132 78.506153 
L 83.714596 145.769863 
L 83.853604 186.107251 
L 83.864297 186.197003 
L 83.907068 185.231293 
L 83.967661 177.311811 
L 84.021126 137.779769 
L 84.156569 65.847848 
L 84.185083 65.404672 
L 84.234983 66.859569 
L 84.295576 76.857749 
L 84.345477 128.507997 
L 84.477356 185.794295 
L 84.50587 186.194475 
L 84.552206 184.909223 
L 84.619927 172.972569 
L 84.673392 105.299081 
L 84.812399 65.495875 
L 84.823092 65.407502 
L 84.865864 66.396153 
L 84.926457 74.393973 
L 84.979921 114.58313 
L 85.1118 185.672515 
L 85.143879 186.20168 
L 85.190214 184.970163 
L 85.257936 173.322212 
L 85.307836 112.613497 
L 85.446844 65.536695 
L 85.464665 65.416586 
L 85.496744 66.036772 
L 85.557337 72.430871 
L 85.61793 112.613497 
L 85.756937 185.852412 
L 85.781887 186.20168 
L 85.828223 185.021935 
L 85.895945 173.666478 
L 85.945845 114.58313 
L 86.081288 65.642392 
L 86.102674 65.407502 
L 86.145445 66.482372 
L 86.206038 74.879647 
L 86.259503 118.900875 
L 86.387817 185.586891 
L 86.419896 186.194475 
L 86.47336 184.621545 
L 86.533953 174.01448 
L 86.583854 116.931576 
L 86.719297 65.654855 
L 86.740683 65.404672 
L 86.783454 66.43464 
L 86.840483 73.652785 
L 86.897512 116.24989 
L 87.02939 185.697156 
L 87.061469 186.197003 
L 87.107805 184.926692 
L 87.175527 173.069173 
L 87.228991 105.702421 
L 87.367998 65.499062 
L 87.378691 65.409507 
L 87.421463 66.381065 
L 87.482056 74.319893 
L 87.53552 114.011872 
L 87.670963 185.761454 
L 87.699478 186.202468 
L 87.749378 184.741692 
L 87.809971 174.718115 
L 87.859871 122.804027 
L 87.99175 65.810261 
L 88.020264 65.413707 
L 88.0666 66.703994 
L 88.134322 78.667191 
L 88.187786 146.441972 
L 88.326794 186.112562 
L 88.337487 186.200335 
L 88.380258 185.206158 
L 88.440851 177.188364 
L 88.494316 136.827447 
L 88.626194 65.931429 
L 88.658273 65.405981 
L 88.704609 66.642276 
L 88.77233 78.316443 
L 88.822231 139.157331 
L 88.961238 186.072298 
L 88.975495 186.191667 
L 89.011138 185.566455 
L 89.068167 179.8725 
L 89.125196 149.904793 
L 89.289153 65.433321 
L 89.292718 65.436416 
L 89.296282 65.405266 
L 89.32836 65.938153 
L 89.396082 73.592288 
L 89.453111 115.599483 
L 89.58499 185.688451 
L 89.617068 186.199152 
L 89.663404 184.943555 
L 89.731126 173.164693 
L 89.78459 106.107997 
L 89.923598 65.501789 
L 89.934291 65.411919 
L 89.977062 66.365747 
L 90.037655 74.24702 
L 90.091119 113.467394 
L 90.226563 185.755448 
L 90.255077 186.202667 
L 90.304977 184.75986 
L 90.36557 174.811985 
L 90.41547 123.694034 
L 90.543785 65.907356 
L 90.575864 65.411075 
L 90.622199 66.68634 
L 90.689921 78.570168 
L 90.743385 146.039594 
L 90.882393 186.109221 
L 90.893086 186.198483 
L 90.935857 185.221148 
L 90.99645 177.262813 
L 91.049915 137.408054 
L 91.185358 65.843757 
L 91.213872 65.405003 
L 91.263772 66.871547 
L 91.324365 76.920676 
L 91.374266 129.096873 
L 91.506144 185.799778 
L 91.534659 186.192628 
L 91.580995 184.897279 
L 91.648716 172.907437 
L 91.702181 105.031915 
L 91.841188 65.493495 
L 91.851881 65.40643 
L 91.894653 66.406038 
L 91.955246 74.443956 
L 92.00871 114.979759 
L 92.140589 185.679102 
L 92.172668 186.200842 
L 92.219003 184.959752 
L 92.286725 173.259397 
L 92.336625 112.288571 
L 92.475633 65.53332 
L 92.48989 65.414645 
L 92.521968 65.896991 
L 92.58969 73.3136 
L 92.646719 112.947551 
L 92.782162 185.749637 
L 92.810676 186.20227 
L 92.860576 184.778382 
L 92.921169 174.904668 
L 92.97107 124.59446 
L 93.099384 65.915849 
L 93.131463 65.40879 
L 93.177799 66.669267 
L 93.24552 78.474316 
L 93.298985 145.63466 
L 93.437992 186.106342 
L 93.448685 186.196198 
L 93.491457 185.2364 
L 93.55205 177.336104 
L 93.605514 137.961235 
L 93.740957 65.849849 
L 93.769472 65.404605 
L 93.819372 66.853511 
L 93.879965 76.826456 
L 94.122337 125.803636 
L 98.256918 125.803636 
L 98.260483 65.595543 
L 98.367412 83.074656 
L 98.563448 186.190687 
L 98.645427 181.171981 
L 98.70602 153.983299 
L 98.88067 65.405592 
L 98.894927 65.511805 
L 98.944827 67.91269 
L 99.008985 84.584336 
L 99.201457 186.199771 
L 99.279871 181.869494 
L 99.344028 154.993495 
L 99.518679 65.412797 
L 99.5365 65.544197 
L 99.597093 69.418536 
L 99.661251 94.29235 
L 99.839465 186.202601 
L 99.857287 186.028679 
L 99.910751 182.915787 
L 99.974908 162.10189 
L 100.160252 65.41027 
L 100.206588 66.680581 
L 100.274309 78.5381 
L 100.327774 145.904852 
L 100.466781 186.10821 
L 100.477474 186.197765 
L 100.520246 185.226208 
L 100.580839 177.28738 
L 100.634303 137.595401 
L 100.769746 65.845819 
L 100.79826 65.404804 
L 100.848161 66.865581 
L 100.908754 76.889158 
L 100.958654 128.803246 
L 101.090533 185.797012 
L 101.119047 186.193565 
L 101.165383 184.903279 
L 101.233104 172.940082 
L 101.286569 105.1653 
L 101.425576 65.49471 
L 101.436269 65.406938 
L 101.479041 66.401115 
L 101.539634 74.418909 
L 101.593098 114.779826 
L 101.724977 185.675843 
L 101.757056 186.201292 
L 101.803392 184.964997 
L 101.871113 173.29083 
L 101.921013 112.449942 
L 102.060021 65.534975 
L 102.074278 65.415605 
L 102.109921 66.040818 
L 102.16695 71.734773 
L 102.223978 101.70248 
L 102.387936 186.173951 
L 102.3915 186.170856 
L 102.395064 186.202007 
L 102.427143 185.66912 
L 102.494865 178.014985 
L 102.551893 136.00779 
L 102.683772 65.918822 
L 102.715851 65.40812 
L 102.762187 66.663718 
L 102.829908 78.44258 
L 102.883373 145.499276 
L 103.02238 186.105483 
L 103.033073 186.195354 
L 103.075845 185.241526 
L 103.136438 177.360252 
L 103.189902 138.139879 
L 103.325345 65.851825 
L 103.35386 65.404605 
L 103.40376 66.847412 
L 103.464353 76.795288 
L 103.514253 127.913239 
L 103.642568 185.699916 
L 103.674646 186.196198 
L 103.720982 184.920933 
L 103.788704 173.037105 
L 103.842168 105.567679 
L 103.981176 65.498051 
L 103.991868 65.40879 
L 104.03464 66.386124 
L 104.095233 74.344459 
L 104.148697 114.199218 
L 104.284141 185.763516 
L 104.312655 186.20227 
L 104.362555 184.735725 
L 104.423148 174.686597 
L 104.473048 122.5104 
L 104.604927 65.807495 
L 104.633441 65.414645 
L 104.679777 66.709994 
L 104.747499 78.699836 
L 104.800963 146.575358 
L 104.939971 186.113777 
L 104.950664 186.200842 
L 104.993435 185.201234 
L 105.054028 177.163317 
L 105.107493 136.627514 
L 105.239372 65.928171 
L 105.27145 65.40643 
L 105.317786 66.647521 
L 105.385508 78.347875 
L 105.435408 139.318702 
L 105.574415 186.073952 
L 105.588672 186.192628 
L 105.620751 185.710282 
L 105.688473 178.293672 
L 105.745501 138.659722 
L 105.880945 65.857635 
L 105.909459 65.405003 
L 105.959359 66.828891 
L 106.019952 76.702605 
L 106.069852 127.012813 
L 106.198167 185.691424 
L 106.230245 186.198483 
L 106.276581 184.938005 
L 106.344303 173.132957 
L 106.397767 105.972613 
L 106.536775 65.500931 
L 106.547468 65.411075 
L 106.590239 66.370872 
L 106.650832 74.271169 
L 106.704297 113.646037 
L 106.83974 185.757424 
L 106.868254 186.202667 
L 106.918154 184.753761 
L 106.978747 174.780817 
L 107.028647 123.395996 
L 107.156962 65.904665 
L 107.189041 65.411919 
L 107.235377 66.692164 
L 107.303098 78.602366 
L 107.356563 146.174053 
L 107.49557 186.110284 
L 107.506263 186.199152 
L 107.549034 185.216118 
L 107.609627 177.238118 
L 107.663092 137.217657 
L 107.794971 65.938153 
L 107.827049 65.405266 
L 107.873385 66.632023 
L 107.941107 78.253722 
L 107.991007 138.827937 
L 108.130014 186.068794 
L 108.147836 186.191667 
L 108.179915 185.574571 
L 108.240508 179.196151 
L 108.301101 139.157331 
L 108.440108 65.758108 
L 108.465058 65.405981 
L 108.511394 66.581051 
L 108.579116 77.909395 
L 108.629016 136.827447 
L 108.764459 185.963669 
L 108.785845 186.200335 
L 108.828616 185.128999 
L 108.889209 176.753438 
L 108.942674 132.964254 
L 109.070988 66.024503 
L 109.103067 65.413707 
L 109.156531 66.980667 
L 109.217124 77.56086 
L 109.267024 134.441492 
L 109.402468 185.951291 
L 109.423853 186.202468 
L 109.466625 185.177279 
L 109.523654 177.974723 
L 109.580682 135.577642 
L 109.712561 65.912947 
L 109.74464 65.409507 
L 109.790976 66.674889 
L 109.858697 78.506153 
L 109.912162 145.769863 
L 110.051169 186.107251 
L 110.061862 186.197003 
L 110.104634 185.231293 
L 110.165227 177.311811 
L 110.218691 137.779769 
L 110.354134 65.847848 
L 110.382649 65.404672 
L 110.432549 66.859569 
L 110.493142 76.857749 
L 110.543042 128.507997 
L 110.674921 185.794295 
L 110.703435 186.194475 
L 110.749771 184.909223 
L 110.817493 172.972569 
L 110.870957 105.299081 
L 111.009965 65.495875 
L 111.020657 65.407502 
L 111.063429 66.396153 
L 111.124022 74.393973 
L 111.177486 114.58313 
L 111.255901 180.972187 
L 111.291544 125.803636 
L 115.586519 125.803636 
L 115.590083 72.758763 
L 115.693448 170.90706 
L 115.814634 186.199152 
L 115.836019 185.941318 
L 115.896612 181.299907 
L 115.957205 154.90161 
L 116.131856 65.411919 
L 116.149677 65.546219 
L 116.21027 69.429541 
L 116.274428 94.377002 
L 116.452642 186.202667 
L 116.470464 186.026228 
L 116.523928 182.904884 
L 116.588086 162.034349 
L 116.773429 65.411075 
L 116.819765 66.68634 
L 116.887486 78.570168 
L 116.940951 146.039594 
L 117.079958 186.109221 
L 117.090651 186.198483 
L 117.133423 185.221148 
L 117.194016 177.262813 
L 117.24748 137.408054 
L 117.382923 65.843757 
L 117.411438 65.405003 
L 117.461338 66.871547 
L 117.521931 76.920676 
L 117.571831 129.096873 
L 117.70371 185.799778 
L 117.732224 186.192628 
L 117.77856 184.897279 
L 117.846282 172.907437 
L 117.899746 105.031915 
L 118.038753 65.493495 
L 118.049446 65.40643 
L 118.092218 66.406038 
L 118.152811 74.443956 
L 118.206275 114.979759 
L 118.338154 185.679102 
L 118.370233 186.200842 
L 118.416569 184.959752 
L 118.48429 173.259397 
L 118.53419 112.288571 
L 118.673198 65.53332 
L 118.687455 65.414645 
L 118.719534 65.896991 
L 118.787255 73.3136 
L 118.844284 112.947551 
L 118.979727 185.749637 
L 119.008242 186.20227 
L 119.058142 184.778382 
L 119.118735 174.904668 
L 119.168635 124.59446 
L 119.296949 65.915849 
L 119.329028 65.40879 
L 119.375364 66.669267 
L 119.443086 78.474316 
L 119.49655 145.63466 
L 119.635557 186.106342 
L 119.64625 186.196198 
L 119.689022 185.2364 
L 119.749615 177.336104 
L 119.803079 137.961235 
L 119.938522 65.849849 
L 119.967037 65.404605 
L 120.016937 66.853511 
L 120.07753 76.826456 
L 120.12743 128.211276 
L 120.255745 185.702608 
L 120.287823 186.195354 
L 120.334159 184.915109 
L 120.401881 173.004907 
L 120.455345 105.43322 
L 120.594353 65.496989 
L 120.605046 65.40812 
L 120.647817 66.391155 
L 120.70841 74.369155 
L 120.761875 114.389615 
L 120.893753 185.66912 
L 120.925832 186.202007 
L 120.972168 184.97525 
L 121.03989 173.353551 
L 121.08979 112.779335 
L 121.228797 65.538479 
L 121.246619 65.415605 
L 121.278697 66.032702 
L 121.33929 72.411121 
L 121.399883 112.449942 
L 121.538891 185.849165 
L 121.563841 186.201292 
L 121.610177 185.026222 
L 121.677898 173.697878 
L 121.727798 114.779826 
L 121.863242 65.643604 
L 121.884627 65.406938 
L 121.927399 66.478274 
L 121.987992 74.853835 
L 122.041456 118.643019 
L 122.169771 185.58277 
L 122.20185 186.193565 
L 122.255314 184.626606 
L 122.315907 174.046412 
L 122.365807 117.16578 
L 122.50125 65.655982 
L 122.522636 65.404804 
L 122.565408 66.429994 
L 122.622436 73.63255 
L 122.679465 116.02963 
L 122.811344 185.694325 
L 122.843423 186.197765 
L 122.889758 184.932384 
L 122.95748 173.10112 
L 123.010944 105.83741 
L 123.149952 65.500022 
L 123.160645 65.41027 
L 123.203416 66.37598 
L 123.264009 74.295461 
L 123.317474 113.827503 
L 123.452917 185.759424 
L 123.481431 186.202601 
L 123.531331 184.747704 
L 123.591924 174.749524 
L 123.641825 123.099276 
L 123.773703 65.812978 
L 123.802218 65.412797 
L 123.848554 66.69805 
L 123.916275 78.634704 
L 123.96974 146.308191 
L 124.108747 186.111398 
L 124.11944 186.199771 
L 124.162212 185.21112 
L 124.222805 177.213299 
L 124.276269 137.024142 
L 124.408148 65.934757 
L 124.440227 65.405592 
L 124.486562 66.63711 
L 124.554284 78.285061 
L 124.604184 138.993775 
L 124.743192 186.070578 
L 124.761013 186.190687 
L 124.793092 185.5705 
L 124.853685 179.176402 
L 124.914278 138.993775 
L 125.053285 65.75486 
L 125.078235 65.405592 
L 125.124571 66.585338 
L 125.192293 77.940794 
L 125.242193 137.024142 
L 125.377636 185.96488 
L 125.399022 186.199771 
L 125.441793 185.124901 
L 125.502386 176.727626 
L 125.555851 132.706398 
L 125.684165 66.020381 
L 125.716244 65.412797 
L 125.769708 66.985728 
L 125.830301 77.592793 
L 125.880202 134.675697 
L 126.015645 185.952418 
L 126.037031 186.202601 
L 126.079802 185.172633 
L 126.136831 177.954488 
L 126.19386 135.357383 
L 126.325738 65.910117 
L 126.357817 65.41027 
L 126.404153 66.680581 
L 126.471875 78.5381 
L 126.525339 145.904852 
L 126.664346 186.10821 
L 126.675039 186.197765 
L 126.717811 185.226208 
L 126.778404 177.28738 
L 126.831868 137.595401 
L 126.967311 65.845819 
L 126.995826 65.404804 
L 127.045726 66.865581 
L 127.106319 76.889158 
L 127.156219 128.803246 
L 127.288098 185.797012 
L 127.316612 186.193565 
L 127.362948 184.903279 
L 127.43067 172.940082 
L 127.484134 105.1653 
L 127.623142 65.49471 
L 127.633835 65.406938 
L 127.676606 66.401115 
L 127.737199 74.418909 
L 127.790664 114.779826 
L 127.922542 185.675843 
L 127.954621 186.201292 
L 128.000957 184.964997 
L 128.068678 173.29083 
L 128.118579 112.449942 
L 128.257586 65.534975 
L 128.271843 65.415605 
L 128.307486 66.040818 
L 128.364515 71.734773 
L 128.421544 101.70248 
L 128.585501 186.173951 
L 128.699559 125.803636 
L 132.916119 125.803636 
L 133.033741 185.654889 
L 133.06582 186.202667 
L 133.112155 184.994814 
L 133.179877 173.478668 
L 133.229777 113.467394 
L 133.368785 65.546219 
L 133.386606 65.411919 
L 133.422249 66.156349 
L 133.482842 73.17288 
L 133.539871 111.816582 
L 133.678878 185.836216 
L 133.703828 186.199152 
L 133.753728 184.822461 
L 133.817886 173.823918 
L 133.867786 115.599483 
L 134.003229 65.648215 
L 134.024615 65.405266 
L 134.067386 66.461425 
L 134.124415 73.776111 
L 134.181444 117.644591 
L 134.309758 185.566455 
L 134.345401 186.191667 
L 134.395301 184.647081 
L 134.455894 174.174536 
L 134.505795 118.137104 
L 134.641238 65.660703 
L 134.662623 65.405981 
L 134.705395 66.410921 
L 134.765988 74.469106 
L 134.819452 115.182983 
L 134.951331 185.682289 
L 134.98341 186.200335 
L 135.029746 184.954429 
L 135.097467 173.227903 
L 135.147368 112.129287 
L 135.286375 65.531732 
L 135.300632 65.413707 
L 135.332711 65.899484 
L 135.400432 73.333542 
L 135.457461 113.118239 
L 135.592904 185.751559 
L 135.621419 186.202468 
L 135.671319 184.772174 
L 135.731912 174.873918 
L 135.781812 124.293427 
L 135.910127 65.912947 
L 135.942205 65.409507 
L 135.988541 66.674889 
L 136.056263 78.506153 
L 136.109727 145.769863 
L 136.248735 186.107251 
L 136.259427 186.197003 
L 136.302199 185.231293 
L 136.362792 177.311811 
L 136.416256 137.779769 
L 136.5517 65.847848 
L 136.580214 65.404672 
L 136.630114 66.859569 
L 136.690707 76.857749 
L 136.740607 128.507997 
L 136.872486 185.794295 
L 136.901001 186.194475 
L 136.947336 184.909223 
L 137.015058 172.972569 
L 137.068522 105.299081 
L 137.20753 65.495875 
L 137.218223 65.407502 
L 137.260994 66.396153 
L 137.321587 74.393973 
L 137.375052 114.58313 
L 137.506931 185.672515 
L 137.539009 186.20168 
L 137.585345 184.970163 
L 137.653067 173.322212 
L 137.702967 112.613497 
L 137.841974 65.536695 
L 137.859796 65.416586 
L 137.891874 66.036772 
L 137.952467 72.430871 
L 138.01306 112.613497 
L 138.152068 185.852412 
L 138.177018 186.20168 
L 138.223354 185.021935 
L 138.291075 173.666478 
L 138.340976 114.58313 
L 138.476419 65.642392 
L 138.497804 65.407502 
L 138.540576 66.482372 
L 138.601169 74.879647 
L 138.654633 118.900875 
L 138.782948 185.586891 
L 138.815027 186.194475 
L 138.868491 184.621545 
L 138.929084 174.01448 
L 138.978984 116.931576 
L 139.114427 65.654855 
L 139.135813 65.404672 
L 139.178585 66.43464 
L 139.235613 73.652785 
L 139.292642 116.24989 
L 139.424521 185.697156 
L 139.4566 186.197003 
L 139.502936 184.926692 
L 139.570657 173.069173 
L 139.624122 105.702421 
L 139.763129 65.499062 
L 139.773822 65.409507 
L 139.816593 66.381065 
L 139.877186 74.319893 
L 139.930651 114.011872 
L 140.066094 185.761454 
L 140.094608 186.202468 
L 140.144509 184.741692 
L 140.205102 174.718115 
L 140.255002 122.804027 
L 140.386881 65.810261 
L 140.415395 65.413707 
L 140.461731 66.703994 
L 140.529452 78.667191 
L 140.582917 146.441972 
L 140.721924 186.112562 
L 140.732617 186.200335 
L 140.775389 185.206158 
L 140.835982 177.188364 
L 140.889446 136.827447 
L 141.021325 65.931429 
L 141.053404 65.405981 
L 141.09974 66.642276 
L 141.167461 78.316443 
L 141.217361 139.157331 
L 141.356369 186.072298 
L 141.370626 186.191667 
L 141.406269 185.566455 
L 141.463298 179.8725 
L 141.520326 149.904793 
L 141.684284 65.433321 
L 141.687848 65.436416 
L 141.691412 65.405266 
L 141.723491 65.938153 
L 141.791213 73.592288 
L 141.848241 115.599483 
L 141.98012 185.688451 
L 142.012199 186.199152 
L 142.058535 184.943555 
L 142.126256 173.164693 
L 142.179721 106.107997 
L 142.318728 65.501789 
L 142.329421 65.411919 
L 142.372193 66.365747 
L 142.432786 74.24702 
L 142.48625 113.467394 
L 142.621693 185.755448 
L 142.650208 186.202667 
L 142.700108 184.75986 
L 142.760701 174.811985 
L 142.810601 123.694034 
L 142.938916 65.907356 
L 142.970994 65.411075 
L 143.01733 66.68634 
L 143.085052 78.570168 
L 143.138516 146.039594 
L 143.277524 186.109221 
L 143.288216 186.198483 
L 143.330988 185.221148 
L 143.391581 177.262813 
L 143.445045 137.408054 
L 143.580489 65.843757 
L 143.609003 65.405003 
L 143.658903 66.871547 
L 143.719496 76.920676 
L 143.769396 129.096873 
L 143.901275 185.799778 
L 143.929789 186.192628 
L 143.976125 184.897279 
L 144.043847 172.907437 
L 144.097311 105.031915 
L 144.236319 65.493495 
L 144.247012 65.40643 
L 144.289783 66.406038 
L 144.350376 74.443956 
L 144.403841 114.979759 
L 144.53572 185.679102 
L 144.567798 186.200842 
L 144.614134 184.959752 
L 144.681856 173.259397 
L 144.731756 112.288571 
L 144.870763 65.53332 
L 144.88502 65.414645 
L 144.917099 65.896991 
L 144.984821 73.3136 
L 145.041849 112.947551 
L 145.177293 185.749637 
L 145.205807 186.20227 
L 145.255707 184.778382 
L 145.3163 174.904668 
L 145.3662 124.59446 
L 145.494515 65.915849 
L 145.526593 65.40879 
L 145.572929 66.669267 
L 145.640651 78.474316 
L 145.694115 145.63466 
L 145.833123 186.106342 
L 145.843816 186.196198 
L 145.886587 185.2364 
L 145.94718 177.336104 
L 146.000645 137.961235 
L 146.136088 65.849849 
L 146.164602 65.404605 
L 146.214502 66.853511 
L 146.275095 76.826456 
L 146.324995 128.211276 
L 146.45331 185.702608 
L 146.485389 186.195354 
L 146.531725 184.915109 
L 146.599446 173.004907 
L 146.652911 105.43322 
L 146.791918 65.496989 
L 146.802611 65.40812 
L 146.845382 66.391155 
L 146.905975 74.369155 
L 146.95944 114.389615 
L 147.091319 185.66912 
L 147.123397 186.202007 
L 147.169733 184.97525 
L 147.237455 173.353551 
L 147.287355 112.779335 
L 147.426362 65.538479 
L 147.444184 65.415605 
L 147.476263 66.032702 
L 147.536856 72.411121 
L 147.597449 112.449942 
L 147.736456 185.849165 
L 147.761406 186.201292 
L 147.807742 185.026222 
L 147.875464 173.697878 
L 147.925364 114.779826 
L 148.060807 65.643604 
L 148.082193 65.406938 
L 148.124964 66.478274 
L 148.185557 74.853835 
L 148.239022 118.643019 
L 148.367336 185.58277 
L 148.399415 186.193565 
L 148.452879 184.626606 
L 148.513472 174.046412 
L 148.563372 117.16578 
L 148.698816 65.655982 
L 148.720201 65.404804 
L 148.762973 66.429994 
L 148.820002 73.63255 
L 148.87703 116.02963 
L 149.008909 185.694325 
L 149.040988 186.197765 
L 149.087324 184.932384 
L 149.155045 173.10112 
L 149.20851 105.83741 
L 149.347517 65.500022 
L 149.35821 65.41027 
L 149.400982 66.37598 
L 149.461575 74.295461 
L 149.515039 113.827503 
L 149.650482 185.759424 
L 149.678997 186.202601 
L 149.728897 184.747704 
L 149.78949 174.749524 
L 149.83939 123.099276 
L 149.971269 65.812978 
L 149.999783 65.412797 
L 150.046119 66.69805 
L 150.113841 78.634704 
L 150.167305 146.308191 
L 150.306313 186.111398 
L 150.317005 186.199771 
L 150.359777 185.21112 
L 150.42037 177.213299 
L 150.473834 137.024142 
L 150.605713 65.934757 
L 150.637792 65.405592 
L 150.684128 66.63711 
L 150.751849 78.285061 
L 150.801749 138.993775 
L 150.940757 186.070578 
L 150.958578 186.190687 
L 150.990657 185.5705 
L 151.05125 179.176402 
L 151.111843 138.993775 
L 151.250851 65.75486 
L 151.275801 65.405592 
L 151.322136 66.585338 
L 151.389858 77.940794 
L 151.439758 137.024142 
L 151.575201 185.96488 
L 151.596587 186.199771 
L 151.639359 185.124901 
L 151.699952 176.727626 
L 151.753416 132.706398 
L 151.881731 66.020381 
L 151.913809 65.412797 
L 151.967274 66.985728 
L 152.027867 77.592793 
L 152.077767 134.675697 
L 152.21321 185.952418 
L 152.234596 186.202601 
L 152.277367 185.172633 
L 152.334396 177.954488 
L 152.391425 135.357383 
L 152.523304 65.910117 
L 152.555382 65.41027 
L 152.601718 66.680581 
L 152.66944 78.5381 
L 152.722904 145.904852 
L 152.861912 186.10821 
L 152.872605 186.197765 
L 152.915376 185.226208 
L 152.975969 177.28738 
L 153.029434 137.595401 
L 153.164877 65.845819 
L 153.193391 65.404804 
L 153.243291 66.865581 
L 153.303884 76.889158 
L 153.353784 128.803246 
L 153.485663 185.797012 
L 153.514178 186.193565 
L 153.560513 184.903279 
L 153.628235 172.940082 
L 153.681699 105.1653 
L 153.820707 65.49471 
L 153.8314 65.406938 
L 153.874171 66.401115 
L 153.934764 74.418909 
L 153.988229 114.779826 
L 154.120108 185.675843 
L 154.152186 186.201292 
L 154.198522 184.964997 
L 154.266244 173.29083 
L 154.316144 112.449942 
L 154.455151 65.534975 
L 154.469409 65.415605 
L 154.505052 66.040818 
L 154.56208 71.734773 
L 154.619109 101.70248 
L 154.783067 186.173951 
L 154.786631 186.170856 
L 154.790195 186.202007 
L 154.822274 185.66912 
L 154.889995 178.014985 
L 154.947024 136.00779 
L 155.078903 65.918822 
L 155.110982 65.40812 
L 155.157317 66.663718 
L 155.225039 78.44258 
L 155.278503 145.499276 
L 155.417511 186.105483 
L 155.428204 186.195354 
L 155.470975 185.241526 
L 155.531568 177.360252 
L 155.585033 138.139879 
L 155.720476 65.851825 
L 155.74899 65.404605 
L 155.79889 66.847412 
L 155.859483 76.795288 
L 155.909384 127.913239 
L 156.037698 185.699916 
L 156.069777 186.196198 
L 156.116113 184.920933 
L 156.183834 173.037105 
L 156.237299 105.567679 
L 156.376306 65.498051 
L 156.386999 65.40879 
L 156.429771 66.386124 
L 156.490364 74.344459 
L 156.543828 114.199218 
L 156.679271 185.763516 
L 156.707786 186.20227 
L 156.757686 184.735725 
L 156.818279 174.686597 
L 156.868179 122.5104 
L 157.000058 65.807495 
L 157.028572 65.414645 
L 157.074908 66.709994 
L 157.14263 78.699836 
L 157.196094 146.575358 
L 157.335101 186.113777 
L 157.345794 186.200842 
L 157.388566 185.201234 
L 157.449159 177.163317 
L 157.502623 136.627514 
L 157.634502 65.928171 
L 157.666581 65.40643 
L 157.712917 66.647521 
L 157.780638 78.347875 
L 157.830538 139.318702 
L 157.969546 186.073952 
L 157.983803 186.192628 
L 158.015882 185.710282 
L 158.083603 178.293672 
L 158.140632 138.659722 
L 158.276075 65.857635 
L 158.30459 65.405003 
L 158.35449 66.828891 
L 158.415083 76.702605 
L 158.464983 127.012813 
L 158.593297 185.691424 
L 158.625376 186.198483 
L 158.671712 184.938005 
L 158.739434 173.132957 
L 158.792898 105.972613 
L 158.931905 65.500931 
L 158.942598 65.411075 
L 158.98537 66.370872 
L 159.045963 74.271169 
L 159.099427 113.646037 
L 159.23487 185.757424 
L 159.263385 186.202667 
L 159.313285 184.753761 
L 159.373878 174.780817 
L 159.423778 123.395996 
L 159.552093 65.904665 
L 159.584171 65.411919 
L 159.630507 66.692164 
L 159.698229 78.602366 
L 159.751693 146.174053 
L 159.890701 186.110284 
L 159.901394 186.199152 
L 159.944165 185.216118 
L 160.004758 177.238118 
L 160.058223 137.217657 
L 160.190101 65.938153 
L 160.22218 65.405266 
L 160.268516 66.632023 
L 160.336238 78.253722 
L 160.386138 138.827937 
L 160.525145 186.068794 
L 160.542967 186.191667 
L 160.575045 185.574571 
L 160.635638 179.196151 
L 160.696231 139.157331 
L 160.835239 65.758108 
L 160.860189 65.405981 
L 160.906525 66.581051 
L 160.974246 77.909395 
L 161.024146 136.827447 
L 161.15959 185.963669 
L 161.180975 186.200335 
L 161.223747 185.128999 
L 161.28434 176.753438 
L 161.337804 132.964254 
L 161.466119 66.024503 
L 161.498198 65.413707 
L 161.551662 66.980667 
L 161.612255 77.56086 
L 161.662155 134.441492 
L 161.797598 185.951291 
L 161.818984 186.202468 
L 161.861756 185.177279 
L 161.918784 177.974723 
L 161.975813 135.577642 
L 162.107692 65.912947 
L 162.139771 65.409507 
L 162.186106 66.674889 
L 162.253828 78.506153 
L 162.307292 145.769863 
L 162.4463 186.107251 
L 162.456993 186.197003 
L 162.499764 185.231293 
L 162.560357 177.311811 
L 162.613822 137.779769 
L 162.749265 65.847848 
L 162.777779 65.404672 
L 162.827679 66.859569 
L 162.888272 76.857749 
L 162.938173 128.507997 
L 163.070051 185.794295 
L 163.098566 186.194475 
L 163.144902 184.909223 
L 163.212623 172.972569 
L 163.43361 125.803636 
L 167.582448 125.803636 
L 167.586013 186.068794 
L 167.692942 169.627207 
L 167.888978 65.405266 
L 167.985214 72.758763 
L 168.042242 108.961086 
L 168.191943 186.050206 
L 168.209764 186.199152 
L 168.245407 185.464973 
L 168.306 178.536415 
L 168.363029 140.542876 
L 168.505601 65.67361 
L 168.526987 65.411919 
L 168.569758 66.365747 
L 168.630351 74.24702 
L 168.683815 113.467394 
L 168.819259 185.755448 
L 168.847773 186.202667 
L 168.897673 184.75986 
L 168.958266 174.811985 
L 169.008166 123.694034 
L 169.136481 65.907356 
L 169.16856 65.411075 
L 169.214895 66.68634 
L 169.282617 78.570168 
L 169.336081 146.039594 
L 169.475089 186.109221 
L 169.485782 186.198483 
L 169.528553 185.221148 
L 169.589146 177.262813 
L 169.642611 137.408054 
L 169.778054 65.843757 
L 169.806568 65.405003 
L 169.856468 66.871547 
L 169.917061 76.920676 
L 169.966962 129.096873 
L 170.09884 185.799778 
L 170.127355 186.192628 
L 170.173691 184.897279 
L 170.241412 172.907437 
L 170.294877 105.031915 
L 170.433884 65.493495 
L 170.444577 65.40643 
L 170.487349 66.406038 
L 170.547942 74.443956 
L 170.601406 114.979759 
L 170.733285 185.679102 
L 170.765364 186.200842 
L 170.811699 184.959752 
L 170.879421 173.259397 
L 170.929321 112.288571 
L 171.068329 65.53332 
L 171.082586 65.414645 
L 171.114664 65.896991 
L 171.182386 73.3136 
L 171.239415 112.947551 
L 171.374858 185.749637 
L 171.403372 186.20227 
L 171.453272 184.778382 
L 171.513865 174.904668 
L 171.563766 124.59446 
L 171.69208 65.915849 
L 171.724159 65.40879 
L 171.770495 66.669267 
L 171.838216 78.474316 
L 171.891681 145.63466 
L 172.030688 186.106342 
L 172.041381 186.196198 
L 172.084153 185.2364 
L 172.144746 177.336104 
L 172.19821 137.961235 
L 172.333653 65.849849 
L 172.362167 65.404605 
L 172.412068 66.853511 
L 172.472661 76.826456 
L 172.522561 128.211276 
L 172.650875 185.702608 
L 172.682954 186.195354 
L 172.72929 184.915109 
L 172.797011 173.004907 
L 172.850476 105.43322 
L 172.989483 65.496989 
L 173.000176 65.40812 
L 173.042948 66.391155 
L 173.103541 74.369155 
L 173.157005 114.389615 
L 173.288884 185.66912 
L 173.320963 186.202007 
L 173.367299 184.97525 
L 173.43502 173.353551 
L 173.48492 112.779335 
L 173.623928 65.538479 
L 173.641749 65.415605 
L 173.673828 66.032702 
L 173.734421 72.411121 
L 173.795014 112.449942 
L 173.934021 185.849165 
L 173.958971 186.201292 
L 174.005307 185.026222 
L 174.073029 173.697878 
L 174.122929 114.779826 
L 174.258372 65.643604 
L 174.279758 65.406938 
L 174.32253 66.478274 
L 174.383123 74.853835 
L 174.436587 118.643019 
L 174.564902 185.58277 
L 174.59698 186.193565 
L 174.650445 184.626606 
L 174.711038 174.046412 
L 174.760938 117.16578 
L 174.896381 65.655982 
L 174.917767 65.404804 
L 174.960538 66.429994 
L 175.017567 73.63255 
L 175.074596 116.02963 
L 175.206475 185.694325 
L 175.238553 186.197765 
L 175.284889 184.932384 
L 175.352611 173.10112 
L 175.406075 105.83741 
L 175.545083 65.500022 
L 175.555775 65.41027 
L 175.598547 66.37598 
L 175.65914 74.295461 
L 175.712604 113.827503 
L 175.848048 185.759424 
L 175.876562 186.202601 
L 175.926462 184.747704 
L 175.987055 174.749524 
L 176.036955 123.099276 
L 176.168834 65.812978 
L 176.197348 65.412797 
L 176.243684 66.69805 
L 176.311406 78.634704 
L 176.36487 146.308191 
L 176.503878 186.111398 
L 176.514571 186.199771 
L 176.557342 185.21112 
L 176.617935 177.213299 
L 176.6714 137.024142 
L 176.803279 65.934757 
L 176.835357 65.405592 
L 176.881693 66.63711 
L 176.949415 78.285061 
L 176.999315 138.993775 
L 177.138322 186.070578 
L 177.156144 186.190687 
L 177.188222 185.5705 
L 177.248815 179.176402 
L 177.309408 138.993775 
L 177.448416 65.75486 
L 177.473366 65.405592 
L 177.519702 66.585338 
L 177.587423 77.940794 
L 177.637324 137.024142 
L 177.772767 185.96488 
L 177.794152 186.199771 
L 177.836924 185.124901 
L 177.897517 176.727626 
L 177.950981 132.706398 
L 178.079296 66.020381 
L 178.111375 65.412797 
L 178.164839 66.985728 
L 178.225432 77.592793 
L 178.275332 134.675697 
L 178.410775 185.952418 
L 178.432161 186.202601 
L 178.474933 185.172633 
L 178.531961 177.954488 
L 178.58899 135.357383 
L 178.720869 65.910117 
L 178.752948 65.41027 
L 178.799284 66.680581 
L 178.867005 78.5381 
L 178.92047 145.904852 
L 179.059477 186.10821 
L 179.07017 186.197765 
L 179.112941 185.226208 
L 179.173534 177.28738 
L 179.226999 137.595401 
L 179.362442 65.845819 
L 179.390956 65.404804 
L 179.440857 66.865581 
L 179.50145 76.889158 
L 179.55135 128.803246 
L 179.683229 185.797012 
L 179.711743 186.193565 
L 179.758079 184.903279 
L 179.8258 172.940082 
L 179.879265 105.1653 
L 180.018272 65.49471 
L 180.028965 65.406938 
L 180.071737 66.401115 
L 180.13233 74.418909 
L 180.185794 114.779826 
L 180.317673 185.675843 
L 180.349752 186.201292 
L 180.396088 184.964997 
L 180.463809 173.29083 
L 180.513709 112.449942 
L 180.581431 71.020883 
L 180.584995 125.803636 
L 180.61351 125.803636 
L 184.912049 125.803636 
L 184.915613 179.349538 
L 185.018978 81.697698 
L 185.140164 65.411075 
L 185.161549 65.635822 
L 185.207885 68.207032 
L 185.268478 84.119723 
L 185.46095 186.202667 
L 185.542929 181.42996 
L 185.603522 155.817025 
L 185.781737 65.411919 
L 185.799558 65.617333 
L 185.84233 67.745185 
L 185.910051 85.661966 
L 186.098959 186.199152 
L 186.170245 183.010115 
L 186.234402 162.706244 
L 186.419745 65.405266 
L 186.466081 66.632023 
L 186.533803 78.253722 
L 186.583703 138.827937 
L 186.72271 186.068794 
L 186.740532 186.191667 
L 186.772611 185.574571 
L 186.833204 179.196151 
L 186.893797 139.157331 
L 187.032804 65.758108 
L 187.057754 65.405981 
L 187.10409 66.581051 
L 187.171812 77.909395 
L 187.221712 136.827447 
L 187.357155 185.963669 
L 187.378541 186.200335 
L 187.421312 185.128999 
L 187.481905 176.753438 
L 187.53537 132.964254 
L 187.663684 66.024503 
L 187.695763 65.413707 
L 187.749227 66.980667 
L 187.80982 77.56086 
L 187.85972 134.441492 
L 187.995164 185.951291 
L 188.016549 186.202468 
L 188.059321 185.177279 
L 188.11635 177.974723 
L 188.173378 135.577642 
L 188.305257 65.912947 
L 188.337336 65.409507 
L 188.383672 66.674889 
L 188.451393 78.506153 
L 188.504858 145.769863 
L 188.643865 186.107251 
L 188.654558 186.197003 
L 188.69733 185.231293 
L 188.757923 177.311811 
L 188.811387 137.779769 
L 188.94683 65.847848 
L 188.975345 65.404672 
L 189.025245 66.859569 
L 189.085838 76.857749 
L 189.135738 128.507997 
L 189.267617 185.794295 
L 189.296131 186.194475 
L 189.342467 184.909223 
L 189.410189 172.972569 
L 189.463653 105.299081 
L 189.60266 65.495875 
L 189.613353 65.407502 
L 189.656125 66.396153 
L 189.716718 74.393973 
L 189.770182 114.58313 
L 189.902061 185.672515 
L 189.93414 186.20168 
L 189.980476 184.970163 
L 190.048197 173.322212 
L 190.098097 112.613497 
L 190.237105 65.536695 
L 190.254926 65.416586 
L 190.287005 66.036772 
L 190.347598 72.430871 
L 190.408191 112.613497 
L 190.547199 185.852412 
L 190.572149 186.20168 
L 190.618484 185.021935 
L 190.686206 173.666478 
L 190.736106 114.58313 
L 190.871549 65.642392 
L 190.892935 65.407502 
L 190.935707 66.482372 
L 190.9963 74.879647 
L 191.049764 118.900875 
L 191.178079 185.586891 
L 191.210157 186.194475 
L 191.263622 184.621545 
L 191.324215 174.01448 
L 191.374115 116.931576 
L 191.509558 65.654855 
L 191.530944 65.404672 
L 191.573715 66.43464 
L 191.630744 73.652785 
L 191.687773 116.24989 
L 191.819652 185.697156 
L 191.85173 186.197003 
L 191.898066 184.926692 
L 191.965788 173.069173 
L 192.019252 105.702421 
L 192.15826 65.499062 
L 192.168953 65.409507 
L 192.211724 66.381065 
L 192.272317 74.319893 
L 192.325782 114.011872 
L 192.461225 185.761454 
L 192.489739 186.202468 
L 192.539639 184.741692 
L 192.600232 174.718115 
L 192.650132 122.804027 
L 192.782011 65.810261 
L 192.810526 65.413707 
L 192.856861 66.703994 
L 192.924583 78.667191 
L 192.978047 146.441972 
L 193.117055 186.112562 
L 193.127748 186.200335 
L 193.170519 185.206158 
L 193.231112 177.188364 
L 193.284577 136.827447 
L 193.416456 65.931429 
L 193.448534 65.405981 
L 193.49487 66.642276 
L 193.562592 78.316443 
L 193.612492 139.157331 
L 193.751499 186.072298 
L 193.765757 186.191667 
L 193.8014 185.566455 
L 193.858428 179.8725 
L 193.915457 149.904793 
L 194.079415 65.433321 
L 194.082979 65.436416 
L 194.086543 65.405266 
L 194.118622 65.938153 
L 194.186343 73.592288 
L 194.243372 115.599483 
L 194.375251 185.688451 
L 194.40733 186.199152 
L 194.453665 184.943555 
L 194.521387 173.164693 
L 194.574851 106.107997 
L 194.713859 65.501789 
L 194.724552 65.411919 
L 194.767323 66.365747 
L 194.827916 74.24702 
L 194.881381 113.467394 
L 195.016824 185.755448 
L 195.045338 186.202667 
L 195.095238 184.75986 
L 195.155831 174.811985 
L 195.205732 123.694034 
L 195.334046 65.907356 
L 195.366125 65.411075 
L 195.412461 66.68634 
L 195.480182 78.570168 
L 195.533647 146.039594 
L 195.672654 186.109221 
L 195.683347 186.198483 
L 195.726119 185.221148 
L 195.786712 177.262813 
L 195.840176 137.408054 
L 195.975619 65.843757 
L 196.004134 65.405003 
L 196.054034 66.871547 
L 196.114627 76.920676 
L 196.164527 129.096873 
L 196.296406 185.799778 
L 196.32492 186.192628 
L 196.371256 184.897279 
L 196.438978 172.907437 
L 196.492442 105.031915 
L 196.631449 65.493495 
L 196.642142 65.40643 
L 196.684914 66.406038 
L 196.745507 74.443956 
L 196.798971 114.979759 
L 196.93085 185.679102 
L 196.962929 186.200842 
L 197.009265 184.959752 
L 197.076986 173.259397 
L 197.126886 112.288571 
L 197.265894 65.53332 
L 197.280151 65.414645 
L 197.31223 65.896991 
L 197.379951 73.3136 
L 197.43698 112.947551 
L 197.572423 185.749637 
L 197.600938 186.20227 
L 197.650838 184.778382 
L 197.711431 174.904668 
L 197.761331 124.59446 
L 197.889645 65.915849 
L 197.911031 65.463684 
L 198.025089 125.803636 
L 202.241649 125.803636 
L 202.359271 66.052773 
L 202.394914 65.412797 
L 202.444814 66.944493 
L 202.505407 77.336359 
L 202.555307 132.706398 
L 202.687186 185.839438 
L 202.712136 186.199771 
L 202.762036 184.816126 
L 202.826193 173.792336 
L 202.876094 115.389544 
L 203.011537 65.64709 
L 203.032923 65.405592 
L 203.075694 66.465709 
L 203.132723 73.797048 
L 203.189752 117.889151 
L 203.318066 185.5705 
L 203.353709 186.190687 
L 203.403609 184.64192 
L 203.464202 174.142454 
L 203.514102 117.889151 
L 203.649546 65.659482 
L 203.670931 65.405592 
L 203.713703 66.415759 
L 203.774296 74.494353 
L 203.82776 115.389544 
L 203.959639 185.685406 
L 203.991718 186.199771 
L 204.038054 184.94903 
L 204.105775 173.196339 
L 204.155675 111.971991 
L 204.294683 65.530212 
L 204.30894 65.412797 
L 204.341019 65.902042 
L 204.40874 73.353454 
L 204.465769 113.29149 
L 204.601212 185.753494 
L 204.629727 186.202601 
L 204.679627 184.765999 
L 204.74022 174.843021 
L 204.79012 123.993231 
L 204.918434 65.910117 
L 204.950513 65.41027 
L 204.996849 66.680581 
L 205.06457 78.5381 
L 205.118035 145.904852 
L 205.257042 186.10821 
L 205.267735 186.197765 
L 205.310507 185.226208 
L 205.3711 177.28738 
L 205.424564 137.595401 
L 205.560007 65.845819 
L 205.588522 65.404804 
L 205.638422 66.865581 
L 205.699015 76.889158 
L 205.748915 128.803246 
L 205.880794 185.797012 
L 205.909308 186.193565 
L 205.955644 184.903279 
L 206.023366 172.940082 
L 206.07683 105.1653 
L 206.215838 65.49471 
L 206.226531 65.406938 
L 206.269302 66.401115 
L 206.329895 74.418909 
L 206.383359 114.779826 
L 206.515238 185.675843 
L 206.547317 186.201292 
L 206.593653 184.964997 
L 206.661374 173.29083 
L 206.711275 112.449942 
L 206.850282 65.534975 
L 206.864539 65.415605 
L 206.900182 66.040818 
L 206.957211 71.734773 
L 207.01424 101.70248 
L 207.178197 186.173951 
L 207.181761 186.170856 
L 207.185326 186.202007 
L 207.217404 185.66912 
L 207.285126 178.014985 
L 207.342155 136.00779 
L 207.474034 65.918822 
L 207.506112 65.40812 
L 207.552448 66.663718 
L 207.62017 78.44258 
L 207.673634 145.499276 
L 207.812642 186.105483 
L 207.823334 186.195354 
L 207.866106 185.241526 
L 207.926699 177.360252 
L 207.980163 138.139879 
L 208.115607 65.851825 
L 208.144121 65.404605 
L 208.194021 66.847412 
L 208.254614 76.795288 
L 208.304514 127.913239 
L 208.432829 185.699916 
L 208.464908 186.196198 
L 208.511243 184.920933 
L 208.578965 173.037105 
L 208.632429 105.567679 
L 208.771437 65.498051 
L 208.78213 65.40879 
L 208.824901 66.386124 
L 208.885494 74.344459 
L 208.938959 114.199218 
L 209.074402 185.763516 
L 209.102916 186.20227 
L 209.152816 184.735725 
L 209.213409 174.686597 
L 209.26331 122.5104 
L 209.395188 65.807495 
L 209.423703 65.414645 
L 209.470039 66.709994 
L 209.53776 78.699836 
L 209.591225 146.575358 
L 209.730232 186.113777 
L 209.740925 186.200842 
L 209.783697 185.201234 
L 209.84429 177.163317 
L 209.897754 136.627514 
L 210.029633 65.928171 
L 210.061712 65.40643 
L 210.108047 66.647521 
L 210.175769 78.347875 
L 210.225669 139.318702 
L 210.364677 186.073952 
L 210.378934 186.192628 
L 210.411012 185.710282 
L 210.478734 178.293672 
L 210.535763 138.659722 
L 210.671206 65.857635 
L 210.69972 65.405003 
L 210.74962 66.828891 
L 210.810213 76.702605 
L 210.860113 127.012813 
L 210.988428 185.691424 
L 211.020507 186.198483 
L 211.066843 184.938005 
L 211.134564 173.132957 
L 211.188029 105.972613 
L 211.327036 65.500931 
L 211.337729 65.411075 
L 211.380501 66.370872 
L 211.441094 74.271169 
L 211.494558 113.646037 
L 211.630001 185.757424 
L 211.658515 186.202667 
L 211.708416 184.753761 
L 211.769009 174.780817 
L 211.818909 123.395996 
L 211.947223 65.904665 
L 211.979302 65.411919 
L 212.025638 66.692164 
L 212.093359 78.602366 
L 212.146824 146.174053 
L 212.285831 186.110284 
L 212.296524 186.199152 
L 212.339296 185.216118 
L 212.399889 177.238118 
L 212.453353 137.217657 
L 212.585232 65.938153 
L 212.617311 65.405266 
L 212.663647 66.632023 
L 212.731368 78.253722 
L 212.781268 138.827937 
L 212.920276 186.068794 
L 212.938097 186.191667 
L 212.970176 185.574571 
L 213.030769 179.196151 
L 213.091362 139.157331 
L 213.230369 65.758108 
L 213.255319 65.405981 
L 213.301655 66.581051 
L 213.369377 77.909395 
L 213.419277 136.827447 
L 213.55472 185.963669 
L 213.576106 186.200335 
L 213.618878 185.128999 
L 213.679471 176.753438 
L 213.732935 132.964254 
L 213.86125 66.024503 
L 213.893328 65.413707 
L 213.946793 66.980667 
L 214.007386 77.56086 
L 214.057286 134.441492 
L 214.192729 185.951291 
L 214.214115 186.202468 
L 214.256886 185.177279 
L 214.313915 177.974723 
L 214.370944 135.577642 
L 214.502823 65.912947 
L 214.534901 65.409507 
L 214.581237 66.674889 
L 214.648959 78.506153 
L 214.702423 145.769863 
L 214.841431 186.107251 
L 214.852123 186.197003 
L 214.894895 185.231293 
L 214.955488 177.311811 
L 215.008952 137.779769 
L 215.144396 65.847848 
L 215.17291 65.404672 
L 215.22281 66.859569 
L 215.240632 68.340286 
L 215.354689 125.803636 
L 219.57125 125.803636 
L 219.6461 65.405981 
L 219.685307 66.270624 
L 219.753029 75.837382 
L 219.806493 129.966577 
L 219.938372 185.808366 
L 219.963322 186.191667 
L 220.013222 184.878987 
L 220.080944 172.808467 
L 220.134408 104.634518 
L 220.273416 65.489561 
L 220.284108 65.405266 
L 220.323316 66.22386 
L 220.391037 75.561703 
L 220.444502 126.711109 
L 220.572816 185.688451 
L 220.604895 186.199152 
L 220.651231 184.943555 
L 220.718952 173.164693 
L 220.772417 106.107997 
L 220.911424 65.501789 
L 220.922117 65.411919 
L 220.964889 66.365747 
L 221.025482 74.24702 
L 221.078946 113.467394 
L 221.214389 185.755448 
L 221.242904 186.202667 
L 221.292804 184.75986 
L 221.353397 174.811985 
L 221.403297 123.694034 
L 221.531612 65.907356 
L 221.56369 65.411075 
L 221.610026 66.68634 
L 221.677748 78.570168 
L 221.731212 146.039594 
L 221.87022 186.109221 
L 221.880912 186.198483 
L 221.923684 185.221148 
L 221.984277 177.262813 
L 222.037741 137.408054 
L 222.173185 65.843757 
L 222.201699 65.405003 
L 222.251599 66.871547 
L 222.312192 76.920676 
L 222.362092 129.096873 
L 222.493971 185.799778 
L 222.522485 186.192628 
L 222.568821 184.897279 
L 222.636543 172.907437 
L 222.690007 105.031915 
L 222.829015 65.493495 
L 222.839708 65.40643 
L 222.882479 66.406038 
L 222.943072 74.443956 
L 222.996537 114.979759 
L 223.128416 185.679102 
L 223.160494 186.200842 
L 223.20683 184.959752 
L 223.274552 173.259397 
L 223.324452 112.288571 
L 223.463459 65.53332 
L 223.477716 65.414645 
L 223.509795 65.896991 
L 223.577517 73.3136 
L 223.634545 112.947551 
L 223.769989 185.749637 
L 223.798503 186.20227 
L 223.848403 184.778382 
L 223.908996 174.904668 
L 223.958896 124.59446 
L 224.087211 65.915849 
L 224.119289 65.40879 
L 224.165625 66.669267 
L 224.233347 78.474316 
L 224.286811 145.63466 
L 224.425819 186.106342 
L 224.436512 186.196198 
L 224.479283 185.2364 
L 224.539876 177.336104 
L 224.593341 137.961235 
L 224.728784 65.849849 
L 224.757298 65.404605 
L 224.807198 66.853511 
L 224.867791 76.826456 
L 224.917691 128.211276 
L 225.046006 185.702608 
L 225.078085 186.195354 
L 225.12442 184.915109 
L 225.192142 173.004907 
L 225.245607 105.43322 
L 225.384614 65.496989 
L 225.395307 65.40812 
L 225.438078 66.391155 
L 225.498671 74.369155 
L 225.552136 114.389615 
L 225.684015 185.66912 
L 225.716093 186.202007 
L 225.762429 184.97525 
L 225.830151 173.353551 
L 225.880051 112.779335 
L 226.019058 65.538479 
L 226.03688 65.415605 
L 226.068959 66.032702 
L 226.129552 72.411121 
L 226.190145 112.449942 
L 226.329152 185.849165 
L 226.354102 186.201292 
L 226.400438 185.026222 
L 226.46816 173.697878 
L 226.51806 114.779826 
L 226.653503 65.643604 
L 226.674889 65.406938 
L 226.71766 66.478274 
L 226.778253 74.853835 
L 226.831718 118.643019 
L 226.960032 185.58277 
L 226.992111 186.193565 
L 227.045575 184.626606 
L 227.106168 174.046412 
L 227.156068 117.16578 
L 227.291512 65.655982 
L 227.312897 65.404804 
L 227.355669 66.429994 
L 227.412698 73.63255 
L 227.469726 116.02963 
L 227.601605 185.694325 
L 227.633684 186.197765 
L 227.68002 184.932384 
L 227.747741 173.10112 
L 227.801206 105.83741 
L 227.940213 65.500022 
L 227.950906 65.41027 
L 227.993678 66.37598 
L 228.054271 74.295461 
L 228.107735 113.827503 
L 228.243178 185.759424 
L 228.271693 186.202601 
L 228.321593 184.747704 
L 228.382186 174.749524 
L 228.432086 123.099276 
L 228.563965 65.812978 
L 228.592479 65.412797 
L 228.638815 66.69805 
L 228.706537 78.634704 
L 228.760001 146.308191 
L 228.899008 186.111398 
L 228.909701 186.199771 
L 228.952473 185.21112 
L 229.013066 177.213299 
L 229.06653 137.024142 
L 229.198409 65.934757 
L 229.230488 65.405592 
L 229.276824 66.63711 
L 229.344545 78.285061 
L 229.394445 138.993775 
L 229.533453 186.070578 
L 229.551274 186.190687 
L 229.583353 185.5705 
L 229.643946 179.176402 
L 229.704539 138.993775 
L 229.843547 65.75486 
L 229.868497 65.405592 
L 229.914832 66.585338 
L 229.982554 77.940794 
L 230.032454 137.024142 
L 230.167897 185.96488 
L 230.189283 186.199771 
L 230.232055 185.124901 
L 230.292648 176.727626 
L 230.346112 132.706398 
L 230.474427 66.020381 
L 230.506505 65.412797 
L 230.55997 66.985728 
L 230.620563 77.592793 
L 230.670463 134.675697 
L 230.805906 185.952418 
L 230.827292 186.202601 
L 230.870063 185.172633 
L 230.927092 177.954488 
L 230.984121 135.357383 
L 231.116 65.910117 
L 231.148078 65.41027 
L 231.194414 66.680581 
L 231.262136 78.5381 
L 231.3156 145.904852 
L 231.454608 186.10821 
L 231.465301 186.197765 
L 231.508072 185.226208 
L 231.568665 177.28738 
L 231.62213 137.595401 
L 231.757573 65.845819 
L 231.786087 65.404804 
L 231.835987 66.865581 
L 231.89658 76.889158 
L 231.94648 128.803246 
L 232.078359 185.797012 
L 232.106874 186.193565 
L 232.153209 184.903279 
L 232.220931 172.940082 
L 232.274395 105.1653 
L 232.413403 65.49471 
L 232.424096 65.406938 
L 232.466867 66.401115 
L 232.52746 74.418909 
L 232.570232 98.724997 
L 232.684289 125.803636 
L 236.90085 125.803636 
L 236.904414 65.431452 
L 237.011343 78.003489 
L 237.061243 137.408054 
L 237.200251 186.052464 
L 237.218072 186.198483 
L 237.253715 185.462156 
L 237.314308 178.515905 
L 237.371337 140.395426 
L 237.513909 65.671966 
L 237.535294 65.411075 
L 237.578066 66.370872 
L 237.638659 74.271169 
L 237.692123 113.646037 
L 237.827566 185.757424 
L 237.856081 186.202667 
L 237.905981 184.753761 
L 237.966574 174.780817 
L 238.016474 123.395996 
L 238.144789 65.904665 
L 238.176867 65.411919 
L 238.223203 66.692164 
L 238.290925 78.602366 
L 238.344389 146.174053 
L 238.483397 186.110284 
L 238.49409 186.199152 
L 238.536861 185.216118 
L 238.597454 177.238118 
L 238.650919 137.217657 
L 238.782797 65.938153 
L 238.814876 65.405266 
L 238.861212 66.632023 
L 238.928933 78.253722 
L 238.978834 138.827937 
L 239.117841 186.068794 
L 239.135663 186.191667 
L 239.167741 185.574571 
L 239.228334 179.196151 
L 239.288927 139.157331 
L 239.427935 65.758108 
L 239.452885 65.405981 
L 239.499221 66.581051 
L 239.566942 77.909395 
L 239.616842 136.827447 
L 239.752286 185.963669 
L 239.773671 186.200335 
L 239.816443 185.128999 
L 239.877036 176.753438 
L 239.9305 132.964254 
L 240.058815 66.024503 
L 240.090894 65.413707 
L 240.144358 66.980667 
L 240.204951 77.56086 
L 240.254851 134.441492 
L 240.390294 185.951291 
L 240.41168 186.202468 
L 240.454452 185.177279 
L 240.51148 177.974723 
L 240.568509 135.577642 
L 240.700388 65.912947 
L 240.732467 65.409507 
L 240.778802 66.674889 
L 240.846524 78.506153 
L 240.899988 145.769863 
L 241.038996 186.107251 
L 241.049689 186.197003 
L 241.09246 185.231293 
L 241.153053 177.311811 
L 241.206518 137.779769 
L 241.341961 65.847848 
L 241.370475 65.404672 
L 241.420375 66.859569 
L 241.480968 76.857749 
L 241.530869 128.507997 
L 241.662747 185.794295 
L 241.691262 186.194475 
L 241.737598 184.909223 
L 241.805319 172.972569 
L 241.858784 105.299081 
L 241.997791 65.495875 
L 242.008484 65.407502 
L 242.051256 66.396153 
L 242.111849 74.393973 
L 242.165313 114.58313 
L 242.297192 185.672515 
L 242.329271 186.20168 
L 242.375606 184.970163 
L 242.443328 173.322212 
L 242.493228 112.613497 
L 242.632236 65.536695 
L 242.650057 65.416586 
L 242.682136 66.036772 
L 242.742729 72.430871 
L 242.803322 112.613497 
L 242.942329 185.852412 
L 242.967279 186.20168 
L 243.013615 185.021935 
L 243.081337 173.666478 
L 243.131237 114.58313 
L 243.26668 65.642392 
L 243.288066 65.407502 
L 243.330837 66.482372 
L 243.39143 74.879647 
L 243.444895 118.900875 
L 243.573209 185.586891 
L 243.605288 186.194475 
L 243.658752 184.621545 
L 243.719345 174.01448 
L 243.769246 116.931576 
L 243.904689 65.654855 
L 243.926075 65.404672 
L 243.968846 66.43464 
L 244.025875 73.652785 
L 244.082903 116.24989 
L 244.214782 185.697156 
L 244.246861 186.197003 
L 244.293197 184.926692 
L 244.360918 173.069173 
L 244.414383 105.702421 
L 244.55339 65.499062 
L 244.564083 65.409507 
L 244.606855 66.381065 
L 244.667448 74.319893 
L 244.720912 114.011872 
L 244.856355 185.761454 
L 244.88487 186.202468 
L 244.93477 184.741692 
L 244.995363 174.718115 
L 245.045263 122.804027 
L 245.177142 65.810261 
L 245.205656 65.413707 
L 245.251992 66.703994 
L 245.319714 78.667191 
L 245.373178 146.441972 
L 245.512186 186.112562 
L 245.522878 186.200335 
L 245.56565 185.206158 
L 245.626243 177.188364 
L 245.679707 136.827447 
L 245.811586 65.931429 
L 245.843665 65.405981 
L 245.890001 66.642276 
L 245.957722 78.316443 
L 246.007623 139.157331 
L 246.14663 186.072298 
L 246.160887 186.191667 
L 246.19653 185.566455 
L 246.253559 179.8725 
L 246.310588 149.904793 
L 246.474545 65.433321 
L 246.478109 65.436416 
L 246.481674 65.405266 
L 246.513752 65.938153 
L 246.581474 73.592288 
L 246.638503 115.599483 
L 246.770382 185.688451 
L 246.80246 186.199152 
L 246.848796 184.943555 
L 246.916518 173.164693 
L 246.969982 106.107997 
L 247.10899 65.501789 
L 247.119682 65.411919 
L 247.162454 66.365747 
L 247.223047 74.24702 
L 247.276511 113.467394 
L 247.411955 185.755448 
L 247.440469 186.202667 
L 247.490369 184.75986 
L 247.550962 174.811985 
L 247.600862 123.694034 
L 247.729177 65.907356 
L 247.761256 65.411075 
L 247.807591 66.68634 
L 247.875313 78.570168 
L 247.928777 146.039594 
L 248.067785 186.109221 
L 248.078478 186.198483 
L 248.121249 185.221148 
L 248.181842 177.262813 
L 248.235307 137.408054 
L 248.37075 65.843757 
L 248.399264 65.405003 
L 248.449164 66.871547 
L 248.509757 76.920676 
L 248.559657 129.096873 
L 248.691536 185.799778 
L 248.720051 186.192628 
L 248.766387 184.897279 
L 248.834108 172.907437 
L 248.887573 105.031915 
L 249.02658 65.493495 
L 249.037273 65.40643 
L 249.080045 66.406038 
L 249.140638 74.443956 
L 249.194102 114.979759 
L 249.325981 185.679102 
L 249.358059 186.200842 
L 249.404395 184.959752 
L 249.472117 173.259397 
L 249.522017 112.288571 
L 249.661025 65.53332 
L 249.675282 65.414645 
L 249.70736 65.896991 
L 249.775082 73.3136 
L 249.832111 112.947551 
L 249.899832 178.681305 
L 249.946168 125.803636 
L 254.23045 125.803636 
L 254.234015 70.526425 
L 254.337379 164.679733 
L 254.469258 186.202601 
L 254.483515 186.092152 
L 254.540544 182.882867 
L 254.604701 161.899192 
L 254.790044 65.412797 
L 254.83638 66.69805 
L 254.904102 78.634704 
L 254.957566 146.308191 
L 255.096574 186.111398 
L 255.107267 186.199771 
L 255.150038 185.21112 
L 255.210631 177.213299 
L 255.264096 137.024142 
L 255.395975 65.934757 
L 255.428053 65.405592 
L 255.474389 66.63711 
L 255.542111 78.285061 
L 255.592011 138.993775 
L 255.731018 186.070578 
L 255.74884 186.190687 
L 255.780918 185.5705 
L 255.841511 179.176402 
L 255.902104 138.993775 
L 256.041112 65.75486 
L 256.066062 65.405592 
L 256.112398 66.585338 
L 256.180119 77.940794 
L 256.230019 137.024142 
L 256.365463 185.96488 
L 256.386848 186.199771 
L 256.42962 185.124901 
L 256.490213 176.727626 
L 256.543677 132.706398 
L 256.671992 66.020381 
L 256.704071 65.412797 
L 256.757535 66.985728 
L 256.818128 77.592793 
L 256.868028 134.675697 
L 257.003471 185.952418 
L 257.024857 186.202601 
L 257.067629 185.172633 
L 257.124657 177.954488 
L 257.181686 135.357383 
L 257.313565 65.910117 
L 257.345644 65.41027 
L 257.39198 66.680581 
L 257.459701 78.5381 
L 257.513166 145.904852 
L 257.652173 186.10821 
L 257.662866 186.197765 
L 257.705637 185.226208 
L 257.76623 177.28738 
L 257.819695 137.595401 
L 257.955138 65.845819 
L 257.983652 65.404804 
L 258.033553 66.865581 
L 258.094146 76.889158 
L 258.144046 128.803246 
L 258.275925 185.797012 
L 258.304439 186.193565 
L 258.350775 184.903279 
L 258.418496 172.940082 
L 258.471961 105.1653 
L 258.610968 65.49471 
L 258.621661 65.406938 
L 258.664433 66.401115 
L 258.725026 74.418909 
L 258.77849 114.779826 
L 258.910369 185.675843 
L 258.942448 186.201292 
L 258.988784 184.964997 
L 259.056505 173.29083 
L 259.106405 112.449942 
L 259.245413 65.534975 
L 259.25967 65.415605 
L 259.295313 66.040818 
L 259.352342 71.734773 
L 259.40937 101.70248 
L 259.573328 186.173951 
L 259.576892 186.170856 
L 259.580456 186.202007 
L 259.612535 185.66912 
L 259.680257 178.014985 
L 259.737285 136.00779 
L 259.869164 65.918822 
L 259.901243 65.40812 
L 259.947579 66.663718 
L 260.0153 78.44258 
L 260.068765 145.499276 
L 260.207772 186.105483 
L 260.218465 186.195354 
L 260.261237 185.241526 
L 260.32183 177.360252 
L 260.375294 138.139879 
L 260.510737 65.851825 
L 260.539252 65.404605 
L 260.589152 66.847412 
L 260.649745 76.795288 
L 260.699645 127.913239 
L 260.82796 185.699916 
L 260.860038 186.196198 
L 260.906374 184.920933 
L 260.974096 173.037105 
L 261.02756 105.567679 
L 261.166568 65.498051 
L 261.17726 65.40879 
L 261.220032 66.386124 
L 261.280625 74.344459 
L 261.334089 114.199218 
L 261.469533 185.763516 
L 261.498047 186.20227 
L 261.547947 184.735725 
L 261.60854 174.686597 
L 261.65844 122.5104 
L 261.790319 65.807495 
L 261.818833 65.414645 
L 261.865169 66.709994 
L 261.932891 78.699836 
L 261.986355 146.575358 
L 262.125363 186.113777 
L 262.136056 186.200842 
L 262.178827 185.201234 
L 262.23942 177.163317 
L 262.292885 136.627514 
L 262.424764 65.928171 
L 262.456842 65.40643 
L 262.503178 66.647521 
L 262.5709 78.347875 
L 262.6208 139.318702 
L 262.759807 186.073952 
L 262.774064 186.192628 
L 262.806143 185.710282 
L 262.873865 178.293672 
L 262.930893 138.659722 
L 263.066337 65.857635 
L 263.094851 65.405003 
L 263.144751 66.828891 
L 263.205344 76.702605 
L 263.255244 127.012813 
L 263.383559 185.691424 
L 263.415637 186.198483 
L 263.461973 184.938005 
L 263.529695 173.132957 
L 263.583159 105.972613 
L 263.722167 65.500931 
L 263.73286 65.411075 
L 263.775631 66.370872 
L 263.836224 74.271169 
L 263.889689 113.646037 
L 264.025132 185.757424 
L 264.053646 186.202667 
L 264.103546 184.753761 
L 264.164139 174.780817 
L 264.214039 123.395996 
L 264.342354 65.904665 
L 264.374433 65.411919 
L 264.420768 66.692164 
L 264.48849 78.602366 
L 264.541954 146.174053 
L 264.680962 186.110284 
L 264.691655 186.199152 
L 264.734426 185.216118 
L 264.795019 177.238118 
L 264.848484 137.217657 
L 264.980363 65.938153 
L 265.012441 65.405266 
L 265.058777 66.632023 
L 265.126499 78.253722 
L 265.176399 138.827937 
L 265.315406 186.068794 
L 265.333228 186.191667 
L 265.365307 185.574571 
L 265.4259 179.196151 
L 265.486493 139.157331 
L 265.6255 65.758108 
L 265.65045 65.405981 
L 265.696786 66.581051 
L 265.764508 77.909395 
L 265.814408 136.827447 
L 265.949851 185.963669 
L 265.971237 186.200335 
L 266.014008 185.128999 
L 266.074601 176.753438 
L 266.128066 132.964254 
L 266.25638 66.024503 
L 266.288459 65.413707 
L 266.341923 66.980667 
L 266.402516 77.56086 
L 266.452416 134.441492 
L 266.58786 185.951291 
L 266.609245 186.202468 
L 266.652017 185.177279 
L 266.709046 177.974723 
L 266.766074 135.577642 
L 266.897953 65.912947 
L 266.930032 65.409507 
L 266.976368 66.674889 
L 267.044089 78.506153 
L 267.097554 145.769863 
L 267.229433 185.993956 
L 267.34349 125.803636 
L 271.560051 125.803636 
L 271.699058 185.944026 
L 271.720444 186.200335 
L 271.763215 185.206158 
L 271.823808 177.188364 
L 271.877273 136.827447 
L 272.009152 65.931429 
L 272.04123 65.405981 
L 272.087566 66.642276 
L 272.155288 78.316443 
L 272.205188 139.157331 
L 272.344195 186.072298 
L 272.358453 186.191667 
L 272.394096 185.566455 
L 272.451124 179.8725 
L 272.508153 149.904793 
L 272.67211 65.433321 
L 272.675675 65.436416 
L 272.679239 65.405266 
L 272.711318 65.938153 
L 272.779039 73.592288 
L 272.836068 115.599483 
L 272.967947 185.688451 
L 273.000026 186.199152 
L 273.046361 184.943555 
L 273.114083 173.164693 
L 273.167547 106.107997 
L 273.306555 65.501789 
L 273.317248 65.411919 
L 273.360019 66.365747 
L 273.420612 74.24702 
L 273.474077 113.467394 
L 273.60952 185.755448 
L 273.638034 186.202667 
L 273.687934 184.75986 
L 273.748527 174.811985 
L 273.798428 123.694034 
L 273.926742 65.907356 
L 273.958821 65.411075 
L 274.005157 66.68634 
L 274.072878 78.570168 
L 274.126343 146.039594 
L 274.26535 186.109221 
L 274.276043 186.198483 
L 274.318815 185.221148 
L 274.379408 177.262813 
L 274.432872 137.408054 
L 274.568315 65.843757 
L 274.59683 65.405003 
L 274.64673 66.871547 
L 274.707323 76.920676 
L 274.757223 129.096873 
L 274.889102 185.799778 
L 274.917616 186.192628 
L 274.963952 184.897279 
L 275.031674 172.907437 
L 275.085138 105.031915 
L 275.224145 65.493495 
L 275.234838 65.40643 
L 275.27761 66.406038 
L 275.338203 74.443956 
L 275.391667 114.979759 
L 275.523546 185.679102 
L 275.555625 186.200842 
L 275.601961 184.959752 
L 275.669682 173.259397 
L 275.719582 112.288571 
L 275.85859 65.53332 
L 275.872847 65.414645 
L 275.904926 65.896991 
L 275.972647 73.3136 
L 276.029676 112.947551 
L 276.165119 185.749637 
L 276.193634 186.20227 
L 276.243534 184.778382 
L 276.304127 174.904668 
L 276.354027 124.59446 
L 276.482341 65.915849 
L 276.51442 65.40879 
L 276.560756 66.669267 
L 276.628477 78.474316 
L 276.681942 145.63466 
L 276.820949 186.106342 
L 276.831642 186.196198 
L 276.874414 185.2364 
L 276.935007 177.336104 
L 276.988471 137.961235 
L 277.123914 65.849849 
L 277.152429 65.404605 
L 277.202329 66.853511 
L 277.262922 76.826456 
L 277.312822 128.211276 
L 277.441137 185.702608 
L 277.473215 186.195354 
L 277.519551 184.915109 
L 277.587273 173.004907 
L 277.640737 105.43322 
L 277.779745 65.496989 
L 277.790438 65.40812 
L 277.833209 66.391155 
L 277.893802 74.369155 
L 277.947266 114.389615 
L 278.079145 185.66912 
L 278.111224 186.202007 
L 278.15756 184.97525 
L 278.225281 173.353551 
L 278.275182 112.779335 
L 278.414189 65.538479 
L 278.432011 65.415605 
L 278.464089 66.032702 
L 278.524682 72.411121 
L 278.585275 112.449942 
L 278.724283 185.849165 
L 278.749233 186.201292 
L 278.795569 185.026222 
L 278.86329 173.697878 
L 278.91319 114.779826 
L 279.048634 65.643604 
L 279.070019 65.406938 
L 279.112791 66.478274 
L 279.173384 74.853835 
L 279.226848 118.643019 
L 279.355163 185.58277 
L 279.387242 186.193565 
L 279.440706 184.626606 
L 279.501299 174.046412 
L 279.551199 117.16578 
L 279.686642 65.655982 
L 279.708028 65.404804 
L 279.7508 66.429994 
L 279.807828 73.63255 
L 279.864857 116.02963 
L 279.996736 185.694325 
L 280.028815 186.197765 
L 280.07515 184.932384 
L 280.142872 173.10112 
L 280.196336 105.83741 
L 280.335344 65.500022 
L 280.346037 65.41027 
L 280.388808 66.37598 
L 280.449401 74.295461 
L 280.502866 113.827503 
L 280.638309 185.759424 
L 280.666823 186.202601 
L 280.716723 184.747704 
L 280.777316 174.749524 
L 280.827217 123.099276 
L 280.959095 65.812978 
L 280.98761 65.412797 
L 281.033946 66.69805 
L 281.101667 78.634704 
L 281.155132 146.308191 
L 281.294139 186.111398 
L 281.304832 186.199771 
L 281.347604 185.21112 
L 281.408197 177.213299 
L 281.461661 137.024142 
L 281.59354 65.934757 
L 281.625619 65.405592 
L 281.671954 66.63711 
L 281.739676 78.285061 
L 281.789576 138.993775 
L 281.928584 186.070578 
L 281.946405 186.190687 
L 281.978484 185.5705 
L 282.039077 179.176402 
L 282.09967 138.993775 
L 282.238677 65.75486 
L 282.263627 65.405592 
L 282.309963 66.585338 
L 282.377685 77.940794 
L 282.427585 137.024142 
L 282.563028 185.96488 
L 282.584414 186.199771 
L 282.627185 185.124901 
L 282.687778 176.727626 
L 282.741243 132.706398 
L 282.869557 66.020381 
L 282.901636 65.412797 
L 282.9551 66.985728 
L 283.015693 77.592793 
L 283.065594 134.675697 
L 283.201037 185.952418 
L 283.222423 186.202601 
L 283.265194 185.172633 
L 283.322223 177.954488 
L 283.379251 135.357383 
L 283.51113 65.910117 
L 283.543209 65.41027 
L 283.589545 66.680581 
L 283.657266 78.5381 
L 283.710731 145.904852 
L 283.849738 186.10821 
L 283.860431 186.197765 
L 283.903203 185.226208 
L 283.963796 177.28738 
L 284.01726 137.595401 
L 284.152703 65.845819 
L 284.181218 65.404804 
L 284.231118 66.865581 
L 284.291711 76.889158 
L 284.341611 128.803246 
L 284.47349 185.797012 
L 284.502004 186.193565 
L 284.54834 184.903279 
L 284.616062 172.940082 
L 284.669526 105.1653 
L 284.808534 65.49471 
L 284.819226 65.406938 
L 284.861998 66.401115 
L 284.922591 74.418909 
L 284.976055 114.779826 
L 285.107934 185.675843 
L 285.140013 186.201292 
L 285.186349 184.964997 
L 285.25407 173.29083 
L 285.303971 112.449942 
L 285.442978 65.534975 
L 285.457235 65.415605 
L 285.492878 66.040818 
L 285.549907 71.734773 
L 285.606936 101.70248 
L 285.770893 186.173951 
L 285.774457 186.170856 
L 285.778022 186.202007 
L 285.8101 185.66912 
L 285.877822 178.014985 
L 285.934851 136.00779 
L 286.06673 65.918822 
L 286.098808 65.40812 
L 286.145144 66.663718 
L 286.212866 78.44258 
L 286.26633 145.499276 
L 286.405338 186.105483 
L 286.41603 186.195354 
L 286.458802 185.241526 
L 286.519395 177.360252 
L 286.572859 138.139879 
L 286.708303 65.851825 
L 286.736817 65.404605 
L 286.786717 66.847412 
L 286.84731 76.795288 
L 286.89721 127.913239 
L 287.025525 185.699916 
L 287.057603 186.196198 
L 287.103939 184.920933 
L 287.171661 173.037105 
L 287.225125 105.567679 
L 287.364133 65.498051 
L 287.374826 65.40879 
L 287.417597 66.386124 
L 287.47819 74.344459 
L 287.531655 114.199218 
L 287.667098 185.763516 
L 287.695612 186.20227 
L 287.745512 184.735725 
L 287.806105 174.686597 
L 287.856005 122.5104 
L 287.987884 65.807495 
L 288.016399 65.414645 
L 288.062735 66.709994 
L 288.130456 78.699836 
L 288.183921 146.575358 
L 288.322928 186.113777 
L 288.333621 186.200842 
L 288.376392 185.201234 
L 288.436986 177.163317 
L 288.49045 136.627514 
L 288.622329 65.928171 
L 288.654407 65.40643 
L 288.700743 66.647521 
L 288.768465 78.347875 
L 288.818365 139.318702 
L 288.957373 186.073952 
L 288.97163 186.192628 
L 289.003708 185.710282 
L 289.07143 178.293672 
L 289.128459 138.659722 
L 289.263902 65.857635 
L 289.292416 65.405003 
L 289.342316 66.828891 
L 289.402909 76.702605 
L 289.452809 127.012813 
L 289.581124 185.691424 
L 289.613203 186.198483 
L 289.659539 184.938005 
L 289.72726 173.132957 
L 289.780725 105.972613 
L 289.919732 65.500931 
L 289.930425 65.411075 
L 289.973196 66.370872 
L 290.033789 74.271169 
L 290.087254 113.646037 
L 290.222697 185.757424 
L 290.251211 186.202667 
L 290.301112 184.753761 
L 290.361705 174.780817 
L 290.411605 123.395996 
L 290.539919 65.904665 
L 290.571998 65.411919 
L 290.618334 66.692164 
L 290.686055 78.602366 
L 290.73952 146.174053 
L 290.878527 186.110284 
L 290.88922 186.199152 
L 290.931992 185.216118 
L 290.992585 177.238118 
L 291.046049 137.217657 
L 291.177928 65.938153 
L 291.210007 65.405266 
L 291.256343 66.632023 
L 291.324064 78.253722 
L 291.373964 138.827937 
L 291.512972 186.068794 
L 291.530793 186.191667 
L 291.562872 185.574571 
L 291.623465 179.196151 
L 291.684058 139.157331 
L 291.823065 65.758108 
L 291.848015 65.405981 
L 291.894351 66.581051 
L 291.962073 77.909395 
L 292.011973 136.827447 
L 292.147416 185.963669 
L 292.168802 186.200335 
L 292.211573 185.128999 
L 292.272166 176.753438 
L 292.325631 132.964254 
L 292.453946 66.024503 
L 292.486024 65.413707 
L 292.539489 66.980667 
L 292.600082 77.56086 
L 292.649982 134.441492 
L 292.785425 185.951291 
L 292.806811 186.202468 
L 292.849582 185.177279 
L 292.906611 177.974723 
L 292.96364 135.577642 
L 293.095519 65.912947 
L 293.127597 65.409507 
L 293.173933 66.674889 
L 293.241655 78.506153 
L 293.295119 145.769863 
L 293.434127 186.107251 
L 293.444819 186.197003 
L 293.487591 185.231293 
L 293.548184 177.311811 
L 293.601648 137.779769 
L 293.737092 65.847848 
L 293.765606 65.404672 
L 293.815506 66.859569 
L 293.876099 76.857749 
L 293.925999 128.507997 
L 294.057878 185.794295 
L 294.086392 186.194475 
L 294.132728 184.909223 
L 294.20045 172.972569 
L 294.253914 105.299081 
L 294.392922 65.495875 
L 294.403615 65.407502 
L 294.446386 66.396153 
L 294.506979 74.393973 
L 294.560444 114.58313 
L 294.692323 185.672515 
L 294.724401 186.20168 
L 294.770737 184.970163 
L 294.838459 173.322212 
L 294.888359 112.613497 
L 295.027366 65.536695 
L 295.045188 65.416586 
L 295.077266 66.036772 
L 295.137859 72.430871 
L 295.198452 112.613497 
L 295.33746 185.852412 
L 295.36241 186.20168 
L 295.408746 185.021935 
L 295.476467 173.666478 
L 295.526367 114.58313 
L 295.661811 65.642392 
L 295.683196 65.407502 
L 295.725968 66.482372 
L 295.786561 74.879647 
L 295.840025 118.900875 
L 295.96834 185.586891 
L 296.000419 186.194475 
L 296.053883 184.621545 
L 296.114476 174.01448 
L 296.164376 116.931576 
L 296.299819 65.654855 
L 296.321205 65.404672 
L 296.363977 66.43464 
L 296.421005 73.652785 
L 296.478034 116.24989 
L 296.609913 185.697156 
L 296.641992 186.197003 
L 296.688328 184.926692 
L 296.756049 173.069173 
L 296.809514 105.702421 
L 296.948521 65.499062 
L 296.959214 65.409507 
L 297.001985 66.381065 
L 297.062578 74.319893 
L 297.116043 114.011872 
L 297.251486 185.761454 
L 297.28 186.202468 
L 297.329901 184.741692 
L 297.390494 174.718115 
L 297.440394 122.804027 
L 297.572273 65.810261 
L 297.600787 65.413707 
L 297.647123 66.703994 
L 297.714844 78.667191 
L 297.768309 146.441972 
L 297.907316 186.112562 
L 297.918009 186.200335 
L 297.960781 185.206158 
L 298.021374 177.188364 
L 298.074838 136.827447 
L 298.206717 65.931429 
L 298.238796 65.405981 
L 298.285131 66.642276 
L 298.352853 78.316443 
L 298.402753 139.157331 
L 298.541761 186.072298 
L 298.556018 186.191667 
L 298.591661 185.566455 
L 298.64869 179.8725 
L 298.705718 149.904793 
L 298.869676 65.433321 
L 298.87324 65.436416 
L 298.876804 65.405266 
L 298.908883 65.938153 
L 298.976605 73.592288 
L 299.033633 115.599483 
L 299.165512 185.688451 
L 299.197591 186.199152 
L 299.243927 184.943555 
L 299.311648 173.164693 
L 299.365113 106.107997 
L 299.50412 65.501789 
L 299.514813 65.411919 
L 299.557585 66.365747 
L 299.618178 74.24702 
L 299.671642 113.467394 
L 299.807085 185.755448 
L 299.8356 186.202667 
L 299.8855 184.75986 
L 299.946093 174.811985 
L 299.995993 123.694034 
L 300.124308 65.907356 
L 300.156386 65.411075 
L 300.202722 66.68634 
L 300.270444 78.570168 
L 300.323908 146.039594 
L 300.462915 186.109221 
L 300.473608 186.198483 
L 300.51638 185.221148 
L 300.576973 177.262813 
L 300.630437 137.408054 
L 300.765881 65.843757 
L 300.794395 65.405003 
L 300.844295 66.871547 
L 300.904888 76.920676 
L 300.954788 129.096873 
L 301.086667 185.799778 
L 301.115181 186.192628 
L 301.161517 184.897279 
L 301.229239 172.907437 
L 301.282703 105.031915 
L 301.421711 65.493495 
L 301.432404 65.40643 
L 301.475175 66.406038 
L 301.535768 74.443956 
L 301.589233 114.979759 
L 301.721111 185.679102 
L 301.75319 186.200842 
L 301.799526 184.959752 
L 301.867248 173.259397 
L 302.095362 125.803636 
L 306.22638 125.803636 
L 306.229944 186.169998 
L 306.336873 174.399482 
L 306.386773 119.963403 
L 306.518652 65.780613 
L 306.543602 65.41027 
L 306.593502 66.765816 
L 306.65766 77.688303 
L 306.70756 135.357383 
L 306.843003 185.955739 
L 306.864389 186.202601 
L 306.90716 185.159006 
L 306.964189 177.893277 
L 307.021218 134.675697 
L 307.153096 65.902042 
L 307.185175 65.412797 
L 307.231511 66.69805 
L 307.299233 78.634704 
L 307.352697 146.308191 
L 307.491704 186.111398 
L 307.502397 186.199771 
L 307.545169 185.21112 
L 307.605762 177.213299 
L 307.659226 137.024142 
L 307.791105 65.934757 
L 307.823184 65.405592 
L 307.86952 66.63711 
L 307.937241 78.285061 
L 307.987141 138.993775 
L 308.126149 186.070578 
L 308.14397 186.190687 
L 308.176049 185.5705 
L 308.236642 179.176402 
L 308.297235 138.993775 
L 308.436243 65.75486 
L 308.461193 65.405592 
L 308.507528 66.585338 
L 308.57525 77.940794 
L 308.62515 137.024142 
L 308.760593 185.96488 
L 308.781979 186.199771 
L 308.824751 185.124901 
L 308.885344 176.727626 
L 308.938808 132.706398 
L 309.067123 66.020381 
L 309.099201 65.412797 
L 309.152666 66.985728 
L 309.213259 77.592793 
L 309.263159 134.675697 
L 309.398602 185.952418 
L 309.419988 186.202601 
L 309.462759 185.172633 
L 309.519788 177.954488 
L 309.576817 135.357383 
L 309.708696 65.910117 
L 309.740774 65.41027 
L 309.78711 66.680581 
L 309.854832 78.5381 
L 309.908296 145.904852 
L 310.047304 186.10821 
L 310.057997 186.197765 
L 310.100768 185.226208 
L 310.161361 177.28738 
L 310.214826 137.595401 
L 310.350269 65.845819 
L 310.378783 65.404804 
L 310.428683 66.865581 
L 310.489276 76.889158 
L 310.539176 128.803246 
L 310.671055 185.797012 
L 310.69957 186.193565 
L 310.745905 184.903279 
L 310.813627 172.940082 
L 310.867091 105.1653 
L 311.006099 65.49471 
L 311.016792 65.406938 
L 311.059563 66.401115 
L 311.120156 74.418909 
L 311.173621 114.779826 
L 311.3055 185.675843 
L 311.337578 186.201292 
L 311.383914 184.964997 
L 311.451636 173.29083 
L 311.501536 112.449942 
L 311.640543 65.534975 
L 311.654801 65.415605 
L 311.690443 66.040818 
L 311.747472 71.734773 
L 311.804501 101.70248 
L 311.968458 186.173951 
L 311.972023 186.170856 
L 311.975587 186.202007 
L 312.007666 185.66912 
L 312.075387 178.014985 
L 312.132416 136.00779 
L 312.264295 65.918822 
L 312.296374 65.40812 
L 312.342709 66.663718 
L 312.410431 78.44258 
L 312.463895 145.499276 
L 312.602903 186.105483 
L 312.613596 186.195354 
L 312.656367 185.241526 
L 312.71696 177.360252 
L 312.770425 138.139879 
L 312.905868 65.851825 
L 312.934382 65.404605 
L 312.984282 66.847412 
L 313.044875 76.795288 
L 313.094776 127.913239 
L 313.22309 185.699916 
L 313.255169 186.196198 
L 313.301505 184.920933 
L 313.369226 173.037105 
L 313.422691 105.567679 
L 313.561698 65.498051 
L 313.572391 65.40879 
L 313.615163 66.386124 
L 313.675756 74.344459 
L 313.72922 114.199218 
L 313.864663 185.763516 
L 313.893178 186.20227 
L 313.943078 184.735725 
L 314.003671 174.686597 
L 314.053571 122.5104 
L 314.18545 65.807495 
L 314.213964 65.414645 
L 314.2603 66.709994 
L 314.328021 78.699836 
L 314.381486 146.575358 
L 314.520493 186.113777 
L 314.531186 186.200842 
L 314.573958 185.201234 
L 314.634551 177.163317 
L 314.688015 136.627514 
L 314.819894 65.928171 
L 314.851973 65.40643 
L 314.898309 66.647521 
L 314.96603 78.347875 
L 315.01593 139.318702 
L 315.154938 186.073952 
L 315.169195 186.192628 
L 315.201274 185.710282 
L 315.268995 178.293672 
L 315.326024 138.659722 
L 315.461467 65.857635 
L 315.489982 65.405003 
L 315.539882 66.828891 
L 315.600475 76.702605 
L 315.650375 127.012813 
L 315.778689 185.691424 
L 315.810768 186.198483 
L 315.857104 184.938005 
L 315.924825 173.132957 
L 315.97829 105.972613 
L 316.117297 65.500931 
L 316.12799 65.411075 
L 316.170762 66.370872 
L 316.231355 74.271169 
L 316.284819 113.646037 
L 316.420262 185.757424 
L 316.448777 186.202667 
L 316.498677 184.753761 
L 316.55927 174.780817 
L 316.60917 123.395996 
L 316.737485 65.904665 
L 316.769563 65.411919 
L 316.815899 66.692164 
L 316.883621 78.602366 
L 316.937085 146.174053 
L 317.076093 186.110284 
L 317.086786 186.199152 
L 317.129557 185.216118 
L 317.19015 177.238118 
L 317.243614 137.217657 
L 317.375493 65.938153 
L 317.407572 65.405266 
L 317.453908 66.632023 
L 317.521629 78.253722 
L 317.57153 138.827937 
L 317.710537 186.068794 
L 317.728359 186.191667 
L 317.760437 185.574571 
L 317.82103 179.196151 
L 317.881623 139.157331 
L 318.020631 65.758108 
L 318.045581 65.405981 
L 318.091917 66.581051 
L 318.159638 77.909395 
L 318.209538 136.827447 
L 318.344982 185.963669 
L 318.366367 186.200335 
L 318.409139 185.128999 
L 318.469732 176.753438 
L 318.523196 132.964254 
L 318.651511 66.024503 
L 318.683589 65.413707 
L 318.737054 66.980667 
L 318.797647 77.56086 
L 318.847547 134.441492 
L 318.98299 185.951291 
L 319.004376 186.202468 
L 319.047148 185.177279 
L 319.104176 177.974723 
L 319.161205 135.577642 
L 319.225362 73.432921 
L 319.275262 125.803636 
L 323.55598 125.803636 
L 323.559545 181.403593 
L 323.662909 88.440182 
L 323.798352 65.413707 
L 323.805481 65.445099 
L 323.86251 68.127061 
L 323.923103 83.661375 
L 324.115574 186.200335 
L 324.197553 181.551216 
L 324.258146 156.624026 
L 324.436361 65.405981 
L 324.454182 65.597889 
L 324.504083 68.381192 
L 324.56824 87.385363 
L 324.753583 186.191667 
L 324.807048 184.63679 
L 324.867641 174.110403 
L 324.917541 117.644591 
L 325.052984 65.658292 
L 325.07437 65.405266 
L 325.117141 66.420552 
L 325.177734 74.519691 
L 325.231199 115.599483 
L 325.363078 185.688451 
L 325.395156 186.199152 
L 325.441492 184.943555 
L 325.509214 173.164693 
L 325.562678 106.107997 
L 325.701686 65.501789 
L 325.712378 65.411919 
L 325.75515 66.365747 
L 325.815743 74.24702 
L 325.869207 113.467394 
L 326.004651 185.755448 
L 326.033165 186.202667 
L 326.083065 184.75986 
L 326.143658 174.811985 
L 326.193558 123.694034 
L 326.321873 65.907356 
L 326.353951 65.411075 
L 326.400287 66.68634 
L 326.468009 78.570168 
L 326.521473 146.039594 
L 326.660481 186.109221 
L 326.671174 186.198483 
L 326.713945 185.221148 
L 326.774538 177.262813 
L 326.828003 137.408054 
L 326.963446 65.843757 
L 326.99196 65.405003 
L 327.04186 66.871547 
L 327.102453 76.920676 
L 327.152353 129.096873 
L 327.284232 185.799778 
L 327.312747 186.192628 
L 327.359083 184.897279 
L 327.426804 172.907437 
L 327.480269 105.031915 
L 327.619276 65.493495 
L 327.629969 65.40643 
L 327.67274 66.406038 
L 327.733333 74.443956 
L 327.786798 114.979759 
L 327.918677 185.679102 
L 327.950755 186.200842 
L 327.997091 184.959752 
L 328.064813 173.259397 
L 328.114713 112.288571 
L 328.253721 65.53332 
L 328.267978 65.414645 
L 328.300056 65.896991 
L 328.367778 73.3136 
L 328.424807 112.947551 
L 328.56025 185.749637 
L 328.588764 186.20227 
L 328.638664 184.778382 
L 328.699257 174.904668 
L 328.749157 124.59446 
L 328.877472 65.915849 
L 328.909551 65.40879 
L 328.955887 66.669267 
L 329.023608 78.474316 
L 329.077073 145.63466 
L 329.21608 186.106342 
L 329.226773 186.196198 
L 329.269544 185.2364 
L 329.330137 177.336104 
L 329.383602 137.961235 
L 329.519045 65.849849 
L 329.547559 65.404605 
L 329.59746 66.853511 
L 329.658053 76.826456 
L 329.707953 128.211276 
L 329.836267 185.702608 
L 329.868346 186.195354 
L 329.914682 184.915109 
L 329.982403 173.004907 
L 330.035868 105.43322 
L 330.174875 65.496989 
L 330.185568 65.40812 
L 330.22834 66.391155 
L 330.288933 74.369155 
L 330.342397 114.389615 
L 330.474276 185.66912 
L 330.506355 186.202007 
L 330.552691 184.97525 
L 330.620412 173.353551 
L 330.670312 112.779335 
L 330.80932 65.538479 
L 330.827141 65.415605 
L 330.85922 66.032702 
L 330.919813 72.411121 
L 330.980406 112.449942 
L 331.119413 185.849165 
L 331.144363 186.201292 
L 331.190699 185.026222 
L 331.258421 173.697878 
L 331.308321 114.779826 
L 331.443764 65.643604 
L 331.46515 65.406938 
L 331.507921 66.478274 
L 331.568514 74.853835 
L 331.621979 118.643019 
L 331.750294 185.58277 
L 331.782372 186.193565 
L 331.835837 184.626606 
L 331.89643 174.046412 
L 331.94633 117.16578 
L 332.081773 65.655982 
L 332.103159 65.404804 
L 332.14593 66.429994 
L 332.202959 73.63255 
L 332.259988 116.02963 
L 332.391867 185.694325 
L 332.423945 186.197765 
L 332.470281 184.932384 
L 332.538003 173.10112 
L 332.591467 105.83741 
L 332.730475 65.500022 
L 332.741167 65.41027 
L 332.783939 66.37598 
L 332.844532 74.295461 
L 332.897996 113.827503 
L 333.03344 185.759424 
L 333.061954 186.202601 
L 333.111854 184.747704 
L 333.172447 174.749524 
L 333.222347 123.099276 
L 333.354226 65.812978 
L 333.38274 65.412797 
L 333.429076 66.69805 
L 333.496798 78.634704 
L 333.550262 146.308191 
L 333.68927 186.111398 
L 333.699963 186.199771 
L 333.742734 185.21112 
L 333.803327 177.213299 
L 333.856792 137.024142 
L 333.988671 65.934757 
L 334.020749 65.405592 
L 334.067085 66.63711 
L 334.134807 78.285061 
L 334.184707 138.993775 
L 334.323714 186.070578 
L 334.341536 186.190687 
L 334.373614 185.5705 
L 334.434207 179.176402 
L 334.4948 138.993775 
L 334.633808 65.75486 
L 334.658758 65.405592 
L 334.705094 66.585338 
L 334.772815 77.940794 
L 334.822715 137.024142 
L 334.958159 185.96488 
L 334.979544 186.199771 
L 335.022316 185.124901 
L 335.082909 176.727626 
L 335.136373 132.706398 
L 335.264688 66.020381 
L 335.296767 65.412797 
L 335.350231 66.985728 
L 335.410824 77.592793 
L 335.460724 134.675697 
L 335.596167 185.952418 
L 335.617553 186.202601 
L 335.660325 185.172633 
L 335.717353 177.954488 
L 335.774382 135.357383 
L 335.906261 65.910117 
L 335.93834 65.41027 
L 335.984675 66.680581 
L 336.052397 78.5381 
L 336.105862 145.904852 
L 336.244869 186.10821 
L 336.255562 186.197765 
L 336.298333 185.226208 
L 336.358926 177.28738 
L 336.412391 137.595401 
L 336.547834 65.845819 
L 336.554963 65.650433 
L 336.66902 125.803636 
L 340.885581 125.803636 
L 340.885581 125.803636 
" clip-path="url(#pc5192fc52c)" style="fill: none; stroke: #0000ff; stroke-width: 2; stroke-linecap: square"/>
   </g>
   <g id="line2d_3">
    <defs>
     <path id="m9ce2e6f507" d="M 3 0 
L -3 -3 
L -3 3 
z
" style="stroke: #000000; stroke-linejoin: miter"/>
    </defs>
    <g>
     <use xlink:href="#m9ce2e6f507" x="356.603942" y="125.803636" style="stroke: #000000; stroke-linejoin: miter"/>
    </g>
   </g>
   <g id="line2d_4">
    <defs>
     <path id="mc8bf214deb" d="M 0 -3 
L -3 3 
L 3 3 
z
" style="stroke: #000000; stroke-linejoin: miter"/>
    </defs>
    <g>
     <use xlink:href="#mc8bf214deb" x="26.518361" y="30.528" style="stroke: #000000; stroke-linejoin: miter"/>
    </g>
   </g>
   <g id="patch_3">
    <path d="M 26.518361 205.2 
L 26.518361 30.528 
" style="fill: none; stroke: #000000; stroke-width: 2; stroke-linejoin: miter; stroke-linecap: square"/>
   </g>
   <g id="patch_4">
    <path d="M 10.8 125.803636 
L 356.603942 125.803636 
" style="fill: none; stroke: #000000; stroke-width: 2; stroke-linejoin: miter; stroke-linecap: square"/>
   </g>
   <g id="text_2">
    <!-- t / s -->
    <g transform="translate(395.900468 129.666761) scale(0.14 -0.14)">
     <defs>
      <path id="DejaVuSans-74" d="M 1172 4494 
L 1172 3500 
L 2356 3500 
L 2356 3053 
L 1172 3053 
L 1172 1153 
Q 1172 725 1289 603 
Q 1406 481 1766 481 
L 2356 481 
L 2356 0 
L 1766 0 
Q 1100 0 847 248 
Q 594 497 594 1153 
L 594 3053 
L 172 3053 
L 172 3500 
L 594 3500 
L 594 4494 
L 1172 4494 
z
" transform="scale(0.015625)"/>
      <path id="DejaVuSans-20" transform="scale(0.015625)"/>
      <path id="DejaVuSans-2f" d="M 1625 4666 
L 2156 4666 
L 531 -594 
L 0 -594 
L 1625 4666 
z
" transform="scale(0.015625)"/>
      <path id="DejaVuSans-73" d="M 2834 3397 
L 2834 2853 
Q 2591 2978 2328 3040 
Q 2066 3103 1784 3103 
Q 1356 3103 1142 2972 
Q 928 2841 928 2578 
Q 928 2378 1081 2264 
Q 1234 2150 1697 2047 
L 1894 2003 
Q 2506 1872 2764 1633 
Q 3022 1394 3022 966 
Q 3022 478 2636 193 
Q 2250 -91 1575 -91 
Q 1294 -91 989 -36 
Q 684 19 347 128 
L 347 722 
Q 666 556 975 473 
Q 1284 391 1588 391 
Q 1994 391 2212 530 
Q 2431 669 2431 922 
Q 2431 1156 2273 1281 
Q 2116 1406 1581 1522 
L 1381 1569 
Q 847 1681 609 1914 
Q 372 2147 372 2553 
Q 372 3047 722 3315 
Q 1072 3584 1716 3584 
Q 2034 3584 2315 3537 
Q 2597 3491 2834 3397 
z
" transform="scale(0.015625)"/>
     </defs>
     <use xlink:href="#DejaVuSans-74"/>
     <use xlink:href="#DejaVuSans-20" x="39.208984"/>
     <use xlink:href="#DejaVuSans-2f" x="70.996094"/>
     <use xlink:href="#DejaVuSans-20" x="104.6875"/>
     <use xlink:href="#DejaVuSans-73" x="136.474609"/>
    </g>
   </g>
   <g id="text_3">
    <!-- A -->
    <g transform="translate(21.729923 21.264728) scale(0.14 -0.14)">
     <defs>
      <path id="DejaVuSans-41" d="M 2188 4044 
L 1331 1722 
L 3047 1722 
L 2188 4044 
z
M 1831 4666 
L 2547 4666 
L 4325 0 
L 3669 0 
L 3244 1197 
L 1141 1197 
L 716 0 
L 50 0 
L 1831 4666 
z
" transform="scale(0.015625)"/>
     </defs>
     <use xlink:href="#DejaVuSans-41"/>
    </g>
   </g>
  </g>
 </g>
 <defs>
  <clipPath id="pc5192fc52c">
   <rect x="10.8" y="30.528" width="345.803942" height="174.672"/>
  </clipPath>
 </defs>
</svg>
