<?xml version="1.0" encoding="utf-8" standalone="no"?>
<!DOCTYPE svg PUBLIC "-//W3C//DTD SVG 1.1//EN"
  "http://www.w3.org/Graphics/SVG/1.1/DTD/svg11.dtd">
<svg xmlns:xlink="http://www.w3.org/1999/xlink" width="432pt" height="216pt" viewBox="0 0 432 216" xmlns="http://www.w3.org/2000/svg" version="1.1">
 <metadata>
  <rdf:RDF xmlns:dc="http://purl.org/dc/elements/1.1/" xmlns:cc="http://creativecommons.org/ns#" xmlns:rdf="http://www.w3.org/1999/02/22-rdf-syntax-ns#">
   <cc:Work>
    <dc:type rdf:resource="http://purl.org/dc/dcmitype/StillImage"/>
    <dc:date>2025-10-20T10:54:33.305961</dc:date>
    <dc:format>image/svg+xml</dc:format>
    <dc:creator>
     <cc:Agent>
      <dc:title>Matplotlib v3.9.4, https://matplotlib.org/</dc:title>
     </cc:Agent>
    </dc:creator>
   </cc:Work>
  </rdf:RDF>
 </metadata>
 <defs>
  <style type="text/css">*{stroke-linejoin: round; stroke-linecap: butt}</style>
 </defs>
 <g id="figure_1">
  <g id="patch_1">
   <path d="M 0 216 
L 432 216 
L 432 0 
L 0 0 
L 0 216 
z
" style="fill: none"/>
  </g>
  <g id="axes_1">
   <g id="patch_2">
    <path d="M 10.8 205.2 
L 376.314146 205.2 
L 376.314146 34.715077 
L 10.8 34.715077 
L 10.8 205.2 
z
" style="fill: none"/>
   </g>
   <g id="matplotlib.axis_1"/>
   <g id="matplotlib.axis_2"/>
   <g id="line2d_1">
    <path d="M 19.714979 60.943527 
L 23.280971 61.048315 
L 26.846963 61.361178 
L 30.412954 61.877674 
L 33.978946 62.59059 
L 38.436435 63.742955 
L 42.893925 65.163355 
L 47.351415 66.824296 
L 52.700402 69.092464 
L 58.04939 71.609432 
L 64.289875 74.788582 
L 72.313356 79.136988 
L 88.360319 88.177923 
L 100.84129 95.092271 
L 110.647767 100.276836 
L 119.562746 104.74297 
L 128.477725 108.951038 
L 137.392704 112.89452 
L 146.307684 116.576872 
L 155.222663 120.007831 
L 164.137642 123.200791 
L 173.052621 126.170998 
L 182.859098 129.199928 
L 192.665575 131.999541 
L 203.36355 134.815687 
L 214.061525 137.407087 
L 225.650998 139.986508 
L 238.131969 142.527513 
L 251.504438 145.008452 
L 265.768405 147.412329 
L 280.923869 149.726469 
L 296.970832 151.942049 
L 313.909292 154.053553 
L 332.630748 156.153155 
L 352.243703 158.126253 
L 373.639653 160.053045 
L 376.314146 160.279108 
L 376.314146 160.279108 
" clip-path="url(#pd8088b3c7a)" style="fill: none; stroke: #0000ff; stroke-width: 2; stroke-linecap: square"/>
   </g>
   <g id="line2d_2">
    <defs>
     <path id="m0616d84426" d="M 3 0 
L -3 -3 
L -3 3 
z
" style="stroke: #000000; stroke-linejoin: miter"/>
    </defs>
    <g>
     <use xlink:href="#m0616d84426" x="376.314146" y="192.085775" style="stroke: #000000; stroke-linejoin: miter"/>
    </g>
   </g>
   <g id="line2d_3">
    <defs>
     <path id="m0b1a72b076" d="M 0 -3 
L -3 3 
L 3 3 
z
" style="stroke: #000000; stroke-linejoin: miter"/>
    </defs>
    <g>
     <use xlink:href="#m0b1a72b076" x="19.714979" y="34.715077" style="stroke: #000000; stroke-linejoin: miter"/>
    </g>
   </g>
   <g id="patch_3">
    <path d="M 19.714979 205.2 
L 19.714979 34.715077 
" style="fill: none; stroke: #000000; stroke-width: 2; stroke-linejoin: miter; stroke-linecap: square"/>
   </g>
   <g id="patch_4">
    <path d="M 10.8 192.085775 
L 376.314146 192.085775 
" style="fill: none; stroke: #000000; stroke-width: 2; stroke-linejoin: miter; stroke-linecap: square"/>
   </g>
   <g id="text_1">
    <!-- f / Hz -->
    <g transform="translate(385.229126 195.9489) scale(0.14 -0.14)">
     <defs>
      <path id="DejaVuSans-66" d="M 2375 4863 
L 2375 4384 
L 1825 4384 
Q 1516 4384 1395 4259 
Q 1275 4134 1275 3809 
L 1275 3500 
L 2222 3500 
L 2222 3053 
L 1275 3053 
L 1275 0 
L 697 0 
L 697 3053 
L 147 3053 
L 147 3500 
L 697 3500 
L 697 3744 
Q 697 4328 969 4595 
Q 1241 4863 1831 4863 
L 2375 4863 
z
" transform="scale(0.015625)"/>
      <path id="DejaVuSans-20" transform="scale(0.015625)"/>
      <path id="DejaVuSans-2f" d="M 1625 4666 
L 2156 4666 
L 531 -594 
L 0 -594 
L 1625 4666 
z
" transform="scale(0.015625)"/>
      <path id="DejaVuSans-48" d="M 628 4666 
L 1259 4666 
L 1259 2753 
L 3553 2753 
L 3553 4666 
L 4184 4666 
L 4184 0 
L 3553 0 
L 3553 2222 
L 1259 2222 
L 1259 0 
L 628 0 
L 628 4666 
z
" transform="scale(0.015625)"/>
      <path id="DejaVuSans-7a" d="M 353 3500 
L 3084 3500 
L 3084 2975 
L 922 459 
L 3084 459 
L 3084 0 
L 275 0 
L 275 525 
L 2438 3041 
L 353 3041 
L 353 3500 
z
" transform="scale(0.015625)"/>
     </defs>
     <use xlink:href="#DejaVuSans-66"/>
     <use xlink:href="#DejaVuSans-20" x="35.205078"/>
     <use xlink:href="#DejaVuSans-2f" x="66.992188"/>
     <use xlink:href="#DejaVuSans-20" x="100.683594"/>
     <use xlink:href="#DejaVuSans-48" x="132.470703"/>
     <use xlink:href="#DejaVuSans-7a" x="207.666016"/>
    </g>
   </g>
   <g id="text_2">
    <!-- A -->
    <g transform="translate(14.926542 21.312135) scale(0.14 -0.14)">
     <defs>
      <path id="DejaVuSans-41" d="M 2188 4044 
L 1331 1722 
L 3047 1722 
L 2188 4044 
z
M 1831 4666 
L 2547 4666 
L 4325 0 
L 3669 0 
L 3244 1197 
L 1141 1197 
L 716 0 
L 50 0 
L 1831 4666 
z
" transform="scale(0.015625)"/>
     </defs>
     <use xlink:href="#DejaVuSans-41"/>
    </g>
   </g>
  </g>
 </g>
 <defs>
  <clipPath id="pd8088b3c7a">
   <rect x="10.8" y="34.715077" width="365.514146" height="170.484923"/>
  </clipPath>
 </defs>
</svg>
