<?xml version="1.0" encoding="utf-8" standalone="no"?>
<!DOCTYPE svg PUBLIC "-//W3C//DTD SVG 1.1//EN"
  "http://www.w3.org/Graphics/SVG/1.1/DTD/svg11.dtd">
<svg xmlns:xlink="http://www.w3.org/1999/xlink" width="432pt" height="216pt" viewBox="0 0 432 216" xmlns="http://www.w3.org/2000/svg" version="1.1">
 <metadata>
  <rdf:RDF xmlns:dc="http://purl.org/dc/elements/1.1/" xmlns:cc="http://creativecommons.org/ns#" xmlns:rdf="http://www.w3.org/1999/02/22-rdf-syntax-ns#">
   <cc:Work>
    <dc:type rdf:resource="http://purl.org/dc/dcmitype/StillImage"/>
    <dc:date>2025-10-21T17:25:24.150273</dc:date>
    <dc:format>image/svg+xml</dc:format>
    <dc:creator>
     <cc:Agent>
      <dc:title>Matplotlib v3.9.4, https://matplotlib.org/</dc:title>
     </cc:Agent>
    </dc:creator>
   </cc:Work>
  </rdf:RDF>
 </metadata>
 <defs>
  <style type="text/css">*{stroke-linejoin: round; stroke-linecap: butt}</style>
 </defs>
 <g id="figure_1">
  <g id="patch_1">
   <path d="M 0 216 
L 432 216 
L 432 0 
L 0 0 
L 0 216 
z
" style="fill: none"/>
  </g>
  <g id="axes_1">
   <g id="patch_2">
    <path d="M 10.8 205.2 
L 387.343227 205.2 
L 387.343227 30.528 
L 10.8 30.528 
L 10.8 205.2 
z
" style="fill: none"/>
   </g>
   <g id="matplotlib.axis_1"/>
   <g id="matplotlib.axis_2">
    <g id="ytick_1">
     <g id="line2d_1">
      <defs>
       <path id="mad1dd0e6c6" d="M 4 0 
L -4 -0 
" style="stroke: #000000; stroke-width: 2"/>
      </defs>
      <g>
       <use xlink:href="#mad1dd0e6c6" x="27.915601" y="46.407273" style="stroke: #000000; stroke-width: 2"/>
      </g>
     </g>
     <g id="text_1">
      <!-- 1 -->
      <g transform="translate(14.053101 50.206491) scale(0.1 -0.1)">
       <defs>
        <path id="DejaVuSans-31" d="M 794 531 
L 1825 531 
L 1825 4091 
L 703 3866 
L 703 4441 
L 1819 4666 
L 2450 4666 
L 2450 531 
L 3481 531 
L 3481 0 
L 794 0 
L 794 531 
z
" transform="scale(0.015625)"/>
       </defs>
       <use xlink:href="#DejaVuSans-31"/>
      </g>
     </g>
    </g>
   </g>
   <g id="line2d_2">
    <path d="M 27.915601 125.803636 
L 28.874458 52.743577 
L 29.833316 68.603812 
L 30.792173 60.633064 
L 31.75103 64.886066 
L 32.709887 62.932027 
L 33.668744 63.297632 
L 34.627602 64.070198 
L 35.586459 62.494571 
L 36.545316 64.598339 
L 37.504173 62.196749 
L 38.463031 64.699952 
L 39.421888 62.264389 
L 40.380745 64.494405 
L 41.339602 62.580801 
L 42.298459 64.097175 
L 43.257317 63.025382 
L 44.216174 63.633322 
L 45.175031 63.481764 
L 46.133888 63.210642 
L 47.092745 63.849573 
L 48.051603 62.915697 
L 49.01046 64.061353 
L 49.969317 62.792886 
L 50.928174 64.094653 
L 51.887031 62.844998 
L 52.845889 63.961089 
L 53.804746 63.04444 
L 54.763603 63.711305 
L 55.72246 63.327176 
L 57.640175 63.614144 
L 58.599032 63.154496 
L 59.557889 63.840077 
L 60.516746 62.981789 
L 61.475604 63.946316 
L 62.434461 62.938407 
L 63.393318 63.92321 
L 64.352175 63.028392 
L 65.311032 63.774424 
L 66.26989 63.224965 
L 67.228747 63.542878 
L 68.187604 63.476181 
L 69.146461 63.29008 
L 70.105318 63.716299 
L 71.064176 63.083817 
L 72.023033 63.881381 
L 72.98189 62.968297 
L 73.940747 63.932624 
L 74.899605 62.981498 
L 75.858462 63.853523 
L 76.817319 63.121001 
L 77.776176 63.66248 
L 78.735033 63.352323 
L 79.693891 63.405463 
L 80.652748 63.615993 
L 81.611605 63.150677 
L 82.570462 63.851669 
L 83.529319 62.957815 
L 84.488177 63.987026 
L 85.447034 62.884651 
L 86.405891 63.988269 
L 87.364748 62.960691 
L 88.323605 63.83618 
L 89.282463 63.181251 
L 90.24132 63.557822 
L 91.200177 63.503764 
L 92.159034 63.213978 
L 93.117892 63.850881 
L 94.076749 62.884769 
L 95.035606 64.139913 
L 95.994463 62.657652 
L 96.95332 64.283147 
L 97.912178 62.615075 
L 98.871035 64.211378 
L 99.829892 62.807995 
L 100.788749 63.894441 
L 101.747606 63.248946 
L 102.706464 63.340017 
L 103.665321 63.90154 
L 104.624178 62.604862 
L 105.583035 64.695247 
L 106.541892 61.774011 
L 107.50075 65.539678 
L 108.459607 60.94144 
L 109.418464 66.349967 
L 110.377321 60.133186 
L 111.336179 67.266638 
L 112.295036 58.570476 
L 113.253893 74.850325 
L 114.21275 176.756948 
L 115.171607 193.036797 
L 116.130465 184.340635 
L 117.089322 191.474087 
L 118.048179 185.257306 
L 119.007036 190.665833 
L 119.965893 186.067595 
L 120.924751 189.833262 
L 121.883608 186.912026 
L 122.842465 189.002411 
L 123.801322 187.705733 
L 124.760179 188.267256 
L 125.719037 188.358327 
L 126.677894 187.712832 
L 127.636751 188.799278 
L 128.595608 187.395894 
L 129.554466 188.992198 
L 130.513323 187.324126 
L 131.47218 188.949621 
L 132.431037 187.46736 
L 133.389894 188.722504 
L 134.348752 187.756392 
L 135.307609 188.393295 
L 136.266466 188.103509 
L 137.225323 188.049451 
L 138.18418 188.426022 
L 139.143038 187.771092 
L 140.101895 188.646582 
L 141.060752 187.619004 
L 142.019609 188.722621 
L 142.978466 187.620247 
L 143.937324 188.649458 
L 144.896181 187.755604 
L 145.855038 188.456595 
L 146.813895 187.991279 
L 147.772753 188.20181 
L 148.73161 188.25495 
L 149.690467 187.944793 
L 150.649324 188.486272 
L 151.608181 187.75375 
L 152.567039 188.625774 
L 153.525896 187.674649 
L 154.484753 188.638975 
L 155.44361 187.725892 
L 156.402467 188.523456 
L 157.361325 187.890973 
L 158.320182 188.317193 
L 159.279039 188.131092 
L 160.237896 188.064395 
L 161.196753 188.382308 
L 162.155611 187.832849 
L 163.114468 188.578881 
L 164.073325 187.684063 
L 165.032182 188.668866 
L 165.99104 187.660957 
L 166.949897 188.625484 
L 167.908754 187.767196 
L 168.867611 188.452776 
L 169.826468 187.993129 
L 171.744183 188.280096 
L 172.70304 187.895968 
L 173.661897 188.562832 
L 174.620754 187.646183 
L 175.579612 188.762275 
L 176.538469 187.51262 
L 177.497326 188.814387 
L 178.456183 187.545919 
L 179.41504 188.691576 
L 180.373898 187.757699 
L 181.332755 188.396631 
L 182.291612 188.125509 
L 183.250469 187.97395 
L 184.209327 188.581891 
L 185.168184 187.510098 
L 186.127041 189.026472 
L 187.085898 187.112867 
L 188.044755 189.342884 
L 189.003613 186.907321 
L 189.96247 189.410524 
L 190.921327 187.008934 
L 191.880184 189.112702 
L 192.839041 187.537074 
L 193.797899 188.309641 
L 194.756756 188.675246 
L 195.715613 186.721206 
L 196.67447 190.974209 
L 197.633327 183.003461 
L 198.592185 198.863696 
L 200.509899 52.743577 
L 201.468756 68.603812 
L 202.427614 60.633064 
L 203.386471 64.886066 
L 204.345328 62.932027 
L 205.304185 63.297632 
L 206.263042 64.070198 
L 207.2219 62.494571 
L 208.180757 64.598339 
L 209.139614 62.196749 
L 210.098471 64.699952 
L 211.057328 62.264389 
L 212.016186 64.494405 
L 212.975043 62.580801 
L 213.9339 64.097175 
L 214.892757 63.025382 
L 215.851614 63.633322 
L 216.810472 63.481764 
L 217.769329 63.210642 
L 218.728186 63.849573 
L 219.687043 62.915697 
L 220.645901 64.061353 
L 221.604758 62.792886 
L 222.563615 64.094653 
L 223.522472 62.844998 
L 224.481329 63.961089 
L 225.440187 63.04444 
L 226.399044 63.711305 
L 227.357901 63.327176 
L 229.275615 63.614144 
L 230.234473 63.154496 
L 231.19333 63.840077 
L 232.152187 62.981789 
L 233.111044 63.946316 
L 234.069901 62.938407 
L 235.028759 63.92321 
L 235.987616 63.028392 
L 236.946473 63.774424 
L 237.90533 63.224965 
L 238.864188 63.542878 
L 239.823045 63.476181 
L 240.781902 63.29008 
L 241.740759 63.716299 
L 242.699616 63.083817 
L 243.658474 63.881381 
L 244.617331 62.968297 
L 245.576188 63.932624 
L 246.535045 62.981498 
L 247.493902 63.853523 
L 248.45276 63.121001 
L 249.411617 63.66248 
L 250.370474 63.352323 
L 251.329331 63.405463 
L 252.288188 63.615993 
L 253.247046 63.150677 
L 254.205903 63.851669 
L 255.16476 62.957815 
L 256.123617 63.987026 
L 257.082475 62.884651 
L 258.041332 63.988269 
L 259.000189 62.960691 
L 259.959046 63.83618 
L 260.917903 63.181251 
L 261.876761 63.557822 
L 262.835618 63.503764 
L 263.794475 63.213978 
L 264.753332 63.850881 
L 265.712189 62.884769 
L 266.671047 64.139913 
L 267.629904 62.657652 
L 268.588761 64.283147 
L 269.547618 62.615075 
L 270.506475 64.211378 
L 271.465333 62.807995 
L 272.42419 63.894441 
L 273.383047 63.248946 
L 274.341904 63.340017 
L 275.300762 63.90154 
L 276.259619 62.604862 
L 277.218476 64.695247 
L 278.177333 61.774011 
L 279.13619 65.539678 
L 280.095048 60.94144 
L 281.053905 66.349967 
L 282.012762 60.133186 
L 282.971619 67.266638 
L 283.930476 58.570476 
L 284.889334 74.850325 
L 285.848191 176.756948 
L 286.807048 193.036797 
L 287.765905 184.340635 
L 288.724762 191.474087 
L 289.68362 185.257306 
L 290.642477 190.665833 
L 291.601334 186.067595 
L 292.560191 189.833262 
L 293.519049 186.912026 
L 294.477906 189.002411 
L 295.436763 187.705733 
L 296.39562 188.267256 
L 297.354477 188.358327 
L 298.313335 187.712832 
L 299.272192 188.799278 
L 300.231049 187.395894 
L 301.189906 188.992198 
L 302.148763 187.324126 
L 303.107621 188.949621 
L 304.066478 187.46736 
L 305.025335 188.722504 
L 305.984192 187.756392 
L 306.943049 188.393295 
L 307.901907 188.103509 
L 308.860764 188.049451 
L 309.819621 188.426022 
L 310.778478 187.771092 
L 311.737336 188.646582 
L 312.696193 187.619004 
L 313.65505 188.722621 
L 314.613907 187.620247 
L 315.572764 188.649458 
L 316.531622 187.755604 
L 317.490479 188.456595 
L 318.449336 187.991279 
L 319.408193 188.20181 
L 320.36705 188.25495 
L 321.325908 187.944793 
L 322.284765 188.486272 
L 323.243622 187.75375 
L 324.202479 188.625774 
L 325.161336 187.674649 
L 326.120194 188.638975 
L 327.079051 187.725892 
L 328.037908 188.523456 
L 328.996765 187.890973 
L 329.955623 188.317193 
L 330.91448 188.131092 
L 331.873337 188.064395 
L 332.832194 188.382308 
L 333.791051 187.832849 
L 334.749909 188.578881 
L 335.708766 187.684063 
L 336.667623 188.668866 
L 337.62648 187.660957 
L 338.585337 188.625484 
L 339.544195 187.767196 
L 340.503052 188.452776 
L 341.461909 187.993129 
L 343.379623 188.280096 
L 344.338481 187.895968 
L 345.297338 188.562832 
L 346.256195 187.646183 
L 347.215052 188.762275 
L 348.17391 187.51262 
L 349.132767 188.814387 
L 350.091624 187.545919 
L 351.050481 188.691576 
L 352.009338 187.757699 
L 352.968196 188.396631 
L 353.927053 188.125509 
L 354.88591 187.97395 
L 355.844767 188.581891 
L 356.803624 187.510098 
L 357.762482 189.026472 
L 358.721339 187.112867 
L 359.680196 189.342884 
L 360.639053 186.907321 
L 361.59791 189.410524 
L 362.556768 187.008934 
L 363.515625 189.112702 
L 364.474482 187.537074 
L 365.433339 188.309641 
L 366.392197 188.675246 
L 367.351054 186.721206 
L 368.309911 190.974209 
L 369.268768 183.003461 
L 370.227625 198.863696 
L 370.227625 198.863696 
" clip-path="url(#p9394c00b9c)" style="fill: none; stroke: #0000ff; stroke-width: 2; stroke-linecap: square"/>
   </g>
   <g id="line2d_3">
    <defs>
     <path id="m7502139888" d="M 3 0 
L -3 -3 
L -3 3 
z
" style="stroke: #000000; stroke-linejoin: miter"/>
    </defs>
    <g>
     <use xlink:href="#m7502139888" x="387.343227" y="125.803636" style="stroke: #000000; stroke-linejoin: miter"/>
    </g>
   </g>
   <g id="line2d_4">
    <defs>
     <path id="m40d5293151" d="M 0 -3 
L -3 3 
L 3 3 
z
" style="stroke: #000000; stroke-linejoin: miter"/>
    </defs>
    <g>
     <use xlink:href="#m40d5293151" x="27.915601" y="30.528" style="stroke: #000000; stroke-linejoin: miter"/>
    </g>
   </g>
   <g id="patch_3">
    <path d="M 27.915601 205.2 
L 27.915601 30.528 
" style="fill: none; stroke: #000000; stroke-width: 2; stroke-linejoin: miter; stroke-linecap: square"/>
   </g>
   <g id="patch_4">
    <path d="M 10.8 125.803636 
L 387.343227 125.803636 
" style="fill: none; stroke: #000000; stroke-width: 2; stroke-linejoin: miter; stroke-linecap: square"/>
   </g>
   <g id="text_2">
    <!-- t / s -->
    <g transform="translate(395.561016 129.666761) scale(0.14 -0.14)">
     <defs>
      <path id="DejaVuSans-74" d="M 1172 4494 
L 1172 3500 
L 2356 3500 
L 2356 3053 
L 1172 3053 
L 1172 1153 
Q 1172 725 1289 603 
Q 1406 481 1766 481 
L 2356 481 
L 2356 0 
L 1766 0 
Q 1100 0 847 248 
Q 594 497 594 1153 
L 594 3053 
L 172 3053 
L 172 3500 
L 594 3500 
L 594 4494 
L 1172 4494 
z
" transform="scale(0.015625)"/>
      <path id="DejaVuSans-20" transform="scale(0.015625)"/>
      <path id="DejaVuSans-2f" d="M 1625 4666 
L 2156 4666 
L 531 -594 
L 0 -594 
L 1625 4666 
z
" transform="scale(0.015625)"/>
      <path id="DejaVuSans-73" d="M 2834 3397 
L 2834 2853 
Q 2591 2978 2328 3040 
Q 2066 3103 1784 3103 
Q 1356 3103 1142 2972 
Q 928 2841 928 2578 
Q 928 2378 1081 2264 
Q 1234 2150 1697 2047 
L 1894 2003 
Q 2506 1872 2764 1633 
Q 3022 1394 3022 966 
Q 3022 478 2636 193 
Q 2250 -91 1575 -91 
Q 1294 -91 989 -36 
Q 684 19 347 128 
L 347 722 
Q 666 556 975 473 
Q 1284 391 1588 391 
Q 1994 391 2212 530 
Q 2431 669 2431 922 
Q 2431 1156 2273 1281 
Q 2116 1406 1581 1522 
L 1381 1569 
Q 847 1681 609 1914 
Q 372 2147 372 2553 
Q 372 3047 722 3315 
Q 1072 3584 1716 3584 
Q 2034 3584 2315 3537 
Q 2597 3491 2834 3397 
z
" transform="scale(0.015625)"/>
     </defs>
     <use xlink:href="#DejaVuSans-74"/>
     <use xlink:href="#DejaVuSans-20" x="39.208984"/>
     <use xlink:href="#DejaVuSans-2f" x="70.996094"/>
     <use xlink:href="#DejaVuSans-20" x="104.6875"/>
     <use xlink:href="#DejaVuSans-73" x="136.474609"/>
    </g>
   </g>
   <g id="text_3">
    <!-- A -->
    <g transform="translate(23.127164 21.264728) scale(0.14 -0.14)">
     <defs>
      <path id="DejaVuSans-41" d="M 2188 4044 
L 1331 1722 
L 3047 1722 
L 2188 4044 
z
M 1831 4666 
L 2547 4666 
L 4325 0 
L 3669 0 
L 3244 1197 
L 1141 1197 
L 716 0 
L 50 0 
L 1831 4666 
z
" transform="scale(0.015625)"/>
     </defs>
     <use xlink:href="#DejaVuSans-41"/>
    </g>
   </g>
  </g>
 </g>
 <defs>
  <clipPath id="p9394c00b9c">
   <rect x="10.8" y="30.528" width="376.543227" height="174.672"/>
  </clipPath>
 </defs>
</svg>
