<?xml version="1.0" encoding="utf-8" standalone="no"?>
<!DOCTYPE svg PUBLIC "-//W3C//DTD SVG 1.1//EN"
  "http://www.w3.org/Graphics/SVG/1.1/DTD/svg11.dtd">
<svg xmlns:xlink="http://www.w3.org/1999/xlink" width="432pt" height="216pt" viewBox="0 0 432 216" xmlns="http://www.w3.org/2000/svg" version="1.1">
 <metadata>
  <rdf:RDF xmlns:dc="http://purl.org/dc/elements/1.1/" xmlns:cc="http://creativecommons.org/ns#" xmlns:rdf="http://www.w3.org/1999/02/22-rdf-syntax-ns#">
   <cc:Work>
    <dc:type rdf:resource="http://purl.org/dc/dcmitype/StillImage"/>
    <dc:date>2025-10-21T17:25:28.438660</dc:date>
    <dc:format>image/svg+xml</dc:format>
    <dc:creator>
     <cc:Agent>
      <dc:title>Matplotlib v3.9.4, https://matplotlib.org/</dc:title>
     </cc:Agent>
    </dc:creator>
   </cc:Work>
  </rdf:RDF>
 </metadata>
 <defs>
  <style type="text/css">*{stroke-linejoin: round; stroke-linecap: butt}</style>
 </defs>
 <g id="figure_1">
  <g id="patch_1">
   <path d="M 0 216 
L 432 216 
L 432 0 
L 0 0 
L 0 216 
z
" style="fill: none"/>
  </g>
  <g id="axes_1">
   <g id="patch_2">
    <path d="M 10.8 205.2 
L 356.603942 205.2 
L 356.603942 30.528 
L 10.8 30.528 
L 10.8 205.2 
z
" style="fill: none"/>
   </g>
   <g id="matplotlib.axis_1"/>
   <g id="matplotlib.axis_2">
    <g id="ytick_1">
     <g id="line2d_1">
      <defs>
       <path id="m693c04cf53" d="M 4 0 
L -4 -0 
" style="stroke: #000000; stroke-width: 2"/>
      </defs>
      <g>
       <use xlink:href="#m693c04cf53" x="26.518361" y="46.407273" style="stroke: #000000; stroke-width: 2"/>
      </g>
     </g>
     <g id="text_1">
      <!-- 1 -->
      <g transform="translate(12.655861 50.206491) scale(0.1 -0.1)">
       <defs>
        <path id="DejaVuSans-31" d="M 794 531 
L 1825 531 
L 1825 4091 
L 703 3866 
L 703 4441 
L 1819 4666 
L 2450 4666 
L 2450 531 
L 3481 531 
L 3481 0 
L 794 0 
L 794 531 
z
" transform="scale(0.015625)"/>
       </defs>
       <use xlink:href="#DejaVuSans-31"/>
      </g>
     </g>
    </g>
   </g>
   <g id="line2d_2">
    <path d="M 26.518361 125.803636 
L 144.838685 125.693458 
L 145.34125 125.326231 
L 145.943616 124.587944 
L 146.684989 123.299189 
L 147.611706 121.209462 
L 148.805744 117.927328 
L 150.452449 112.692746 
L 153.692392 101.467999 
L 155.021874 97.242015 
L 155.813148 95.523688 
L 156.558085 94.405602 
L 157.260251 93.730152 
L 157.933903 93.377643 
L 158.607555 93.27292 
L 159.316849 93.390567 
L 160.115251 93.757016 
L 161.056225 94.446584 
L 162.214621 95.588423 
L 163.729446 97.417601 
L 166.049802 100.612699 
L 171.381986 108.026563 
L 173.89125 111.083048 
L 176.208041 113.560692 
L 178.457111 115.644432 
L 180.706181 117.427107 
L 182.994458 118.958638 
L 184.110083 119.51156 
L 184.573441 119.445637 
L 185.079571 119.138626 
L 185.678372 118.49726 
L 186.412617 117.359813 
L 187.328641 115.499183 
L 188.501293 112.575891 
L 190.105226 107.927689 
L 193.017255 98.668228 
L 194.307529 94.887922 
L 195.077417 93.374657 
L 195.797405 92.420008 
L 196.478185 91.867535 
L 197.134015 91.611683 
L 197.800538 91.589923 
L 198.516961 91.794268 
L 199.340313 92.271698 
L 200.320494 93.111082 
L 201.546612 94.472023 
L 203.193316 96.658682 
L 203.956075 97.544739 
L 204.522798 97.856105 
L 205.068135 97.908383 
L 205.641986 97.734222 
L 206.290688 97.292569 
L 207.06414 96.479823 
L 208.015806 95.135318 
L 209.227667 93.010862 
L 210.888628 89.610827 
L 214.164215 82.79446 
L 214.802223 82.182472 
L 215.401025 81.903119 
L 215.989133 81.87039 
L 216.616449 82.063963 
L 217.329308 82.528116 
L 218.181175 83.364595 
L 219.229077 84.724311 
L 220.590638 86.882291 
L 222.554564 90.455344 
L 223.673753 92.343452 
L 224.29394 92.91575 
L 224.87492 93.162629 
L 225.448771 93.167052 
L 226.065394 92.94157 
L 226.771125 92.433347 
L 227.615862 91.534235 
L 228.663765 90.072739 
L 230.025326 87.763162 
L 231.999945 83.928867 
L 233.536156 81.069068 
L 234.167036 80.433612 
L 234.758709 80.1384 
L 235.336125 80.094654 
L 235.945619 80.275886 
L 236.640656 80.726689 
L 237.467573 81.545047 
L 238.483397 82.882752 
L 239.791493 84.998851 
L 241.637797 88.447913 
L 243.380737 91.619529 
L 244.004489 92.209372 
L 244.589033 92.47108 
L 245.166449 92.488675 
L 245.783072 92.278032 
L 246.485238 91.791499 
L 247.326412 90.921849 
L 248.367186 89.505035 
L 249.714489 87.267673 
L 251.653465 83.572726 
L 253.178983 80.781897 
L 253.806299 80.165465 
L 254.394408 79.884138 
L 254.971823 79.851239 
L 255.584882 80.045314 
L 256.27992 80.509552 
L 257.1104 81.347162 
L 258.140481 82.724511 
L 259.462835 84.891127 
L 261.341218 88.435523 
L 263.020001 91.506806 
L 263.647317 92.10971 
L 264.231861 92.378853 
L 264.809277 92.403267 
L 265.422335 92.201147 
L 266.120937 91.725906 
L 266.958546 90.870502 
L 267.992192 89.476072 
L 269.328802 87.271878 
L 271.242828 83.642902 
L 278.300132 69.899591 
L 280.591973 66.109603 
L 282.73055 62.99248 
L 284.808534 60.34907 
L 286.87226 58.079509 
L 288.943115 56.128832 
L 291.056742 54.440305 
L 293.23809 52.979141 
L 295.529932 51.709473 
L 297.989295 50.6026 
L 300.658952 49.648261 
L 303.588802 48.838733 
L 306.910724 48.154486 
L 310.767291 47.591383 
L 315.375924 47.146335 
L 321.371068 46.804027 
L 329.700824 46.572301 
L 340.885581 46.457427 
L 340.885581 46.457427 
" clip-path="url(#p1c8e6f2c29)" style="fill: none; stroke: #0000ff; stroke-width: 2; stroke-linecap: square"/>
   </g>
   <g id="line2d_3">
    <defs>
     <path id="mb1f6a05f06" d="M 3 0 
L -3 -3 
L -3 3 
z
" style="stroke: #000000; stroke-linejoin: miter"/>
    </defs>
    <g>
     <use xlink:href="#mb1f6a05f06" x="356.603942" y="125.803636" style="stroke: #000000; stroke-linejoin: miter"/>
    </g>
   </g>
   <g id="line2d_4">
    <defs>
     <path id="m3bd03d62f2" d="M 0 -3 
L -3 3 
L 3 3 
z
" style="stroke: #000000; stroke-linejoin: miter"/>
    </defs>
    <g>
     <use xlink:href="#m3bd03d62f2" x="26.518361" y="30.528" style="stroke: #000000; stroke-linejoin: miter"/>
    </g>
   </g>
   <g id="patch_3">
    <path d="M 26.518361 205.2 
L 26.518361 30.528 
" style="fill: none; stroke: #000000; stroke-width: 2; stroke-linejoin: miter; stroke-linecap: square"/>
   </g>
   <g id="patch_4">
    <path d="M 10.8 125.803636 
L 356.603942 125.803636 
" style="fill: none; stroke: #000000; stroke-width: 2; stroke-linejoin: miter; stroke-linecap: square"/>
   </g>
   <g id="text_2">
    <!-- t / s -->
    <g transform="translate(395.900468 129.666761) scale(0.14 -0.14)">
     <defs>
      <path id="DejaVuSans-74" d="M 1172 4494 
L 1172 3500 
L 2356 3500 
L 2356 3053 
L 1172 3053 
L 1172 1153 
Q 1172 725 1289 603 
Q 1406 481 1766 481 
L 2356 481 
L 2356 0 
L 1766 0 
Q 1100 0 847 248 
Q 594 497 594 1153 
L 594 3053 
L 172 3053 
L 172 3500 
L 594 3500 
L 594 4494 
L 1172 4494 
z
" transform="scale(0.015625)"/>
      <path id="DejaVuSans-20" transform="scale(0.015625)"/>
      <path id="DejaVuSans-2f" d="M 1625 4666 
L 2156 4666 
L 531 -594 
L 0 -594 
L 1625 4666 
z
" transform="scale(0.015625)"/>
      <path id="DejaVuSans-73" d="M 2834 3397 
L 2834 2853 
Q 2591 2978 2328 3040 
Q 2066 3103 1784 3103 
Q 1356 3103 1142 2972 
Q 928 2841 928 2578 
Q 928 2378 1081 2264 
Q 1234 2150 1697 2047 
L 1894 2003 
Q 2506 1872 2764 1633 
Q 3022 1394 3022 966 
Q 3022 478 2636 193 
Q 2250 -91 1575 -91 
Q 1294 -91 989 -36 
Q 684 19 347 128 
L 347 722 
Q 666 556 975 473 
Q 1284 391 1588 391 
Q 1994 391 2212 530 
Q 2431 669 2431 922 
Q 2431 1156 2273 1281 
Q 2116 1406 1581 1522 
L 1381 1569 
Q 847 1681 609 1914 
Q 372 2147 372 2553 
Q 372 3047 722 3315 
Q 1072 3584 1716 3584 
Q 2034 3584 2315 3537 
Q 2597 3491 2834 3397 
z
" transform="scale(0.015625)"/>
     </defs>
     <use xlink:href="#DejaVuSans-74"/>
     <use xlink:href="#DejaVuSans-20" x="39.208984"/>
     <use xlink:href="#DejaVuSans-2f" x="70.996094"/>
     <use xlink:href="#DejaVuSans-20" x="104.6875"/>
     <use xlink:href="#DejaVuSans-73" x="136.474609"/>
    </g>
   </g>
   <g id="text_3">
    <!-- A -->
    <g transform="translate(21.729923 21.264728) scale(0.14 -0.14)">
     <defs>
      <path id="DejaVuSans-41" d="M 2188 4044 
L 1331 1722 
L 3047 1722 
L 2188 4044 
z
M 1831 4666 
L 2547 4666 
L 4325 0 
L 3669 0 
L 3244 1197 
L 1141 1197 
L 716 0 
L 50 0 
L 1831 4666 
z
" transform="scale(0.015625)"/>
     </defs>
     <use xlink:href="#DejaVuSans-41"/>
    </g>
   </g>
  </g>
 </g>
 <defs>
  <clipPath id="p1c8e6f2c29">
   <rect x="10.8" y="30.528" width="345.803942" height="174.672"/>
  </clipPath>
 </defs>
</svg>
