<?xml version="1.0" encoding="utf-8" standalone="no"?>
<!DOCTYPE svg PUBLIC "-//W3C//DTD SVG 1.1//EN"
  "http://www.w3.org/Graphics/SVG/1.1/DTD/svg11.dtd">
<svg xmlns:xlink="http://www.w3.org/1999/xlink" width="432pt" height="216pt" viewBox="0 0 432 216" xmlns="http://www.w3.org/2000/svg" version="1.1">
 <metadata>
  <rdf:RDF xmlns:dc="http://purl.org/dc/elements/1.1/" xmlns:cc="http://creativecommons.org/ns#" xmlns:rdf="http://www.w3.org/1999/02/22-rdf-syntax-ns#">
   <cc:Work>
    <dc:type rdf:resource="http://purl.org/dc/dcmitype/StillImage"/>
    <dc:date>2025-10-20T10:54:35.986792</dc:date>
    <dc:format>image/svg+xml</dc:format>
    <dc:creator>
     <cc:Agent>
      <dc:title>Matplotlib v3.9.4, https://matplotlib.org/</dc:title>
     </cc:Agent>
    </dc:creator>
   </cc:Work>
  </rdf:RDF>
 </metadata>
 <defs>
  <style type="text/css">*{stroke-linejoin: round; stroke-linecap: butt}</style>
 </defs>
 <g id="figure_1">
  <g id="patch_1">
   <path d="M 0 216 
L 432 216 
L 432 0 
L 0 0 
L 0 216 
z
" style="fill: none"/>
  </g>
  <g id="axes_1">
   <g id="patch_2">
    <path d="M 10.8 205.2 
L 356.603942 205.2 
L 356.603942 30.528 
L 10.8 30.528 
L 10.8 205.2 
z
" style="fill: none"/>
   </g>
   <g id="matplotlib.axis_1"/>
   <g id="matplotlib.axis_2">
    <g id="ytick_1">
     <g id="line2d_1">
      <defs>
       <path id="mecf609cf7b" d="M 4 0 
L -4 -0 
" style="stroke: #000000; stroke-width: 2"/>
      </defs>
      <g>
       <use xlink:href="#mecf609cf7b" x="26.518361" y="46.407273" style="stroke: #000000; stroke-width: 2"/>
      </g>
     </g>
     <g id="text_1">
      <!-- 1 -->
      <g transform="translate(12.655861 50.206491) scale(0.1 -0.1)">
       <defs>
        <path id="DejaVuSans-31" d="M 794 531 
L 1825 531 
L 1825 4091 
L 703 3866 
L 703 4441 
L 1819 4666 
L 2450 4666 
L 2450 531 
L 3481 531 
L 3481 0 
L 794 0 
L 794 531 
z
" transform="scale(0.015625)"/>
       </defs>
       <use xlink:href="#DejaVuSans-31"/>
      </g>
     </g>
    </g>
   </g>
   <g id="line2d_2">
    <path d="M 26.518361 125.803636 
L 63.601282 125.803636 
L 63.811575 118.851493 
L 63.854347 121.074566 
L 64.100283 143.988975 
L 64.110976 143.92547 
L 64.146619 142.099861 
L 64.189391 127.0358 
L 64.32127 98.345377 
L 64.403248 95.828228 
L 64.44602 97.307766 
L 64.49592 110.65537 
L 64.688392 167.43477 
L 64.716906 167.77429 
L 64.752549 166.441179 
L 64.806014 152.951396 
L 65.027 71.731297 
L 65.05195 72.302582 
L 65.108979 82.386194 
L 65.158879 147.425684 
L 65.294322 184.233981 
L 65.297886 184.210159 
L 65.315708 183.985004 
L 65.386994 178.930182 
L 65.454715 150.162394 
L 65.611544 72.268816 
L 65.629366 72.423384 
L 65.697087 76.103241 
L 65.764809 95.944676 
L 65.932331 174.438618 
L 65.985795 173.079433 
L 66.060645 162.978521 
L 66.110545 118.033671 
L 66.245989 82.071599 
L 66.249553 82.070289 
L 66.260246 82.133066 
L 66.327967 84.752261 
L 66.399253 99.292222 
L 66.563211 164.655933 
L 66.630932 163.093509 
L 66.702218 154.558568 
L 66.762811 108.258107 
L 66.883997 91.845381 
L 66.901819 91.9928 
L 66.958848 93.741441 
L 67.030133 102.978506 
L 67.194091 154.887554 
L 67.297456 151.990234 
L 67.365177 140.302202 
L 67.514877 101.591777 
L 67.561213 102.163676 
L 67.650321 107.113567 
L 67.703785 124.735748 
L 67.824971 145.167845 
L 67.8321 145.153249 
L 67.892693 144.266838 
L 67.974671 139.890479 
L 68.0317 120.916547 
L 68.135065 111.266629 
L 68.163579 111.424047 
L 68.249122 113.264337 
L 68.327537 120.020804 
L 68.502187 137.88231 
L 68.520009 137.85428 
L 68.580602 137.073999 
L 68.644759 132.054794 
L 68.822974 113.723843 
L 68.840795 113.760096 
L 68.89426 114.38779 
L 68.958417 118.584525 
L 69.14376 137.881804 
L 69.190096 137.624754 
L 69.257818 135.237423 
L 69.311282 121.702725 
L 69.450289 113.742084 
L 69.460982 113.724409 
L 69.503754 113.922139 
L 69.564347 115.521704 
L 69.617811 123.559535 
L 69.74969 137.777412 
L 69.781769 137.883245 
L 69.828105 137.636942 
L 69.895826 135.307352 
L 69.945726 123.165609 
L 70.084734 113.750248 
L 70.102555 113.726226 
L 70.138198 113.877038 
L 70.202356 115.468623 
L 70.259384 125.028628 
L 70.387699 137.769286 
L 70.419778 137.883245 
L 70.469678 137.601086 
L 70.530271 135.636049 
L 70.580171 125.682584 
L 70.708485 113.827282 
L 70.740564 113.724409 
L 70.7869 113.974557 
L 70.854622 116.325096 
L 70.904522 128.569966 
L 71.043529 137.858321 
L 71.061351 137.88024 
L 71.093429 137.753809 
L 71.150458 136.607858 
L 71.207487 130.556494 
L 71.371444 113.729343 
L 71.375009 113.729963 
L 71.378573 113.723843 
L 71.414216 113.864219 
L 71.471244 115.04833 
L 71.531838 122.517203 
L 71.681538 137.85428 
L 71.699359 137.88231 
L 71.735002 137.734218 
L 71.795595 136.337918 
L 71.852624 128.662157 
L 71.991632 113.798399 
L 72.016582 113.72481 
L 72.066482 113.997337 
L 72.130639 116.186917 
L 72.180539 127.758438 
L 72.315982 137.834277 
L 72.337368 137.883403 
L 72.38014 137.673823 
L 72.437168 136.217446 
L 72.494197 127.531208 
L 72.626076 113.822806 
L 72.658155 113.72565 
L 72.70449 113.983708 
L 72.772212 116.376347 
L 72.825676 129.931304 
L 72.964684 137.865422 
L 72.975377 137.882976 
L 73.018148 137.684141 
L 73.078741 136.080582 
L 73.132206 128.008399 
L 73.264085 113.829195 
L 73.296163 113.724105 
L 73.342499 113.971364 
L 73.410221 116.306197 
L 73.460121 128.474375 
L 73.599128 137.857369 
L 73.61695 137.880848 
L 73.652593 137.729648 
L 73.71675 136.133975 
L 73.773779 126.520655 
L 73.902093 113.837197 
L 73.934172 113.723962 
L 73.984072 114.00744 
L 74.044665 115.977311 
L 74.094565 125.985131 
L 74.22288 137.780599 
L 74.254959 137.88274 
L 74.301294 137.63162 
L 74.369016 135.275848 
L 74.42248 121.864508 
L 74.561488 113.743267 
L 74.572181 113.725293 
L 74.614952 113.916058 
L 74.675545 115.492313 
L 74.72901 123.336388 
L 74.864453 137.793999 
L 74.892967 137.883443 
L 74.942867 137.594881 
L 75.00346 135.605306 
L 75.053361 125.381716 
L 75.181675 113.82438 
L 75.213754 113.725124 
L 75.26009 113.980177 
L 75.327811 116.356943 
L 75.381276 129.850828 
L 75.520283 137.864754 
L 75.530976 137.882606 
L 75.573748 137.687139 
L 75.634341 136.095472 
L 75.687805 128.12452 
L 75.823248 113.81166 
L 75.851763 113.723909 
L 75.901663 114.017218 
L 75.962256 116.027044 
L 76.012156 126.462284 
L 76.144035 137.802865 
L 76.172549 137.881435 
L 76.218885 137.622365 
L 76.286607 135.224397 
L 76.340071 121.649292 
L 76.479078 113.741608 
L 76.489771 113.724195 
L 76.532543 113.924117 
L 76.593136 115.5317 
L 76.6466 123.702675 
L 76.771351 136.424616 
L 76.778479 136.421009 
L 76.846201 135.870391 
L 76.924615 133.336297 
L 76.985208 121.52023 
L 77.081444 117.602886 
L 77.120651 117.728636 
L 77.220452 119.258449 
L 77.284609 124.351861 
L 77.395102 131.60844 
L 77.416488 131.556586 
L 77.519852 130.545347 
L 77.598267 127.424734 
L 77.698067 122.352483 
L 77.751532 122.579436 
L 77.894103 124.302356 
L 77.986775 127.025504 
L 78.086575 126.46097 
L 78.282611 125.803636 
L 80.930882 125.803636 
L 81.073454 121.352817 
L 81.109097 122.796655 
L 81.358598 141.180996 
L 81.362162 141.175578 
L 81.394241 140.128942 
L 81.437012 130.454198 
L 81.586713 100.653807 
L 81.657998 98.716905 
L 81.70077 100.142951 
L 81.75067 113.589983 
L 81.925321 163.995866 
L 81.968092 164.85861 
L 82.010864 163.175957 
L 82.060764 149.743146 
L 82.278186 74.679808 
L 82.28175 74.682357 
L 82.313829 75.734161 
L 82.367293 87.246843 
L 82.545508 185.429687 
L 82.652437 177.658761 
L 82.71303 142.388693 
L 82.86273 71.086945 
L 82.866294 71.089826 
L 82.905502 71.909521 
L 82.976787 79.341446 
L 83.033816 112.434035 
L 83.176388 175.618056 
L 83.183517 175.629775 
L 83.208467 175.318874 
L 83.283317 170.173644 
L 83.347474 144.810448 
L 83.497174 80.879636 
L 83.511432 80.930121 
L 83.582718 83.822854 
L 83.654003 99.94907 
L 83.814397 165.839511 
L 83.878554 164.484141 
L 83.953404 155.700801 
L 84.006869 113.730482 
L 84.135183 90.653794 
L 84.142312 90.678309 
L 84.210033 92.540176 
L 84.281319 101.882386 
L 84.452405 156.066008 
L 84.55577 152.646507 
L 84.623492 137.968786 
L 84.766063 100.40661 
L 84.798142 100.687665 
L 84.883685 104.174603 
L 84.947842 118.26084 
L 85.076157 146.340012 
L 85.104671 146.178651 
L 85.175957 144.426862 
L 85.250807 136.939447 
L 85.389815 110.096174 
L 85.468229 111.121812 
L 85.560901 116.296493 
L 85.756937 137.881622 
L 85.821095 137.338952 
L 85.881688 134.232089 
L 86.074159 113.724297 
L 86.156138 114.65412 
L 86.216731 119.639558 
L 86.394946 137.883168 
L 86.412767 137.844786 
L 86.462668 137.288125 
L 86.526825 133.487291 
L 86.712168 113.72603 
L 86.765633 114.037005 
L 86.826226 116.142283 
L 86.876126 127.435445 
L 87.011569 137.832706 
L 87.032955 137.883311 
L 87.075726 137.680253 
L 87.136319 136.060426 
L 87.189784 127.844467 
L 87.321663 113.826673 
L 87.353741 113.724533 
L 87.400077 113.975653 
L 87.467799 116.331425 
L 87.521263 129.742764 
L 87.660271 137.864006 
L 87.670963 137.88198 
L 87.713735 137.691214 
L 87.774328 136.11496 
L 87.827792 128.270885 
L 87.963236 113.813274 
L 87.99175 113.72383 
L 88.04165 114.012391 
L 88.102243 116.001966 
L 88.152143 126.225557 
L 88.280458 137.782893 
L 88.312536 137.882149 
L 88.358872 137.627096 
L 88.426594 135.25033 
L 88.480058 121.756445 
L 88.619066 113.742519 
L 88.629759 113.724667 
L 88.67253 113.920134 
L 88.733123 115.511801 
L 88.786588 123.482753 
L 88.922031 137.795612 
L 88.950545 137.883363 
L 89.000445 137.590054 
L 89.061038 135.580229 
L 89.110938 125.144989 
L 89.242817 113.804408 
L 89.271332 113.725838 
L 89.317668 113.984908 
L 89.385389 116.382876 
L 89.438854 129.957981 
L 89.577861 137.865665 
L 89.588554 137.883078 
L 89.631325 137.683156 
L 89.691919 136.075573 
L 89.745383 127.968412 
L 89.877262 113.828543 
L 89.90934 113.724195 
L 89.955676 113.972413 
L 90.023398 116.312484 
L 90.073298 128.50665 
L 90.212306 137.8577 
L 90.230127 137.880646 
L 90.262206 137.755397 
L 90.319234 136.614227 
L 90.376263 130.60161 
L 90.540221 113.729484 
L 90.543785 113.730126 
L 90.547349 113.723909 
L 90.582992 113.862915 
L 90.640021 115.041606 
L 90.700614 122.46243 
L 90.850314 137.853402 
L 90.868136 137.882606 
L 90.907343 137.705465 
L 90.975065 135.771157 
L 91.028529 124.69019 
L 91.160408 113.799659 
L 91.185358 113.725124 
L 91.235258 113.99481 
L 91.299415 116.174212 
L 91.349315 127.669638 
L 91.484759 137.833837 
L 91.506144 137.883443 
L 91.548916 137.675609 
L 91.605945 136.225664 
L 91.662973 127.624192 
L 91.794852 113.823842 
L 91.826931 113.725293 
L 91.873267 113.981342 
L 91.940988 116.363382 
L 91.994453 129.87772 
L 92.13346 137.864966 
L 92.144153 137.88274 
L 92.186925 137.686133 
L 92.247518 136.090533 
L 92.300982 128.086441 
L 92.432861 113.83054 
L 92.46494 113.723962 
L 92.511276 113.969313 
L 92.578997 116.293653 
L 92.628897 128.408497 
L 92.767905 137.856668 
L 92.785726 137.881243 
L 92.821369 137.730816 
L 92.885526 136.143293 
L 92.942555 126.636224 
L 93.07087 113.838784 
L 93.102948 113.724105 
L 93.152849 114.004929 
L 93.217006 116.224788 
L 93.266906 128.008399 
L 93.402349 137.835643 
L 93.423735 137.882976 
L 93.470071 137.633795 
L 93.537792 135.28849 
L 93.587693 123.068766 
L 93.7267 113.749255 
L 93.744521 113.72683 
L 93.7766 113.852673 
L 93.833629 114.996229 
L 93.890658 121.02812 
L 94.029665 137.011758 
L 94.054615 136.919594 
L 94.143722 135.422162 
L 94.20788 130.169774 
L 94.336194 117.017317 
L 94.378966 117.178065 
L 94.468073 118.583539 
L 94.535795 124.028563 
L 94.646288 132.18766 
L 94.674802 132.118984 
L 94.76391 131.244958 
L 94.845888 128.101604 
L 94.952817 121.788613 
L 95.016975 122.080138 
L 95.141725 123.759692 
L 95.245089 127.543805 
L 95.362711 126.86713 
L 95.601519 125.803636 
L 98.260483 125.803636 
L 98.338897 123.631906 
L 98.37454 125.694052 
L 98.527805 136.071009 
L 98.620476 138.412137 
L 98.656119 137.0252 
L 98.695327 124.973812 
L 98.83077 103.993374 
L 98.916313 101.586042 
L 98.95552 102.923539 
L 99.00542 116.597943 
L 99.172942 160.863852 
L 99.219278 161.933194 
L 99.265614 160.265539 
L 99.319078 144.04027 
L 99.51155 77.884778 
L 99.532936 77.610245 
L 99.572143 78.984955 
L 99.629172 94.667677 
L 99.828772 186.068794 
L 99.871544 183.515827 
L 99.935701 168.47448 
L 100.11748 69.891629 
L 100.220845 76.696897 
L 100.281438 106.027654 
L 100.434702 176.815129 
L 100.441831 176.783297 
L 100.484603 175.684341 
L 100.555888 167.330101 
L 100.609353 131.132074 
L 100.737667 79.790397 
L 100.755489 79.68857 
L 100.794696 80.414472 
L 100.873111 87.901923 
L 100.930139 124.068607 
L 101.058454 166.977661 
L 101.069147 167.022 
L 101.101226 166.647167 
L 101.168947 162.88592 
L 101.236669 142.726363 
L 101.386369 89.466483 
L 101.411319 89.677654 
L 101.486169 93.087429 
L 101.553891 109.659901 
L 101.700027 157.250235 
L 101.739234 156.862976 
L 101.817649 152.825577 
L 101.881806 134.317503 
L 102.017249 99.225443 
L 102.031506 99.280611 
L 102.092099 100.584719 
L 102.16695 107.058922 
L 102.330907 147.518171 
L 102.459222 143.744344 
L 102.523379 130.063487 
L 102.641001 108.928717 
L 102.658822 108.977399 
L 102.730108 110.206715 
L 102.812087 115.332387 
L 103.008123 137.883078 
L 103.07228 137.35754 
L 103.136438 133.913723 
L 103.325345 113.725838 
L 103.40376 114.522265 
L 103.467917 119.46784 
L 103.646132 137.883363 
L 103.667518 137.834498 
L 103.720982 137.138995 
L 103.781575 133.090277 
L 103.966918 113.724667 
L 104.013254 113.976762 
L 104.080976 116.337772 
L 104.13444 129.769841 
L 104.273448 137.864178 
L 104.284141 137.882149 
L 104.326912 137.690189 
L 104.387505 136.11013 
L 104.44097 128.235156 
L 104.576413 113.812879 
L 104.604927 113.72383 
L 104.654827 114.013611 
L 104.71542 116.0082 
L 104.76532 126.285164 
L 104.893635 137.783431 
L 104.925714 137.88198 
L 104.972049 137.625931 
L 105.039771 135.243891 
L 105.093235 121.729553 
L 105.232243 113.742307 
L 105.242936 113.724533 
L 105.285707 113.92114 
L 105.3463 115.51674 
L 105.399765 123.520832 
L 105.531644 137.776733 
L 105.563722 137.883311 
L 105.610058 137.637959 
L 105.67778 135.313619 
L 105.72768 123.198776 
L 105.866687 113.750605 
L 105.884509 113.72603 
L 105.920152 113.876457 
L 105.984309 115.46398 
L 106.041338 124.971048 
L 106.169652 137.768489 
L 106.201731 137.883168 
L 106.251631 137.602343 
L 106.315789 135.382485 
L 106.365689 123.598874 
L 106.501132 113.77163 
L 106.522518 113.724297 
L 106.568853 113.973478 
L 106.636575 116.318783 
L 106.686475 128.538506 
L 106.825483 137.858017 
L 106.843304 137.880443 
L 106.875383 137.7546 
L 106.932411 136.611044 
L 106.98944 130.579153 
L 107.153398 113.729407 
L 107.156962 113.73005 
L 107.160526 113.72387 
L 107.196169 113.863572 
L 107.253198 115.044958 
L 107.313791 122.489786 
L 107.463491 137.853845 
L 107.481313 137.882462 
L 107.52052 137.704479 
L 107.588242 135.765933 
L 107.641706 124.63559 
L 107.773585 113.799031 
L 107.798535 113.724963 
L 107.848435 113.996072 
L 107.912593 116.18057 
L 107.962493 127.714386 
L 108.097936 137.834057 
L 108.119322 137.883429 
L 108.162093 137.67471 
L 108.219122 136.221565 
L 108.276151 127.578049 
L 108.408029 113.823317 
L 108.440108 113.725468 
L 108.486444 113.982519 
L 108.554166 116.36985 
L 108.60763 129.904547 
L 108.746637 137.865189 
L 108.75733 137.882863 
L 108.800102 137.685133 
L 108.860695 136.085569 
L 108.914159 128.047738 
L 109.046038 113.82986 
L 109.078117 113.724027 
L 109.124453 113.970331 
L 109.192174 116.299921 
L 109.242074 128.441664 
L 109.381082 137.857025 
L 109.398903 137.881047 
L 109.434546 137.730235 
L 109.498704 136.13865 
L 109.555732 126.578645 
L 109.684047 113.837986 
L 109.716126 113.724027 
L 109.766026 114.006187 
L 109.826619 115.971223 
L 109.876519 125.924689 
L 110.004833 137.77999 
L 110.036912 137.882863 
L 110.083248 137.632715 
L 110.15097 135.282177 
L 110.20087 123.037307 
L 110.339877 113.748951 
L 110.357699 113.727033 
L 110.389777 113.853464 
L 110.446806 114.999414 
L 110.503835 121.050779 
L 110.667792 137.87793 
L 110.671357 137.877309 
L 110.674921 137.883429 
L 110.710564 137.743054 
L 110.767592 136.558942 
L 110.828185 129.09007 
L 110.977886 113.752993 
L 110.995707 113.724963 
L 111.03135 113.873055 
L 111.091943 115.269355 
L 111.148972 122.945116 
L 111.280851 137.600874 
L 111.287979 137.591092 
L 111.330751 137.307351 
L 111.419858 134.862422 
L 111.473323 126.064584 
L 111.594509 116.428825 
L 111.601637 116.438022 
L 111.672923 117.026276 
L 111.758466 119.951591 
L 111.904602 132.767975 
L 112.007967 131.945481 
L 112.09351 128.816018 
L 112.211132 121.218164 
L 112.275289 121.53219 
L 112.392911 123.292158 
L 112.506968 128.081009 
L 112.631719 127.315586 
L 112.777855 125.547712 
L 112.909734 125.803636 
L 115.593647 125.70819 
L 115.615033 125.415873 
L 115.647112 126.995985 
L 115.878791 135.699271 
L 115.907305 134.881761 
L 115.946513 125.803636 
L 116.081956 107.000243 
L 116.171063 104.451185 
L 116.213835 105.985875 
L 116.26017 119.334833 
L 116.409871 157.237135 
L 116.474028 159.021671 
L 116.520364 157.36802 
L 116.573828 140.817704 
L 116.748479 81.312344 
L 116.784122 80.547575 
L 116.830458 82.291513 
L 116.887486 100.732174 
L 117.094215 183.152229 
L 117.09778 183.166574 
L 117.119165 182.873254 
L 117.17263 175.505626 
L 117.226094 120.3273 
L 117.357973 68.777939 
L 117.368666 68.69837 
L 117.407873 69.457881 
L 117.482724 77.671616 
L 117.539752 114.814932 
L 117.675195 177.926724 
L 117.689453 177.999952 
L 117.72866 177.206088 
L 117.80351 169.405996 
L 117.860539 133.288144 
L 117.988853 78.629289 
L 118.006675 78.499515 
L 118.053011 79.468988 
L 118.127861 87.513405 
L 118.181325 121.884834 
L 118.30964 168.143922 
L 118.320333 168.213656 
L 118.35954 167.689348 
L 118.437954 161.708306 
L 118.498547 133.335337 
L 118.630426 88.309654 
L 118.637555 88.284084 
L 118.662505 88.468953 
L 118.74092 92.225968 
L 118.808641 110.782677 
L 118.958341 158.439565 
L 118.979727 158.256006 
L 119.051013 155.563892 
L 119.122299 141.803012 
L 119.268435 98.048435 
L 119.314771 98.54226 
L 119.393185 102.525437 
L 119.453778 118.670445 
L 119.589222 148.696019 
L 119.603479 148.616347 
L 119.678329 146.801712 
L 119.753179 138.848184 
L 119.899315 107.757617 
L 119.974165 108.812132 
L 120.056144 113.435869 
L 120.205845 139.038791 
L 120.348416 136.695748 
L 120.405445 131.107952 
L 120.580096 113.72481 
L 120.58366 113.730364 
L 120.612174 113.843678 
L 120.676331 115.265274 
L 120.73336 122.915048 
L 120.875932 137.830288 
L 120.897318 137.88231 
L 120.940089 137.689168 
L 121.000682 136.105272 
L 121.054147 128.198863 
L 121.18959 113.812479 
L 121.218104 113.723843 
L 121.268004 114.014823 
L 121.328597 116.014459 
L 121.378498 126.344508 
L 121.510376 137.801768 
L 121.538891 137.881804 
L 121.588791 137.575465 
L 121.649384 135.497092 
L 121.699284 124.423084 
L 121.831163 113.796476 
L 121.856113 113.724409 
L 121.906013 114.001138 
L 121.97017 116.205896 
L 122.020071 127.886455 
L 122.155514 137.834946 
L 122.1769 137.883245 
L 122.223235 137.636942 
L 122.290957 135.307352 
L 122.340857 123.165609 
L 122.479865 113.750248 
L 122.497686 113.726226 
L 122.533329 113.877038 
L 122.597486 115.468623 
L 122.654515 125.028628 
L 122.78283 137.769286 
L 122.814908 137.883245 
L 122.864808 137.601086 
L 122.925401 135.636049 
L 122.975301 125.682584 
L 123.103616 113.827282 
L 123.135695 113.724409 
L 123.182031 113.974557 
L 123.249752 116.325096 
L 123.299652 128.569966 
L 123.43866 137.858321 
L 123.456481 137.88024 
L 123.48856 137.753809 
L 123.545589 136.607858 
L 123.602617 130.556494 
L 123.766575 113.729343 
L 123.770139 113.729963 
L 123.773703 113.723843 
L 123.809346 113.864219 
L 123.866375 115.04833 
L 123.926968 122.517203 
L 124.076669 137.85428 
L 124.09449 137.88231 
L 124.130133 137.734218 
L 124.190726 136.337918 
L 124.247755 128.662157 
L 124.386762 113.798399 
L 124.411712 113.72481 
L 124.461612 113.997337 
L 124.52577 116.186917 
L 124.57567 127.758438 
L 124.711113 137.834277 
L 124.732499 137.883403 
L 124.77527 137.673823 
L 124.832299 136.217446 
L 124.889328 127.531208 
L 125.021207 113.822806 
L 125.053285 113.72565 
L 125.099621 113.983708 
L 125.167343 116.376347 
L 125.220807 129.931304 
L 125.359815 137.865422 
L 125.370507 137.882976 
L 125.413279 137.684141 
L 125.473872 136.080582 
L 125.527336 128.008399 
L 125.659215 113.829195 
L 125.691294 113.724105 
L 125.73763 113.971364 
L 125.805351 116.306197 
L 125.855252 128.474375 
L 125.994259 137.857369 
L 126.01208 137.880848 
L 126.047723 137.729648 
L 126.111881 136.133975 
L 126.168909 126.520655 
L 126.297224 113.837197 
L 126.329303 113.723962 
L 126.379203 114.00744 
L 126.439796 115.977311 
L 126.489696 125.985131 
L 126.618011 137.780599 
L 126.650089 137.88274 
L 126.696425 137.63162 
L 126.764147 135.275848 
L 126.817611 121.864508 
L 126.956619 113.743267 
L 126.967311 113.725293 
L 127.010083 113.916058 
L 127.070676 115.492313 
L 127.12414 123.336388 
L 127.259584 137.793999 
L 127.288098 137.883443 
L 127.337998 137.594881 
L 127.398591 135.605306 
L 127.448491 125.381716 
L 127.576806 113.82438 
L 127.608884 113.725124 
L 127.65522 113.980177 
L 127.722942 116.356943 
L 127.776406 129.850828 
L 127.915414 137.864754 
L 127.926107 137.882606 
L 127.968878 137.687139 
L 128.029471 136.095472 
L 128.082936 128.12452 
L 128.218379 113.81166 
L 128.246893 113.723909 
L 128.296793 114.017218 
L 128.357386 116.027044 
L 128.407286 126.462284 
L 128.539165 137.802865 
L 128.56768 137.881435 
L 128.606887 137.563559 
L 128.685301 134.363075 
L 128.845695 115.841749 
L 128.974009 117.566173 
L 129.038167 123.339205 
L 129.159353 133.351362 
L 129.184303 133.279158 
L 129.269846 132.353468 
L 129.34826 128.840898 
L 129.462318 120.644923 
L 129.526475 120.929016 
L 129.640532 122.693507 
L 129.765283 128.630011 
L 129.897162 127.775352 
L 130.007655 125.577337 
L 130.046862 125.125439 
L 130.118148 125.481224 
L 130.271413 125.803636 
L 132.923248 125.910522 
L 133.137105 133.061405 
L 133.179877 131.033715 
L 133.429378 107.280766 
L 133.443635 107.428271 
L 133.489971 111.678773 
L 133.732343 156.131067 
L 133.778678 154.142294 
L 133.832143 134.187748 
L 133.978279 85.2673 
L 134.042436 83.481385 
L 134.085208 85.282608 
L 134.138672 101.564455 
L 134.348966 180.219411 
L 134.356094 180.227228 
L 134.370351 180.000996 
L 134.420251 174.61525 
L 134.473716 134.575107 
L 134.605595 67.640683 
L 134.619852 67.511851 
L 134.655495 68.130362 
L 134.716088 73.032093 
L 134.780245 99.35427 
L 134.940638 179.196427 
L 134.965589 178.861473 
L 135.03331 174.34687 
L 135.101032 148.760159 
L 135.257861 77.315306 
L 135.279246 77.537461 
L 135.332711 79.897256 
L 135.400432 92.957551 
L 135.571519 169.401478 
L 135.667755 165.646588 
L 135.731912 149.630048 
L 135.892305 87.098624 
L 135.94577 88.090314 
L 136.024184 95.815893 
L 136.077648 132.495231 
L 136.209527 159.625638 
L 136.213092 159.608527 
L 136.241606 159.286149 
L 136.323585 154.767677 
L 136.384178 136.432528 
L 136.523185 96.862491 
L 136.541007 96.95212 
L 136.594471 98.17139 
L 136.669321 104.893535 
L 136.744172 143.240198 
L 136.840407 149.876849 
L 136.879615 149.487008 
L 136.968722 145.386596 
L 137.029315 129.187526 
L 137.154065 106.581955 
L 137.15763 106.594962 
L 137.18258 106.783856 
L 137.268123 109.224737 
L 137.339409 118.933429 
L 137.464159 140.203698 
L 137.503366 139.902338 
L 137.610295 136.610292 
L 137.670888 126.105678 
L 137.799203 113.831938 
L 137.831281 113.72387 
L 137.877617 113.967326 
L 137.945339 116.281135 
L 137.995239 128.340716 
L 138.134246 137.855917 
L 138.152068 137.881622 
L 138.187711 137.731963 
L 138.251868 136.15248 
L 138.308897 126.750049 
L 138.437211 113.840397 
L 138.46929 113.724297 
L 138.51919 114.002404 
L 138.583348 116.212203 
L 138.633248 127.927767 
L 138.768691 137.835174 
L 138.790077 137.883168 
L 138.836412 137.635909 
L 138.904134 135.301075 
L 138.954034 123.132897 
L 139.093042 113.749904 
L 139.110863 113.726425 
L 139.146506 113.877625 
L 139.210663 115.473298 
L 139.267692 125.086617 
L 139.396007 137.770076 
L 139.428085 137.883311 
L 139.477986 137.599833 
L 139.538579 135.629962 
L 139.588479 125.622142 
L 139.716793 113.826673 
L 139.748872 113.724533 
L 139.795208 113.975653 
L 139.862929 116.331425 
L 139.916394 129.742764 
L 140.055401 137.864006 
L 140.066094 137.88198 
L 140.108866 137.691214 
L 140.169459 136.11496 
L 140.222923 128.270885 
L 140.358366 113.813274 
L 140.386881 113.72383 
L 140.436781 114.012391 
L 140.497374 116.001966 
L 140.547274 126.225557 
L 140.675588 137.782893 
L 140.707667 137.882149 
L 140.754003 137.627096 
L 140.821725 135.25033 
L 140.875189 121.756445 
L 141.014196 113.742519 
L 141.024889 113.724667 
L 141.067661 113.920134 
L 141.128254 115.511801 
L 141.181718 123.482753 
L 141.317162 137.795612 
L 141.345676 137.883363 
L 141.395576 137.590054 
L 141.456169 135.580229 
L 141.506069 125.144989 
L 141.637948 113.804408 
L 141.666462 113.725838 
L 141.712798 113.984908 
L 141.78052 116.382876 
L 141.833984 129.957981 
L 141.972992 137.865665 
L 141.983685 137.883078 
L 142.026456 137.683156 
L 142.087049 136.075573 
L 142.140514 127.968412 
L 142.272392 113.828543 
L 142.304471 113.724195 
L 142.350807 113.972413 
L 142.418529 116.312484 
L 142.468429 128.50665 
L 142.607436 137.8577 
L 142.625258 137.880646 
L 142.657336 137.755397 
L 142.714365 136.614227 
L 142.771394 130.60161 
L 142.935351 113.729484 
L 142.938916 113.730126 
L 142.94248 113.723909 
L 142.978123 113.862915 
L 143.035152 115.041606 
L 143.095745 122.46243 
L 143.245445 137.853402 
L 143.263266 137.882606 
L 143.302474 137.705465 
L 143.370195 135.771157 
L 143.42366 124.69019 
L 143.555539 113.799659 
L 143.580489 113.725124 
L 143.630389 113.99481 
L 143.694546 116.174212 
L 143.744446 127.669638 
L 143.879889 137.833837 
L 143.901275 137.883443 
L 143.944047 137.675609 
L 144.001075 136.225664 
L 144.058104 127.624192 
L 144.189983 113.823842 
L 144.222062 113.725293 
L 144.268397 113.981342 
L 144.336119 116.363382 
L 144.389583 129.87772 
L 144.528591 137.864966 
L 144.539284 137.88274 
L 144.582055 137.686133 
L 144.642648 136.090533 
L 144.696113 128.086441 
L 144.827992 113.83054 
L 144.86007 113.723962 
L 144.906406 113.969313 
L 144.974128 116.293653 
L 145.024028 128.408497 
L 145.163035 137.856668 
L 145.180857 137.881243 
L 145.2165 137.730816 
L 145.280657 136.143293 
L 145.337686 126.636224 
L 145.466 113.838784 
L 145.498079 113.724105 
L 145.547979 114.004929 
L 145.612137 116.224788 
L 145.662037 128.008399 
L 145.79748 137.835643 
L 145.818866 137.882976 
L 145.865201 137.633795 
L 145.932923 135.28849 
L 145.982823 123.068766 
L 146.121831 113.749255 
L 146.139652 113.72683 
L 146.171731 113.852673 
L 146.228759 114.996229 
L 146.285788 121.02812 
L 146.449746 137.877866 
L 146.45331 137.877223 
L 146.456874 137.883403 
L 146.492517 137.743701 
L 146.549546 136.562315 
L 146.610139 129.117487 
L 146.759839 113.753427 
L 146.777661 113.72481 
L 146.816868 113.902793 
L 146.88459 115.84134 
L 146.938054 126.971683 
L 147.069933 137.808241 
L 147.094883 137.88231 
L 147.144783 137.611201 
L 147.20894 135.426703 
L 147.258841 123.892887 
L 147.394284 113.773216 
L 147.41567 113.723843 
L 147.458441 113.932562 
L 147.51547 115.385708 
L 147.572499 124.029224 
L 147.704377 137.783956 
L 147.736456 137.881804 
L 147.782792 137.624754 
L 147.850514 135.237423 
L 147.903978 121.702725 
L 148.042985 113.742084 
L 148.053678 113.724409 
L 148.09645 113.922139 
L 148.157043 115.521704 
L 148.210507 123.559535 
L 148.342386 137.777412 
L 148.374465 137.883245 
L 148.420801 137.636942 
L 148.488522 135.307352 
L 148.538422 123.165609 
L 148.67743 113.750248 
L 148.695251 113.726226 
L 148.730894 113.877038 
L 148.795052 115.468623 
L 148.85208 125.028628 
L 148.980395 137.769286 
L 149.012474 137.883245 
L 149.062374 137.601086 
L 149.122967 135.636049 
L 149.172867 125.682584 
L 149.301181 113.827282 
L 149.33326 113.724409 
L 149.379596 113.974557 
L 149.447318 116.325096 
L 149.497218 128.569966 
L 149.636225 137.858321 
L 149.654047 137.88024 
L 149.686125 137.753809 
L 149.743154 136.607858 
L 149.800183 130.556494 
L 149.96414 113.729343 
L 149.967705 113.729963 
L 149.971269 113.723843 
L 150.006912 113.864219 
L 150.06394 115.04833 
L 150.124533 122.517203 
L 150.274234 137.85428 
L 150.292055 137.88231 
L 150.327698 137.734218 
L 150.388291 136.337918 
L 150.44532 128.662157 
L 150.584327 113.798399 
L 150.609278 113.72481 
L 150.659178 113.997337 
L 150.723335 116.186917 
L 150.773235 127.758438 
L 150.908678 137.834277 
L 150.930064 137.883403 
L 150.972836 137.673823 
L 151.029864 136.217446 
L 151.086893 127.531208 
L 151.218772 113.822806 
L 151.250851 113.72565 
L 151.297186 113.983708 
L 151.364908 116.376347 
L 151.418372 129.931304 
L 151.55738 137.865422 
L 151.568073 137.882976 
L 151.610844 137.684141 
L 151.671437 136.080582 
L 151.724902 128.008399 
L 151.856781 113.829195 
L 151.888859 113.724105 
L 151.935195 113.971364 
L 152.002917 116.306197 
L 152.052817 128.474375 
L 152.191824 137.857369 
L 152.209646 137.880848 
L 152.245289 137.729648 
L 152.309446 136.133975 
L 152.366475 126.520655 
L 152.494789 113.837197 
L 152.526868 113.723962 
L 152.576768 114.00744 
L 152.637361 115.977311 
L 152.687261 125.985131 
L 152.815576 137.780599 
L 152.847655 137.88274 
L 152.89399 137.63162 
L 152.961712 135.275848 
L 153.015176 121.864508 
L 153.154184 113.743267 
L 153.164877 113.725293 
L 153.207648 113.916058 
L 153.268241 115.492313 
L 153.321706 123.336388 
L 153.457149 137.793999 
L 153.485663 137.883443 
L 153.535563 137.594881 
L 153.596156 135.605306 
L 153.646057 125.381716 
L 153.774371 113.82438 
L 153.80645 113.725124 
L 153.852786 113.980177 
L 153.920507 116.356943 
L 153.973972 129.850828 
L 154.112979 137.864754 
L 154.123672 137.882606 
L 154.166444 137.687139 
L 154.227037 136.095472 
L 154.280501 128.12452 
L 154.415944 113.81166 
L 154.444459 113.723909 
L 154.494359 114.017218 
L 154.554952 116.027044 
L 154.604852 126.462284 
L 154.736731 137.802865 
L 154.765245 137.881435 
L 154.811581 137.622365 
L 154.879302 135.224397 
L 154.932767 121.649292 
L 155.071774 113.741608 
L 155.082467 113.724195 
L 155.125239 113.924117 
L 155.185832 115.5317 
L 155.239296 123.638861 
L 155.371175 137.77873 
L 155.403254 137.883078 
L 155.44959 137.63486 
L 155.517311 135.294789 
L 155.567211 123.100623 
L 155.706219 113.749573 
L 155.72404 113.726627 
L 155.756119 113.851876 
L 155.813148 114.993046 
L 155.870176 121.005662 
L 156.034134 137.877789 
L 156.037698 137.877147 
L 156.041263 137.883363 
L 156.076905 137.744358 
L 156.133934 136.565666 
L 156.194527 129.144842 
L 156.344228 113.753871 
L 156.362049 113.724667 
L 156.401256 113.901808 
L 156.468978 115.836116 
L 156.522442 126.917082 
L 156.654321 137.807614 
L 156.679271 137.882149 
L 156.729171 137.612463 
L 156.793329 135.433061 
L 156.843229 123.937635 
L 156.978672 113.773436 
L 157.000058 113.72383 
L 157.042829 113.931664 
L 157.099858 115.381609 
L 157.156887 123.98308 
L 157.288766 137.783431 
L 157.320844 137.88198 
L 157.36718 137.625931 
L 157.434902 135.243891 
L 157.488366 121.729553 
L 157.627374 113.742307 
L 157.638066 113.724533 
L 157.680838 113.92114 
L 157.741431 115.51674 
L 157.794895 123.520832 
L 157.926774 137.776733 
L 157.958853 137.883311 
L 158.005189 137.637959 
L 158.07291 135.313619 
L 158.122811 123.198776 
L 158.261818 113.750605 
L 158.27964 113.72603 
L 158.315282 113.876457 
L 158.37944 115.46398 
L 158.436468 124.971048 
L 158.564783 137.768489 
L 158.596862 137.883168 
L 158.646762 137.602343 
L 158.710919 135.382485 
L 158.760819 123.598874 
L 158.896262 113.77163 
L 158.917648 113.724297 
L 158.963984 113.973478 
L 159.031706 116.318783 
L 159.081606 128.538506 
L 159.220613 137.858017 
L 159.238435 137.880443 
L 159.270513 137.7546 
L 159.327542 136.611044 
L 159.384571 130.579153 
L 159.548528 113.729407 
L 159.552093 113.73005 
L 159.555657 113.72387 
L 159.5913 113.863572 
L 159.648329 115.044958 
L 159.708922 122.489786 
L 159.858622 137.853845 
L 159.876444 137.882462 
L 159.915651 137.704479 
L 159.983372 135.765933 
L 160.036837 124.63559 
L 160.168716 113.799031 
L 160.193666 113.724963 
L 160.243566 113.996072 
L 160.307723 116.18057 
L 160.357623 127.714386 
L 160.493066 137.834057 
L 160.514452 137.883429 
L 160.557224 137.67471 
L 160.614252 136.221565 
L 160.671281 127.578049 
L 160.80316 113.823317 
L 160.835239 113.725468 
L 160.881575 113.982519 
L 160.949296 116.36985 
L 161.002761 129.904547 
L 161.141768 137.865189 
L 161.152461 137.882863 
L 161.195233 137.685133 
L 161.255826 136.085569 
L 161.30929 128.047738 
L 161.441169 113.82986 
L 161.473247 113.724027 
L 161.519583 113.970331 
L 161.587305 116.299921 
L 161.637205 128.441664 
L 161.776213 137.857025 
L 161.794034 137.881047 
L 161.829677 137.730235 
L 161.893834 136.13865 
L 161.950863 126.578645 
L 162.079178 113.837986 
L 162.111256 113.724027 
L 162.161156 114.006187 
L 162.221749 115.971223 
L 162.271649 125.924689 
L 162.399964 137.77999 
L 162.432043 137.882863 
L 162.478379 137.632715 
L 162.5461 135.282177 
L 162.596 123.037307 
L 162.735008 113.748951 
L 162.752829 113.727033 
L 162.784908 113.853464 
L 162.841937 114.999414 
L 162.898965 121.050779 
L 163.062923 137.87793 
L 163.066487 137.877309 
L 163.070051 137.883429 
L 163.105694 137.743054 
L 163.162723 136.558942 
L 163.223316 129.09007 
L 163.351631 114.611264 
L 163.369452 114.643516 
L 163.426481 115.171621 
L 163.50846 118.120234 
L 163.668853 134.574099 
L 163.797168 132.963836 
L 163.861325 128.007299 
L 163.975382 119.436099 
L 164.011025 119.548718 
L 164.110825 120.735341 
L 164.182111 124.500142 
L 164.278347 129.80376 
L 164.321119 129.667155 
L 164.442305 128.420697 
L 164.513591 125.203786 
L 164.574184 124.077703 
L 164.638341 124.362987 
L 164.955563 125.803636 
L 167.586013 125.803636 
L 167.667992 128.037038 
L 167.70007 126.413173 
L 167.856899 115.399966 
L 167.946006 113.117029 
L 167.985214 114.642921 
L 168.027985 130.070293 
L 168.177686 148.52664 
L 168.245407 150.096564 
L 168.284614 148.630161 
L 168.334515 134.018406 
L 168.494908 90.894744 
L 168.548372 89.585606 
L 168.591144 91.084957 
L 168.641044 103.745182 
L 168.858466 174.073181 
L 168.86203 174.067338 
L 168.883416 173.679704 
L 168.93688 166.171405 
L 168.986781 111.776786 
L 169.129352 66.582318 
L 169.154302 65.512618 
L 169.200638 68.248128 
L 169.26836 85.843747 
L 169.44301 181.680668 
L 169.532118 177.344447 
L 169.599839 154.702126 
L 169.763797 74.821673 
L 169.79944 75.459137 
L 169.863597 80.442935 
L 169.927754 106.879838 
L 170.081019 171.878699 
L 170.091712 171.82867 
L 170.159433 169.142217 
L 170.230719 153.984386 
L 170.394677 84.612629 
L 170.465963 86.369181 
L 170.540813 97.245718 
L 170.715463 162.104431 
L 170.825957 157.224476 
L 170.88655 138.721237 
L 171.032686 94.387483 
L 171.046943 94.476849 
L 171.103972 95.936058 
L 171.182386 105.065445 
L 171.346344 152.348385 
L 171.446144 149.7418 
L 171.51743 138.559699 
L 171.656437 104.12336 
L 171.706337 104.598726 
L 171.79188 108.300694 
L 171.852473 122.465716 
L 171.970095 142.646188 
L 171.984352 142.613109 
L 172.066331 141.110404 
L 172.144746 135.519789 
L 172.333653 113.72565 
L 172.390682 114.086723 
L 172.458403 117.055312 
L 172.65444 137.883403 
L 172.747111 136.562315 
L 172.807704 129.117487 
L 172.957405 113.753427 
L 172.975226 113.72481 
L 173.014433 113.902793 
L 173.082155 115.84134 
L 173.135619 126.971683 
L 173.267498 137.808241 
L 173.292448 137.88231 
L 173.342349 137.611201 
L 173.406506 135.426703 
L 173.456406 123.892887 
L 173.591849 113.773216 
L 173.613235 113.723843 
L 173.656006 113.932562 
L 173.713035 115.385708 
L 173.770064 124.029224 
L 173.901943 137.783956 
L 173.934021 137.881804 
L 173.980357 137.624754 
L 174.048079 135.237423 
L 174.101543 121.702725 
L 174.240551 113.742084 
L 174.251244 113.724409 
L 174.294015 113.922139 
L 174.354608 115.521704 
L 174.408073 123.559535 
L 174.539952 137.777412 
L 174.57203 137.883245 
L 174.618366 137.636942 
L 174.686088 135.307352 
L 174.735988 123.165609 
L 174.874995 113.750248 
L 174.892817 113.726226 
L 174.92846 113.877038 
L 174.992617 115.468623 
L 175.049646 125.028628 
L 175.17796 137.769286 
L 175.210039 137.883245 
L 175.259939 137.601086 
L 175.320532 135.636049 
L 175.370432 125.682584 
L 175.498747 113.827282 
L 175.530825 113.724409 
L 175.577161 113.974557 
L 175.644883 116.325096 
L 175.694783 128.569966 
L 175.83379 137.858321 
L 175.851612 137.88024 
L 175.883691 137.753809 
L 175.940719 136.607858 
L 175.997748 130.556494 
L 176.161706 113.729343 
L 176.16527 113.729963 
L 176.168834 113.723843 
L 176.204477 113.864219 
L 176.261506 115.04833 
L 176.322099 122.517203 
L 176.471799 137.85428 
L 176.489621 137.88231 
L 176.525264 137.734218 
L 176.585857 136.337918 
L 176.642885 128.662157 
L 176.781893 113.798399 
L 176.806843 113.72481 
L 176.856743 113.997337 
L 176.9209 116.186917 
L 176.9708 127.758438 
L 177.106244 137.834277 
L 177.127629 137.883403 
L 177.170401 137.673823 
L 177.22743 136.217446 
L 177.284458 127.531208 
L 177.416337 113.822806 
L 177.448416 113.72565 
L 177.494752 113.983708 
L 177.562473 116.376347 
L 177.615938 129.931304 
L 177.754945 137.865422 
L 177.765638 137.882976 
L 177.80841 137.684141 
L 177.869003 136.080582 
L 177.922467 128.008399 
L 178.054346 113.829195 
L 178.086425 113.724105 
L 178.13276 113.971364 
L 178.200482 116.306197 
L 178.250382 128.474375 
L 178.38939 137.857369 
L 178.407211 137.880848 
L 178.442854 137.729648 
L 178.507011 136.133975 
L 178.56404 126.520655 
L 178.692355 113.837197 
L 178.724433 113.723962 
L 178.774333 114.00744 
L 178.834926 115.977311 
L 178.884827 125.985131 
L 179.013141 137.780599 
L 179.04522 137.88274 
L 179.091556 137.63162 
L 179.159277 135.275848 
L 179.212742 121.864508 
L 179.351749 113.743267 
L 179.362442 113.725293 
L 179.405214 113.916058 
L 179.465807 115.492313 
L 179.519271 123.336388 
L 179.654714 137.793999 
L 179.683229 137.883443 
L 179.733129 137.594881 
L 179.793722 135.605306 
L 179.843622 125.381716 
L 179.971936 113.82438 
L 180.004015 113.725124 
L 180.050351 113.980177 
L 180.118073 116.356943 
L 180.171537 129.850828 
L 180.310544 137.864754 
L 180.321237 137.882606 
L 180.364009 137.687139 
L 180.424602 136.095472 
L 180.478066 128.12452 
L 180.609945 114.02127 
L 180.666974 114.419012 
L 180.748953 116.839165 
L 180.802417 126.371178 
L 180.923603 135.160086 
L 180.930732 135.149616 
L 181.009146 134.433185 
L 181.091125 131.226072 
L 181.233697 118.85514 
L 181.326368 119.545202 
L 181.415476 122.341482 
L 181.536662 130.373333 
L 181.622205 129.894907 
L 181.732698 127.87382 
L 181.832498 123.542073 
L 181.928734 124.05194 
L 182.106949 126.04867 
L 182.253085 125.803636 
L 184.919177 125.901767 
L 184.940563 126.230524 
L 184.972642 124.685436 
L 185.200757 115.833358 
L 185.232835 116.522827 
L 185.272043 124.179914 
L 185.407486 144.582487 
L 185.496593 147.23962 
L 185.539365 145.869662 
L 185.5857 133.736878 
L 185.753222 93.618317 
L 185.806687 92.500618 
L 185.845894 93.96673 
L 185.899358 109.205098 
L 186.088266 170.773558 
L 186.113216 171.140181 
L 186.152423 169.886806 
L 186.205888 157.044287 
L 186.42331 68.354749 
L 186.462517 69.475928 
L 186.515981 82.544406 
L 186.69776 182.867342 
L 186.793996 177.078675 
L 186.854589 152.930579 
L 187.014983 73.633448 
L 187.047061 74.113364 
L 187.125476 81.030826 
L 187.186069 114.43095 
L 187.325076 173.042691 
L 187.335769 173.072523 
L 187.367848 172.551008 
L 187.442698 166.60807 
L 187.503291 138.796721 
L 187.645863 83.431966 
L 187.652991 83.434396 
L 187.688634 83.999288 
L 187.756356 88.558126 
L 187.820513 111.902898 
L 187.966649 163.293963 
L 187.980906 163.220623 
L 188.048628 160.942671 
L 188.11635 150.388676 
L 188.283871 93.205728 
L 188.376543 95.934628 
L 188.444265 107.44507 
L 188.597529 153.531203 
L 188.665251 152.402218 
L 188.740101 146.583331 
L 188.793566 120.089065 
L 188.911187 102.946687 
L 188.929009 103.01273 
L 188.978909 103.880467 
L 189.064452 109.6584 
L 189.22841 143.81879 
L 189.360288 140.265987 
L 189.424446 128.216986 
L 189.534939 112.603009 
L 189.55276 112.663712 
L 189.620482 113.681796 
L 189.720282 118.204238 
L 189.905626 137.882462 
L 189.955526 137.609936 
L 190.019683 135.420356 
L 190.069583 123.848835 
L 190.205026 113.772996 
L 190.226412 113.72387 
L 190.269184 113.93345 
L 190.326212 115.389827 
L 190.383241 124.076065 
L 190.51512 137.784467 
L 190.547199 137.881622 
L 190.593534 137.623565 
L 190.661256 135.230926 
L 190.71472 121.675969 
L 190.853728 113.741851 
L 190.864421 113.724297 
L 190.907192 113.923132 
L 190.967785 115.526691 
L 191.02125 123.598874 
L 191.153129 137.778078 
L 191.185207 137.883168 
L 191.231543 137.635909 
L 191.299265 135.301075 
L 191.349165 123.132897 
L 191.488172 113.749904 
L 191.505994 113.726425 
L 191.541637 113.877625 
L 191.605794 115.473298 
L 191.662823 125.086617 
L 191.791137 137.770076 
L 191.823216 137.883311 
L 191.873116 137.599833 
L 191.933709 135.629962 
L 191.983609 125.622142 
L 192.111924 113.826673 
L 192.144003 113.724533 
L 192.190338 113.975653 
L 192.25806 116.331425 
L 192.311524 129.742764 
L 192.450532 137.864006 
L 192.461225 137.88198 
L 192.503996 137.691214 
L 192.564589 136.11496 
L 192.618054 128.270885 
L 192.753497 113.813274 
L 192.782011 113.72383 
L 192.831911 114.012391 
L 192.892504 116.001966 
L 192.942405 126.225557 
L 193.070719 137.782893 
L 193.102798 137.882149 
L 193.149134 137.627096 
L 193.216855 135.25033 
L 193.27032 121.756445 
L 193.409327 113.742519 
L 193.42002 113.724667 
L 193.462792 113.920134 
L 193.523385 115.511801 
L 193.576849 123.482753 
L 193.712292 137.795612 
L 193.740807 137.883363 
L 193.790707 137.590054 
L 193.8513 135.580229 
L 193.9012 125.144989 
L 194.033079 113.804408 
L 194.061593 113.725838 
L 194.107929 113.984908 
L 194.17565 116.382876 
L 194.229115 129.957981 
L 194.368122 137.865665 
L 194.378815 137.883078 
L 194.421587 137.683156 
L 194.48218 136.075573 
L 194.535644 127.968412 
L 194.667523 113.828543 
L 194.699602 113.724195 
L 194.745938 113.972413 
L 194.813659 116.312484 
L 194.863559 128.50665 
L 195.002567 137.8577 
L 195.020388 137.880646 
L 195.052467 137.755397 
L 195.109496 136.614227 
L 195.166524 130.60161 
L 195.330482 113.729484 
L 195.334046 113.730126 
L 195.337611 113.723909 
L 195.373253 113.862915 
L 195.430282 115.041606 
L 195.490875 122.46243 
L 195.640576 137.853402 
L 195.658397 137.882606 
L 195.697604 137.705465 
L 195.765326 135.771157 
L 195.81879 124.69019 
L 195.950669 113.799659 
L 195.975619 113.725124 
L 196.025519 113.99481 
L 196.089677 116.174212 
L 196.139577 127.669638 
L 196.27502 137.833837 
L 196.296406 137.883443 
L 196.339177 137.675609 
L 196.396206 136.225664 
L 196.453235 127.624192 
L 196.585114 113.823842 
L 196.617192 113.725293 
L 196.663528 113.981342 
L 196.73125 116.363382 
L 196.784714 129.87772 
L 196.923722 137.864966 
L 196.934414 137.88274 
L 196.977186 137.686133 
L 197.037779 136.090533 
L 197.091243 128.086441 
L 197.223122 113.83054 
L 197.255201 113.723962 
L 197.301537 113.969313 
L 197.369258 116.293653 
L 197.419159 128.408497 
L 197.558166 137.856668 
L 197.575988 137.881243 
L 197.61163 137.730816 
L 197.675788 136.143293 
L 197.732816 126.636224 
L 197.861131 113.838784 
L 197.89321 113.724105 
L 197.932417 114.02129 
L 198.014396 117.385846 
L 198.174789 135.74958 
L 198.303104 133.976068 
L 198.367261 127.94401 
L 198.484883 118.272118 
L 198.506268 118.319312 
L 198.581119 119.000013 
L 198.666662 121.906315 
L 198.791412 130.946125 
L 198.876955 130.462456 
L 198.983884 128.293143 
L 199.094377 122.992998 
L 199.187049 123.5073 
L 199.32962 125.681706 
L 199.375956 126.468141 
L 199.443678 126.125394 
L 199.596943 125.803636 
L 202.248778 125.698744 
L 202.4662 118.471771 
L 202.508971 120.736951 
L 202.754908 144.404612 
L 202.7656 144.347053 
L 202.804808 142.104909 
L 202.847579 123.462018 
L 202.986587 97.41357 
L 203.061437 95.401344 
L 203.100644 96.84525 
L 203.154109 112.330252 
L 203.328759 167.41781 
L 203.371531 168.210371 
L 203.410738 166.625218 
L 203.467766 149.005729 
L 203.674496 71.32016 
L 203.681624 71.301195 
L 203.695881 71.487253 
L 203.735089 74.494286 
L 203.788553 97.864956 
L 203.948946 184.063699 
L 203.977461 183.635649 
L 204.041618 178.881182 
L 204.10934 150.868264 
L 204.266168 72.450684 
L 204.287554 72.664503 
L 204.337454 74.880179 
L 204.40874 89.548545 
L 204.586955 174.264559 
L 204.676062 170.22805 
L 204.74022 152.389204 
L 204.900613 82.242588 
L 204.954077 83.259776 
L 205.032492 91.868275 
L 205.085956 133.532041 
L 205.217835 164.47856 
L 205.221399 164.465879 
L 205.235657 164.380972 
L 205.303378 161.925259 
L 205.374664 148.850113 
L 205.538622 92.016287 
L 205.602779 93.375617 
L 205.677629 101.125058 
L 205.745351 144.221419 
L 205.848715 154.709593 
L 205.884358 154.414068 
L 205.95208 151.881167 
L 206.023366 139.005778 
L 206.169502 101.763633 
L 206.212273 102.256865 
L 206.287124 105.425113 
L 206.351281 118.7616 
L 206.479595 144.992297 
L 206.504545 144.858134 
L 206.597217 142.280869 
L 206.668503 132.164426 
L 206.793253 111.437604 
L 206.825332 111.667375 
L 206.925132 114.296833 
L 206.992854 122.655626 
L 207.13899 137.838404 
L 207.160376 137.881435 
L 207.206712 137.622365 
L 207.274433 135.224397 
L 207.327898 121.649292 
L 207.466905 113.741608 
L 207.477598 113.724195 
L 207.520369 113.924117 
L 207.580962 115.5317 
L 207.634427 123.638861 
L 207.766306 137.77873 
L 207.798384 137.883078 
L 207.84472 137.63486 
L 207.912442 135.294789 
L 207.962342 123.100623 
L 208.101349 113.749573 
L 208.119171 113.726627 
L 208.15125 113.851876 
L 208.208278 114.993046 
L 208.265307 121.005662 
L 208.429265 137.877789 
L 208.432829 137.877147 
L 208.436393 137.883363 
L 208.472036 137.744358 
L 208.529065 136.565666 
L 208.589658 129.144842 
L 208.739358 113.753871 
L 208.75718 113.724667 
L 208.796387 113.901808 
L 208.864109 115.836116 
L 208.917573 126.917082 
L 209.049452 137.807614 
L 209.074402 137.882149 
L 209.124302 137.612463 
L 209.188459 135.433061 
L 209.238359 123.937635 
L 209.373803 113.773436 
L 209.395188 113.72383 
L 209.43796 113.931664 
L 209.494989 115.381609 
L 209.552017 123.98308 
L 209.683896 137.783431 
L 209.715975 137.88198 
L 209.762311 137.625931 
L 209.830032 135.243891 
L 209.883497 121.729553 
L 210.022504 113.742307 
L 210.033197 113.724533 
L 210.075969 113.92114 
L 210.136562 115.51674 
L 210.190026 123.520832 
L 210.321905 137.776733 
L 210.353984 137.883311 
L 210.400319 137.637959 
L 210.468041 135.313619 
L 210.517941 123.198776 
L 210.656949 113.750605 
L 210.67477 113.72603 
L 210.710413 113.876457 
L 210.77457 115.46398 
L 210.831599 124.971048 
L 210.959914 137.768489 
L 210.991992 137.883168 
L 211.041893 137.602343 
L 211.10605 135.382485 
L 211.15595 123.598874 
L 211.291393 113.77163 
L 211.312779 113.724297 
L 211.359115 113.973478 
L 211.426836 116.318783 
L 211.476736 128.538506 
L 211.615744 137.858017 
L 211.633565 137.880443 
L 211.665644 137.7546 
L 211.722673 136.611044 
L 211.779702 130.579153 
L 211.943659 113.729407 
L 211.947223 113.73005 
L 211.950788 113.72387 
L 211.986431 113.863572 
L 212.043459 115.044958 
L 212.104052 122.489786 
L 212.253753 137.853845 
L 212.271574 137.882462 
L 212.310781 137.704479 
L 212.378503 135.765933 
L 212.431967 124.63559 
L 212.563846 113.799031 
L 212.588796 113.724963 
L 212.638697 113.996072 
L 212.702854 116.18057 
L 212.752754 127.714386 
L 212.888197 137.834057 
L 212.909583 137.883429 
L 212.952354 137.67471 
L 213.009383 136.221565 
L 213.066412 127.578049 
L 213.198291 113.823317 
L 213.230369 113.725468 
L 213.276705 113.982519 
L 213.344427 116.36985 
L 213.397891 129.904547 
L 213.536899 137.865189 
L 213.547592 137.882863 
L 213.590363 137.685133 
L 213.650956 136.085569 
L 213.704421 128.047738 
L 213.836299 113.82986 
L 213.868378 113.724027 
L 213.914714 113.970331 
L 213.982436 116.299921 
L 214.032336 128.441664 
L 214.171343 137.857025 
L 214.189165 137.881047 
L 214.224808 137.730235 
L 214.288965 136.13865 
L 214.345994 126.578645 
L 214.474308 113.837986 
L 214.506387 113.724027 
L 214.556287 114.006187 
L 214.61688 115.971223 
L 214.66678 125.924689 
L 214.795095 137.77999 
L 214.827173 137.882863 
L 214.873509 137.632715 
L 214.941231 135.282177 
L 214.991131 123.037307 
L 215.130138 113.748951 
L 215.14796 113.727033 
L 215.180039 113.853464 
L 215.237067 114.999414 
L 215.294096 121.201663 
L 215.425975 136.337235 
L 215.454489 136.253356 
L 215.525775 135.35451 
L 215.600625 131.417108 
L 215.739633 117.688513 
L 215.814483 118.166727 
L 215.90359 120.487552 
L 216.049726 131.523283 
L 216.178041 130.412477 
L 216.252891 127.473279 
L 216.352691 122.435842 
L 216.406156 122.66252 
L 216.548728 124.345486 
L 216.641399 126.950402 
L 216.7412 126.378722 
L 216.926543 125.803636 
L 219.574814 125.803636 
L 219.728078 120.992605 
L 219.763721 122.516118 
L 220.013222 141.59115 
L 220.023915 141.528769 
L 220.066686 138.557047 
L 220.312623 98.288189 
L 220.383909 104.137277 
L 220.622716 165.28818 
L 220.690438 159.818918 
L 220.736774 125.803636 
L 220.868653 76.441806 
L 220.936374 74.239397 
L 220.979146 76.187451 
L 221.03261 92.703196 
L 221.200132 185.25395 
L 221.267854 182.817487 
L 221.335575 169.04664 
L 221.520919 71.258033 
L 221.63854 80.961143 
L 221.692005 117.199314 
L 221.823884 175.370625 
L 221.838141 175.450857 
L 221.866655 175.060034 
L 221.927248 171.454068 
L 221.99497 151.335312 
L 222.151799 81.052583 
L 222.191006 81.561732 
L 222.269421 87.766485 
L 222.330014 117.307101 
L 222.465457 165.636878 
L 222.472585 165.658789 
L 222.504664 165.278312 
L 222.572386 161.603539 
L 222.640107 142.070574 
L 222.789808 90.828082 
L 222.814758 91.047587 
L 222.893172 94.701592 
L 222.960894 112.480994 
L 223.103465 155.892246 
L 223.124851 155.781426 
L 223.203266 153.07076 
L 223.274552 140.015353 
L 223.420688 100.581399 
L 223.463459 101.048879 
L 223.538309 104.268618 
L 223.606031 119.966967 
L 223.734346 146.167097 
L 223.748603 146.115889 
L 223.830582 144.287526 
L 223.905432 137.013139 
L 224.044439 110.268748 
L 224.122854 111.276819 
L 224.215525 116.32424 
L 224.411562 137.882976 
L 224.479283 137.284821 
L 224.54344 133.463617 
L 224.728784 113.72565 
L 224.782248 114.039042 
L 224.842841 116.155081 
L 224.892741 127.531208 
L 225.028185 137.833167 
L 225.04957 137.883403 
L 225.092342 137.678365 
L 225.152935 136.050243 
L 225.206399 127.758438 
L 225.338278 113.825498 
L 225.370357 113.72481 
L 225.416693 113.977887 
L 225.484414 116.344139 
L 225.537879 129.796882 
L 225.676886 137.864359 
L 225.687579 137.88231 
L 225.730351 137.689168 
L 225.790944 136.105272 
L 225.844408 128.198863 
L 225.979851 113.812479 
L 226.008366 113.723843 
L 226.058266 114.014823 
L 226.118859 116.014459 
L 226.168759 126.344508 
L 226.300638 137.801768 
L 226.329152 137.881804 
L 226.379052 137.575465 
L 226.439645 135.497092 
L 226.489545 124.423084 
L 226.621424 113.796476 
L 226.646374 113.724409 
L 226.696274 114.001138 
L 226.760432 116.205896 
L 226.810332 127.886455 
L 226.945775 137.834946 
L 226.967161 137.883245 
L 227.013497 137.636942 
L 227.081218 135.307352 
L 227.131118 123.165609 
L 227.270126 113.750248 
L 227.287947 113.726226 
L 227.32359 113.877038 
L 227.387748 115.468623 
L 227.444776 125.028628 
L 227.573091 137.769286 
L 227.60517 137.883245 
L 227.65507 137.601086 
L 227.715663 135.636049 
L 227.765563 125.682584 
L 227.893877 113.827282 
L 227.925956 113.724409 
L 227.972292 113.974557 
L 228.040013 116.325096 
L 228.089914 128.569966 
L 228.228921 137.858321 
L 228.246743 137.88024 
L 228.278821 137.753809 
L 228.33585 136.607858 
L 228.392879 130.556494 
L 228.556836 113.729343 
L 228.5604 113.729963 
L 228.563965 113.723843 
L 228.599608 113.864219 
L 228.656636 115.04833 
L 228.717229 122.517203 
L 228.86693 137.85428 
L 228.884751 137.88231 
L 228.920394 137.734218 
L 228.980987 136.337918 
L 229.038016 128.662157 
L 229.177023 113.798399 
L 229.201974 113.72481 
L 229.251874 113.997337 
L 229.316031 116.186917 
L 229.365931 127.758438 
L 229.501374 137.834277 
L 229.52276 137.883403 
L 229.565532 137.673823 
L 229.62256 136.217446 
L 229.679589 127.531208 
L 229.811468 113.822806 
L 229.843547 113.72565 
L 229.889882 113.983708 
L 229.957604 116.376347 
L 230.011068 129.931304 
L 230.150076 137.865422 
L 230.160769 137.882976 
L 230.20354 137.684141 
L 230.264133 136.080582 
L 230.317598 128.008399 
L 230.449477 113.829195 
L 230.481555 113.724105 
L 230.527891 113.971364 
L 230.595613 116.306197 
L 230.645513 128.474375 
L 230.78452 137.857369 
L 230.802342 137.880848 
L 230.837985 137.729648 
L 230.902142 136.133975 
L 230.959171 126.520655 
L 231.087485 113.837197 
L 231.119564 113.723962 
L 231.169464 114.00744 
L 231.230057 115.977311 
L 231.279957 125.985131 
L 231.408272 137.780599 
L 231.440351 137.88274 
L 231.486686 137.63162 
L 231.554408 135.275848 
L 231.607872 121.864508 
L 231.74688 113.743267 
L 231.757573 113.725293 
L 231.800344 113.916058 
L 231.860937 115.492313 
L 231.914402 123.336388 
L 232.049845 137.793999 
L 232.078359 137.883443 
L 232.128259 137.594881 
L 232.188852 135.605306 
L 232.238753 125.381716 
L 232.367067 113.82438 
L 232.399146 113.725124 
L 232.445482 113.980177 
L 232.513203 116.356943 
L 232.566668 129.850828 
L 232.680725 136.92366 
L 232.702111 136.875476 
L 232.787654 135.690023 
L 232.862504 130.269698 
L 232.990819 117.10346 
L 233.037155 117.284827 
L 233.136955 119.123509 
L 233.197548 126.200916 
L 233.300912 132.101255 
L 233.325862 132.052402 
L 233.429227 130.989163 
L 233.504077 127.797849 
L 233.607442 121.87187 
L 233.660906 122.085433 
L 233.799914 123.897987 
L 233.899714 127.465503 
L 234.006643 126.870346 
L 234.252579 125.803636 
L 236.904414 125.803636 
L 236.993522 123.314698 
L 237.0256 124.7741 
L 237.196686 137.029268 
L 237.267972 138.818616 
L 237.310744 137.421409 
L 237.349951 125.717833 
L 237.485394 103.592788 
L 237.570937 101.163308 
L 237.613709 102.812683 
L 237.663609 118.544088 
L 237.813309 160.654736 
L 237.877467 162.366417 
L 237.920238 160.725532 
L 237.973703 144.786434 
L 238.173303 77.308323 
L 238.18756 77.173487 
L 238.219639 78.006858 
L 238.276668 89.953795 
L 238.472704 186.169998 
L 238.561811 178.165621 
L 238.622404 139.709471 
L 238.761412 70.136024 
L 238.772105 70.063962 
L 238.811312 70.823104 
L 238.886162 78.877845 
L 238.943191 115.250518 
L 239.078634 176.568921 
L 239.092891 176.633262 
L 239.128534 175.968537 
L 239.19982 169.636626 
L 239.260413 138.625697 
L 239.402985 79.86749 
L 239.406549 79.877404 
L 239.410113 79.864356 
L 239.435063 80.171071 
L 239.513478 85.443934 
L 239.577635 111.725682 
L 239.723771 166.850931 
L 239.734464 166.801972 
L 239.766543 166.211258 
L 239.834264 161.521612 
L 239.894857 140.464348 
L 240.040993 89.644661 
L 240.055251 89.715262 
L 240.105151 90.945106 
L 240.183565 99.730325 
L 240.36178 157.077386 
L 240.482966 151.508803 
L 240.539995 132.066709 
L 240.671874 99.403234 
L 240.675438 99.407328 
L 240.707516 99.710565 
L 240.782367 102.560279 
L 240.850088 115.192547 
L 240.985531 147.345446 
L 241.024739 147.031303 
L 241.11741 143.372989 
L 241.181568 127.954293 
L 241.295625 109.103962 
L 241.309882 109.129395 
L 241.363347 109.839973 
L 241.44889 113.494962 
L 241.502354 125.181817 
L 241.627104 137.741169 
L 241.662747 137.883429 
L 241.716212 137.551878 
L 241.780369 135.077724 
L 241.840962 119.552479 
L 241.983534 113.724963 
L 242.02987 113.979025 
L 242.097591 116.350529 
L 242.151056 129.82388 
L 242.290063 137.864551 
L 242.300756 137.882462 
L 242.343528 137.688151 
L 242.404121 136.100385 
L 242.457585 128.161989 
L 242.593028 113.812073 
L 242.621543 113.72387 
L 242.671443 114.016025 
L 242.732036 116.020741 
L 242.781936 126.403558 
L 242.913815 137.802312 
L 242.942329 137.881622 
L 242.992229 137.574411 
L 243.052822 135.490664 
L 243.102722 124.371513 
L 243.234601 113.795829 
L 243.259551 113.724297 
L 243.309452 114.002404 
L 243.373609 116.212203 
L 243.423509 127.927767 
L 243.558952 137.835174 
L 243.580338 137.883168 
L 243.626674 137.635909 
L 243.694395 135.301075 
L 243.744295 123.132897 
L 243.883303 113.749904 
L 243.901124 113.726425 
L 243.936767 113.877625 
L 244.000925 115.473298 
L 244.057953 125.086617 
L 244.186268 137.770076 
L 244.218347 137.883311 
L 244.268247 137.599833 
L 244.32884 135.629962 
L 244.37874 125.622142 
L 244.507055 113.826673 
L 244.539133 113.724533 
L 244.585469 113.975653 
L 244.653191 116.331425 
L 244.706655 129.742764 
L 244.845663 137.864006 
L 244.856355 137.88198 
L 244.899127 137.691214 
L 244.95972 136.11496 
L 245.013184 128.270885 
L 245.148628 113.813274 
L 245.177142 113.72383 
L 245.227042 114.012391 
L 245.287635 116.001966 
L 245.337535 126.225557 
L 245.46585 137.782893 
L 245.497928 137.882149 
L 245.544264 137.627096 
L 245.611986 135.25033 
L 245.66545 121.756445 
L 245.804458 113.742519 
L 245.815151 113.724667 
L 245.857922 113.920134 
L 245.918515 115.511801 
L 245.97198 123.482753 
L 246.107423 137.795612 
L 246.135937 137.883363 
L 246.185837 137.590054 
L 246.24643 135.580229 
L 246.29633 125.144989 
L 246.428209 113.804408 
L 246.456724 113.725838 
L 246.50306 113.984908 
L 246.570781 116.382876 
L 246.624246 129.957981 
L 246.763253 137.865665 
L 246.773946 137.883078 
L 246.816717 137.683156 
L 246.87731 136.075573 
L 246.930775 127.968412 
L 247.062654 113.828543 
L 247.094732 113.724195 
L 247.141068 113.972413 
L 247.20879 116.312484 
L 247.25869 128.50665 
L 247.397697 137.8577 
L 247.415519 137.880646 
L 247.447598 137.755397 
L 247.504626 136.614227 
L 247.561655 130.60161 
L 247.725613 113.729484 
L 247.729177 113.730126 
L 247.732741 113.723909 
L 247.768384 113.862915 
L 247.825413 115.041606 
L 247.886006 122.46243 
L 248.035706 137.853402 
L 248.053528 137.882606 
L 248.092735 137.705465 
L 248.160457 135.771157 
L 248.213921 124.69019 
L 248.3458 113.799659 
L 248.37075 113.725124 
L 248.42065 113.99481 
L 248.484807 116.174212 
L 248.534707 127.669638 
L 248.670151 137.833837 
L 248.691536 137.883443 
L 248.734308 137.675609 
L 248.791337 136.225664 
L 248.848365 127.624192 
L 248.980244 113.823842 
L 249.012323 113.725293 
L 249.058659 113.981342 
L 249.12638 116.363382 
L 249.179845 129.87772 
L 249.318852 137.864966 
L 249.329545 137.88274 
L 249.372317 137.686133 
L 249.43291 136.090533 
L 249.486374 128.086441 
L 249.618253 113.83054 
L 249.650332 113.723962 
L 249.696667 113.969313 
L 249.764389 116.293653 
L 249.814289 128.408497 
L 249.93904 137.513755 
L 249.949732 137.483954 
L 249.999633 137.052752 
L 250.085176 134.129117 
L 250.160026 119.009078 
L 250.249133 116.515947 
L 250.295469 116.740992 
L 250.388141 118.576121 
L 250.445169 124.411632 
L 250.555662 132.681012 
L 250.573484 132.655954 
L 250.637641 132.191423 
L 250.730313 130.006835 
L 250.865756 121.302322 
L 250.986942 122.182595 
L 251.076049 124.590807 
L 251.161593 128.000761 
L 251.22575 127.713086 
L 251.428915 125.60155 
L 251.607129 125.803636 
L 254.237579 125.69617 
L 254.266093 125.207925 
L 254.298172 126.968807 
L 254.529851 136.098383 
L 254.551237 135.790411 
L 254.594008 130.034524 
L 254.768659 105.268921 
L 254.825687 104.026373 
L 254.868459 105.554698 
L 254.914795 118.686756 
L 255.071624 157.959383 
L 255.128652 159.454174 
L 255.174988 157.835853 
L 255.228453 141.592663 
L 255.406667 80.765221 
L 255.438746 80.117471 
L 255.485082 81.818051 
L 255.538546 97.356155 
L 255.752404 183.60823 
L 255.770225 183.405227 
L 255.809433 180.131017 
L 255.870026 146.885101 
L 256.02329 68.876422 
L 256.030419 68.902348 
L 256.080319 70.478693 
L 256.151605 81.629915 
L 256.201505 132.243321 
L 256.333384 177.78301 
L 256.344077 177.830337 
L 256.37972 177.178395 
L 256.443877 172.049849 
L 256.508034 144.547602 
L 256.661299 78.679293 
L 256.668428 78.715056 
L 256.707635 79.61836 
L 256.778921 86.690716 
L 256.83595 120.146744 
L 256.964264 167.955019 
L 256.974957 168.039575 
L 257.021293 167.32788 
L 257.099707 160.448921 
L 257.156736 128.156304 
L 257.285051 88.493308 
L 257.295744 88.461698 
L 257.324258 88.758946 
L 257.402672 93.061115 
L 257.46683 112.913301 
L 257.612966 158.264407 
L 257.627223 158.175585 
L 257.687816 156.49144 
L 257.759102 148.06678 
L 257.926624 98.220254 
L 258.044245 102.269454 
L 258.108403 118.210781 
L 258.243846 148.521275 
L 258.261667 148.415461 
L 258.343646 146.162646 
L 258.414932 137.043579 
L 258.557504 107.932727 
L 258.610968 108.554511 
L 258.707204 113.10399 
L 258.764233 130.805268 
L 258.860469 138.867125 
L 258.896112 138.661515 
L 259.010169 136.441724 
L 259.067198 129.362513 
L 259.220463 113.745432 
L 259.23472 113.723909 
L 259.270363 113.867317 
L 259.327391 115.065543 
L 259.387984 122.655626 
L 259.534121 137.838404 
L 259.555506 137.881435 
L 259.601842 137.622365 
L 259.669564 135.224397 
L 259.723028 121.649292 
L 259.862036 113.741608 
L 259.872729 113.724195 
L 259.9155 113.924117 
L 259.976093 115.5317 
L 260.029558 123.638861 
L 260.161436 137.77873 
L 260.193515 137.883078 
L 260.239851 137.63486 
L 260.307573 135.294789 
L 260.357473 123.100623 
L 260.49648 113.749573 
L 260.514302 113.726627 
L 260.54638 113.851876 
L 260.603409 114.993046 
L 260.660438 121.005662 
L 260.824395 137.877789 
L 260.82796 137.877147 
L 260.831524 137.883363 
L 260.867167 137.744358 
L 260.924195 136.565666 
L 260.984788 129.144842 
L 261.134489 113.753871 
L 261.15231 113.724667 
L 261.191518 113.901808 
L 261.259239 115.836116 
L 261.312704 126.917082 
L 261.444582 137.807614 
L 261.469533 137.882149 
L 261.519433 137.612463 
L 261.58359 135.433061 
L 261.63349 123.937635 
L 261.768933 113.773436 
L 261.790319 113.72383 
L 261.833091 113.931664 
L 261.890119 115.381609 
L 261.947148 123.98308 
L 262.079027 137.783431 
L 262.111106 137.88198 
L 262.157441 137.625931 
L 262.225163 135.243891 
L 262.278627 121.729553 
L 262.417635 113.742307 
L 262.428328 113.724533 
L 262.471099 113.92114 
L 262.531692 115.51674 
L 262.585157 123.520832 
L 262.717036 137.776733 
L 262.749114 137.883311 
L 262.79545 137.637959 
L 262.863172 135.313619 
L 262.913072 123.198776 
L 263.052079 113.750605 
L 263.069901 113.72603 
L 263.105544 113.876457 
L 263.169701 115.46398 
L 263.22673 124.971048 
L 263.355044 137.768489 
L 263.387123 137.883168 
L 263.437023 137.602343 
L 263.50118 135.382485 
L 263.551081 123.598874 
L 263.686524 113.77163 
L 263.70791 113.724297 
L 263.754245 113.973478 
L 263.821967 116.318783 
L 263.871867 128.538506 
L 264.010875 137.858017 
L 264.028696 137.880443 
L 264.060775 137.7546 
L 264.117803 136.611044 
L 264.174832 130.579153 
L 264.33879 113.729407 
L 264.342354 113.73005 
L 264.345918 113.72387 
L 264.381561 113.863572 
L 264.43859 115.044958 
L 264.499183 122.489786 
L 264.648883 137.853845 
L 264.666705 137.882462 
L 264.705912 137.704479 
L 264.773634 135.765933 
L 264.827098 124.63559 
L 264.958977 113.799031 
L 264.983927 113.724963 
L 265.033827 113.996072 
L 265.097984 116.18057 
L 265.147885 127.714386 
L 265.283328 137.834057 
L 265.304714 137.883429 
L 265.347485 137.67471 
L 265.404514 136.221565 
L 265.461543 127.578049 
L 265.593421 113.823317 
L 265.6255 113.725468 
L 265.671836 113.982519 
L 265.739557 116.36985 
L 265.793022 129.904547 
L 265.932029 137.865189 
L 265.942722 137.882863 
L 265.985494 137.685133 
L 266.046087 136.085569 
L 266.099551 128.047738 
L 266.23143 113.82986 
L 266.263509 113.724027 
L 266.309845 113.970331 
L 266.377566 116.299921 
L 266.427466 128.441664 
L 266.566474 137.857025 
L 266.584295 137.881047 
L 266.619938 137.730235 
L 266.684096 136.13865 
L 266.741124 126.578645 
L 266.869439 113.837986 
L 266.901518 113.724027 
L 266.951418 114.006187 
L 267.012011 115.971223 
L 267.061911 125.924689 
L 267.190225 137.77999 
L 267.222304 137.882863 
L 267.257947 137.547059 
L 267.336361 134.658871 
L 267.396954 120.689833 
L 267.500319 115.930081 
L 267.532398 116.031095 
L 267.625069 117.499875 
L 267.692791 123.189702 
L 267.813977 133.265686 
L 267.842491 133.177233 
L 267.931599 132.149431 
L 268.006449 128.488359 
L 268.116942 120.730327 
L 268.173971 120.957583 
L 268.291592 122.632128 
L 268.419907 128.547718 
L 268.566043 127.553215 
L 268.701486 125.193286 
L 268.847622 125.803636 
L 271.567179 125.898158 
L 271.788165 133.444978 
L 271.838066 130.820051 
L 272.084002 106.861214 
L 272.116081 107.717077 
L 272.165981 118.984473 
L 272.329938 155.236339 
L 272.386967 156.558444 
L 272.429738 154.94031 
L 272.479639 140.927775 
L 272.664982 83.552925 
L 272.693496 83.052543 
L 272.736268 84.477954 
L 272.789732 98.540899 
L 273.010718 180.665183 
L 273.02854 180.332984 
L 273.07844 174.294558 
L 273.12834 136.578426 
L 273.260219 67.828979 
L 273.274476 67.694974 
L 273.313684 68.389468 
L 273.384969 75.588743 
L 273.445562 111.826893 
L 273.588134 179.002422 
L 273.595263 179.021917 
L 273.616649 178.780225 
L 273.677242 175.489677 
L 273.741399 159.451971 
L 273.916049 77.491816 
L 273.990899 80.281742 
L 274.058621 94.346645 
L 274.226143 169.222853 
L 274.318815 165.905162 
L 274.386536 149.947472 
L 274.546929 87.27028 
L 274.607522 88.520756 
L 274.682373 96.609667 
L 274.732273 131.342403 
L 274.864152 159.44718 
L 274.89623 159.124448 
L 274.978209 154.69898 
L 275.038802 136.988578 
L 275.17781 97.035831 
L 275.199195 97.149242 
L 275.270481 99.288961 
L 275.345331 110.419816 
L 275.495032 149.699722 
L 275.559189 148.752692 
L 275.644732 142.682308 
L 275.80869 106.75432 
L 275.940569 110.444188 
L 276.004726 123.601989 
L 276.118783 140.029945 
L 276.133041 139.978672 
L 276.197198 139.036291 
L 276.293434 134.211915 
L 276.485906 113.724105 
L 276.567884 114.659581 
L 276.628477 119.674976 
L 276.806692 137.882976 
L 276.824514 137.843866 
L 276.874414 137.284821 
L 276.938571 133.463617 
L 277.123914 113.72565 
L 277.177379 114.039042 
L 277.237972 116.155081 
L 277.287872 127.531208 
L 277.423315 137.833167 
L 277.444701 137.883403 
L 277.487472 137.678365 
L 277.548065 136.050243 
L 277.60153 127.758438 
L 277.733409 113.825498 
L 277.765487 113.72481 
L 277.811823 113.977887 
L 277.879545 116.344139 
L 277.933009 129.796882 
L 278.072017 137.864359 
L 278.08271 137.88231 
L 278.125481 137.689168 
L 278.186074 136.105272 
L 278.239539 128.198863 
L 278.374982 113.812479 
L 278.403496 113.723843 
L 278.453396 114.014823 
L 278.513989 116.014459 
L 278.563889 126.344508 
L 278.695768 137.801768 
L 278.724283 137.881804 
L 278.774183 137.575465 
L 278.834776 135.497092 
L 278.884676 124.423084 
L 279.016555 113.796476 
L 279.041505 113.724409 
L 279.091405 114.001138 
L 279.155562 116.205896 
L 279.205462 127.886455 
L 279.340906 137.834946 
L 279.362291 137.883245 
L 279.408627 137.636942 
L 279.476349 135.307352 
L 279.526249 123.165609 
L 279.665256 113.750248 
L 279.683078 113.726226 
L 279.718721 113.877038 
L 279.782878 115.468623 
L 279.839907 125.028628 
L 279.968222 137.769286 
L 280.0003 137.883245 
L 280.0502 137.601086 
L 280.110793 135.636049 
L 280.160693 125.682584 
L 280.289008 113.827282 
L 280.321087 113.724409 
L 280.367423 113.974557 
L 280.435144 116.325096 
L 280.485044 128.569966 
L 280.624052 137.858321 
L 280.641873 137.88024 
L 280.673952 137.753809 
L 280.730981 136.607858 
L 280.788009 130.556494 
L 280.951967 113.729343 
L 280.955531 113.729963 
L 280.959095 113.723843 
L 280.994738 113.864219 
L 281.051767 115.04833 
L 281.11236 122.517203 
L 281.26206 137.85428 
L 281.279882 137.88231 
L 281.315525 137.734218 
L 281.376118 136.337918 
L 281.433147 128.662157 
L 281.572154 113.798399 
L 281.597104 113.72481 
L 281.647004 113.997337 
L 281.711162 116.186917 
L 281.761062 127.758438 
L 281.896505 137.834277 
L 281.917891 137.883403 
L 281.960662 137.673823 
L 282.017691 136.217446 
L 282.07472 127.531208 
L 282.206599 113.822806 
L 282.238677 113.72565 
L 282.285013 113.983708 
L 282.352735 116.376347 
L 282.406199 129.931304 
L 282.545207 137.865422 
L 282.555899 137.882976 
L 282.598671 137.684141 
L 282.659264 136.080582 
L 282.712728 128.008399 
L 282.844607 113.829195 
L 282.876686 113.724105 
L 282.923022 113.971364 
L 282.990743 116.306197 
L 283.040643 128.474375 
L 283.179651 137.857369 
L 283.197472 137.880848 
L 283.233115 137.729648 
L 283.297273 136.133975 
L 283.354301 126.520655 
L 283.482616 113.837197 
L 283.514695 113.723962 
L 283.564595 114.00744 
L 283.625188 115.977311 
L 283.675088 125.985131 
L 283.803403 137.780599 
L 283.835481 137.88274 
L 283.881817 137.63162 
L 283.949539 135.275848 
L 284.003003 121.864508 
L 284.142011 113.743267 
L 284.152703 113.725293 
L 284.195475 113.916058 
L 284.256068 115.492313 
L 284.309532 123.336388 
L 284.444976 137.793999 
L 284.47349 137.883443 
L 284.52339 137.594881 
L 284.583983 135.605306 
L 284.633883 125.381716 
L 284.762198 113.82438 
L 284.794276 113.725124 
L 284.840612 113.980177 
L 284.908334 116.356943 
L 284.961798 129.850828 
L 285.100806 137.864754 
L 285.111499 137.882606 
L 285.15427 137.687139 
L 285.214863 136.095472 
L 285.268328 128.12452 
L 285.403771 113.81166 
L 285.432285 113.723909 
L 285.482185 114.017218 
L 285.542778 116.027044 
L 285.592678 126.462284 
L 285.724557 137.802865 
L 285.753072 137.881435 
L 285.799407 137.622365 
L 285.867129 135.224397 
L 285.920594 121.649292 
L 286.059601 113.741608 
L 286.070294 113.724195 
L 286.113065 113.924117 
L 286.173658 115.5317 
L 286.227123 123.638861 
L 286.359002 137.77873 
L 286.39108 137.883078 
L 286.437416 137.63486 
L 286.505138 135.294789 
L 286.555038 123.100623 
L 286.694045 113.749573 
L 286.711867 113.726627 
L 286.743946 113.851876 
L 286.800974 114.993046 
L 286.858003 121.005662 
L 287.021961 137.877789 
L 287.025525 137.877147 
L 287.029089 137.883363 
L 287.064732 137.744358 
L 287.121761 136.565666 
L 287.182354 129.144842 
L 287.332054 113.753871 
L 287.349876 113.724667 
L 287.389083 113.901808 
L 287.456804 115.836116 
L 287.510269 126.917082 
L 287.642148 137.807614 
L 287.667098 137.882149 
L 287.716998 137.612463 
L 287.781155 135.433061 
L 287.831055 123.937635 
L 287.966499 113.773436 
L 287.987884 113.72383 
L 288.030656 113.931664 
L 288.087685 115.381609 
L 288.144713 123.98308 
L 288.276592 137.783431 
L 288.308671 137.88198 
L 288.355007 137.625931 
L 288.422728 135.243891 
L 288.476193 121.729553 
L 288.6152 113.742307 
L 288.625893 113.724533 
L 288.668665 113.92114 
L 288.729258 115.51674 
L 288.782722 123.520832 
L 288.914601 137.776733 
L 288.94668 137.883311 
L 288.993015 137.637959 
L 289.060737 135.313619 
L 289.110637 123.198776 
L 289.249645 113.750605 
L 289.267466 113.72603 
L 289.303109 113.876457 
L 289.367266 115.46398 
L 289.424295 124.971048 
L 289.55261 137.768489 
L 289.584688 137.883168 
L 289.634588 137.602343 
L 289.698746 135.382485 
L 289.748646 123.598874 
L 289.884089 113.77163 
L 289.905475 113.724297 
L 289.951811 113.973478 
L 290.019532 116.318783 
L 290.069432 128.538506 
L 290.20844 137.858017 
L 290.226261 137.880443 
L 290.25834 137.7546 
L 290.315369 136.611044 
L 290.372397 130.579153 
L 290.536355 113.729407 
L 290.539919 113.73005 
L 290.543484 113.72387 
L 290.579127 113.863572 
L 290.636155 115.044958 
L 290.696748 122.489786 
L 290.846449 137.853845 
L 290.86427 137.882462 
L 290.903477 137.704479 
L 290.971199 135.765933 
L 291.024663 124.63559 
L 291.156542 113.799031 
L 291.181492 113.724963 
L 291.231392 113.996072 
L 291.29555 116.18057 
L 291.34545 127.714386 
L 291.480893 137.834057 
L 291.502279 137.883429 
L 291.54505 137.67471 
L 291.602079 136.221565 
L 291.659108 127.578049 
L 291.790987 113.823317 
L 291.823065 113.725468 
L 291.869401 113.982519 
L 291.937123 116.36985 
L 291.990587 129.904547 
L 292.129595 137.865189 
L 292.140288 137.882863 
L 292.183059 137.685133 
L 292.243652 136.085569 
L 292.297117 128.047738 
L 292.428995 113.82986 
L 292.461074 113.724027 
L 292.50741 113.970331 
L 292.575132 116.299921 
L 292.625032 128.441664 
L 292.764039 137.857025 
L 292.781861 137.881047 
L 292.817504 137.730235 
L 292.881661 136.13865 
L 292.93869 126.578645 
L 293.067004 113.837986 
L 293.099083 113.724027 
L 293.148983 114.006187 
L 293.209576 115.971223 
L 293.259476 125.924689 
L 293.387791 137.77999 
L 293.419869 137.882863 
L 293.466205 137.632715 
L 293.533927 135.282177 
L 293.583827 123.037307 
L 293.722834 113.748951 
L 293.740656 113.727033 
L 293.772735 113.853464 
L 293.829763 114.999414 
L 293.886792 121.050779 
L 294.05075 137.87793 
L 294.054314 137.877309 
L 294.057878 137.883429 
L 294.093521 137.743054 
L 294.15055 136.558942 
L 294.211143 129.09007 
L 294.360843 113.752993 
L 294.378665 113.724963 
L 294.414308 113.873055 
L 294.474901 115.269355 
L 294.531929 122.945116 
L 294.670937 137.808874 
L 294.695887 137.882462 
L 294.745787 137.609936 
L 294.809944 135.420356 
L 294.859844 123.848835 
L 294.995288 113.772996 
L 295.016673 113.72387 
L 295.059445 113.93345 
L 295.116474 115.389827 
L 295.173502 124.076065 
L 295.305381 137.784467 
L 295.33746 137.881622 
L 295.383796 137.623565 
L 295.451517 135.230926 
L 295.504982 121.675969 
L 295.643989 113.741851 
L 295.654682 113.724297 
L 295.697454 113.923132 
L 295.758047 115.526691 
L 295.811511 123.598874 
L 295.94339 137.778078 
L 295.975469 137.883168 
L 296.021804 137.635909 
L 296.089526 135.301075 
L 296.139426 123.132897 
L 296.278434 113.749904 
L 296.296255 113.726425 
L 296.331898 113.877625 
L 296.396055 115.473298 
L 296.453084 125.086617 
L 296.581399 137.770076 
L 296.613477 137.883311 
L 296.663377 137.599833 
L 296.72397 135.629962 
L 296.773871 125.622142 
L 296.902185 113.826673 
L 296.934264 113.724533 
L 296.9806 113.975653 
L 297.048321 116.331425 
L 297.101786 129.742764 
L 297.240793 137.864006 
L 297.251486 137.88198 
L 297.294258 137.691214 
L 297.354851 136.11496 
L 297.408315 128.270885 
L 297.543758 113.813274 
L 297.572273 113.72383 
L 297.622173 114.012391 
L 297.682766 116.001966 
L 297.732666 126.225557 
L 297.86098 137.782893 
L 297.893059 137.882149 
L 297.939395 137.627096 
L 298.007117 135.25033 
L 298.060581 121.756445 
L 298.199588 113.742519 
L 298.210281 113.724667 
L 298.253053 113.920134 
L 298.313646 115.511801 
L 298.36711 123.482753 
L 298.502553 137.795612 
L 298.531068 137.883363 
L 298.580968 137.590054 
L 298.641561 135.580229 
L 298.691461 125.144989 
L 298.82334 113.804408 
L 298.851854 113.725838 
L 298.89819 113.984908 
L 298.965912 116.382876 
L 299.019376 129.957981 
L 299.158384 137.865665 
L 299.169077 137.883078 
L 299.211848 137.683156 
L 299.272441 136.075573 
L 299.325906 127.968412 
L 299.457784 113.828543 
L 299.489863 113.724195 
L 299.536199 113.972413 
L 299.60392 116.312484 
L 299.653821 128.50665 
L 299.792828 137.8577 
L 299.81065 137.880646 
L 299.842728 137.755397 
L 299.899757 136.614227 
L 299.956786 130.60161 
L 300.120743 113.729484 
L 300.124308 113.730126 
L 300.127872 113.723909 
L 300.163515 113.862915 
L 300.220543 115.041606 
L 300.281136 122.46243 
L 300.430837 137.853402 
L 300.448658 137.882606 
L 300.487866 137.705465 
L 300.555587 135.771157 
L 300.609052 124.69019 
L 300.74093 113.799659 
L 300.765881 113.725124 
L 300.815781 113.99481 
L 300.879938 116.174212 
L 300.929838 127.669638 
L 301.065281 137.833837 
L 301.086667 137.883443 
L 301.129439 137.675609 
L 301.186467 136.225664 
L 301.243496 127.624192 
L 301.375375 113.823842 
L 301.407454 113.725293 
L 301.453789 113.981342 
L 301.521511 116.363382 
L 301.574975 129.87772 
L 301.713983 137.864966 
L 301.724676 137.88274 
L 301.767447 137.686133 
L 301.82804 136.090533 
L 301.881505 128.086441 
L 302.006255 114.69829 
L 302.013384 114.699336 
L 302.073977 115.146909 
L 302.155955 117.628514 
L 302.212984 128.826333 
L 302.323477 134.486464 
L 302.344863 134.427421 
L 302.416149 133.702802 
L 302.494563 130.766321 
L 302.630007 119.521391 
L 302.726243 120.174123 
L 302.81535 122.53665 
L 302.932972 129.719786 
L 303.029208 129.179981 
L 303.143265 127.171706 
L 303.228808 124.155858 
L 303.310787 124.573019 
L 303.588802 125.803636 
L 306.240637 125.891167 
L 306.418852 131.864561 
L 306.465188 128.828602 
L 306.636274 111.672707 
L 306.650531 111.874692 
L 306.689738 115.621771 
L 306.860824 148.363055 
L 306.921417 143.145154 
L 307.088939 94.694038 
L 307.167354 105.637528 
L 307.327747 165.537983 
L 307.381211 160.498875 
L 307.427547 124.10304 
L 307.559426 77.43728 
L 307.577248 77.797512 
L 307.620019 84.111094 
L 307.666355 129.823386 
L 307.798234 182.954161 
L 307.84457 176.561304 
L 307.901598 131.104858 
L 308.01922 71.555523 
L 308.029913 71.80114 
L 308.072684 76.035762 
L 308.133277 108.667123 
L 308.254463 176.570517 
L 308.286542 175.308738 
L 308.347135 161.355304 
L 308.493271 78.508506 
L 308.589507 94.762987 
L 308.732079 169.62239 
L 308.810493 160.931217 
L 308.863958 112.147049 
L 308.970887 85.46644 
L 308.995837 86.241524 
L 309.059994 97.11074 
L 309.202566 162.666904 
L 309.302366 150.40575 
L 309.441374 92.415753 
L 309.530481 100.604891 
L 309.676617 155.721182 
L 309.790674 140.915673 
L 309.915425 99.351027 
L 309.976018 101.785354 
L 310.036611 116.453318 
L 310.154233 148.785946 
L 310.19344 147.860665 
L 310.261161 139.100803 
L 310.389476 106.292725 
L 310.46789 109.615823 
L 310.521355 124.128657 
L 310.621155 141.860443 
L 310.646105 141.662483 
L 310.717391 137.84555 
L 310.859963 113.19098 
L 310.977585 118.990151 
L 311.120156 137.287339 
L 311.180749 135.961052 
L 311.234214 127.807507 
L 311.358964 114.318984 
L 311.366093 114.344351 
L 311.408864 115.184995 
L 311.465893 121.564277 
L 311.597772 137.288715 
L 311.626286 136.998659 
L 311.679751 134.244976 
L 311.829451 114.31866 
L 311.925687 118.305883 
L 312.068259 137.288593 
L 312.146673 135.111127 
L 312.203702 120.559179 
L 312.307066 114.31942 
L 312.342709 114.644226 
L 312.399738 117.998286 
L 312.549438 137.287853 
L 312.627853 134.687929 
L 312.699139 117.510266 
L 312.788246 114.31868 
L 312.831018 114.951367 
L 312.891611 120.702841 
L 313.027054 137.288613 
L 313.059133 136.925645 
L 313.119726 132.813985 
L 313.258733 114.318558 
L 313.330019 115.973507 
L 313.379919 125.138154 
L 313.497541 137.288289 
L 313.508234 137.266937 
L 313.540312 136.801018 
L 313.597341 132.617122 
L 313.739913 114.319934 
L 313.800506 115.64622 
L 313.85397 123.799766 
L 313.978721 137.288289 
L 313.985849 137.262922 
L 314.028621 136.422277 
L 314.085649 130.042995 
L 314.217528 114.318558 
L 314.246043 114.608614 
L 314.299507 117.362297 
L 314.449208 137.288613 
L 314.545443 133.30139 
L 314.688015 114.31868 
L 314.76643 116.496145 
L 314.823458 131.048093 
L 314.926823 137.287853 
L 314.962466 136.963047 
L 315.019495 133.608986 
L 315.169195 114.31942 
L 315.24761 116.919344 
L 315.318895 134.097007 
L 315.408003 137.288593 
L 315.450774 136.655905 
L 315.511367 130.904432 
L 315.64681 114.31866 
L 315.678889 114.681627 
L 315.739482 118.793288 
L 315.87849 137.288715 
L 315.949776 135.633766 
L 315.999676 126.469119 
L 316.117297 114.318984 
L 316.12799 114.340336 
L 316.160069 114.806255 
L 316.217098 118.990151 
L 316.359669 137.287339 
L 316.420262 135.961052 
L 316.473727 127.807507 
L 316.598477 114.318984 
L 316.605606 114.344351 
L 316.648377 115.184995 
L 316.705406 121.564277 
L 316.837285 137.288715 
L 316.865799 136.998659 
L 316.919264 134.244976 
L 317.068964 114.31866 
L 317.1652 118.305883 
L 317.307772 137.288593 
L 317.386186 135.111127 
L 317.443215 120.559179 
L 317.54658 114.31942 
L 317.582222 114.644226 
L 317.639251 117.998286 
L 317.788952 137.287853 
L 317.867366 134.687929 
L 317.938652 117.510266 
L 318.027759 114.31868 
L 318.070531 114.951367 
L 318.131124 120.702841 
L 318.266567 137.288613 
L 318.298646 136.925645 
L 318.359239 132.813985 
L 318.498246 114.318558 
L 318.569532 115.973507 
L 318.619432 125.138154 
L 318.737054 137.288289 
L 318.747747 137.266937 
L 318.779825 136.801018 
L 318.836854 132.617122 
L 318.979426 114.319934 
L 319.040019 115.64622 
L 319.093483 123.799766 
L 319.218234 137.288289 
L 319.225362 137.262922 
L 319.257441 136.570551 
L 319.321598 130.672123 
L 319.442784 115.908134 
L 319.48912 116.51697 
L 319.556842 121.224936 
L 319.674463 133.971314 
L 319.735056 133.216176 
L 319.802778 128.243641 
L 319.909707 119.3578 
L 319.952478 119.679987 
L 320.023764 122.144686 
L 320.141386 130.536128 
L 320.226929 129.584542 
L 320.287522 125.803636 
L 320.369501 122.762716 
L 320.412272 122.966887 
L 320.508508 124.690393 
L 320.586923 127.216462 
L 320.665337 126.783404 
L 320.779395 125.726745 
L 320.889888 125.803636 
L 323.559545 125.803636 
L 323.602316 126.679001 
L 323.63083 124.88698 
L 323.798352 117.905043 
L 323.819738 118.332429 
L 323.858945 125.169844 
L 323.994388 141.595695 
L 324.015774 141.899988 
L 324.054981 140.430655 
L 324.097753 126.187196 
L 324.229632 101.407093 
L 324.243889 101.235951 
L 324.275968 102.235225 
L 324.325868 115.002924 
L 324.475568 158.947323 
L 324.49339 158.648528 
L 324.539726 152.346281 
L 324.714376 84.050787 
L 324.796355 103.041328 
L 324.946055 176.200347 
L 324.988827 173.138439 
L 325.042291 143.929381 
L 325.167041 68.899713 
L 325.19912 70.564924 
L 325.263277 90.036564 
L 325.402285 179.233408 
L 325.480699 169.164697 
L 325.530599 116.104182 
L 325.641093 75.846497 
L 325.666043 76.651734 
L 325.7302 89.57738 
L 325.8799 172.282804 
L 325.976136 155.775457 
L 326.118708 82.807927 
L 326.193558 90.671065 
L 326.243458 130.423565 
L 326.350387 165.320264 
L 326.375337 164.839867 
L 326.432366 157.860676 
L 326.482266 120.341016 
L 326.589195 89.762756 
L 326.614145 90.258561 
L 326.671174 96.793348 
L 326.721074 131.769809 
L 326.824438 158.375616 
L 326.852953 157.863081 
L 326.909981 151.794457 
L 326.963446 116.346979 
L 327.063246 96.697585 
L 327.095325 97.354231 
L 327.163046 106.223371 
L 327.302054 151.438443 
L 327.39829 143.662525 
L 327.537297 103.643229 
L 327.637098 110.64289 
L 327.776105 144.501837 
L 327.872341 138.930523 
L 328.007784 110.554936 
L 328.114713 115.907476 
L 328.239463 137.605754 
L 328.346392 134.687929 
L 328.417678 117.510266 
L 328.506785 114.31868 
L 328.549557 114.951367 
L 328.61015 120.702841 
L 328.745593 137.288613 
L 328.777672 136.925645 
L 328.838265 132.813985 
L 328.977272 114.318558 
L 329.048558 115.973507 
L 329.098458 125.138154 
L 329.21608 137.288289 
L 329.226773 137.266937 
L 329.258852 136.801018 
L 329.31588 132.617122 
L 329.458452 114.319934 
L 329.519045 115.64622 
L 329.57251 123.799766 
L 329.69726 137.288289 
L 329.704388 137.262922 
L 329.74716 136.422277 
L 329.804189 130.042995 
L 329.936068 114.318558 
L 329.964582 114.608614 
L 330.018046 117.362297 
L 330.167747 137.288613 
L 330.263983 133.30139 
L 330.406554 114.31868 
L 330.484969 116.496145 
L 330.541998 131.048093 
L 330.645362 137.287853 
L 330.681005 136.963047 
L 330.738034 133.608986 
L 330.887734 114.31942 
L 330.966149 116.919344 
L 331.037435 134.097007 
L 331.126542 137.288593 
L 331.169313 136.655905 
L 331.229906 130.904432 
L 331.36535 114.31866 
L 331.397428 114.681627 
L 331.458021 118.793288 
L 331.597029 137.288715 
L 331.668315 135.633766 
L 331.718215 126.469119 
L 331.835837 114.318984 
L 331.846529 114.340336 
L 331.878608 114.806255 
L 331.935637 118.990151 
L 332.078209 137.287339 
L 332.138802 135.961052 
L 332.192266 127.807507 
L 332.317016 114.318984 
L 332.324145 114.344351 
L 332.366916 115.184995 
L 332.423945 121.564277 
L 332.555824 137.288715 
L 332.584338 136.998659 
L 332.637803 134.244976 
L 332.787503 114.31866 
L 332.883739 118.305883 
L 333.026311 137.288593 
L 333.104725 135.111127 
L 333.161754 120.559179 
L 333.265119 114.31942 
L 333.300762 114.644226 
L 333.35779 117.998286 
L 333.507491 137.287853 
L 333.585905 134.687929 
L 333.657191 117.510266 
L 333.746298 114.31868 
L 333.78907 114.951367 
L 333.849663 120.702841 
L 333.985106 137.288613 
L 334.017185 136.925645 
L 334.077778 132.813985 
L 334.216785 114.318558 
L 334.288071 115.973507 
L 334.337971 125.138154 
L 334.455593 137.288289 
L 334.466286 137.266937 
L 334.498365 136.801018 
L 334.555393 132.617122 
L 334.697965 114.319934 
L 334.758558 115.64622 
L 334.812023 123.799766 
L 334.936773 137.288289 
L 334.943901 137.262922 
L 334.986673 136.422277 
L 335.043702 130.042995 
L 335.175581 114.318558 
L 335.204095 114.608614 
L 335.257559 117.362297 
L 335.40726 137.288613 
L 335.503496 133.30139 
L 335.646068 114.31868 
L 335.724482 116.496145 
L 335.781511 131.048093 
L 335.884875 137.287853 
L 335.920518 136.963047 
L 335.977547 133.608986 
L 336.127247 114.31942 
L 336.205662 116.919344 
L 336.276948 134.097007 
L 336.366055 137.288593 
L 336.408827 136.655905 
L 336.46942 130.904432 
L 336.590606 114.582164 
L 336.636941 115.236467 
L 336.704663 120.616745 
L 336.825849 135.292643 
L 336.882878 134.473453 
L 336.950599 128.61304 
L 337.057528 118.040017 
L 337.1003 118.371034 
L 337.168021 121.000471 
L 337.289207 131.843192 
L 337.381879 130.548884 
L 337.438908 124.7894 
L 337.524451 121.472741 
L 337.567222 121.704983 
L 337.652765 123.796726 
L 337.749001 128.454123 
L 337.827416 127.948654 
L 337.912959 125.65316 
L 337.962859 124.751601 
L 338.030581 125.074635 
L 338.240874 125.803636 
L 340.885581 125.803636 
L 340.885581 125.803636 
" clip-path="url(#p09720bfcbd)" style="fill: none; stroke: #0000ff; stroke-width: 2; stroke-linecap: square"/>
   </g>
   <g id="line2d_3">
    <defs>
     <path id="m00748bcc42" d="M 3 0 
L -3 -3 
L -3 3 
z
" style="stroke: #000000; stroke-linejoin: miter"/>
    </defs>
    <g>
     <use xlink:href="#m00748bcc42" x="356.603942" y="125.803636" style="stroke: #000000; stroke-linejoin: miter"/>
    </g>
   </g>
   <g id="line2d_4">
    <defs>
     <path id="m45e34e6867" d="M 0 -3 
L -3 3 
L 3 3 
z
" style="stroke: #000000; stroke-linejoin: miter"/>
    </defs>
    <g>
     <use xlink:href="#m45e34e6867" x="26.518361" y="30.528" style="stroke: #000000; stroke-linejoin: miter"/>
    </g>
   </g>
   <g id="patch_3">
    <path d="M 26.518361 205.2 
L 26.518361 30.528 
" style="fill: none; stroke: #000000; stroke-width: 2; stroke-linejoin: miter; stroke-linecap: square"/>
   </g>
   <g id="patch_4">
    <path d="M 10.8 125.803636 
L 356.603942 125.803636 
" style="fill: none; stroke: #000000; stroke-width: 2; stroke-linejoin: miter; stroke-linecap: square"/>
   </g>
   <g id="text_2">
    <!-- t / s -->
    <g transform="translate(395.900468 129.666761) scale(0.14 -0.14)">
     <defs>
      <path id="DejaVuSans-74" d="M 1172 4494 
L 1172 3500 
L 2356 3500 
L 2356 3053 
L 1172 3053 
L 1172 1153 
Q 1172 725 1289 603 
Q 1406 481 1766 481 
L 2356 481 
L 2356 0 
L 1766 0 
Q 1100 0 847 248 
Q 594 497 594 1153 
L 594 3053 
L 172 3053 
L 172 3500 
L 594 3500 
L 594 4494 
L 1172 4494 
z
" transform="scale(0.015625)"/>
      <path id="DejaVuSans-20" transform="scale(0.015625)"/>
      <path id="DejaVuSans-2f" d="M 1625 4666 
L 2156 4666 
L 531 -594 
L 0 -594 
L 1625 4666 
z
" transform="scale(0.015625)"/>
      <path id="DejaVuSans-73" d="M 2834 3397 
L 2834 2853 
Q 2591 2978 2328 3040 
Q 2066 3103 1784 3103 
Q 1356 3103 1142 2972 
Q 928 2841 928 2578 
Q 928 2378 1081 2264 
Q 1234 2150 1697 2047 
L 1894 2003 
Q 2506 1872 2764 1633 
Q 3022 1394 3022 966 
Q 3022 478 2636 193 
Q 2250 -91 1575 -91 
Q 1294 -91 989 -36 
Q 684 19 347 128 
L 347 722 
Q 666 556 975 473 
Q 1284 391 1588 391 
Q 1994 391 2212 530 
Q 2431 669 2431 922 
Q 2431 1156 2273 1281 
Q 2116 1406 1581 1522 
L 1381 1569 
Q 847 1681 609 1914 
Q 372 2147 372 2553 
Q 372 3047 722 3315 
Q 1072 3584 1716 3584 
Q 2034 3584 2315 3537 
Q 2597 3491 2834 3397 
z
" transform="scale(0.015625)"/>
     </defs>
     <use xlink:href="#DejaVuSans-74"/>
     <use xlink:href="#DejaVuSans-20" x="39.208984"/>
     <use xlink:href="#DejaVuSans-2f" x="70.996094"/>
     <use xlink:href="#DejaVuSans-20" x="104.6875"/>
     <use xlink:href="#DejaVuSans-73" x="136.474609"/>
    </g>
   </g>
   <g id="text_3">
    <!-- A -->
    <g transform="translate(21.729923 21.264728) scale(0.14 -0.14)">
     <defs>
      <path id="DejaVuSans-41" d="M 2188 4044 
L 1331 1722 
L 3047 1722 
L 2188 4044 
z
M 1831 4666 
L 2547 4666 
L 4325 0 
L 3669 0 
L 3244 1197 
L 1141 1197 
L 716 0 
L 50 0 
L 1831 4666 
z
" transform="scale(0.015625)"/>
     </defs>
     <use xlink:href="#DejaVuSans-41"/>
    </g>
   </g>
  </g>
 </g>
 <defs>
  <clipPath id="p09720bfcbd">
   <rect x="10.8" y="30.528" width="345.803942" height="174.672"/>
  </clipPath>
 </defs>
</svg>
