<?xml version="1.0" encoding="utf-8" standalone="no"?>
<!DOCTYPE svg PUBLIC "-//W3C//DTD SVG 1.1//EN"
  "http://www.w3.org/Graphics/SVG/1.1/DTD/svg11.dtd">
<svg xmlns:xlink="http://www.w3.org/1999/xlink" width="432pt" height="216pt" viewBox="0 0 432 216" xmlns="http://www.w3.org/2000/svg" version="1.1">
 <metadata>
  <rdf:RDF xmlns:dc="http://purl.org/dc/elements/1.1/" xmlns:cc="http://creativecommons.org/ns#" xmlns:rdf="http://www.w3.org/1999/02/22-rdf-syntax-ns#">
   <cc:Work>
    <dc:type rdf:resource="http://purl.org/dc/dcmitype/StillImage"/>
    <dc:date>2025-10-20T10:54:35.279157</dc:date>
    <dc:format>image/svg+xml</dc:format>
    <dc:creator>
     <cc:Agent>
      <dc:title>Matplotlib v3.9.4, https://matplotlib.org/</dc:title>
     </cc:Agent>
    </dc:creator>
   </cc:Work>
  </rdf:RDF>
 </metadata>
 <defs>
  <style type="text/css">*{stroke-linejoin: round; stroke-linecap: butt}</style>
 </defs>
 <g id="figure_1">
  <g id="patch_1">
   <path d="M 0 216 
L 432 216 
L 432 0 
L 0 0 
L 0 216 
z
" style="fill: none"/>
  </g>
  <g id="axes_1">
   <g id="patch_2">
    <path d="M 10.8 205.2 
L 356.603942 205.2 
L 356.603942 30.528 
L 10.8 30.528 
L 10.8 205.2 
z
" style="fill: none"/>
   </g>
   <g id="matplotlib.axis_1"/>
   <g id="matplotlib.axis_2">
    <g id="ytick_1">
     <g id="line2d_1">
      <defs>
       <path id="m8dcb385107" d="M 4 0 
L -4 -0 
" style="stroke: #000000; stroke-width: 2"/>
      </defs>
      <g>
       <use xlink:href="#m8dcb385107" x="26.518361" y="46.407273" style="stroke: #000000; stroke-width: 2"/>
      </g>
     </g>
     <g id="text_1">
      <!-- 1 -->
      <g transform="translate(12.655861 50.206491) scale(0.1 -0.1)">
       <defs>
        <path id="DejaVuSans-31" d="M 794 531 
L 1825 531 
L 1825 4091 
L 703 3866 
L 703 4441 
L 1819 4666 
L 2450 4666 
L 2450 531 
L 3481 531 
L 3481 0 
L 794 0 
L 794 531 
z
" transform="scale(0.015625)"/>
       </defs>
       <use xlink:href="#DejaVuSans-31"/>
      </g>
     </g>
    </g>
   </g>
   <g id="line2d_2">
    <path d="M 26.518361 125.803636 
L 63.601282 125.803636 
L 63.811575 118.851493 
L 63.854347 121.074566 
L 64.100283 143.988975 
L 64.110976 143.92547 
L 64.146619 142.099861 
L 64.189391 127.0358 
L 64.32127 98.345377 
L 64.403248 95.828228 
L 64.44602 97.307766 
L 64.49592 110.65537 
L 64.688392 167.43477 
L 64.716906 167.77429 
L 64.752549 166.441179 
L 64.806014 152.951396 
L 65.027 71.731297 
L 65.05195 72.302582 
L 65.108979 82.386194 
L 65.158879 147.425684 
L 65.297886 185.407013 
L 65.301451 185.436313 
L 65.337093 184.817425 
L 65.397686 179.047809 
L 65.45828 146.904515 
L 65.618673 68.022749 
L 65.622237 68.021233 
L 65.636494 68.111626 
L 65.700652 71.7487 
L 65.764809 92.636757 
L 65.939459 181.755334 
L 65.989359 180.58841 
L 66.053517 171.961187 
L 66.106981 126.630239 
L 66.235296 72.006152 
L 66.260246 71.694566 
L 66.306582 72.70176 
L 66.377868 82.568536 
L 66.427768 128.959496 
L 66.559647 177.863954 
L 66.577468 178.068445 
L 66.627368 177.01961 
L 66.69509 168.220506 
L 66.748554 119.289692 
L 66.880433 75.541037 
L 66.898255 75.372747 
L 66.94459 76.289405 
L 67.015876 85.261789 
L 67.069341 134.832662 
L 67.204784 174.299988 
L 67.219041 174.388453 
L 67.258248 173.717627 
L 67.32597 167.075352 
L 67.382999 131.454192 
L 67.511313 79.362977 
L 67.536263 79.056564 
L 67.586163 80.044716 
L 67.653885 88.011894 
L 67.707349 132.352542 
L 67.842793 170.627958 
L 67.85705 170.712375 
L 67.892693 170.200973 
L 67.953286 165.815476 
L 68.013879 141.894672 
L 68.174272 82.743504 
L 68.192093 82.829972 
L 68.259815 85.937832 
L 68.323972 103.065274 
L 68.502187 168.078992 
L 68.527137 167.877235 
L 68.594859 163.58488 
L 68.651887 142.196483 
L 68.815845 83.543192 
L 68.822974 83.524362 
L 68.840795 83.651245 
L 68.89426 85.848176 
L 68.958417 100.536748 
L 69.14376 168.077223 
L 69.190096 167.177546 
L 69.257818 158.821889 
L 69.311282 111.450448 
L 69.450289 83.588204 
L 69.460982 83.526343 
L 69.503754 84.218398 
L 69.564347 89.816873 
L 69.617811 117.949282 
L 69.74969 167.711851 
L 69.781769 168.082267 
L 69.828105 167.220204 
L 69.895826 159.066639 
L 69.945726 116.570539 
L 70.084734 83.616778 
L 70.102555 83.532702 
L 70.134634 83.966832 
L 70.195227 88.442701 
L 70.25582 116.570539 
L 70.394828 167.837779 
L 70.419778 168.082267 
L 70.466113 167.256445 
L 70.533835 159.307625 
L 70.583735 117.949282 
L 70.719178 83.690766 
L 70.740564 83.526343 
L 70.783336 84.278752 
L 70.843929 90.156844 
L 70.897393 120.971703 
L 71.025708 167.651914 
L 71.057786 168.077223 
L 71.111251 166.976171 
L 71.171844 159.551226 
L 71.221744 119.593194 
L 71.357187 83.69949 
L 71.378573 83.524362 
L 71.421344 84.245339 
L 71.478373 89.298041 
L 71.535402 119.116014 
L 71.667281 167.729099 
L 71.699359 168.078992 
L 71.745695 167.189775 
L 71.813417 158.889511 
L 71.866881 111.732786 
L 72.005889 83.590435 
L 72.016582 83.527747 
L 72.059353 84.207837 
L 72.119946 89.765017 
L 72.173411 117.549401 
L 72.308854 167.774108 
L 72.337368 168.082818 
L 72.387268 167.060274 
L 72.447861 160.04377 
L 72.497761 123.70391 
L 72.62964 83.808274 
L 72.658155 83.530687 
L 72.70449 84.433887 
L 72.772212 92.808125 
L 72.825676 140.250471 
L 72.964684 168.019884 
L 72.975377 168.081324 
L 73.018148 167.385401 
L 73.078741 161.772945 
L 73.132206 133.520304 
L 73.264085 83.893092 
L 73.296163 83.525278 
L 73.342499 84.390685 
L 73.410221 92.562601 
L 73.460121 135.151223 
L 73.599128 167.991699 
L 73.613386 168.075257 
L 73.649029 167.637609 
L 73.706057 163.65184 
L 73.763086 142.674446 
L 73.927043 83.544417 
L 73.930608 83.546583 
L 73.934172 83.524778 
L 73.966251 83.897799 
L 74.033972 89.255693 
L 74.091001 118.660729 
L 74.22288 167.723006 
L 74.254959 168.080497 
L 74.301294 167.201578 
L 74.369016 158.956375 
L 74.42248 112.016689 
L 74.561488 83.592344 
L 74.572181 83.529435 
L 74.614952 84.197115 
L 74.675545 89.714006 
L 74.72901 117.168267 
L 74.864453 167.769904 
L 74.892967 168.082957 
L 74.942867 167.072992 
L 75.00346 160.10948 
L 75.053361 124.326915 
L 75.181675 83.876241 
L 75.213754 83.528844 
L 75.26009 84.421529 
L 75.327811 92.740209 
L 75.381276 139.968807 
L 75.520283 168.017545 
L 75.530976 168.080028 
L 75.573748 167.395894 
L 75.634341 161.82506 
L 75.687805 133.926729 
L 75.823248 83.831721 
L 75.851763 83.524594 
L 75.901663 84.551175 
L 75.962256 91.585565 
L 76.012156 128.108902 
L 76.144035 167.800935 
L 76.172549 168.07593 
L 76.218885 167.169186 
L 76.286607 158.776296 
L 76.340071 111.263432 
L 76.479078 83.586538 
L 76.489771 83.525593 
L 76.532543 84.225318 
L 76.593136 89.85186 
L 76.6466 118.450272 
L 76.771351 162.977063 
L 76.778479 162.964441 
L 76.842636 161.221018 
L 76.92818 151.300641 
L 77.081444 97.10101 
L 77.213323 102.173241 
L 77.281045 118.365044 
L 77.395102 146.120448 
L 77.430745 145.683438 
L 77.53411 141.470502 
L 77.605396 128.325124 
L 77.698067 113.724599 
L 77.73371 114.141729 
L 77.862025 118.409202 
L 77.986775 130.080174 
L 78.125783 127.033782 
L 78.279047 125.803636 
L 80.930882 125.803636 
L 81.073454 121.352817 
L 81.109097 122.796655 
L 81.358598 141.180996 
L 81.362162 141.175578 
L 81.394241 140.128942 
L 81.437012 130.454198 
L 81.586713 100.653807 
L 81.657998 98.716905 
L 81.70077 100.142951 
L 81.75067 113.589983 
L 81.925321 163.995866 
L 81.968092 164.85861 
L 82.010864 163.175957 
L 82.060764 149.743146 
L 82.278186 74.679808 
L 82.28175 74.682357 
L 82.313829 75.734161 
L 82.367293 87.246843 
L 82.552636 185.883254 
L 82.652437 178.942302 
L 82.71303 142.974772 
L 82.866294 67.603564 
L 82.873423 67.567145 
L 82.901937 67.950688 
L 82.966095 73.228344 
L 83.030252 105.825498 
L 83.190645 182.195992 
L 83.21916 181.866626 
L 83.26906 178.915358 
L 83.336781 157.848502 
L 83.511432 71.244943 
L 83.557767 72.218942 
L 83.629053 81.925657 
L 83.682518 135.760882 
L 83.817961 178.41403 
L 83.832218 178.515715 
L 83.87499 177.654638 
L 83.939147 170.608029 
L 83.996176 131.722637 
L 84.12449 75.272552 
L 84.14944 74.928937 
L 84.199341 75.984717 
L 84.263498 83.754729 
L 84.316962 123.56748 
L 84.445277 174.553929 
L 84.470227 174.840051 
L 84.516563 173.92396 
L 84.587849 165.085183 
L 84.641313 116.271612 
L 84.776756 78.693737 
L 84.791013 78.616214 
L 84.830221 79.289124 
L 84.897942 85.8173 
L 84.954971 121.330097 
L 85.083286 170.877219 
L 85.108236 171.159023 
L 85.158136 170.168449 
L 85.222293 163.153972 
L 85.275757 126.914205 
L 85.404072 82.518208 
L 85.429022 82.290511 
L 85.471794 83.029667 
L 85.532387 88.198909 
L 85.589415 114.601507 
L 85.735551 167.924218 
L 85.756937 168.076586 
L 85.803273 167.173385 
L 85.870995 158.799148 
L 85.924459 111.356801 
L 86.063467 83.587389 
L 86.074159 83.525948 
L 86.116931 84.221872 
L 86.177524 89.834328 
L 86.230988 118.086969 
L 86.362867 167.71418 
L 86.394946 168.081994 
L 86.441282 167.216588 
L 86.509003 159.044671 
L 86.558904 116.45605 
L 86.697911 83.615574 
L 86.712168 83.532015 
L 86.747811 83.969664 
L 86.80484 87.955432 
L 86.861869 108.932827 
L 87.025826 168.062856 
L 87.02939 168.06069 
L 87.032955 168.082495 
L 87.065033 167.709474 
L 87.132755 162.35158 
L 87.189784 132.946544 
L 87.321663 83.884267 
L 87.353741 83.526776 
L 87.400077 84.405694 
L 87.467799 92.650897 
L 87.521263 139.590584 
L 87.660271 168.014929 
L 87.670963 168.077838 
L 87.713735 167.410158 
L 87.774328 161.893267 
L 87.827792 134.439006 
L 87.963236 83.837369 
L 87.99175 83.524315 
L 88.04165 84.53428 
L 88.102243 91.497793 
L 88.152143 127.280358 
L 88.280458 167.731032 
L 88.312536 168.078428 
L 88.358872 167.185743 
L 88.426594 158.867064 
L 88.480058 111.638466 
L 88.619066 83.589728 
L 88.629759 83.527244 
L 88.67253 84.211379 
L 88.733123 89.782213 
L 88.786588 117.680544 
L 88.922031 167.775551 
L 88.950545 168.082679 
L 89.000445 167.056098 
L 89.061038 160.021708 
L 89.110938 123.498371 
L 89.242817 83.806338 
L 89.271332 83.531343 
L 89.317668 84.438087 
L 89.385389 92.830976 
L 89.438854 140.343841 
L 89.577861 168.020734 
L 89.588554 168.08168 
L 89.631325 167.381954 
L 89.691919 161.755412 
L 89.745383 133.38035 
L 89.877262 83.890811 
L 89.90934 83.525593 
L 89.955676 84.394356 
L 90.023398 92.584604 
L 90.073298 135.264182 
L 90.212306 167.992857 
L 90.226563 168.07593 
L 90.262206 167.634796 
L 90.319234 163.640702 
L 90.376263 142.596545 
L 90.540221 83.544103 
L 90.543785 83.546352 
L 90.547349 83.524594 
L 90.579428 83.900223 
L 90.647149 89.269762 
L 90.704178 118.810076 
L 90.836057 167.725087 
L 90.868136 168.080028 
L 90.914472 167.197694 
L 90.982193 158.93416 
L 91.035658 111.92192 
L 91.174665 83.591743 
L 91.185358 83.528844 
L 91.228129 84.200702 
L 91.288722 89.73091 
L 91.342187 117.293317 
L 91.47763 167.771287 
L 91.506144 168.082957 
L 91.556045 167.068723 
L 91.616638 160.087662 
L 91.666538 124.118288 
L 91.794852 83.874357 
L 91.826931 83.529435 
L 91.873267 84.425606 
L 91.940988 92.762748 
L 91.994453 140.062928 
L 92.13346 168.018289 
L 92.144153 168.080497 
L 92.186925 167.392373 
L 92.247518 161.807773 
L 92.300982 133.793451 
L 92.432861 83.897799 
L 92.46494 83.524778 
L 92.511276 84.383508 
L 92.578997 92.518697 
L 92.628897 134.920647 
L 92.767905 167.989246 
L 92.785726 168.075257 
L 92.817805 167.64329 
L 92.878398 163.178396 
L 92.938991 135.151223 
L 93.077998 83.771767 
L 93.102948 83.525278 
L 93.149284 84.347827 
L 93.217006 92.277668 
L 93.266906 133.520304 
L 93.402349 167.915659 
L 93.423735 168.081324 
L 93.466506 167.331389 
L 93.527099 161.468497 
L 93.580564 130.816069 
L 93.708879 83.958243 
L 93.740957 83.530687 
L 93.794422 84.627558 
L 93.855015 92.033694 
L 93.904915 131.850136 
L 94.029665 165.032059 
L 94.036794 164.984642 
L 94.093822 163.333961 
L 94.179365 153.132586 
L 94.336194 95.05152 
L 94.468073 100.533294 
L 94.535795 119.590878 
L 94.646288 148.147719 
L 94.674802 147.907353 
L 94.76391 144.848261 
L 94.845888 133.846524 
L 94.952817 111.751056 
L 95.016975 112.771391 
L 95.141725 118.649832 
L 95.245089 131.894226 
L 95.362711 129.525866 
L 95.601519 125.803636 
L 98.260483 125.803636 
L 98.338897 123.631906 
L 98.37454 125.694052 
L 98.527805 136.071009 
L 98.620476 138.412137 
L 98.656119 137.0252 
L 98.695327 124.973812 
L 98.83077 103.993374 
L 98.916313 101.586042 
L 98.95552 102.923539 
L 99.00542 116.597943 
L 99.172942 160.863852 
L 99.219278 161.933194 
L 99.265614 160.265539 
L 99.319078 144.04027 
L 99.51155 77.884778 
L 99.532936 77.610245 
L 99.572143 78.984955 
L 99.629172 94.667677 
L 99.828772 186.068794 
L 99.871544 183.879338 
L 99.935701 169.194933 
L 100.124609 67.11712 
L 100.224409 73.990758 
L 100.285002 109.688638 
L 100.434702 182.587051 
L 100.445395 182.64292 
L 100.477474 182.140332 
L 100.538067 177.033913 
L 100.59866 149.219274 
L 100.762618 70.801182 
L 100.769746 70.814307 
L 100.816082 72.107756 
L 100.883804 82.458962 
L 100.933704 133.949695 
L 101.069147 178.854208 
L 101.083404 178.967717 
L 101.122611 178.285449 
L 101.193897 170.335324 
L 101.247362 133.873776 
L 101.379241 74.749189 
L 101.404191 74.489128 
L 101.446962 75.344522 
L 101.511119 82.292211 
L 101.568148 121.158597 
L 101.696463 174.968963 
L 101.721413 175.286775 
L 101.771313 174.226886 
L 101.83547 166.582302 
L 101.888935 126.775502 
L 102.017249 78.423052 
L 102.042199 78.163 
L 102.084971 78.951555 
L 102.145564 84.598624 
L 102.202593 113.623832 
L 102.348729 171.527567 
L 102.359422 171.60091 
L 102.402193 170.91955 
L 102.46635 165.159742 
L 102.523379 135.847996 
L 102.662387 81.976857 
L 102.680208 81.84135 
L 102.72298 82.55941 
L 102.783573 87.652952 
L 102.840601 113.504953 
L 102.993866 168.008444 
L 103.008123 168.08168 
L 103.043766 167.572546 
L 103.100795 163.337141 
L 103.161388 136.425548 
L 103.30396 83.716334 
L 103.325345 83.531343 
L 103.368117 84.186305 
L 103.432274 90.389509 
L 103.485739 123.498371 
L 103.614053 167.688909 
L 103.646132 168.082679 
L 103.696032 167.085957 
L 103.756625 160.174358 
L 103.806525 124.957213 
L 103.93484 83.882186 
L 103.966918 83.527244 
L 104.013254 84.409579 
L 104.080976 92.673113 
L 104.13444 139.685352 
L 104.273448 168.01553 
L 104.284141 168.078428 
L 104.326912 167.40657 
L 104.387505 161.876363 
L 104.44097 134.313956 
L 104.576413 83.835986 
L 104.604927 83.524315 
L 104.654827 84.53855 
L 104.71542 91.519611 
L 104.76532 127.488984 
L 104.893635 167.732916 
L 104.925714 168.077838 
L 104.972049 167.181667 
L 105.039771 158.844525 
L 105.093235 111.544345 
L 105.232243 83.588984 
L 105.242936 83.526776 
L 105.285707 84.2149 
L 105.3463 89.7995 
L 105.399765 117.813822 
L 105.531644 167.709474 
L 105.563722 168.082495 
L 105.610058 167.223765 
L 105.67778 159.088576 
L 105.72768 116.686626 
L 105.866687 83.618027 
L 105.884509 83.532015 
L 105.916588 83.963983 
L 105.977181 88.428876 
L 106.037774 116.45605 
L 106.176781 167.835505 
L 106.201731 168.081994 
L 106.248067 167.259445 
L 106.315789 159.329605 
L 106.365689 118.086969 
L 106.501132 83.691614 
L 106.522518 83.525948 
L 106.565289 84.275883 
L 106.625882 90.138776 
L 106.679347 120.791204 
L 106.807661 167.649029 
L 106.83974 168.076586 
L 106.893204 166.979714 
L 106.953797 159.573579 
L 107.003697 119.757137 
L 107.139141 83.700279 
L 107.160526 83.524455 
L 107.203298 84.242087 
L 107.260327 89.283876 
L 107.317355 118.961832 
L 107.449234 167.727118 
L 107.481313 168.079526 
L 107.527649 167.193759 
L 107.59537 158.911874 
L 107.648835 111.827278 
L 107.787842 83.591107 
L 107.798535 83.528281 
L 107.841307 84.204277 
L 107.9019 89.747914 
L 107.955364 117.420343 
L 108.090807 167.772687 
L 108.119322 168.082911 
L 108.169222 167.064483 
L 108.229815 160.065757 
L 108.279715 123.910584 
L 108.411594 83.810176 
L 108.440108 83.53005 
L 108.486444 84.429726 
L 108.554166 92.785384 
L 108.60763 140.156825 
L 108.746637 168.019069 
L 108.75733 168.08093 
L 108.800102 167.388874 
L 108.860695 161.7904 
L 108.914159 133.65799 
L 109.046038 83.895422 
L 109.078117 83.525006 
L 109.124453 84.387069 
L 109.192174 92.540634 
L 109.242074 135.036734 
L 109.381082 167.990495 
L 109.398903 168.074571 
L 109.430982 167.64044 
L 109.491575 163.164571 
L 109.552168 135.036734 
L 109.691176 83.769494 
L 109.716126 83.525006 
L 109.762461 84.350828 
L 109.830183 92.299648 
L 109.880083 133.65799 
L 110.015526 167.916507 
L 110.036912 168.08093 
L 110.079684 167.328521 
L 110.140277 161.450428 
L 110.193741 130.635569 
L 110.322056 83.955359 
L 110.354134 83.53005 
L 110.407599 84.631101 
L 110.468192 92.056046 
L 110.518092 132.014079 
L 110.653535 167.907783 
L 110.674921 168.082911 
L 110.717692 167.361933 
L 110.774721 162.309232 
L 110.83175 132.491259 
L 110.963629 83.878173 
L 110.995707 83.528281 
L 111.042043 84.417498 
L 111.109765 92.717762 
L 111.163229 139.874487 
L 111.280851 167.093966 
L 111.298672 166.946331 
L 111.384215 162.682877 
L 111.455501 144.901214 
L 111.594509 92.991795 
L 111.644409 93.921834 
L 111.729952 99.858173 
L 111.790545 121.800059 
L 111.904602 150.178823 
L 111.91886 150.084958 
L 111.983017 148.439415 
L 112.079253 139.91795 
L 112.211132 109.754481 
L 112.318061 112.265125 
L 112.417861 120.817728 
L 112.506968 133.774439 
L 112.578254 132.598473 
L 112.777855 124.9079 
L 112.952505 125.803636 
L 115.593647 125.70819 
L 115.615033 125.415873 
L 115.647112 126.995985 
L 115.878791 135.699271 
L 115.907305 134.881761 
L 115.946513 125.803636 
L 116.081956 107.000243 
L 116.171063 104.451185 
L 116.213835 105.985875 
L 116.26017 119.334833 
L 116.409871 157.237135 
L 116.474028 159.021671 
L 116.520364 157.36802 
L 116.573828 140.817704 
L 116.748479 81.312344 
L 116.784122 80.547575 
L 116.830458 82.291513 
L 116.887486 100.732174 
L 117.094215 183.152229 
L 117.09778 183.166574 
L 117.119165 182.873254 
L 117.17263 175.590382 
L 117.226094 120.270492 
L 117.357973 66.906567 
L 117.375795 66.673317 
L 117.425695 67.8668 
L 117.489852 76.892628 
L 117.543317 123.770812 
L 117.671631 182.743756 
L 117.696581 183.095361 
L 117.742917 182.061126 
L 117.814203 171.732238 
L 117.864103 123.557325 
L 117.992418 70.651761 
L 118.017368 70.362097 
L 118.060139 71.268973 
L 118.124297 78.770313 
L 118.181325 121.026921 
L 118.30964 179.061257 
L 118.33459 179.414603 
L 118.38449 178.284661 
L 118.448647 170.007245 
L 118.502112 126.595051 
L 118.630426 74.327466 
L 118.655376 74.035531 
L 118.701712 75.01054 
L 118.772998 84.462771 
L 118.822898 128.820482 
L 118.954777 175.537465 
L 118.972599 175.72823 
L 119.022499 174.713677 
L 119.09022 166.296303 
L 119.143685 119.586966 
L 119.275564 77.869332 
L 119.293385 77.713598 
L 119.339721 78.599938 
L 119.411007 87.169247 
L 119.464471 134.405209 
L 119.599915 171.967252 
L 119.614172 172.047511 
L 119.653379 171.398224 
L 119.721101 165.061236 
L 119.778129 131.176535 
L 119.906444 81.680943 
L 119.931394 81.397 
L 119.981294 82.349849 
L 120.049016 89.931795 
L 120.10248 132.017604 
L 120.237923 168.295702 
L 120.25218 168.371454 
L 120.287823 167.876078 
L 120.351981 163.45901 
L 120.412574 137.402113 
L 120.562274 83.627906 
L 120.580096 83.527747 
L 120.615738 84.044639 
L 120.676331 88.91937 
L 120.73336 115.693577 
L 120.875932 167.896914 
L 120.897318 168.078992 
L 120.940089 167.402995 
L 121.000682 161.859358 
L 121.054147 134.186929 
L 121.18959 83.834585 
L 121.218104 83.524362 
L 121.268004 84.54279 
L 121.328597 91.541516 
L 121.378498 127.696689 
L 121.510376 167.797097 
L 121.538891 168.077223 
L 121.585227 167.177546 
L 121.652948 158.821889 
L 121.706413 111.450448 
L 121.84542 83.588204 
L 121.856113 83.526343 
L 121.898885 84.218398 
L 121.959478 89.816873 
L 122.012942 117.949282 
L 122.144821 167.711851 
L 122.1769 168.082267 
L 122.223235 167.220204 
L 122.290957 159.066639 
L 122.340857 116.570539 
L 122.479865 83.616778 
L 122.497686 83.532702 
L 122.529765 83.966832 
L 122.590358 88.442701 
L 122.650951 116.570539 
L 122.789958 167.837779 
L 122.814908 168.082267 
L 122.861244 167.256445 
L 122.928966 159.307625 
L 122.978866 117.949282 
L 123.114309 83.690766 
L 123.135695 83.526343 
L 123.178466 84.278752 
L 123.239059 90.156844 
L 123.292524 120.971703 
L 123.420838 167.651914 
L 123.452917 168.077223 
L 123.506381 166.976171 
L 123.566974 159.551226 
L 123.616875 119.593194 
L 123.752318 83.69949 
L 123.773703 83.524362 
L 123.816475 84.245339 
L 123.873504 89.298041 
L 123.930532 119.116014 
L 124.062411 167.729099 
L 124.09449 168.078992 
L 124.140826 167.189775 
L 124.208547 158.889511 
L 124.262012 111.732786 
L 124.401019 83.590435 
L 124.411712 83.527747 
L 124.454484 84.207837 
L 124.515077 89.765017 
L 124.568541 117.549401 
L 124.703984 167.774108 
L 124.732499 168.082818 
L 124.782399 167.060274 
L 124.842992 160.04377 
L 124.892892 123.70391 
L 125.024771 83.808274 
L 125.053285 83.530687 
L 125.099621 84.433887 
L 125.167343 92.808125 
L 125.220807 140.250471 
L 125.359815 168.019884 
L 125.370507 168.081324 
L 125.413279 167.385401 
L 125.473872 161.772945 
L 125.527336 133.520304 
L 125.659215 83.893092 
L 125.691294 83.525278 
L 125.73763 84.390685 
L 125.805351 92.562601 
L 125.855252 135.151223 
L 125.994259 167.991699 
L 126.008516 168.075257 
L 126.044159 167.637609 
L 126.101188 163.65184 
L 126.158217 142.674446 
L 126.322174 83.544417 
L 126.325738 83.546583 
L 126.329303 83.524778 
L 126.361381 83.897799 
L 126.429103 89.255693 
L 126.486132 118.660729 
L 126.618011 167.723006 
L 126.650089 168.080497 
L 126.696425 167.201578 
L 126.764147 158.956375 
L 126.817611 112.016689 
L 126.956619 83.592344 
L 126.967311 83.529435 
L 127.010083 84.197115 
L 127.070676 89.714006 
L 127.12414 117.168267 
L 127.259584 167.769904 
L 127.288098 168.082957 
L 127.337998 167.072992 
L 127.398591 160.10948 
L 127.448491 124.326915 
L 127.576806 83.876241 
L 127.608884 83.528844 
L 127.65522 84.421529 
L 127.722942 92.740209 
L 127.776406 139.968807 
L 127.915414 168.017545 
L 127.926107 168.080028 
L 127.968878 167.395894 
L 128.029471 161.82506 
L 128.082936 133.926729 
L 128.218379 83.831721 
L 128.246893 83.524594 
L 128.296793 84.551175 
L 128.357386 91.585565 
L 128.407286 128.108902 
L 128.539165 167.800935 
L 128.56768 168.07593 
L 128.606887 166.963365 
L 128.685301 155.76167 
L 128.845695 90.937032 
L 128.974009 96.972513 
L 129.038167 117.178129 
L 129.159353 152.220676 
L 129.184303 151.967961 
L 129.269846 148.728048 
L 129.34826 136.434054 
L 129.462318 107.748138 
L 129.526475 108.742463 
L 129.640532 114.918185 
L 129.765283 135.69595 
L 129.897162 132.704641 
L 130.007655 125.011589 
L 130.046862 123.429945 
L 130.118148 124.675194 
L 130.271413 125.803636 
L 132.923248 125.910522 
L 133.137105 133.061405 
L 133.179877 131.033715 
L 133.429378 107.280766 
L 133.443635 107.428271 
L 133.489971 111.678773 
L 133.732343 156.131067 
L 133.778678 154.142294 
L 133.832143 134.187748 
L 133.978279 85.2673 
L 134.042436 83.481385 
L 134.085208 85.282608 
L 134.138672 101.564455 
L 134.348966 180.219411 
L 134.356094 180.227228 
L 134.370351 180.000996 
L 134.420251 174.61525 
L 134.473716 134.575107 
L 134.605595 66.554031 
L 134.630545 66.235114 
L 134.673316 67.193818 
L 134.737474 75.251632 
L 134.794502 120.935534 
L 134.922817 183.154101 
L 134.947767 183.54249 
L 134.997667 182.34178 
L 135.061824 173.428809 
L 135.115289 126.372872 
L 135.243604 70.231469 
L 135.268554 69.908104 
L 135.314889 70.943979 
L 135.386175 81.151938 
L 135.436075 129.329398 
L 135.567954 179.642004 
L 135.585776 179.855716 
L 135.635676 178.774818 
L 135.703398 169.664699 
L 135.756862 118.844812 
L 135.888741 73.761363 
L 135.906562 73.585812 
L 135.952898 74.529325 
L 136.024184 83.831943 
L 136.077648 135.3258 
L 136.213092 176.081247 
L 136.227349 176.174782 
L 136.27012 175.34113 
L 136.334278 168.594745 
L 136.391306 131.454979 
L 136.519621 77.590678 
L 136.544571 77.269419 
L 136.594471 78.28965 
L 136.658628 85.71449 
L 136.712093 123.672343 
L 136.840407 172.233456 
L 136.865358 172.499117 
L 136.911693 171.614185 
L 136.982979 163.183656 
L 137.036444 116.735993 
L 137.171887 81.02672 
L 137.18258 80.956634 
L 137.225351 81.60773 
L 137.293073 87.827195 
L 137.350102 121.556555 
L 137.478416 168.558452 
L 137.503366 168.818365 
L 137.553266 167.864309 
L 137.617424 161.198098 
L 137.670888 126.860783 
L 137.799203 83.902692 
L 137.831281 83.524455 
L 137.877617 84.376551 
L 137.945339 92.474884 
L 137.995239 134.683415 
L 138.134246 167.986619 
L 138.152068 168.076586 
L 138.184147 167.649029 
L 138.24474 163.205791 
L 138.305333 135.375681 
L 138.44434 83.776311 
L 138.46929 83.525948 
L 138.51919 84.499326 
L 138.583348 92.23362 
L 138.633248 133.238094 
L 138.768691 167.914017 
L 138.790077 168.081994 
L 138.832848 167.33722 
L 138.889877 162.193504 
L 138.946906 131.170209 
L 139.07522 83.963983 
L 139.107299 83.532015 
L 139.160763 84.62043 
L 139.221356 91.9889 
L 139.271256 131.514968 
L 139.4067 167.905377 
L 139.428085 168.082495 
L 139.470857 167.371795 
L 139.53145 161.702398 
L 139.584914 132.946544 
L 139.716793 83.884267 
L 139.748872 83.526776 
L 139.795208 84.405694 
L 139.862929 92.650897 
L 139.916394 139.590584 
L 140.055401 168.014929 
L 140.066094 168.077838 
L 140.108866 167.410158 
L 140.169459 161.893267 
L 140.222923 134.439006 
L 140.358366 83.837369 
L 140.386881 83.524315 
L 140.436781 84.53428 
L 140.497374 91.497793 
L 140.547274 127.280358 
L 140.675588 167.731032 
L 140.707667 168.078428 
L 140.754003 167.185743 
L 140.821725 158.867064 
L 140.875189 111.638466 
L 141.014196 83.589728 
L 141.024889 83.527244 
L 141.067661 84.211379 
L 141.128254 89.782213 
L 141.181718 117.680544 
L 141.317162 167.775551 
L 141.345676 168.082679 
L 141.395576 167.056098 
L 141.456169 160.021708 
L 141.506069 123.498371 
L 141.637948 83.806338 
L 141.666462 83.531343 
L 141.712798 84.438087 
L 141.78052 92.830976 
L 141.833984 140.343841 
L 141.972992 168.020734 
L 141.983685 168.08168 
L 142.026456 167.381954 
L 142.087049 161.755412 
L 142.140514 133.38035 
L 142.272392 83.890811 
L 142.304471 83.525593 
L 142.350807 84.394356 
L 142.418529 92.584604 
L 142.468429 135.264182 
L 142.607436 167.992857 
L 142.621693 168.07593 
L 142.657336 167.634796 
L 142.714365 163.640702 
L 142.771394 142.596545 
L 142.935351 83.544103 
L 142.938916 83.546352 
L 142.94248 83.524594 
L 142.974559 83.900223 
L 143.04228 89.269762 
L 143.099309 118.810076 
L 143.231188 167.725087 
L 143.263266 168.080028 
L 143.309602 167.197694 
L 143.377324 158.93416 
L 143.430788 111.92192 
L 143.569796 83.591743 
L 143.580489 83.528844 
L 143.62326 84.200702 
L 143.683853 89.73091 
L 143.737318 117.293317 
L 143.872761 167.771287 
L 143.901275 168.082957 
L 143.951175 167.068723 
L 144.011768 160.087662 
L 144.061668 124.118288 
L 144.189983 83.874357 
L 144.222062 83.529435 
L 144.268397 84.425606 
L 144.336119 92.762748 
L 144.389583 140.062928 
L 144.528591 168.018289 
L 144.539284 168.080497 
L 144.582055 167.392373 
L 144.642648 161.807773 
L 144.696113 133.793451 
L 144.827992 83.897799 
L 144.86007 83.524778 
L 144.906406 84.383508 
L 144.974128 92.518697 
L 145.024028 134.920647 
L 145.163035 167.989246 
L 145.180857 168.075257 
L 145.212936 167.64329 
L 145.273529 163.178396 
L 145.334122 135.151223 
L 145.473129 83.771767 
L 145.498079 83.525278 
L 145.544415 84.347827 
L 145.612137 92.277668 
L 145.662037 133.520304 
L 145.79748 167.915659 
L 145.818866 168.081324 
L 145.861637 167.331389 
L 145.92223 161.468497 
L 145.975695 130.816069 
L 146.104009 83.958243 
L 146.136088 83.530687 
L 146.189552 84.627558 
L 146.250145 92.033694 
L 146.300045 131.850136 
L 146.435489 167.906994 
L 146.456874 168.082818 
L 146.499646 167.365185 
L 146.556675 162.323396 
L 146.613703 132.64544 
L 146.745582 83.880155 
L 146.777661 83.527747 
L 146.823997 84.413514 
L 146.891718 92.695398 
L 146.945183 139.779994 
L 147.08419 168.016166 
L 147.094883 168.078992 
L 147.137655 167.402995 
L 147.198248 161.859358 
L 147.251712 134.186929 
L 147.387155 83.834585 
L 147.41567 83.524362 
L 147.46557 84.54279 
L 147.526163 91.541516 
L 147.576063 127.696689 
L 147.707942 167.797097 
L 147.736456 168.077223 
L 147.782792 167.177546 
L 147.850514 158.821889 
L 147.903978 111.450448 
L 148.042985 83.588204 
L 148.053678 83.526343 
L 148.09645 84.218398 
L 148.157043 89.816873 
L 148.210507 117.949282 
L 148.342386 167.711851 
L 148.374465 168.082267 
L 148.420801 167.220204 
L 148.488522 159.066639 
L 148.538422 116.570539 
L 148.67743 83.616778 
L 148.695251 83.532702 
L 148.72733 83.966832 
L 148.787923 88.442701 
L 148.848516 116.570539 
L 148.987524 167.837779 
L 149.012474 168.082267 
L 149.058809 167.256445 
L 149.126531 159.307625 
L 149.176431 117.949282 
L 149.311874 83.690766 
L 149.33326 83.526343 
L 149.376032 84.278752 
L 149.436625 90.156844 
L 149.490089 120.971703 
L 149.618404 167.651914 
L 149.650482 168.077223 
L 149.703947 166.976171 
L 149.76454 159.551226 
L 149.81444 119.593194 
L 149.949883 83.69949 
L 149.971269 83.524362 
L 150.01404 84.245339 
L 150.071069 89.298041 
L 150.128098 119.116014 
L 150.259977 167.729099 
L 150.292055 168.078992 
L 150.338391 167.189775 
L 150.406113 158.889511 
L 150.459577 111.732786 
L 150.598585 83.590435 
L 150.609278 83.527747 
L 150.652049 84.207837 
L 150.712642 89.765017 
L 150.766107 117.549401 
L 150.90155 167.774108 
L 150.930064 168.082818 
L 150.979964 167.060274 
L 151.040557 160.04377 
L 151.090457 123.70391 
L 151.222336 83.808274 
L 151.250851 83.530687 
L 151.297186 84.433887 
L 151.364908 92.808125 
L 151.418372 140.250471 
L 151.55738 168.019884 
L 151.568073 168.081324 
L 151.610844 167.385401 
L 151.671437 161.772945 
L 151.724902 133.520304 
L 151.856781 83.893092 
L 151.888859 83.525278 
L 151.935195 84.390685 
L 152.002917 92.562601 
L 152.052817 135.151223 
L 152.191824 167.991699 
L 152.206082 168.075257 
L 152.241724 167.637609 
L 152.298753 163.65184 
L 152.355782 142.674446 
L 152.519739 83.544417 
L 152.523304 83.546583 
L 152.526868 83.524778 
L 152.558947 83.897799 
L 152.626668 89.255693 
L 152.683697 118.660729 
L 152.815576 167.723006 
L 152.847655 168.080497 
L 152.89399 167.201578 
L 152.961712 158.956375 
L 153.015176 112.016689 
L 153.154184 83.592344 
L 153.164877 83.529435 
L 153.207648 84.197115 
L 153.268241 89.714006 
L 153.321706 117.168267 
L 153.457149 167.769904 
L 153.485663 168.082957 
L 153.535563 167.072992 
L 153.596156 160.10948 
L 153.646057 124.326915 
L 153.774371 83.876241 
L 153.80645 83.528844 
L 153.852786 84.421529 
L 153.920507 92.740209 
L 153.973972 139.968807 
L 154.112979 168.017545 
L 154.123672 168.080028 
L 154.166444 167.395894 
L 154.227037 161.82506 
L 154.280501 133.926729 
L 154.415944 83.831721 
L 154.444459 83.524594 
L 154.494359 84.551175 
L 154.554952 91.585565 
L 154.604852 128.108902 
L 154.736731 167.800935 
L 154.765245 168.07593 
L 154.811581 167.169186 
L 154.879302 158.776296 
L 154.932767 111.263432 
L 155.071774 83.586538 
L 155.082467 83.525593 
L 155.125239 84.225318 
L 155.185832 89.85186 
L 155.239296 118.226922 
L 155.371175 167.716461 
L 155.403254 168.08168 
L 155.44959 167.212917 
L 155.517311 159.022668 
L 155.567211 116.343091 
L 155.706219 83.614416 
L 155.720476 83.531343 
L 155.756119 83.972476 
L 155.813148 87.966571 
L 155.870176 109.010728 
L 156.034134 168.06317 
L 156.037698 168.060921 
L 156.041263 168.082679 
L 156.073341 167.70705 
L 156.141063 162.337511 
L 156.198091 132.797197 
L 156.32997 83.882186 
L 156.362049 83.527244 
L 156.408385 84.409579 
L 156.476106 92.673113 
L 156.529571 139.685352 
L 156.668578 168.01553 
L 156.679271 168.078428 
L 156.722043 167.40657 
L 156.782636 161.876363 
L 156.8361 134.313956 
L 156.971543 83.835986 
L 157.000058 83.524315 
L 157.049958 84.53855 
L 157.110551 91.519611 
L 157.160451 127.488984 
L 157.288766 167.732916 
L 157.320844 168.077838 
L 157.36718 167.181667 
L 157.434902 158.844525 
L 157.488366 111.544345 
L 157.627374 83.588984 
L 157.638066 83.526776 
L 157.680838 84.2149 
L 157.741431 89.7995 
L 157.794895 117.813822 
L 157.926774 167.709474 
L 157.958853 168.082495 
L 158.005189 167.223765 
L 158.07291 159.088576 
L 158.122811 116.686626 
L 158.261818 83.618027 
L 158.27964 83.532015 
L 158.311718 83.963983 
L 158.372311 88.428876 
L 158.432904 116.45605 
L 158.571912 167.835505 
L 158.596862 168.081994 
L 158.643198 167.259445 
L 158.710919 159.329605 
L 158.760819 118.086969 
L 158.896262 83.691614 
L 158.917648 83.525948 
L 158.96042 84.275883 
L 159.021013 90.138776 
L 159.074477 120.791204 
L 159.202792 167.649029 
L 159.23487 168.076586 
L 159.288335 166.979714 
L 159.348928 159.573579 
L 159.398828 119.757137 
L 159.534271 83.700279 
L 159.555657 83.524455 
L 159.598429 84.242087 
L 159.655457 89.283876 
L 159.712486 118.961832 
L 159.844365 167.727118 
L 159.876444 168.079526 
L 159.922779 167.193759 
L 159.990501 158.911874 
L 160.043965 111.827278 
L 160.182973 83.591107 
L 160.193666 83.528281 
L 160.236437 84.204277 
L 160.29703 89.747914 
L 160.350495 117.420343 
L 160.485938 167.772687 
L 160.514452 168.082911 
L 160.564352 167.064483 
L 160.624945 160.065757 
L 160.674846 123.910584 
L 160.806724 83.810176 
L 160.835239 83.53005 
L 160.881575 84.429726 
L 160.949296 92.785384 
L 161.002761 140.156825 
L 161.141768 168.019069 
L 161.152461 168.08093 
L 161.195233 167.388874 
L 161.255826 161.7904 
L 161.30929 133.65799 
L 161.441169 83.895422 
L 161.473247 83.525006 
L 161.519583 84.387069 
L 161.587305 92.540634 
L 161.637205 135.036734 
L 161.776213 167.990495 
L 161.794034 168.074571 
L 161.826113 167.64044 
L 161.886706 163.164571 
L 161.947299 135.036734 
L 162.086306 83.769494 
L 162.111256 83.525006 
L 162.157592 84.350828 
L 162.225314 92.299648 
L 162.275214 133.65799 
L 162.410657 167.916507 
L 162.432043 168.08093 
L 162.474814 167.328521 
L 162.535407 161.450428 
L 162.588872 130.635569 
L 162.717186 83.955359 
L 162.749265 83.53005 
L 162.802729 84.631101 
L 162.863322 92.056046 
L 162.913223 132.014079 
L 163.048666 167.907783 
L 163.070051 168.082911 
L 163.112823 167.361933 
L 163.169852 162.309232 
L 163.22688 132.491259 
L 163.351631 86.630333 
L 163.355195 86.641244 
L 163.358759 86.635175 
L 163.373017 86.782504 
L 163.451431 90.222218 
L 163.526281 105.360136 
L 163.668853 156.500255 
L 163.736575 154.936928 
L 163.822118 147.326771 
L 163.879146 116.482899 
L 163.975382 103.517255 
L 164.011025 103.91142 
L 164.110825 108.064602 
L 164.182111 121.241406 
L 164.278347 139.804067 
L 164.321119 139.325953 
L 164.442305 134.963348 
L 164.513591 123.704161 
L 164.574184 119.762871 
L 164.638341 120.761362 
L 164.955563 125.803636 
L 167.586013 125.803636 
L 167.667992 128.037038 
L 167.70007 126.413173 
L 167.856899 115.399966 
L 167.946006 113.117029 
L 167.985214 114.642921 
L 168.027985 130.070293 
L 168.177686 148.52664 
L 168.245407 150.096564 
L 168.284614 148.630161 
L 168.334515 134.018406 
L 168.494908 90.894744 
L 168.548372 89.585606 
L 168.591144 91.084957 
L 168.641044 103.745182 
L 168.858466 174.073181 
L 168.86203 174.067338 
L 168.883416 173.679704 
L 168.93688 166.171405 
L 168.986781 111.776786 
L 169.129352 66.582318 
L 169.154302 65.512618 
L 169.204202 68.186944 
L 169.271924 87.241114 
L 169.453703 184.470222 
L 169.514296 182.474165 
L 169.582018 168.239099 
L 169.770925 68.97283 
L 169.877854 76.9942 
L 169.934883 114.547519 
L 170.070326 180.536959 
L 170.091712 180.795478 
L 170.138048 179.792189 
L 170.209334 169.86644 
L 170.259234 123.649044 
L 170.387548 72.933626 
L 170.408934 72.66164 
L 170.45527 73.54125 
L 170.519427 80.743246 
L 170.576456 121.228501 
L 170.704771 176.782856 
L 170.729721 177.114937 
L 170.779621 176.021329 
L 170.843778 168.087584 
L 170.897242 126.560481 
L 171.025557 76.608056 
L 171.050507 76.335423 
L 171.093279 77.147294 
L 171.153872 83.014758 
L 171.2109 113.260104 
L 171.357036 173.35044 
L 171.367729 173.429071 
L 171.414065 172.599561 
L 171.481787 165.234757 
L 171.535251 129.022127 
L 171.663566 80.284291 
L 171.688516 80.013378 
L 171.734852 80.869931 
L 171.806138 89.04324 
L 171.859602 133.985254 
L 171.995045 169.675441 
L 172.009302 169.747638 
L 172.04851 169.119512 
L 172.116231 163.082455 
L 172.17326 130.90375 
L 172.301574 83.958243 
L 172.333653 83.530687 
L 172.387118 84.627558 
L 172.447711 92.033694 
L 172.497611 131.850136 
L 172.633054 167.906994 
L 172.65444 168.082818 
L 172.697211 167.365185 
L 172.75424 162.323396 
L 172.811269 132.64544 
L 172.943148 83.880155 
L 172.975226 83.527747 
L 173.021562 84.413514 
L 173.089284 92.695398 
L 173.142748 139.779994 
L 173.281756 168.016166 
L 173.292448 168.078992 
L 173.33522 167.402995 
L 173.395813 161.859358 
L 173.449277 134.186929 
L 173.584721 83.834585 
L 173.613235 83.524362 
L 173.663135 84.54279 
L 173.723728 91.541516 
L 173.773628 127.696689 
L 173.905507 167.797097 
L 173.934021 168.077223 
L 173.980357 167.177546 
L 174.048079 158.821889 
L 174.101543 111.450448 
L 174.240551 83.588204 
L 174.251244 83.526343 
L 174.294015 84.218398 
L 174.354608 89.816873 
L 174.408073 117.949282 
L 174.539952 167.711851 
L 174.57203 168.082267 
L 174.618366 167.220204 
L 174.686088 159.066639 
L 174.735988 116.570539 
L 174.874995 83.616778 
L 174.892817 83.532702 
L 174.924895 83.966832 
L 174.985488 88.442701 
L 175.046081 116.570539 
L 175.185089 167.837779 
L 175.210039 168.082267 
L 175.256375 167.256445 
L 175.324096 159.307625 
L 175.373996 117.949282 
L 175.50944 83.690766 
L 175.530825 83.526343 
L 175.573597 84.278752 
L 175.63419 90.156844 
L 175.687654 120.971703 
L 175.815969 167.651914 
L 175.848048 168.077223 
L 175.901512 166.976171 
L 175.962105 159.551226 
L 176.012005 119.593194 
L 176.147448 83.69949 
L 176.168834 83.524362 
L 176.211606 84.245339 
L 176.268634 89.298041 
L 176.325663 119.116014 
L 176.457542 167.729099 
L 176.489621 168.078992 
L 176.535956 167.189775 
L 176.603678 158.889511 
L 176.657142 111.732786 
L 176.79615 83.590435 
L 176.806843 83.527747 
L 176.849614 84.207837 
L 176.910207 89.765017 
L 176.963672 117.549401 
L 177.099115 167.774108 
L 177.127629 168.082818 
L 177.17753 167.060274 
L 177.238123 160.04377 
L 177.288023 123.70391 
L 177.419902 83.808274 
L 177.448416 83.530687 
L 177.494752 84.433887 
L 177.562473 92.808125 
L 177.615938 140.250471 
L 177.754945 168.019884 
L 177.765638 168.081324 
L 177.80841 167.385401 
L 177.869003 161.772945 
L 177.922467 133.520304 
L 178.054346 83.893092 
L 178.086425 83.525278 
L 178.13276 84.390685 
L 178.200482 92.562601 
L 178.250382 135.151223 
L 178.38939 167.991699 
L 178.403647 168.075257 
L 178.43929 167.637609 
L 178.496319 163.65184 
L 178.553347 142.674446 
L 178.717305 83.544417 
L 178.720869 83.546583 
L 178.724433 83.524778 
L 178.756512 83.897799 
L 178.824234 89.255693 
L 178.881262 118.660729 
L 179.013141 167.723006 
L 179.04522 168.080497 
L 179.091556 167.201578 
L 179.159277 158.956375 
L 179.212742 112.016689 
L 179.351749 83.592344 
L 179.362442 83.529435 
L 179.405214 84.197115 
L 179.465807 89.714006 
L 179.519271 117.168267 
L 179.654714 167.769904 
L 179.683229 168.082957 
L 179.733129 167.072992 
L 179.793722 160.10948 
L 179.843622 124.326915 
L 179.971936 83.876241 
L 180.004015 83.528844 
L 180.050351 84.421529 
L 180.118073 92.740209 
L 180.171537 139.968807 
L 180.310544 168.017545 
L 180.321237 168.080028 
L 180.364009 167.395894 
L 180.424602 161.82506 
L 180.478066 133.926729 
L 180.609945 84.565354 
L 180.66341 85.801434 
L 180.745388 93.69689 
L 180.802417 127.790033 
L 180.923603 158.551211 
L 180.930732 158.514568 
L 181.005582 156.199404 
L 181.087561 145.847405 
L 181.233697 101.4839 
L 181.337061 104.442992 
L 181.41904 114.653348 
L 181.536662 141.797576 
L 181.611512 140.450385 
L 181.722005 134.398718 
L 181.832498 117.888166 
L 181.953684 120.396888 
L 182.106949 126.661255 
L 182.242392 125.803636 
L 184.919177 125.901767 
L 184.940563 126.230524 
L 184.972642 124.685436 
L 185.200757 115.833358 
L 185.232835 116.522827 
L 185.272043 124.179914 
L 185.407486 144.582487 
L 185.496593 147.23962 
L 185.539365 145.869662 
L 185.5857 133.736878 
L 185.753222 93.618317 
L 185.806687 92.500618 
L 185.845894 93.96673 
L 185.899358 109.205098 
L 186.088266 170.773558 
L 186.113216 171.140181 
L 186.152423 169.886806 
L 186.205888 157.044287 
L 186.42331 68.354749 
L 186.462517 69.475928 
L 186.519546 84.298639 
L 186.704889 184.923082 
L 186.790432 180.351045 
L 186.854589 154.677749 
L 187.022111 68.534364 
L 187.047061 68.748894 
L 187.114783 73.701698 
L 187.175376 99.130945 
L 187.342898 181.242792 
L 187.364283 181.051995 
L 187.417748 178.248235 
L 187.481905 161.384651 
L 187.663684 72.207993 
L 187.727842 74.307966 
L 187.791999 86.875113 
L 187.980906 177.556501 
L 188.0914 169.569256 
L 188.148428 129.064471 
L 188.276743 76.190959 
L 188.301693 75.885614 
L 188.348029 76.799176 
L 188.419315 85.704784 
L 188.472779 134.898352 
L 188.608222 173.78939 
L 188.622479 173.874917 
L 188.661687 173.205759 
L 188.729408 166.616782 
L 188.786437 131.192016 
L 188.914752 79.868135 
L 188.939702 79.56884 
L 188.989602 80.554146 
L 189.053759 87.639869 
L 189.107224 123.775366 
L 189.235538 169.953693 
L 189.260488 170.199252 
L 189.306824 169.344932 
L 189.37811 161.31549 
L 189.431574 117.192227 
L 189.567018 83.318774 
L 189.57771 83.255428 
L 189.620482 83.88566 
L 189.688204 89.51974 
L 189.745232 121.715473 
L 189.873547 167.663488 
L 189.905626 168.079526 
L 189.955526 167.125682 
L 190.019683 159.462154 
L 190.069583 118.961832 
L 190.205026 83.696395 
L 190.226412 83.524455 
L 190.269184 84.257985 
L 190.326212 89.355305 
L 190.383241 119.757137 
L 190.51512 167.736542 
L 190.547199 168.076586 
L 190.593534 167.173385 
L 190.661256 158.799148 
L 190.71472 111.356801 
L 190.853728 83.587389 
L 190.864421 83.525948 
L 190.907192 84.221872 
L 190.967785 89.834328 
L 191.02125 118.086969 
L 191.153129 167.71418 
L 191.185207 168.081994 
L 191.231543 167.216588 
L 191.299265 159.044671 
L 191.349165 116.45605 
L 191.488172 83.615574 
L 191.50243 83.532015 
L 191.538072 83.969664 
L 191.595101 87.955432 
L 191.65213 108.932827 
L 191.816087 168.062856 
L 191.819652 168.06069 
L 191.823216 168.082495 
L 191.855295 167.709474 
L 191.923016 162.35158 
L 191.980045 132.946544 
L 192.111924 83.884267 
L 192.144003 83.526776 
L 192.190338 84.405694 
L 192.25806 92.650897 
L 192.311524 139.590584 
L 192.450532 168.014929 
L 192.461225 168.077838 
L 192.503996 167.410158 
L 192.564589 161.893267 
L 192.618054 134.439006 
L 192.753497 83.837369 
L 192.782011 83.524315 
L 192.831911 84.53428 
L 192.892504 91.497793 
L 192.942405 127.280358 
L 193.070719 167.731032 
L 193.102798 168.078428 
L 193.149134 167.185743 
L 193.216855 158.867064 
L 193.27032 111.638466 
L 193.409327 83.589728 
L 193.42002 83.527244 
L 193.462792 84.211379 
L 193.523385 89.782213 
L 193.576849 117.680544 
L 193.712292 167.775551 
L 193.740807 168.082679 
L 193.790707 167.056098 
L 193.8513 160.021708 
L 193.9012 123.498371 
L 194.033079 83.806338 
L 194.061593 83.531343 
L 194.107929 84.438087 
L 194.17565 92.830976 
L 194.229115 140.343841 
L 194.368122 168.020734 
L 194.378815 168.08168 
L 194.421587 167.381954 
L 194.48218 161.755412 
L 194.535644 133.38035 
L 194.667523 83.890811 
L 194.699602 83.525593 
L 194.745938 84.394356 
L 194.813659 92.584604 
L 194.863559 135.264182 
L 195.002567 167.992857 
L 195.016824 168.07593 
L 195.052467 167.634796 
L 195.109496 163.640702 
L 195.166524 142.596545 
L 195.330482 83.544103 
L 195.334046 83.546352 
L 195.337611 83.524594 
L 195.369689 83.900223 
L 195.437411 89.269762 
L 195.494439 118.810076 
L 195.626318 167.725087 
L 195.658397 168.080028 
L 195.704733 167.197694 
L 195.772454 158.93416 
L 195.825919 111.92192 
L 195.964926 83.591743 
L 195.975619 83.528844 
L 196.018391 84.200702 
L 196.078984 89.73091 
L 196.132448 117.293317 
L 196.267891 167.771287 
L 196.296406 168.082957 
L 196.346306 167.068723 
L 196.406899 160.087662 
L 196.456799 124.118288 
L 196.585114 83.874357 
L 196.617192 83.529435 
L 196.663528 84.425606 
L 196.73125 92.762748 
L 196.784714 140.062928 
L 196.923722 168.018289 
L 196.934414 168.080497 
L 196.977186 167.392373 
L 197.037779 161.807773 
L 197.091243 133.793451 
L 197.223122 83.897799 
L 197.255201 83.524778 
L 197.301537 84.383508 
L 197.369258 92.518697 
L 197.419159 134.920647 
L 197.558166 167.989246 
L 197.575988 168.075257 
L 197.608066 167.64329 
L 197.668659 163.178396 
L 197.729252 135.151223 
L 197.86826 83.771767 
L 197.89321 83.525278 
L 197.932417 84.565423 
L 198.014396 96.341373 
L 198.174789 160.614442 
L 198.303104 154.407147 
L 198.367261 133.294945 
L 198.484883 99.443319 
L 198.506268 99.608499 
L 198.577554 101.814736 
L 198.663097 111.235618 
L 198.791412 143.802348 
L 198.887648 141.723723 
L 198.983884 134.516911 
L 199.094377 115.966401 
L 199.187049 117.766459 
L 199.32962 125.37688 
L 199.372392 128.129423 
L 199.443678 126.92979 
L 199.596943 125.803636 
L 202.248778 125.698744 
L 202.4662 118.471771 
L 202.508971 120.736951 
L 202.754908 144.404612 
L 202.7656 144.347053 
L 202.804808 142.104909 
L 202.847579 123.462018 
L 202.986587 97.41357 
L 203.061437 95.401344 
L 203.100644 96.84525 
L 203.154109 112.330252 
L 203.328759 167.41781 
L 203.371531 168.210371 
L 203.410738 166.625218 
L 203.467766 149.005729 
L 203.674496 71.32016 
L 203.681624 71.301195 
L 203.695881 71.487253 
L 203.735089 74.494286 
L 203.788553 97.864956 
L 203.956075 185.3707 
L 203.981025 185.10302 
L 204.045182 180.337664 
L 204.105775 155.774893 
L 204.276861 68.080614 
L 204.301811 68.382917 
L 204.35884 72.155265 
L 204.422997 94.76961 
L 204.594084 181.684096 
L 204.626162 181.280622 
L 204.697448 174.674168 
L 204.758041 137.658408 
L 204.893484 72.017069 
L 204.91487 71.75783 
L 204.961206 72.728999 
L 205.032492 82.37061 
L 205.085956 135.835551 
L 205.221399 177.903531 
L 205.235657 178.002141 
L 205.278428 177.144854 
L 205.342585 170.148049 
L 205.399614 131.442322 
L 205.527929 75.777456 
L 205.552879 75.44118 
L 205.602779 76.49445 
L 205.666936 84.205192 
L 205.720401 123.833302 
L 205.848715 174.048084 
L 205.873665 174.326898 
L 205.920001 173.414147 
L 205.991287 164.643586 
L 206.041187 124.141786 
L 206.169502 79.353461 
L 206.190888 79.128624 
L 206.237223 79.929869 
L 206.301381 86.275034 
L 206.358409 121.586554 
L 206.486724 170.371789 
L 206.511674 170.646448 
L 206.561574 169.659418 
L 206.625732 162.706786 
L 206.679196 126.682552 
L 206.807511 83.02469 
L 206.832461 82.803858 
L 206.875232 83.539323 
L 206.935825 88.663369 
L 206.992854 114.785599 
L 207.13899 167.925322 
L 207.160376 168.07593 
L 207.206712 167.169186 
L 207.274433 158.776296 
L 207.327898 111.263432 
L 207.466905 83.586538 
L 207.477598 83.525593 
L 207.520369 84.225318 
L 207.580962 89.85186 
L 207.634427 118.226922 
L 207.766306 167.716461 
L 207.798384 168.08168 
L 207.84472 167.212917 
L 207.912442 159.022668 
L 207.962342 116.343091 
L 208.101349 83.614416 
L 208.115607 83.531343 
L 208.15125 83.972476 
L 208.208278 87.966571 
L 208.265307 109.010728 
L 208.429265 168.06317 
L 208.432829 168.060921 
L 208.436393 168.082679 
L 208.468472 167.70705 
L 208.536193 162.337511 
L 208.593222 132.797197 
L 208.725101 83.882186 
L 208.75718 83.527244 
L 208.803516 84.409579 
L 208.871237 92.673113 
L 208.924702 139.685352 
L 209.063709 168.01553 
L 209.074402 168.078428 
L 209.117173 167.40657 
L 209.177766 161.876363 
L 209.231231 134.313956 
L 209.366674 83.835986 
L 209.395188 83.524315 
L 209.445089 84.53855 
L 209.505682 91.519611 
L 209.555582 127.488984 
L 209.683896 167.732916 
L 209.715975 168.077838 
L 209.762311 167.181667 
L 209.830032 158.844525 
L 209.883497 111.544345 
L 210.022504 83.588984 
L 210.033197 83.526776 
L 210.075969 84.2149 
L 210.136562 89.7995 
L 210.190026 117.813822 
L 210.321905 167.709474 
L 210.353984 168.082495 
L 210.400319 167.223765 
L 210.468041 159.088576 
L 210.517941 116.686626 
L 210.656949 83.618027 
L 210.67477 83.532015 
L 210.706849 83.963983 
L 210.767442 88.428876 
L 210.828035 116.45605 
L 210.967042 167.835505 
L 210.991992 168.081994 
L 211.038328 167.259445 
L 211.10605 159.329605 
L 211.15595 118.086969 
L 211.291393 83.691614 
L 211.312779 83.525948 
L 211.35555 84.275883 
L 211.416143 90.138776 
L 211.469608 120.791204 
L 211.597922 167.649029 
L 211.630001 168.076586 
L 211.683466 166.979714 
L 211.744059 159.573579 
L 211.793959 119.757137 
L 211.929402 83.700279 
L 211.950788 83.524455 
L 211.993559 84.242087 
L 212.050588 89.283876 
L 212.107617 118.961832 
L 212.239496 167.727118 
L 212.271574 168.079526 
L 212.31791 167.193759 
L 212.385632 158.911874 
L 212.439096 111.827278 
L 212.578103 83.591107 
L 212.588796 83.528281 
L 212.631568 84.204277 
L 212.692161 89.747914 
L 212.745625 117.420343 
L 212.881069 167.772687 
L 212.909583 168.082911 
L 212.959483 167.064483 
L 213.020076 160.065757 
L 213.069976 123.910584 
L 213.201855 83.810176 
L 213.230369 83.53005 
L 213.276705 84.429726 
L 213.344427 92.785384 
L 213.397891 140.156825 
L 213.536899 168.019069 
L 213.547592 168.08093 
L 213.590363 167.388874 
L 213.650956 161.7904 
L 213.704421 133.65799 
L 213.836299 83.895422 
L 213.868378 83.525006 
L 213.914714 84.387069 
L 213.982436 92.540634 
L 214.032336 135.036734 
L 214.171343 167.990495 
L 214.189165 168.074571 
L 214.221243 167.64044 
L 214.281836 163.164571 
L 214.342429 135.036734 
L 214.481437 83.769494 
L 214.506387 83.525006 
L 214.552723 84.350828 
L 214.620444 92.299648 
L 214.670344 133.65799 
L 214.805788 167.916507 
L 214.827173 168.08093 
L 214.869945 167.328521 
L 214.930538 161.450428 
L 214.984002 130.635569 
L 215.112317 83.955359 
L 215.144396 83.53005 
L 215.19786 84.631101 
L 215.258453 92.362147 
L 215.311917 136.533485 
L 215.425975 162.671233 
L 215.447361 162.507761 
L 215.515082 159.96437 
L 215.589932 149.31194 
L 215.739633 97.400704 
L 215.846562 100.730721 
L 215.924976 112.944294 
L 216.049726 145.822401 
L 216.110319 144.777267 
L 216.217248 138.62593 
L 216.352691 114.016355 
L 216.498828 117.805741 
L 216.584371 126.11312 
L 216.641399 129.817317 
L 216.701992 128.823226 
L 216.937236 125.803636 
L 219.574814 125.803636 
L 219.728078 120.992605 
L 219.763721 122.516118 
L 220.013222 141.59115 
L 220.023915 141.528769 
L 220.066686 138.557047 
L 220.312623 98.288189 
L 220.383909 104.137277 
L 220.622716 165.28818 
L 220.690438 159.818918 
L 220.736774 125.803636 
L 220.868653 76.441806 
L 220.936374 74.239397 
L 220.979146 76.187451 
L 221.03261 92.703196 
L 221.207261 185.811838 
L 221.267854 183.951363 
L 221.332011 171.944317 
L 221.38904 100.451577 
L 221.528047 67.63004 
L 221.531612 67.65367 
L 221.535176 67.64427 
L 221.552997 67.909144 
L 221.61359 72.075067 
L 221.677748 96.968011 
L 221.848834 182.129305 
L 221.87022 181.921457 
L 221.937941 177.097527 
L 221.998534 152.451731 
L 222.166056 71.313404 
L 222.191006 71.553333 
L 222.258728 76.380782 
L 222.319321 101.265723 
L 222.486842 178.454523 
L 222.504664 178.306599 
L 222.551 176.418605 
L 222.615157 164.207349 
L 222.804065 75.001612 
L 222.918122 83.616459 
L 222.971587 121.43368 
L 223.099901 174.46377 
L 223.124851 174.774203 
L 223.174751 173.71758 
L 223.238909 166.133644 
L 223.292373 126.525293 
L 223.420688 78.92937 
L 223.445638 78.676384 
L 223.488409 79.461363 
L 223.549002 85.064309 
L 223.606031 113.864995 
L 223.752167 171.017106 
L 223.76286 171.088856 
L 223.805631 170.408204 
L 223.869789 164.69784 
L 223.926818 135.614514 
L 224.065825 82.485077 
L 224.083646 82.354225 
L 224.126418 83.069705 
L 224.187011 88.119342 
L 224.24404 113.747456 
L 224.397304 168.008699 
L 224.411562 168.081324 
L 224.447205 167.570541 
L 224.507798 162.745403 
L 224.564826 136.324869 
L 224.707398 83.71505 
L 224.728784 83.530687 
L 224.771555 84.189913 
L 224.835713 90.407169 
L 224.889177 123.70391 
L 225.017492 167.691613 
L 225.04957 168.082818 
L 225.09947 167.081612 
L 225.160063 160.152833 
L 225.209964 124.74649 
L 225.338278 83.880155 
L 225.370357 83.527747 
L 225.416693 84.413514 
L 225.484414 92.695398 
L 225.537879 139.779994 
L 225.676886 168.016166 
L 225.687579 168.078992 
L 225.730351 167.402995 
L 225.790944 161.859358 
L 225.844408 134.186929 
L 225.979851 83.834585 
L 226.008366 83.524362 
L 226.058266 84.54279 
L 226.118859 91.541516 
L 226.168759 127.696689 
L 226.300638 167.797097 
L 226.329152 168.077223 
L 226.375488 167.177546 
L 226.443209 158.821889 
L 226.496674 111.450448 
L 226.635681 83.588204 
L 226.646374 83.526343 
L 226.689146 84.218398 
L 226.749739 89.816873 
L 226.803203 117.949282 
L 226.935082 167.711851 
L 226.967161 168.082267 
L 227.013497 167.220204 
L 227.081218 159.066639 
L 227.131118 116.570539 
L 227.270126 83.616778 
L 227.287947 83.532702 
L 227.320026 83.966832 
L 227.380619 88.442701 
L 227.441212 116.570539 
L 227.580219 167.837779 
L 227.60517 168.082267 
L 227.651505 167.256445 
L 227.719227 159.307625 
L 227.769127 117.949282 
L 227.90457 83.690766 
L 227.925956 83.526343 
L 227.968728 84.278752 
L 228.029321 90.156844 
L 228.082785 120.971703 
L 228.2111 167.651914 
L 228.243178 168.077223 
L 228.296643 166.976171 
L 228.357236 159.551226 
L 228.407136 119.593194 
L 228.542579 83.69949 
L 228.563965 83.524362 
L 228.606736 84.245339 
L 228.663765 89.298041 
L 228.720794 119.116014 
L 228.852673 167.729099 
L 228.884751 168.078992 
L 228.931087 167.189775 
L 228.998809 158.889511 
L 229.052273 111.732786 
L 229.191281 83.590435 
L 229.201974 83.527747 
L 229.244745 84.207837 
L 229.305338 89.765017 
L 229.358802 117.549401 
L 229.494246 167.774108 
L 229.52276 168.082818 
L 229.57266 167.060274 
L 229.633253 160.04377 
L 229.683153 123.70391 
L 229.815032 83.808274 
L 229.843547 83.530687 
L 229.889882 84.433887 
L 229.957604 92.808125 
L 230.011068 140.250471 
L 230.150076 168.019884 
L 230.160769 168.081324 
L 230.20354 167.385401 
L 230.264133 161.772945 
L 230.317598 133.520304 
L 230.449477 83.893092 
L 230.481555 83.525278 
L 230.527891 84.390685 
L 230.595613 92.562601 
L 230.645513 135.151223 
L 230.78452 167.991699 
L 230.798777 168.075257 
L 230.83442 167.637609 
L 230.891449 163.65184 
L 230.948478 142.674446 
L 231.112435 83.544417 
L 231.116 83.546583 
L 231.119564 83.524778 
L 231.151643 83.897799 
L 231.219364 89.255693 
L 231.276393 118.660729 
L 231.408272 167.723006 
L 231.440351 168.080497 
L 231.486686 167.201578 
L 231.554408 158.956375 
L 231.607872 112.016689 
L 231.74688 83.592344 
L 231.757573 83.529435 
L 231.800344 84.197115 
L 231.860937 89.714006 
L 231.914402 117.168267 
L 232.049845 167.769904 
L 232.078359 168.082957 
L 232.128259 167.072992 
L 232.188852 160.10948 
L 232.238753 124.326915 
L 232.367067 83.876241 
L 232.399146 83.528844 
L 232.445482 84.421529 
L 232.513203 92.740209 
L 232.566668 139.968807 
L 232.680725 164.723718 
L 232.702111 164.555073 
L 232.787654 160.40599 
L 232.862504 141.434855 
L 232.990819 95.353017 
L 233.037155 95.987803 
L 233.136955 102.42319 
L 233.197548 127.194114 
L 233.300912 147.845302 
L 233.325862 147.674317 
L 233.429227 143.952982 
L 233.504077 132.78338 
L 233.607442 112.042455 
L 233.660906 112.789926 
L 233.796349 118.80634 
L 233.899714 131.620171 
L 234.017336 129.240304 
L 234.249015 125.803636 
L 236.904414 125.803636 
L 236.993522 123.314698 
L 237.0256 124.7741 
L 237.196686 137.029268 
L 237.267972 138.818616 
L 237.310744 137.421409 
L 237.349951 125.717833 
L 237.485394 103.592788 
L 237.570937 101.163308 
L 237.613709 102.812683 
L 237.663609 118.544088 
L 237.813309 160.654736 
L 237.877467 162.366417 
L 237.920238 160.725532 
L 237.973703 144.786434 
L 238.173303 77.308323 
L 238.18756 77.173487 
L 238.219639 78.006858 
L 238.276668 89.953795 
L 238.472704 186.169998 
L 238.561811 178.893881 
L 238.622404 140.045164 
L 238.764976 67.327112 
L 238.779233 67.185532 
L 238.81844 67.865822 
L 238.889726 76.327756 
L 238.946755 124.074514 
L 239.07507 182.238259 
L 239.10002 182.582125 
L 239.146355 181.55068 
L 239.217641 171.286687 
L 239.267541 123.303483 
L 239.395856 71.158711 
L 239.417242 70.874402 
L 239.463578 71.778732 
L 239.527735 79.230995 
L 239.584764 121.32089 
L 239.713078 178.556299 
L 239.738028 178.902028 
L 239.787928 177.775082 
L 239.852086 169.557123 
L 239.90555 126.326345 
L 240.033865 74.833634 
L 240.058815 74.548952 
L 240.101586 75.383781 
L 240.162179 81.46807 
L 240.219208 112.916028 
L 240.365344 175.132519 
L 240.376037 175.216229 
L 240.422373 174.361929 
L 240.490095 166.713597 
L 240.543559 128.914215 
L 240.671874 78.510829 
L 240.696824 78.226483 
L 240.743159 79.10956 
L 240.814445 87.611068 
L 240.86791 134.463272 
L 241.003353 171.456608 
L 241.01761 171.533984 
L 241.056817 170.886514 
L 241.124539 164.603499 
L 241.181568 130.924358 
L 241.309882 82.186261 
L 241.334832 81.909322 
L 241.384732 82.85908 
L 241.452454 90.37303 
L 241.505918 132.110645 
L 241.641362 167.907783 
L 241.662747 168.082911 
L 241.705519 167.361933 
L 241.762548 162.309232 
L 241.819576 132.491259 
L 241.951455 83.878173 
L 241.983534 83.528281 
L 242.02987 84.417498 
L 242.097591 92.717762 
L 242.151056 139.874487 
L 242.290063 168.016838 
L 242.300756 168.079526 
L 242.343528 167.399436 
L 242.404121 161.842256 
L 242.457585 134.057872 
L 242.593028 83.833165 
L 242.621543 83.524455 
L 242.671443 84.546998 
L 242.732036 91.563502 
L 242.781936 127.903363 
L 242.913815 167.798998 
L 242.942329 168.076586 
L 242.988665 167.173385 
L 243.056387 158.799148 
L 243.109851 111.356801 
L 243.248859 83.587389 
L 243.259551 83.525948 
L 243.302323 84.221872 
L 243.362916 89.834328 
L 243.41638 118.086969 
L 243.548259 167.71418 
L 243.580338 168.081994 
L 243.626674 167.216588 
L 243.694395 159.044671 
L 243.744295 116.45605 
L 243.883303 83.615574 
L 243.89756 83.532015 
L 243.933203 83.969664 
L 243.990232 87.955432 
L 244.047261 108.932827 
L 244.211218 168.062856 
L 244.214782 168.06069 
L 244.218347 168.082495 
L 244.250425 167.709474 
L 244.318147 162.35158 
L 244.375176 132.946544 
L 244.507055 83.884267 
L 244.539133 83.526776 
L 244.585469 84.405694 
L 244.653191 92.650897 
L 244.706655 139.590584 
L 244.845663 168.014929 
L 244.856355 168.077838 
L 244.899127 167.410158 
L 244.95972 161.893267 
L 245.013184 134.439006 
L 245.148628 83.837369 
L 245.177142 83.524315 
L 245.227042 84.53428 
L 245.287635 91.497793 
L 245.337535 127.280358 
L 245.46585 167.731032 
L 245.497928 168.078428 
L 245.544264 167.185743 
L 245.611986 158.867064 
L 245.66545 111.638466 
L 245.804458 83.589728 
L 245.815151 83.527244 
L 245.857922 84.211379 
L 245.918515 89.782213 
L 245.97198 117.680544 
L 246.107423 167.775551 
L 246.135937 168.082679 
L 246.185837 167.056098 
L 246.24643 160.021708 
L 246.29633 123.498371 
L 246.428209 83.806338 
L 246.456724 83.531343 
L 246.50306 84.438087 
L 246.570781 92.830976 
L 246.624246 140.343841 
L 246.763253 168.020734 
L 246.773946 168.08168 
L 246.816717 167.381954 
L 246.87731 161.755412 
L 246.930775 133.38035 
L 247.062654 83.890811 
L 247.094732 83.525593 
L 247.141068 84.394356 
L 247.20879 92.584604 
L 247.25869 135.264182 
L 247.397697 167.992857 
L 247.411955 168.07593 
L 247.447598 167.634796 
L 247.504626 163.640702 
L 247.561655 142.596545 
L 247.725613 83.544103 
L 247.729177 83.546352 
L 247.732741 83.524594 
L 247.76482 83.900223 
L 247.832541 89.269762 
L 247.88957 118.810076 
L 248.021449 167.725087 
L 248.053528 168.080028 
L 248.099863 167.197694 
L 248.167585 158.93416 
L 248.22105 111.92192 
L 248.360057 83.591743 
L 248.37075 83.528844 
L 248.413521 84.200702 
L 248.474114 89.73091 
L 248.527579 117.293317 
L 248.663022 167.771287 
L 248.691536 168.082957 
L 248.741437 167.068723 
L 248.80203 160.087662 
L 248.85193 124.118288 
L 248.980244 83.874357 
L 249.012323 83.529435 
L 249.058659 84.425606 
L 249.12638 92.762748 
L 249.179845 140.062928 
L 249.318852 168.018289 
L 249.329545 168.080497 
L 249.372317 167.392373 
L 249.43291 161.807773 
L 249.486374 133.793451 
L 249.618253 83.897799 
L 249.650332 83.524778 
L 249.696667 84.383508 
L 249.764389 92.518697 
L 249.814289 134.920647 
L 249.93904 166.789052 
L 249.949732 166.684747 
L 249.999633 165.17554 
L 250.085176 154.942821 
L 250.160026 102.022683 
L 250.249133 93.29672 
L 250.295469 94.084381 
L 250.388141 100.507332 
L 250.445169 120.931622 
L 250.555662 149.874453 
L 250.573484 149.786748 
L 250.634077 148.294451 
L 250.726749 141.132615 
L 250.865756 110.049037 
L 250.994071 113.455896 
L 251.079614 122.524845 
L 251.161593 133.493574 
L 251.222186 132.572131 
L 251.428915 125.096336 
L 251.614258 125.803636 
L 254.237579 125.69617 
L 254.266093 125.207925 
L 254.298172 126.968807 
L 254.529851 136.098383 
L 254.551237 135.790411 
L 254.594008 130.034524 
L 254.768659 105.268921 
L 254.825687 104.026373 
L 254.868459 105.554698 
L 254.914795 118.686756 
L 255.071624 157.959383 
L 255.128652 159.454174 
L 255.174988 157.835853 
L 255.228453 141.592663 
L 255.406667 80.765221 
L 255.438746 80.117471 
L 255.485082 81.818051 
L 255.538546 97.356155 
L 255.752404 183.60823 
L 255.770225 183.405227 
L 255.809433 180.16184 
L 255.870026 147.103788 
L 256.030419 66.746997 
L 256.04824 66.841146 
L 256.112398 70.570559 
L 256.176555 92.025018 
L 256.351205 183.029905 
L 256.397541 182.033355 
L 256.468827 171.940031 
L 256.522292 115.909089 
L 256.657735 70.536318 
L 256.671992 70.421568 
L 256.714764 71.306577 
L 256.775357 77.874635 
L 256.832385 111.987113 
L 256.974957 179.218874 
L 256.989214 179.343768 
L 257.024857 178.823124 
L 257.081886 174.418544 
L 257.142479 150.308975 
L 257.310001 74.09872 
L 257.327822 74.237554 
L 257.381287 76.6238 
L 257.449008 92.883737 
L 257.630787 175.661218 
L 257.69138 173.918849 
L 257.762666 160.358363 
L 257.948009 77.781709 
L 258.033553 81.41383 
L 258.09771 101.250243 
L 258.268796 171.985954 
L 258.293746 171.728484 
L 258.354339 168.333576 
L 258.418496 148.402235 
L 258.586018 81.468532 
L 258.610968 81.662551 
L 258.682254 85.998336 
L 258.742847 107.916172 
L 258.906805 168.305752 
L 258.910369 168.285911 
L 258.924626 168.18527 
L 258.985219 165.85518 
L 259.049377 151.682001 
L 259.23472 83.524594 
L 259.281056 84.380002 
L 259.348777 92.496782 
L 259.398677 134.802896 
L 259.537685 167.987954 
L 259.555506 168.07593 
L 259.587585 167.646153 
L 259.648178 163.192137 
L 259.708771 135.264182 
L 259.847779 83.774041 
L 259.872729 83.525593 
L 259.919064 84.344868 
L 259.986786 92.255659 
L 260.036686 133.38035 
L 260.172129 167.914829 
L 260.193515 168.08168 
L 260.236287 167.334289 
L 260.29688 161.486574 
L 260.350344 130.994295 
L 260.478659 83.961119 
L 260.510737 83.531343 
L 260.564202 84.624002 
L 260.624795 92.011311 
L 260.674695 131.683761 
L 260.810138 167.906193 
L 260.831524 168.082679 
L 260.874295 167.368473 
L 260.934888 161.684604 
L 260.988353 132.797197 
L 261.120232 83.882186 
L 261.15231 83.527244 
L 261.198646 84.409579 
L 261.266368 92.673113 
L 261.319832 139.685352 
L 261.45884 168.01553 
L 261.469533 168.078428 
L 261.512304 167.40657 
L 261.572897 161.876363 
L 261.626362 134.313956 
L 261.761805 83.835986 
L 261.790319 83.524315 
L 261.840219 84.53855 
L 261.900812 91.519611 
L 261.950712 127.488984 
L 262.079027 167.732916 
L 262.111106 168.077838 
L 262.157441 167.181667 
L 262.225163 158.844525 
L 262.278627 111.544345 
L 262.417635 83.588984 
L 262.428328 83.526776 
L 262.471099 84.2149 
L 262.531692 89.7995 
L 262.585157 117.813822 
L 262.717036 167.709474 
L 262.749114 168.082495 
L 262.79545 167.223765 
L 262.863172 159.088576 
L 262.913072 116.686626 
L 263.052079 83.618027 
L 263.069901 83.532015 
L 263.101979 83.963983 
L 263.162572 88.428876 
L 263.223165 116.45605 
L 263.362173 167.835505 
L 263.387123 168.081994 
L 263.433459 167.259445 
L 263.50118 159.329605 
L 263.551081 118.086969 
L 263.686524 83.691614 
L 263.70791 83.525948 
L 263.750681 84.275883 
L 263.811274 90.138776 
L 263.864739 120.791204 
L 263.993053 167.649029 
L 264.025132 168.076586 
L 264.078596 166.979714 
L 264.139189 159.573579 
L 264.189089 119.757137 
L 264.324533 83.700279 
L 264.345918 83.524455 
L 264.38869 84.242087 
L 264.445719 89.283876 
L 264.502747 118.961832 
L 264.634626 167.727118 
L 264.666705 168.079526 
L 264.713041 167.193759 
L 264.780762 158.911874 
L 264.834227 111.827278 
L 264.973234 83.591107 
L 264.983927 83.528281 
L 265.026699 84.204277 
L 265.087292 89.747914 
L 265.140756 117.420343 
L 265.276199 167.772687 
L 265.304714 168.082911 
L 265.354614 167.064483 
L 265.415207 160.065757 
L 265.465107 123.910584 
L 265.596986 83.810176 
L 265.6255 83.53005 
L 265.671836 84.429726 
L 265.739557 92.785384 
L 265.793022 140.156825 
L 265.932029 168.019069 
L 265.942722 168.08093 
L 265.985494 167.388874 
L 266.046087 161.7904 
L 266.099551 133.65799 
L 266.23143 83.895422 
L 266.263509 83.525006 
L 266.309845 84.387069 
L 266.377566 92.540634 
L 266.427466 135.036734 
L 266.566474 167.990495 
L 266.584295 168.074571 
L 266.616374 167.64044 
L 266.676967 163.164571 
L 266.73756 135.036734 
L 266.876567 83.769494 
L 266.901518 83.525006 
L 266.947853 84.350828 
L 267.015575 92.299648 
L 267.065475 133.65799 
L 267.200918 167.916507 
L 267.222304 168.08093 
L 267.254383 167.10248 
L 267.336361 156.79696 
L 267.396954 107.905326 
L 267.500319 91.246188 
L 267.532398 91.599742 
L 267.625069 96.740472 
L 267.692791 116.654866 
L 267.813977 151.920811 
L 267.842491 151.611223 
L 267.931599 148.013918 
L 268.006449 135.200166 
L 268.116942 108.047054 
L 268.173971 108.842447 
L 268.291592 114.703358 
L 268.419907 135.407924 
L 268.566043 131.927161 
L 268.701486 123.667411 
L 268.844058 125.803636 
L 271.567179 125.898158 
L 271.788165 133.444978 
L 271.838066 130.820051 
L 272.084002 106.861214 
L 272.116081 107.717077 
L 272.165981 118.984473 
L 272.329938 155.236339 
L 272.386967 156.558444 
L 272.429738 154.94031 
L 272.479639 140.927775 
L 272.664982 83.552925 
L 272.693496 83.052543 
L 272.736268 84.477954 
L 272.789732 98.540899 
L 273.010718 180.665183 
L 273.02854 180.332984 
L 273.07844 174.294558 
L 273.12834 136.578426 
L 273.260219 66.640975 
L 273.285169 66.294243 
L 273.331505 67.38891 
L 273.402791 78.291434 
L 273.452691 130.117623 
L 273.58457 183.23956 
L 273.602391 183.471457 
L 273.652291 182.324745 
L 273.716449 173.59034 
L 273.769913 128.897487 
L 273.898228 70.322949 
L 273.923178 69.970946 
L 273.969514 70.969498 
L 274.0408 80.944666 
L 274.094264 136.34629 
L 274.229707 179.684989 
L 274.243964 179.788391 
L 274.286736 178.907837 
L 274.350893 171.664616 
L 274.407922 131.406784 
L 274.536237 74.004657 
L 274.561187 73.653979 
L 274.611087 74.739976 
L 274.675244 82.731725 
L 274.728708 124.014779 
L 274.857023 175.822183 
L 274.881973 176.113571 
L 274.928309 175.173279 
L 274.999595 166.068211 
L 275.049495 123.835759 
L 275.17781 77.578852 
L 275.199195 77.341583 
L 275.245531 78.166958 
L 275.309688 84.759574 
L 275.366717 121.638859 
L 275.495032 172.144684 
L 275.519982 172.433471 
L 275.569882 171.413831 
L 275.634039 164.179705 
L 275.687504 126.490105 
L 275.815818 81.250685 
L 275.840768 81.017345 
L 275.88354 81.775431 
L 275.944133 87.11386 
L 276.001162 114.469886 
L 276.147298 168.683772 
L 276.157991 168.748638 
L 276.200762 168.090556 
L 276.264919 162.660185 
L 276.321948 135.151223 
L 276.460956 83.771767 
L 276.485906 83.525278 
L 276.532242 84.347827 
L 276.599963 92.277668 
L 276.649863 133.520304 
L 276.785306 167.915659 
L 276.806692 168.081324 
L 276.849464 167.331389 
L 276.910057 161.468497 
L 276.963521 130.816069 
L 277.091836 83.958243 
L 277.123914 83.530687 
L 277.177379 84.627558 
L 277.237972 92.033694 
L 277.287872 131.850136 
L 277.423315 167.906994 
L 277.444701 168.082818 
L 277.487472 167.365185 
L 277.544501 162.323396 
L 277.60153 132.64544 
L 277.733409 83.880155 
L 277.765487 83.527747 
L 277.811823 84.413514 
L 277.879545 92.695398 
L 277.933009 139.779994 
L 278.072017 168.016166 
L 278.08271 168.078992 
L 278.125481 167.402995 
L 278.186074 161.859358 
L 278.239539 134.186929 
L 278.374982 83.834585 
L 278.403496 83.524362 
L 278.453396 84.54279 
L 278.513989 91.541516 
L 278.563889 127.696689 
L 278.695768 167.797097 
L 278.724283 168.077223 
L 278.770619 167.177546 
L 278.83834 158.821889 
L 278.891805 111.450448 
L 279.030812 83.588204 
L 279.041505 83.526343 
L 279.084276 84.218398 
L 279.144869 89.816873 
L 279.198334 117.949282 
L 279.330213 167.711851 
L 279.362291 168.082267 
L 279.408627 167.220204 
L 279.476349 159.066639 
L 279.526249 116.570539 
L 279.665256 83.616778 
L 279.683078 83.532702 
L 279.715157 83.966832 
L 279.77575 88.442701 
L 279.836343 116.570539 
L 279.97535 167.837779 
L 280.0003 168.082267 
L 280.046636 167.256445 
L 280.114358 159.307625 
L 280.164258 117.949282 
L 280.299701 83.690766 
L 280.321087 83.526343 
L 280.363858 84.278752 
L 280.424451 90.156844 
L 280.477916 120.971703 
L 280.60623 167.651914 
L 280.638309 168.077223 
L 280.691773 166.976171 
L 280.752366 159.551226 
L 280.802266 119.593194 
L 280.93771 83.69949 
L 280.959095 83.524362 
L 281.001867 84.245339 
L 281.058896 89.298041 
L 281.115924 119.116014 
L 281.247803 167.729099 
L 281.279882 168.078992 
L 281.326218 167.189775 
L 281.393939 158.889511 
L 281.447404 111.732786 
L 281.586411 83.590435 
L 281.597104 83.527747 
L 281.639876 84.207837 
L 281.700469 89.765017 
L 281.753933 117.549401 
L 281.889376 167.774108 
L 281.917891 168.082818 
L 281.967791 167.060274 
L 282.028384 160.04377 
L 282.078284 123.70391 
L 282.210163 83.808274 
L 282.238677 83.530687 
L 282.285013 84.433887 
L 282.352735 92.808125 
L 282.406199 140.250471 
L 282.545207 168.019884 
L 282.555899 168.081324 
L 282.598671 167.385401 
L 282.659264 161.772945 
L 282.712728 133.520304 
L 282.844607 83.893092 
L 282.876686 83.525278 
L 282.923022 84.390685 
L 282.990743 92.562601 
L 283.040643 135.151223 
L 283.179651 167.991699 
L 283.193908 168.075257 
L 283.229551 167.637609 
L 283.28658 163.65184 
L 283.343609 142.674446 
L 283.507566 83.544417 
L 283.51113 83.546583 
L 283.514695 83.524778 
L 283.546773 83.897799 
L 283.614495 89.255693 
L 283.671524 118.660729 
L 283.803403 167.723006 
L 283.835481 168.080497 
L 283.881817 167.201578 
L 283.949539 158.956375 
L 284.003003 112.016689 
L 284.142011 83.592344 
L 284.152703 83.529435 
L 284.195475 84.197115 
L 284.256068 89.714006 
L 284.309532 117.168267 
L 284.444976 167.769904 
L 284.47349 168.082957 
L 284.52339 167.072992 
L 284.583983 160.10948 
L 284.633883 124.326915 
L 284.762198 83.876241 
L 284.794276 83.528844 
L 284.840612 84.421529 
L 284.908334 92.740209 
L 284.961798 139.968807 
L 285.100806 168.017545 
L 285.111499 168.080028 
L 285.15427 167.395894 
L 285.214863 161.82506 
L 285.268328 133.926729 
L 285.403771 83.831721 
L 285.432285 83.524594 
L 285.482185 84.551175 
L 285.542778 91.585565 
L 285.592678 128.108902 
L 285.724557 167.800935 
L 285.753072 168.07593 
L 285.799407 167.169186 
L 285.867129 158.776296 
L 285.920594 111.263432 
L 286.059601 83.586538 
L 286.070294 83.525593 
L 286.113065 84.225318 
L 286.173658 89.85186 
L 286.227123 118.226922 
L 286.359002 167.716461 
L 286.39108 168.08168 
L 286.437416 167.212917 
L 286.505138 159.022668 
L 286.555038 116.343091 
L 286.694045 83.614416 
L 286.708303 83.531343 
L 286.743946 83.972476 
L 286.800974 87.966571 
L 286.858003 109.010728 
L 287.021961 168.06317 
L 287.025525 168.060921 
L 287.029089 168.082679 
L 287.061168 167.70705 
L 287.128889 162.337511 
L 287.185918 132.797197 
L 287.317797 83.882186 
L 287.349876 83.527244 
L 287.396211 84.409579 
L 287.463933 92.673113 
L 287.517397 139.685352 
L 287.656405 168.01553 
L 287.667098 168.078428 
L 287.709869 167.40657 
L 287.770462 161.876363 
L 287.823927 134.313956 
L 287.95937 83.835986 
L 287.987884 83.524315 
L 288.037785 84.53855 
L 288.098378 91.519611 
L 288.148278 127.488984 
L 288.276592 167.732916 
L 288.308671 168.077838 
L 288.355007 167.181667 
L 288.422728 158.844525 
L 288.476193 111.544345 
L 288.6152 83.588984 
L 288.625893 83.526776 
L 288.668665 84.2149 
L 288.729258 89.7995 
L 288.782722 117.813822 
L 288.914601 167.709474 
L 288.94668 168.082495 
L 288.993015 167.223765 
L 289.060737 159.088576 
L 289.110637 116.686626 
L 289.249645 83.618027 
L 289.267466 83.532015 
L 289.299545 83.963983 
L 289.360138 88.428876 
L 289.420731 116.45605 
L 289.559738 167.835505 
L 289.584688 168.081994 
L 289.631024 167.259445 
L 289.698746 159.329605 
L 289.748646 118.086969 
L 289.884089 83.691614 
L 289.905475 83.525948 
L 289.948246 84.275883 
L 290.008839 90.138776 
L 290.062304 120.791204 
L 290.190618 167.649029 
L 290.222697 168.076586 
L 290.276162 166.979714 
L 290.336755 159.573579 
L 290.386655 119.757137 
L 290.522098 83.700279 
L 290.543484 83.524455 
L 290.586255 84.242087 
L 290.643284 89.283876 
L 290.700313 118.961832 
L 290.832191 167.727118 
L 290.86427 168.079526 
L 290.910606 167.193759 
L 290.978328 158.911874 
L 291.031792 111.827278 
L 291.170799 83.591107 
L 291.181492 83.528281 
L 291.224264 84.204277 
L 291.284857 89.747914 
L 291.338321 117.420343 
L 291.473765 167.772687 
L 291.502279 168.082911 
L 291.552179 167.064483 
L 291.612772 160.065757 
L 291.662672 123.910584 
L 291.794551 83.810176 
L 291.823065 83.53005 
L 291.869401 84.429726 
L 291.937123 92.785384 
L 291.990587 140.156825 
L 292.129595 168.019069 
L 292.140288 168.08093 
L 292.183059 167.388874 
L 292.243652 161.7904 
L 292.297117 133.65799 
L 292.428995 83.895422 
L 292.461074 83.525006 
L 292.50741 84.387069 
L 292.575132 92.540634 
L 292.625032 135.036734 
L 292.764039 167.990495 
L 292.781861 168.074571 
L 292.813939 167.64044 
L 292.874532 163.164571 
L 292.935125 135.036734 
L 293.074133 83.769494 
L 293.099083 83.525006 
L 293.145419 84.350828 
L 293.21314 92.299648 
L 293.26304 133.65799 
L 293.398484 167.916507 
L 293.419869 168.08093 
L 293.462641 167.328521 
L 293.523234 161.450428 
L 293.576698 130.635569 
L 293.705013 83.955359 
L 293.737092 83.53005 
L 293.790556 84.631101 
L 293.851149 92.056046 
L 293.901049 132.014079 
L 294.036492 167.907783 
L 294.057878 168.082911 
L 294.10065 167.361933 
L 294.157678 162.309232 
L 294.214707 132.491259 
L 294.346586 83.878173 
L 294.378665 83.528281 
L 294.425 84.417498 
L 294.492722 92.717762 
L 294.546186 139.874487 
L 294.685194 168.016838 
L 294.695887 168.079526 
L 294.738658 167.399436 
L 294.799251 161.842256 
L 294.852716 134.057872 
L 294.988159 83.833165 
L 295.016673 83.524455 
L 295.066573 84.546998 
L 295.127166 91.563502 
L 295.177067 127.903363 
L 295.308945 167.798998 
L 295.33746 168.076586 
L 295.383796 167.173385 
L 295.451517 158.799148 
L 295.504982 111.356801 
L 295.643989 83.587389 
L 295.654682 83.525948 
L 295.697454 84.221872 
L 295.758047 89.834328 
L 295.811511 118.086969 
L 295.94339 167.71418 
L 295.975469 168.081994 
L 296.021804 167.216588 
L 296.089526 159.044671 
L 296.139426 116.45605 
L 296.278434 83.615574 
L 296.292691 83.532015 
L 296.328334 83.969664 
L 296.385362 87.955432 
L 296.442391 108.932827 
L 296.606349 168.062856 
L 296.609913 168.06069 
L 296.613477 168.082495 
L 296.645556 167.709474 
L 296.713278 162.35158 
L 296.770306 132.946544 
L 296.902185 83.884267 
L 296.934264 83.526776 
L 296.9806 84.405694 
L 297.048321 92.650897 
L 297.101786 139.590584 
L 297.240793 168.014929 
L 297.251486 168.077838 
L 297.294258 167.410158 
L 297.354851 161.893267 
L 297.408315 134.439006 
L 297.543758 83.837369 
L 297.572273 83.524315 
L 297.622173 84.53428 
L 297.682766 91.497793 
L 297.732666 127.280358 
L 297.86098 167.731032 
L 297.893059 168.078428 
L 297.939395 167.185743 
L 298.007117 158.867064 
L 298.060581 111.638466 
L 298.199588 83.589728 
L 298.210281 83.527244 
L 298.253053 84.211379 
L 298.313646 89.782213 
L 298.36711 117.680544 
L 298.502553 167.775551 
L 298.531068 168.082679 
L 298.580968 167.056098 
L 298.641561 160.021708 
L 298.691461 123.498371 
L 298.82334 83.806338 
L 298.851854 83.531343 
L 298.89819 84.438087 
L 298.965912 92.830976 
L 299.019376 140.343841 
L 299.158384 168.020734 
L 299.169077 168.08168 
L 299.211848 167.381954 
L 299.272441 161.755412 
L 299.325906 133.38035 
L 299.457784 83.890811 
L 299.489863 83.525593 
L 299.536199 84.394356 
L 299.60392 92.584604 
L 299.653821 135.264182 
L 299.792828 167.992857 
L 299.807085 168.07593 
L 299.842728 167.634796 
L 299.899757 163.640702 
L 299.956786 142.596545 
L 300.120743 83.544103 
L 300.124308 83.546352 
L 300.127872 83.524594 
L 300.15995 83.900223 
L 300.227672 89.269762 
L 300.284701 118.810076 
L 300.41658 167.725087 
L 300.448658 168.080028 
L 300.494994 167.197694 
L 300.562716 158.93416 
L 300.61618 111.92192 
L 300.755188 83.591743 
L 300.765881 83.528844 
L 300.808652 84.200702 
L 300.869245 89.73091 
L 300.922709 117.293317 
L 301.058153 167.771287 
L 301.086667 168.082957 
L 301.136567 167.068723 
L 301.19716 160.087662 
L 301.24706 124.118288 
L 301.375375 83.874357 
L 301.407454 83.529435 
L 301.453789 84.425606 
L 301.521511 92.762748 
L 301.574975 140.062928 
L 301.713983 168.018289 
L 301.724676 168.080497 
L 301.767447 167.392373 
L 301.82804 161.807773 
L 301.881505 133.793451 
L 302.006255 86.934926 
L 302.013384 86.938585 
L 302.073977 88.50509 
L 302.155955 97.190707 
L 302.212984 136.383073 
L 302.323477 156.193532 
L 302.344863 155.986887 
L 302.416149 153.450715 
L 302.494563 143.173032 
L 302.630007 103.815776 
L 302.726243 106.100338 
L 302.81535 114.369185 
L 302.932972 139.51016 
L 303.029208 137.620844 
L 303.143265 130.591881 
L 303.228808 120.036411 
L 303.310787 121.496474 
L 303.588802 125.803636 
L 306.240637 125.891167 
L 306.418852 131.864561 
L 306.465188 128.828602 
L 306.636274 111.672707 
L 306.650531 111.874692 
L 306.689738 115.621771 
L 306.860824 148.363055 
L 306.921417 143.145154 
L 307.088939 94.694038 
L 307.167354 105.637528 
L 307.327747 165.537983 
L 307.381211 160.498875 
L 307.427547 124.10304 
L 307.559426 77.43728 
L 307.577248 77.797512 
L 307.620019 84.111094 
L 307.666355 129.823386 
L 307.798234 182.954161 
L 307.848134 175.92535 
L 307.901598 131.191197 
L 308.01922 69.569726 
L 308.029913 69.721122 
L 308.065556 72.558581 
L 308.126149 98.745376 
L 308.258028 180.726837 
L 308.307928 177.125551 
L 308.364957 151.590133 
L 308.496836 72.193498 
L 308.543171 75.229968 
L 308.603764 101.267047 
L 308.732079 178.116667 
L 308.778415 175.522909 
L 308.839008 152.474193 
L 308.970887 74.789713 
L 309.024351 78.446917 
L 309.08138 103.742123 
L 309.209694 175.513269 
L 309.248902 173.70328 
L 309.309495 155.603352 
L 309.448502 77.40275 
L 309.519788 84.800096 
L 309.569688 123.948165 
L 309.68731 172.892828 
L 309.698003 172.7438 
L 309.73721 169.726246 
L 309.794239 147.599001 
L 309.922553 80.018271 
L 309.968889 82.282082 
L 310.025918 99.576158 
L 310.161361 170.290839 
L 310.221954 165.992367 
L 310.278983 137.386674 
L 310.400169 82.619121 
L 310.421555 83.059024 
L 310.475019 89.939591 
L 310.524919 130.572594 
L 310.638977 167.681199 
L 310.656798 167.358961 
L 310.706698 162.067253 
L 310.760163 128.191677 
L 310.877784 85.236251 
L 310.888477 85.370159 
L 310.927684 87.963354 
L 310.984713 106.727932 
L 311.120156 165.996593 
L 311.162928 163.90049 
L 311.223521 144.402642 
L 311.358964 85.607353 
L 311.398171 87.423193 
L 311.4552 102.686719 
L 311.597772 166.001409 
L 311.651236 162.336932 
L 311.704701 139.952228 
L 311.829451 85.60622 
L 311.86153 86.413969 
L 311.922123 97.943502 
L 312.068259 166.000983 
L 312.157366 154.830431 
L 312.307066 85.60888 
L 312.403302 100.239092 
L 312.549438 165.998392 
L 312.620724 158.962832 
L 312.670625 117.25185 
L 312.788246 85.60629 
L 312.806068 86.007039 
L 312.863096 93.805293 
L 312.920125 145.583877 
L 313.027054 166.001053 
L 313.055568 164.96435 
L 313.109033 155.22029 
L 313.258733 85.605864 
L 313.354969 99.728348 
L 313.497541 165.999919 
L 313.575955 158.288245 
L 313.632984 107.20463 
L 313.739913 85.61068 
L 313.771992 86.765948 
L 313.82902 98.627663 
L 313.978721 165.999919 
L 314.053571 157.902077 
L 314.1106 106.257866 
L 314.217528 85.605864 
L 314.246043 86.621058 
L 314.299507 96.258949 
L 314.449208 166.001053 
L 314.545443 152.045773 
L 314.688015 85.60629 
L 314.76643 93.227419 
L 314.823458 144.159235 
L 314.926823 165.998392 
L 314.962466 164.861572 
L 315.019495 153.12236 
L 315.169195 85.60888 
L 315.24761 94.708614 
L 315.318895 154.830431 
L 315.408003 166.000983 
L 315.450774 163.786577 
L 315.511367 143.65642 
L 315.64681 85.60622 
L 315.678889 86.876606 
L 315.739482 101.267418 
L 315.87849 166.001409 
L 315.949776 160.209088 
L 315.999676 128.132825 
L 316.117297 85.607353 
L 316.12799 85.682087 
L 316.160069 87.312803 
L 316.217098 101.956437 
L 316.359669 165.996593 
L 316.420262 161.354592 
L 316.473727 132.817184 
L 316.598477 85.607353 
L 316.605606 85.696138 
L 316.644813 88.20326 
L 316.701842 107.696384 
L 316.837285 166.001409 
L 316.872928 164.441392 
L 316.929957 150.510529 
L 317.068964 85.60622 
L 317.143814 92.179815 
L 317.193714 130.9879 
L 317.307772 166.000983 
L 317.325593 165.773824 
L 317.371929 161.54279 
L 317.425394 134.355423 
L 317.54658 85.60888 
L 317.560837 85.735333 
L 317.614301 90.864566 
L 317.667766 125.803636 
L 317.788952 165.998392 
L 317.79608 165.91421 
L 317.835287 163.440406 
L 317.892316 144.159235 
L 318.027759 85.60629 
L 318.066967 87.451016 
L 318.123995 102.880649 
L 318.266567 166.001053 
L 318.320031 162.290029 
L 318.37706 135.651211 
L 318.498246 85.605864 
L 318.516068 85.821937 
L 318.562403 90.002728 
L 318.615868 116.796764 
L 318.737054 165.999919 
L 318.751311 165.879632 
L 318.804776 160.803452 
L 318.85824 126.587775 
L 318.979426 85.61068 
L 318.986555 85.689792 
L 319.022197 87.706783 
L 319.08279 107.20463 
L 319.218234 165.999919 
L 319.257441 163.487836 
L 319.321598 142.843341 
L 319.442784 91.169376 
L 319.48912 93.300303 
L 319.556842 109.778184 
L 319.674463 154.390511 
L 319.735056 151.747526 
L 319.802778 134.343651 
L 319.909707 103.243207 
L 319.952478 104.370865 
L 320.023764 112.997312 
L 320.141386 142.367358 
L 320.226929 139.036807 
L 320.287522 125.803636 
L 320.369501 115.160415 
L 320.412272 115.875015 
L 320.508508 121.907286 
L 320.586923 130.748527 
L 320.665337 129.232822 
L 320.77583 125.533122 
L 320.889888 125.803636 
L 323.559545 125.803636 
L 323.602316 126.679001 
L 323.63083 124.88698 
L 323.798352 117.905043 
L 323.819738 118.332429 
L 323.858945 125.169844 
L 323.994388 141.595695 
L 324.015774 141.899988 
L 324.054981 140.430655 
L 324.097753 126.187196 
L 324.229632 101.407093 
L 324.243889 101.235951 
L 324.275968 102.235225 
L 324.325868 115.002924 
L 324.475568 158.947323 
L 324.49339 158.648528 
L 324.539726 152.346281 
L 324.714376 84.050787 
L 324.796355 103.041328 
L 324.946055 176.200347 
L 324.988827 173.138439 
L 325.042291 143.929381 
L 325.167041 68.574176 
L 325.19912 69.959516 
L 325.259713 86.865672 
L 325.405849 181.720833 
L 325.487828 168.987996 
L 325.548421 93.334669 
L 325.641093 71.193119 
L 325.683864 73.39193 
L 325.744457 94.457497 
L 325.8799 179.117974 
L 325.944058 173.291713 
L 326.001086 132.595072 
L 326.118708 73.790805 
L 326.129401 73.917742 
L 326.168608 77.014218 
L 326.225637 100.196603 
L 326.357516 176.509867 
L 326.41098 172.729193 
L 326.471573 142.125337 
L 326.596324 76.40791 
L 326.624838 77.380581 
L 326.681867 88.963581 
L 326.835131 173.886757 
L 326.931367 155.84794 
L 327.070375 79.016769 
L 327.148789 87.64338 
L 327.198689 136.132217 
L 327.309182 171.290399 
L 327.334132 170.68795 
L 327.394726 160.295329 
L 327.54799 81.621634 
L 327.651355 101.598287 
L 327.786798 168.676902 
L 327.843827 164.844933 
L 327.900855 139.20511 
L 328.025606 84.24171 
L 328.05412 85.097851 
L 328.114713 96.408685 
L 328.260849 166.063517 
L 328.357085 152.833202 
L 328.506785 85.60629 
L 328.581636 93.805293 
L 328.638664 145.583877 
L 328.745593 166.001053 
L 328.774108 164.96435 
L 328.827572 155.22029 
L 328.977272 85.605864 
L 329.073508 99.728348 
L 329.21608 165.999919 
L 329.294495 158.288245 
L 329.351523 107.20463 
L 329.458452 85.61068 
L 329.490531 86.765948 
L 329.547559 98.627663 
L 329.69726 165.999919 
L 329.77211 157.902077 
L 329.829139 106.257866 
L 329.936068 85.605864 
L 329.964582 86.621058 
L 330.018046 96.258949 
L 330.167747 166.001053 
L 330.263983 152.045773 
L 330.406554 85.60629 
L 330.484969 93.227419 
L 330.541998 144.159235 
L 330.645362 165.998392 
L 330.681005 164.861572 
L 330.738034 153.12236 
L 330.887734 85.60888 
L 330.966149 94.708614 
L 331.037435 154.830431 
L 331.126542 166.000983 
L 331.169313 163.786577 
L 331.229906 143.65642 
L 331.36535 85.60622 
L 331.397428 86.876606 
L 331.458021 101.267418 
L 331.597029 166.001409 
L 331.668315 160.209088 
L 331.718215 128.132825 
L 331.835837 85.607353 
L 331.846529 85.682087 
L 331.878608 87.312803 
L 331.935637 101.956437 
L 332.078209 165.996593 
L 332.138802 161.354592 
L 332.192266 132.817184 
L 332.317016 85.607353 
L 332.324145 85.696138 
L 332.363352 88.20326 
L 332.420381 107.696384 
L 332.555824 166.001409 
L 332.591467 164.441392 
L 332.648496 150.510529 
L 332.787503 85.60622 
L 332.862353 92.179815 
L 332.912254 130.9879 
L 333.026311 166.000983 
L 333.044132 165.773824 
L 333.090468 161.54279 
L 333.143933 134.355423 
L 333.265119 85.60888 
L 333.279376 85.735333 
L 333.33284 90.864566 
L 333.386305 125.803636 
L 333.507491 165.998392 
L 333.514619 165.91421 
L 333.553827 163.440406 
L 333.610855 144.159235 
L 333.746298 85.60629 
L 333.785506 87.451016 
L 333.842534 102.880649 
L 333.985106 166.001053 
L 334.038571 162.290029 
L 334.095599 135.651211 
L 334.216785 85.605864 
L 334.234607 85.821937 
L 334.280943 90.002728 
L 334.334407 116.796764 
L 334.455593 165.999919 
L 334.46985 165.879632 
L 334.523315 160.803452 
L 334.576779 126.587775 
L 334.697965 85.61068 
L 334.705094 85.689792 
L 334.740737 87.706783 
L 334.80133 107.20463 
L 334.936773 165.999919 
L 334.97598 164.18408 
L 335.033009 148.920553 
L 335.175581 85.605864 
L 335.229045 89.270341 
L 335.282509 111.655044 
L 335.40726 166.001053 
L 335.439338 165.193304 
L 335.499931 153.663771 
L 335.646068 85.60629 
L 335.735175 96.776841 
L 335.884875 165.998392 
L 335.981111 151.368181 
L 336.127247 85.60888 
L 336.198533 92.64444 
L 336.248433 134.355423 
L 336.366055 166.000983 
L 336.383876 165.600233 
L 336.440905 157.80198 
L 336.497934 106.023396 
L 336.590606 86.528481 
L 336.633377 88.507717 
L 336.697534 103.437286 
L 336.825849 159.015161 
L 336.900699 153.81115 
L 336.957728 127.541285 
L 337.057528 98.630971 
L 337.082478 99.012491 
L 337.153764 105.620455 
L 337.289207 146.942083 
L 337.410393 137.434751 
L 337.524451 110.645501 
L 337.609994 113.67735 
L 337.670587 124.099163 
L 337.749001 135.08034 
L 337.795337 134.37187 
L 337.898702 128.396427 
L 337.962859 122.121511 
L 338.041273 123.530769 
L 338.233745 125.803636 
L 340.885581 125.803636 
L 340.885581 125.803636 
" clip-path="url(#p8db5671de4)" style="fill: none; stroke: #0000ff; stroke-width: 2; stroke-linecap: square"/>
   </g>
   <g id="line2d_3">
    <defs>
     <path id="m19b78ea864" d="M 3 0 
L -3 -3 
L -3 3 
z
" style="stroke: #000000; stroke-linejoin: miter"/>
    </defs>
    <g>
     <use xlink:href="#m19b78ea864" x="356.603942" y="125.803636" style="stroke: #000000; stroke-linejoin: miter"/>
    </g>
   </g>
   <g id="line2d_4">
    <defs>
     <path id="mcce8df84a1" d="M 0 -3 
L -3 3 
L 3 3 
z
" style="stroke: #000000; stroke-linejoin: miter"/>
    </defs>
    <g>
     <use xlink:href="#mcce8df84a1" x="26.518361" y="30.528" style="stroke: #000000; stroke-linejoin: miter"/>
    </g>
   </g>
   <g id="patch_3">
    <path d="M 26.518361 205.2 
L 26.518361 30.528 
" style="fill: none; stroke: #000000; stroke-width: 2; stroke-linejoin: miter; stroke-linecap: square"/>
   </g>
   <g id="patch_4">
    <path d="M 10.8 125.803636 
L 356.603942 125.803636 
" style="fill: none; stroke: #000000; stroke-width: 2; stroke-linejoin: miter; stroke-linecap: square"/>
   </g>
   <g id="text_2">
    <!-- t / s -->
    <g transform="translate(395.900468 129.666761) scale(0.14 -0.14)">
     <defs>
      <path id="DejaVuSans-74" d="M 1172 4494 
L 1172 3500 
L 2356 3500 
L 2356 3053 
L 1172 3053 
L 1172 1153 
Q 1172 725 1289 603 
Q 1406 481 1766 481 
L 2356 481 
L 2356 0 
L 1766 0 
Q 1100 0 847 248 
Q 594 497 594 1153 
L 594 3053 
L 172 3053 
L 172 3500 
L 594 3500 
L 594 4494 
L 1172 4494 
z
" transform="scale(0.015625)"/>
      <path id="DejaVuSans-20" transform="scale(0.015625)"/>
      <path id="DejaVuSans-2f" d="M 1625 4666 
L 2156 4666 
L 531 -594 
L 0 -594 
L 1625 4666 
z
" transform="scale(0.015625)"/>
      <path id="DejaVuSans-73" d="M 2834 3397 
L 2834 2853 
Q 2591 2978 2328 3040 
Q 2066 3103 1784 3103 
Q 1356 3103 1142 2972 
Q 928 2841 928 2578 
Q 928 2378 1081 2264 
Q 1234 2150 1697 2047 
L 1894 2003 
Q 2506 1872 2764 1633 
Q 3022 1394 3022 966 
Q 3022 478 2636 193 
Q 2250 -91 1575 -91 
Q 1294 -91 989 -36 
Q 684 19 347 128 
L 347 722 
Q 666 556 975 473 
Q 1284 391 1588 391 
Q 1994 391 2212 530 
Q 2431 669 2431 922 
Q 2431 1156 2273 1281 
Q 2116 1406 1581 1522 
L 1381 1569 
Q 847 1681 609 1914 
Q 372 2147 372 2553 
Q 372 3047 722 3315 
Q 1072 3584 1716 3584 
Q 2034 3584 2315 3537 
Q 2597 3491 2834 3397 
z
" transform="scale(0.015625)"/>
     </defs>
     <use xlink:href="#DejaVuSans-74"/>
     <use xlink:href="#DejaVuSans-20" x="39.208984"/>
     <use xlink:href="#DejaVuSans-2f" x="70.996094"/>
     <use xlink:href="#DejaVuSans-20" x="104.6875"/>
     <use xlink:href="#DejaVuSans-73" x="136.474609"/>
    </g>
   </g>
   <g id="text_3">
    <!-- A -->
    <g transform="translate(21.729923 21.264728) scale(0.14 -0.14)">
     <defs>
      <path id="DejaVuSans-41" d="M 2188 4044 
L 1331 1722 
L 3047 1722 
L 2188 4044 
z
M 1831 4666 
L 2547 4666 
L 4325 0 
L 3669 0 
L 3244 1197 
L 1141 1197 
L 716 0 
L 50 0 
L 1831 4666 
z
" transform="scale(0.015625)"/>
     </defs>
     <use xlink:href="#DejaVuSans-41"/>
    </g>
   </g>
  </g>
 </g>
 <defs>
  <clipPath id="p8db5671de4">
   <rect x="10.8" y="30.528" width="345.803942" height="174.672"/>
  </clipPath>
 </defs>
</svg>
