<?xml version="1.0" encoding="utf-8" standalone="no"?>
<!DOCTYPE svg PUBLIC "-//W3C//DTD SVG 1.1//EN"
  "http://www.w3.org/Graphics/SVG/1.1/DTD/svg11.dtd">
<svg xmlns:xlink="http://www.w3.org/1999/xlink" width="432pt" height="216pt" viewBox="0 0 432 216" xmlns="http://www.w3.org/2000/svg" version="1.1">
 <metadata>
  <rdf:RDF xmlns:dc="http://purl.org/dc/elements/1.1/" xmlns:cc="http://creativecommons.org/ns#" xmlns:rdf="http://www.w3.org/1999/02/22-rdf-syntax-ns#">
   <cc:Work>
    <dc:type rdf:resource="http://purl.org/dc/dcmitype/StillImage"/>
    <dc:date>2025-10-21T17:25:26.032165</dc:date>
    <dc:format>image/svg+xml</dc:format>
    <dc:creator>
     <cc:Agent>
      <dc:title>Matplotlib v3.9.4, https://matplotlib.org/</dc:title>
     </cc:Agent>
    </dc:creator>
   </cc:Work>
  </rdf:RDF>
 </metadata>
 <defs>
  <style type="text/css">*{stroke-linejoin: round; stroke-linecap: butt}</style>
 </defs>
 <g id="figure_1">
  <g id="patch_1">
   <path d="M 0 216 
L 432 216 
L 432 0 
L 0 0 
L 0 216 
z
" style="fill: none"/>
  </g>
  <g id="axes_1">
   <g id="patch_2">
    <path d="M 10.8 205.2 
L 356.603942 205.2 
L 356.603942 30.528 
L 10.8 30.528 
L 10.8 205.2 
z
" style="fill: none"/>
   </g>
   <g id="matplotlib.axis_1"/>
   <g id="matplotlib.axis_2">
    <g id="ytick_1">
     <g id="line2d_1">
      <defs>
       <path id="m8e782b34e8" d="M 4 0 
L -4 -0 
" style="stroke: #000000; stroke-width: 2"/>
      </defs>
      <g>
       <use xlink:href="#m8e782b34e8" x="26.518361" y="46.407273" style="stroke: #000000; stroke-width: 2"/>
      </g>
     </g>
     <g id="text_1">
      <!-- 1 -->
      <g transform="translate(12.655861 50.206491) scale(0.1 -0.1)">
       <defs>
        <path id="DejaVuSans-31" d="M 794 531 
L 1825 531 
L 1825 4091 
L 703 3866 
L 703 4441 
L 1819 4666 
L 2450 4666 
L 2450 531 
L 3481 531 
L 3481 0 
L 794 0 
L 794 531 
z
" transform="scale(0.015625)"/>
       </defs>
       <use xlink:href="#DejaVuSans-31"/>
      </g>
     </g>
    </g>
   </g>
   <g id="line2d_2">
    <path d="M 26.518361 125.803636 
L 202.238085 125.71852 
L 202.484021 122.611204 
L 202.519664 122.997186 
L 202.566 127.739937 
L 202.729958 132.497445 
L 202.776293 132.809167 
L 202.819065 132.351622 
L 202.865401 128.253912 
L 203.029358 115.262364 
L 203.086387 114.844108 
L 203.125594 115.340274 
L 203.179059 120.488368 
L 203.364402 140.616135 
L 203.392916 140.770674 
L 203.435688 140.242094 
L 203.489152 135.277359 
L 203.70301 106.797642 
L 203.72796 106.924564 
L 203.77786 109.048044 
L 203.82776 122.22207 
L 203.963203 148.151883 
L 204.020232 148.862352 
L 204.066568 148.112944 
L 204.123597 141.354038 
L 204.33389 98.678137 
L 204.373097 99.154927 
L 204.43369 105.15909 
L 204.654677 156.997047 
L 204.736655 152.726384 
L 204.786555 131.031839 
L 204.918434 91.352411 
L 204.971899 90.532734 
L 205.018235 91.59345 
L 205.078828 101.286231 
L 205.285557 165.151257 
L 205.349714 163.005436 
L 205.406743 149.069428 
L 205.602779 82.376297 
L 205.631293 82.692339 
L 205.681193 86.222967 
L 205.738222 109.750361 
L 205.90218 173.122348 
L 205.923565 173.31958 
L 205.962773 172.510017 
L 206.02693 162.775548 
L 206.083959 101.723135 
L 206.226531 74.308945 
L 206.244352 74.213216 
L 206.272866 74.720829 
L 206.333459 81.740715 
L 206.383359 116.038023 
L 206.515238 180.516786 
L 206.561574 181.486353 
L 206.60791 180.060363 
L 206.668503 167.8437 
L 206.882361 66.039549 
L 206.975032 76.40314 
L 207.028497 133.907178 
L 207.16394 185.021571 
L 207.185326 185.188521 
L 207.220969 184.373302 
L 207.277997 178.409879 
L 207.33859 142.199344 
L 207.488291 67.729223 
L 207.498984 67.65015 
L 207.534627 68.208544 
L 207.598784 74.546942 
L 207.659377 111.756238 
L 207.801949 182.565837 
L 207.823334 182.730706 
L 207.858977 181.987446 
L 207.91957 175.693641 
L 207.980163 137.309071 
L 208.115607 70.405988 
L 208.136992 70.100111 
L 208.186893 71.218002 
L 208.247486 78.93917 
L 208.30095 117.292384 
L 208.432829 179.941179 
L 208.457779 180.273538 
L 208.504115 179.307978 
L 208.571836 170.338323 
L 208.625301 120.117334 
L 208.75718 72.784496 
L 208.775001 72.556221 
L 208.824901 73.580899 
L 208.889059 81.6982 
L 208.942523 124.749925 
L 209.070838 177.480444 
L 209.095788 177.825019 
L 209.142123 176.938111 
L 209.213409 167.559217 
L 209.26331 123.001025 
L 209.395188 75.249064 
L 209.420138 75.017211 
L 209.466474 76.116437 
L 209.530632 84.393641 
L 209.584096 131.962814 
L 209.715975 175.171734 
L 209.733796 175.371575 
L 209.783697 174.385753 
L 209.84429 167.613445 
L 209.897754 134.578095 
L 210.029633 77.767494 
L 210.054583 77.465086 
L 210.100919 78.315942 
L 210.16864 86.17944 
L 210.222105 129.318176 
L 210.353984 172.707601 
L 210.371805 172.912367 
L 210.42527 171.862623 
L 210.489427 164.099821 
L 210.542891 119.338738 
L 210.678334 80.03228 
L 210.692592 79.916381 
L 210.735363 80.585938 
L 210.795956 85.849298 
L 210.852985 113.276008 
L 211.002685 170.409628 
L 211.013378 170.458962 
L 211.045457 170.083808 
L 211.10605 166.098572 
L 211.166643 144.170059 
L 211.3306 82.372965 
L 211.337729 82.37851 
L 211.380501 83.23037 
L 211.444658 89.841682 
L 211.498122 124.308258 
L 211.626437 167.740227 
L 211.651387 168.009225 
L 211.697723 167.265763 
L 211.769009 159.676743 
L 211.818909 124.146132 
L 211.947223 85.056037 
L 211.972173 84.831652 
L 212.014945 85.484235 
L 212.079102 91.007196 
L 212.136131 122.267595 
L 212.264446 165.282356 
L 212.289396 165.555008 
L 212.339296 164.738347 
L 212.403453 158.620688 
L 212.456917 126.391539 
L 212.585232 87.508733 
L 212.610182 87.280442 
L 212.656518 87.985596 
L 212.727804 94.997381 
L 212.777704 128.05306 
L 212.909583 162.945849 
L 212.927404 163.096541 
L 212.977304 162.361432 
L 213.045026 156.095774 
L 213.098491 121.149825 
L 213.230369 89.858016 
L 213.248191 89.732683 
L 213.294527 90.375526 
L 213.365813 96.779042 
L 213.419277 132.270439 
L 213.55472 160.576408 
L 213.568977 160.643976 
L 213.611749 160.074958 
L 213.675906 155.426459 
L 213.732935 129.86132 
L 213.86125 92.416788 
L 213.8862 92.188994 
L 213.939664 92.998649 
L 214.007386 99.308396 
L 214.057286 130.52018 
L 214.192729 158.127886 
L 214.206986 158.193237 
L 214.246193 157.768887 
L 214.317479 152.930421 
L 214.370944 130.945517 
L 214.502823 94.799 
L 214.527773 94.646364 
L 214.570544 95.177666 
L 214.634701 99.393417 
L 214.69173 122.713809 
L 214.820045 155.701465 
L 214.852123 156.000319 
L 214.902024 155.322547 
L 214.966181 149.861303 
L 215.016081 121.026763 
L 215.151524 95.727585 
L 215.17291 95.604154 
L 215.215681 96.125952 
L 215.27271 99.758816 
L 215.329739 121.367606 
L 215.461618 155.754434 
L 215.493696 155.999056 
L 215.540032 155.35643 
L 215.607754 149.388103 
L 215.661218 115.551359 
L 215.800226 95.649756 
L 215.810919 95.605569 
L 215.85369 96.099894 
L 215.914283 100.098805 
L 215.967748 120.193383 
L 216.099627 155.738076 
L 216.131705 156.002658 
L 216.178041 155.3869 
L 216.245763 149.562924 
L 216.295663 119.208567 
L 216.43467 95.670166 
L 216.452492 95.610111 
L 216.48457 95.920204 
L 216.545163 99.117254 
L 216.605756 119.208567 
L 216.744764 155.828024 
L 216.769714 156.002658 
L 216.81605 155.412786 
L 216.883771 149.735057 
L 216.933671 120.193383 
L 217.069115 95.723014 
L 217.0905 95.605569 
L 217.136836 96.23094 
L 217.204558 102.107285 
L 217.254458 132.719459 
L 217.393466 155.940349 
L 217.407723 155.999056 
L 217.439801 155.754434 
L 217.507523 152.028727 
L 217.564552 132.05971 
L 217.699995 95.828707 
L 217.728509 95.604154 
L 217.778409 96.322455 
L 217.839002 101.283944 
L 217.888902 126.708839 
L 218.017217 155.750396 
L 218.049296 156.000319 
L 218.095632 155.365164 
L 218.163353 149.436405 
L 218.216818 115.753028 
L 218.355825 95.651349 
L 218.366518 95.606572 
L 218.409289 96.092351 
L 218.469882 100.061765 
L 218.523347 119.907754 
L 218.65879 155.782545 
L 218.687304 156.003052 
L 218.737205 155.272664 
L 218.797798 150.260875 
L 218.847698 124.303832 
L 218.979577 95.806949 
L 219.008091 95.608672 
L 219.054427 96.253815 
L 219.122148 102.235413 
L 219.175613 136.122804 
L 219.31462 155.958099 
L 219.325313 156.001986 
L 219.368085 155.504897 
L 219.428678 151.496 
L 219.482142 131.315542 
L 219.614021 95.867533 
L 219.6461 95.604809 
L 219.692436 96.222956 
L 219.760157 102.060039 
L 219.810057 132.480484 
L 219.949065 155.937967 
L 219.963322 155.997652 
L 219.998965 155.685046 
L 220.055994 152.838068 
L 220.113022 137.854215 
L 220.27698 95.618479 
L 220.280544 95.620026 
L 220.284108 95.604451 
L 220.316187 95.870895 
L 220.383909 99.697962 
L 220.440937 120.70156 
L 220.572816 155.746044 
L 220.604895 156.001394 
L 220.651231 155.373595 
L 220.718952 149.484165 
L 220.772417 115.955816 
L 220.911424 95.652713 
L 220.922117 95.607778 
L 220.964889 96.084692 
L 221.025482 100.025328 
L 221.078946 119.635515 
L 221.214389 155.779542 
L 221.242904 156.003152 
L 221.292804 155.281748 
L 221.353397 150.307811 
L 221.403297 124.748835 
L 221.531612 95.855496 
L 221.56369 95.607356 
L 221.610026 96.244988 
L 221.677748 102.186902 
L 221.731212 135.921615 
L 221.87022 155.956429 
L 221.880912 156.00106 
L 221.923684 155.512392 
L 221.984277 151.533225 
L 222.037741 131.605845 
L 222.173185 95.823697 
L 222.201699 95.60432 
L 222.251599 96.337592 
L 222.312192 101.362156 
L 222.362092 127.450255 
L 222.493971 155.801707 
L 222.522485 155.998132 
L 222.568821 155.350458 
L 222.636543 149.355537 
L 222.690007 115.417776 
L 222.829015 95.648566 
L 222.839708 95.605033 
L 222.882479 96.104837 
L 222.943072 100.123796 
L 222.996537 120.391698 
L 223.128416 155.741369 
L 223.160494 156.002239 
L 223.20683 155.381694 
L 223.274552 149.531517 
L 223.324452 119.046104 
L 223.463459 95.668478 
L 223.477716 95.60914 
L 223.513359 95.924236 
L 223.570388 98.777161 
L 223.627417 113.808701 
L 223.791374 155.989018 
L 223.794939 155.987411 
L 223.798503 156.002953 
L 223.830582 155.734647 
L 223.898303 151.899261 
L 223.955332 130.799037 
L 224.087211 95.859743 
L 224.119289 95.606213 
L 224.165625 96.236452 
L 224.233347 102.138976 
L 224.286811 135.719148 
L 224.425819 155.954989 
L 224.436512 155.999917 
L 224.479283 155.520018 
L 224.539876 151.56987 
L 224.593341 131.882436 
L 224.728784 95.826743 
L 224.757298 95.604121 
L 224.807198 96.328574 
L 224.867791 101.315046 
L 224.917691 127.007456 
L 225.046006 155.753122 
L 225.078085 155.999495 
L 225.12442 155.359373 
L 225.192142 149.404272 
L 225.245607 115.618428 
L 225.384614 95.650313 
L 225.395307 95.605878 
L 225.438078 96.097396 
L 225.498671 100.086396 
L 225.552136 120.096626 
L 225.684015 155.736378 
L 225.716093 156.002822 
L 225.762429 155.389443 
L 225.830151 149.578594 
L 225.880051 119.291486 
L 226.019058 95.671057 
L 226.03688 95.609621 
L 226.068959 95.918169 
L 226.129552 99.107379 
L 226.190145 119.126789 
L 226.329152 155.826401 
L 226.354102 156.002464 
L 226.400438 155.414929 
L 226.46816 149.750757 
L 226.51806 120.291731 
L 226.653503 95.72362 
L 226.674889 95.605287 
L 226.71766 96.140955 
L 226.778253 100.328735 
L 226.831718 122.223328 
L 226.960032 155.693203 
L 226.992111 155.998601 
L 227.045575 155.215121 
L 227.106168 149.925024 
L 227.156068 121.484708 
L 227.291512 95.729809 
L 227.312897 95.60422 
L 227.355669 96.116815 
L 227.412698 99.718093 
L 227.469726 120.916633 
L 227.601605 155.748981 
L 227.633684 156.000701 
L 227.68002 155.36801 
L 227.747741 149.452378 
L 227.801206 115.820523 
L 227.940213 95.651829 
L 227.950906 95.606953 
L 227.993678 96.089808 
L 228.054271 100.049549 
L 228.107735 119.81557 
L 228.243178 155.78153 
L 228.271693 156.003119 
L 228.321593 155.27567 
L 228.382186 150.27658 
L 228.432086 124.451456 
L 228.563965 95.808307 
L 228.592479 95.608217 
L 228.638815 96.250843 
L 228.706537 102.21917 
L 228.760001 136.055914 
L 228.899008 155.957517 
L 228.909701 156.001703 
L 228.952473 155.507378 
L 229.013066 151.508468 
L 229.06653 131.413889 
L 229.198409 95.869197 
L 229.230488 95.604614 
L 229.276824 96.220373 
L 229.344545 102.044349 
L 229.394445 132.398706 
L 229.533453 155.937107 
L 229.551274 155.997162 
L 229.583353 155.687068 
L 229.643946 152.490019 
L 229.704539 132.398706 
L 229.843547 95.779248 
L 229.868497 95.604614 
L 229.914832 96.194487 
L 229.982554 101.872215 
L 230.032454 131.413889 
L 230.167897 155.884258 
L 230.189283 156.001703 
L 230.235619 155.376333 
L 230.303341 149.499987 
L 230.353241 118.887813 
L 230.492248 95.666924 
L 230.506505 95.608217 
L 230.538584 95.852839 
L 230.606306 99.578545 
L 230.663334 119.547563 
L 230.798777 155.778565 
L 230.827292 156.003119 
L 230.877192 155.284818 
L 230.937785 150.323329 
L 230.987685 124.898434 
L 231.116 95.856877 
L 231.148078 95.606953 
L 231.194414 96.242108 
L 231.262136 102.170868 
L 231.3156 135.854244 
L 231.454608 155.955923 
L 231.465301 156.000701 
L 231.508072 155.514922 
L 231.568665 151.545508 
L 231.62213 131.699519 
L 231.757573 95.824727 
L 231.786087 95.60422 
L 231.835987 96.334609 
L 231.89658 101.346397 
L 231.94648 127.303441 
L 232.078359 155.800324 
L 232.106874 155.998601 
L 232.153209 155.353458 
L 232.220931 149.371859 
L 232.274395 115.484468 
L 232.413403 95.649173 
L 232.424096 95.605287 
L 232.466867 96.102376 
L 232.52746 100.111273 
L 232.580925 120.291731 
L 232.712804 155.73974 
L 232.744882 156.002464 
L 232.791218 155.384317 
L 232.85894 149.547233 
L 232.90884 119.126789 
L 233.047847 95.669306 
L 233.062105 95.609621 
L 233.097748 95.922227 
L 233.154776 98.769205 
L 233.211805 113.753058 
L 233.375762 155.988794 
L 233.379327 155.987246 
L 233.382891 156.002822 
L 233.41497 155.736378 
L 233.482691 151.909311 
L 233.53972 130.905713 
L 233.671599 95.861229 
L 233.703678 95.605878 
L 233.750013 96.233677 
L 233.817735 102.123108 
L 233.871199 135.651456 
L 234.010207 155.95456 
L 234.0209 155.999495 
L 234.063671 155.522581 
L 234.124264 151.581944 
L 234.177729 131.971758 
L 234.313172 95.827731 
L 234.341686 95.604121 
L 234.391586 96.325524 
L 234.452179 101.299462 
L 234.50208 126.858438 
L 234.630394 155.751776 
L 234.662473 155.999917 
L 234.708809 155.362285 
L 234.77653 149.420371 
L 234.829995 115.685657 
L 234.969002 95.650844 
L 234.979695 95.606213 
L 235.022467 96.09488 
L 235.08306 100.074048 
L 235.136524 120.001427 
L 235.271967 155.783576 
L 235.300482 156.002953 
L 235.350382 155.269681 
L 235.410975 150.245117 
L 235.460875 124.157018 
L 235.592754 95.805565 
L 235.621268 95.60914 
L 235.667604 96.256815 
L 235.735326 102.251736 
L 235.78879 136.189497 
L 235.927797 155.958707 
L 235.93849 156.002239 
L 235.981262 155.502435 
L 236.041855 151.483477 
L 236.095319 131.215575 
L 236.227198 95.865904 
L 236.259277 95.605033 
L 236.305613 96.225578 
L 236.373334 102.075756 
L 236.423234 132.561169 
L 236.562242 155.938794 
L 236.576499 155.998132 
L 236.612142 155.683037 
L 236.669171 152.830112 
L 236.726199 137.798571 
L 236.890157 95.618255 
L 236.893721 95.619861 
L 236.897286 95.60432 
L 236.929364 95.872626 
L 236.997086 99.708012 
L 237.054115 120.808236 
L 237.185993 155.74753 
L 237.218072 156.00106 
L 237.264408 155.370821 
L 237.33213 149.468297 
L 237.385594 115.888125 
L 237.524601 95.652284 
L 237.535294 95.607356 
L 237.578066 96.087254 
L 237.638659 100.037403 
L 237.692123 119.724837 
L 237.827566 155.78053 
L 237.856081 156.003152 
L 237.905981 155.278699 
L 237.966574 150.292227 
L 238.016474 124.599816 
L 238.144789 95.854151 
L 238.176867 95.607778 
L 238.223203 96.2479 
L 238.290925 102.203001 
L 238.344389 135.988845 
L 238.483397 155.95696 
L 238.49409 156.001394 
L 238.536861 155.509877 
L 238.597454 151.520877 
L 238.650919 131.510647 
L 238.782797 95.870895 
L 238.814876 95.604451 
L 238.861212 96.21783 
L 238.928933 102.028679 
L 238.978834 132.315787 
L 239.117841 155.936215 
L 239.135663 155.997652 
L 239.167741 155.689104 
L 239.228334 152.499894 
L 239.288927 132.480484 
L 239.427935 95.780872 
L 239.452885 95.604809 
L 239.499221 96.192344 
L 239.566942 101.856515 
L 239.616842 131.315542 
L 239.752286 155.883653 
L 239.773671 156.001986 
L 239.816443 155.466318 
L 239.877036 151.278537 
L 239.9305 129.383945 
L 240.058815 95.91407 
L 240.090894 95.608672 
L 240.144358 96.392152 
L 240.204951 101.682248 
L 240.254851 130.122564 
L 240.390294 155.877464 
L 240.41168 156.003052 
L 240.454452 155.490458 
L 240.51148 151.88918 
L 240.568509 130.690639 
L 240.700388 95.858292 
L 240.732467 95.606572 
L 240.778802 96.239263 
L 240.846524 102.154895 
L 240.899988 135.786749 
L 241.038996 155.955444 
L 241.049689 156.000319 
L 241.09246 155.517465 
L 241.153053 151.557724 
L 241.206518 131.791703 
L 241.341961 95.825742 
L 241.370475 95.604154 
L 241.420375 96.331602 
L 241.480968 101.330693 
L 241.530869 127.155817 
L 241.662747 155.798966 
L 241.691262 155.999056 
L 241.737598 155.35643 
L 241.805319 149.388103 
L 241.858784 115.551359 
L 241.997791 95.649756 
L 242.008484 95.605569 
L 242.051256 96.099894 
L 242.111849 100.098805 
L 242.165313 120.193383 
L 242.297192 155.738076 
L 242.329271 156.002658 
L 242.375606 155.3869 
L 242.443328 149.562924 
L 242.493228 119.208567 
L 242.632236 95.670166 
L 242.650057 95.610111 
L 242.682136 95.920204 
L 242.742729 99.117254 
L 242.803322 119.208567 
L 242.942329 155.828024 
L 242.967279 156.002658 
L 243.013615 155.412786 
L 243.081337 149.735057 
L 243.131237 120.193383 
L 243.26668 95.723014 
L 243.288066 95.605569 
L 243.334402 96.23094 
L 243.402123 102.107285 
L 243.452023 132.719459 
L 243.591031 155.940349 
L 243.605288 155.999056 
L 243.637367 155.754434 
L 243.705088 152.028727 
L 243.762117 132.05971 
L 243.89756 95.828707 
L 243.926075 95.604154 
L 243.975975 96.322455 
L 244.036568 101.283944 
L 244.086468 126.708839 
L 244.214782 155.750396 
L 244.246861 156.000319 
L 244.293197 155.365164 
L 244.360918 149.436405 
L 244.414383 115.753028 
L 244.55339 95.651349 
L 244.564083 95.606572 
L 244.606855 96.092351 
L 244.667448 100.061765 
L 244.720912 119.907754 
L 244.856355 155.782545 
L 244.88487 156.003052 
L 244.93477 155.272664 
L 244.995363 150.260875 
L 245.045263 124.303832 
L 245.177142 95.806949 
L 245.205656 95.608672 
L 245.251992 96.253815 
L 245.319714 102.235413 
L 245.373178 136.122804 
L 245.512186 155.958099 
L 245.522878 156.001986 
L 245.56565 155.504897 
L 245.626243 151.496 
L 245.679707 131.315542 
L 245.811586 95.867533 
L 245.843665 95.604809 
L 245.890001 96.222956 
L 245.957722 102.060039 
L 246.007623 132.480484 
L 246.14663 155.937967 
L 246.160887 155.997652 
L 246.19653 155.685046 
L 246.253559 152.838068 
L 246.310588 137.854215 
L 246.474545 95.618479 
L 246.478109 95.620026 
L 246.481674 95.604451 
L 246.513752 95.870895 
L 246.581474 99.697962 
L 246.638503 120.70156 
L 246.770382 155.746044 
L 246.80246 156.001394 
L 246.848796 155.373595 
L 246.916518 149.484165 
L 246.969982 115.955816 
L 247.10899 95.652713 
L 247.119682 95.607778 
L 247.162454 96.084692 
L 247.223047 100.025328 
L 247.276511 119.635515 
L 247.411955 155.779542 
L 247.440469 156.003152 
L 247.490369 155.281748 
L 247.550962 150.307811 
L 247.600862 124.748835 
L 247.729177 95.855496 
L 247.761256 95.607356 
L 247.807591 96.244988 
L 247.875313 102.186902 
L 247.928777 135.921615 
L 248.067785 155.956429 
L 248.078478 156.00106 
L 248.121249 155.512392 
L 248.181842 151.533225 
L 248.235307 131.605845 
L 248.37075 95.823697 
L 248.399264 95.60432 
L 248.449164 96.337592 
L 248.509757 101.362156 
L 248.559657 127.450255 
L 248.691536 155.801707 
L 248.720051 155.998132 
L 248.766387 155.350458 
L 248.834108 149.355537 
L 248.887573 115.417776 
L 249.02658 95.648566 
L 249.037273 95.605033 
L 249.080045 96.104837 
L 249.140638 100.123796 
L 249.194102 120.391698 
L 249.325981 155.741369 
L 249.358059 156.002239 
L 249.404395 155.381694 
L 249.472117 149.531517 
L 249.522017 119.046104 
L 249.661025 95.668478 
L 249.675282 95.60914 
L 249.710925 95.924236 
L 249.767953 98.777161 
L 249.824982 113.808701 
L 249.98894 155.989018 
L 249.992504 155.987411 
L 249.996068 156.002953 
L 250.028147 155.734647 
L 250.095868 151.899261 
L 250.152897 130.799037 
L 250.284776 95.859743 
L 250.316855 95.606213 
L 250.363191 96.236452 
L 250.430912 102.138976 
L 250.484377 135.719148 
L 250.623384 155.954989 
L 250.634077 155.999917 
L 250.676848 155.520018 
L 250.737442 151.56987 
L 250.790906 131.882436 
L 250.926349 95.826743 
L 250.954863 95.604121 
L 251.004764 96.328574 
L 251.065357 101.315046 
L 251.115257 127.007456 
L 251.243571 155.753122 
L 251.27565 155.999495 
L 251.321986 155.359373 
L 251.389707 149.404272 
L 251.443172 115.618428 
L 251.582179 95.650313 
L 251.592872 95.605878 
L 251.635644 96.097396 
L 251.696237 100.086396 
L 251.749701 120.096626 
L 251.88158 155.736378 
L 251.913659 156.002822 
L 251.959995 155.389443 
L 252.027716 149.578594 
L 252.077616 119.291486 
L 252.216624 95.671057 
L 252.234445 95.609621 
L 252.266524 95.918169 
L 252.327117 99.107379 
L 252.38771 119.126789 
L 252.526717 155.826401 
L 252.551667 156.002464 
L 252.598003 155.414929 
L 252.665725 149.750757 
L 252.715625 120.291731 
L 252.851068 95.72362 
L 252.872454 95.605287 
L 252.915226 96.140955 
L 252.975819 100.328735 
L 253.029283 122.223328 
L 253.157598 155.693203 
L 253.189676 155.998601 
L 253.243141 155.215121 
L 253.303734 149.925024 
L 253.353634 121.484708 
L 253.489077 95.729809 
L 253.510463 95.60422 
L 253.553234 96.116815 
L 253.610263 99.718093 
L 253.667292 120.916633 
L 253.799171 155.748981 
L 253.831249 156.000701 
L 253.877585 155.36801 
L 253.945307 149.452378 
L 253.998771 115.820523 
L 254.137779 95.651829 
L 254.148471 95.606953 
L 254.191243 96.089808 
L 254.251836 100.049549 
L 254.3053 119.81557 
L 254.440744 155.78153 
L 254.469258 156.003119 
L 254.519158 155.27567 
L 254.579751 150.27658 
L 254.629651 124.451456 
L 254.76153 95.808307 
L 254.790044 95.608217 
L 254.83638 96.250843 
L 254.904102 102.21917 
L 254.957566 136.055914 
L 255.096574 155.957517 
L 255.107267 156.001703 
L 255.150038 155.507378 
L 255.210631 151.508468 
L 255.264096 131.413889 
L 255.395975 95.869197 
L 255.428053 95.604614 
L 255.474389 96.220373 
L 255.542111 102.044349 
L 255.592011 132.398706 
L 255.731018 155.937107 
L 255.74884 155.997162 
L 255.780918 155.687068 
L 255.841511 152.490019 
L 255.902104 132.398706 
L 256.041112 95.779248 
L 256.066062 95.604614 
L 256.112398 96.194487 
L 256.180119 101.872215 
L 256.230019 131.413889 
L 256.365463 155.884258 
L 256.386848 156.001703 
L 256.433184 155.376333 
L 256.500906 149.499987 
L 256.550806 118.887813 
L 256.689813 95.666924 
L 256.704071 95.608217 
L 256.736149 95.852839 
L 256.803871 99.578545 
L 256.8609 119.547563 
L 256.996343 155.778565 
L 257.024857 156.003119 
L 257.074757 155.284818 
L 257.13535 150.323329 
L 257.18525 124.898434 
L 257.313565 95.856877 
L 257.345644 95.606953 
L 257.39198 96.242108 
L 257.459701 102.170868 
L 257.513166 135.854244 
L 257.652173 155.955923 
L 257.662866 156.000701 
L 257.705637 155.514922 
L 257.76623 151.545508 
L 257.819695 131.699519 
L 257.955138 95.824727 
L 257.983652 95.60422 
L 258.033553 96.334609 
L 258.094146 101.346397 
L 258.144046 127.303441 
L 258.275925 155.800324 
L 258.304439 155.998601 
L 258.350775 155.353458 
L 258.418496 149.371859 
L 258.471961 115.484468 
L 258.610968 95.649173 
L 258.621661 95.605287 
L 258.664433 96.102376 
L 258.725026 100.111273 
L 258.77849 120.291731 
L 258.910369 155.73974 
L 258.942448 156.002464 
L 258.988784 155.384317 
L 259.056505 149.547233 
L 259.106405 119.126789 
L 259.245413 95.669306 
L 259.25967 95.609621 
L 259.295313 95.922227 
L 259.352342 98.769205 
L 259.40937 113.753058 
L 259.573328 155.988794 
L 259.576892 155.987246 
L 259.580456 156.002822 
L 259.612535 155.736378 
L 259.680257 151.909311 
L 259.737285 130.905713 
L 259.869164 95.861229 
L 259.901243 95.605878 
L 259.947579 96.233677 
L 260.0153 102.123108 
L 260.068765 135.651456 
L 260.207772 155.95456 
L 260.218465 155.999495 
L 260.261237 155.522581 
L 260.32183 151.581944 
L 260.375294 131.971758 
L 260.510737 95.827731 
L 260.539252 95.604121 
L 260.589152 96.325524 
L 260.649745 101.299462 
L 260.699645 126.858438 
L 260.82796 155.751776 
L 260.860038 155.999917 
L 260.906374 155.362285 
L 260.974096 149.420371 
L 261.02756 115.685657 
L 261.166568 95.650844 
L 261.17726 95.606213 
L 261.220032 96.09488 
L 261.280625 100.074048 
L 261.334089 120.001427 
L 261.469533 155.783576 
L 261.498047 156.002953 
L 261.547947 155.269681 
L 261.60854 150.245117 
L 261.65844 124.157018 
L 261.790319 95.805565 
L 261.818833 95.60914 
L 261.865169 96.256815 
L 261.932891 102.251736 
L 261.986355 136.189497 
L 262.125363 155.958707 
L 262.136056 156.002239 
L 262.178827 155.502435 
L 262.23942 151.483477 
L 262.292885 131.215575 
L 262.424764 95.865904 
L 262.456842 95.605033 
L 262.503178 96.225578 
L 262.5709 102.075756 
L 262.6208 132.561169 
L 262.759807 155.938794 
L 262.774064 155.998132 
L 262.809707 155.683037 
L 262.866736 152.830112 
L 262.923765 137.798571 
L 263.087722 95.618255 
L 263.091287 95.619861 
L 263.094851 95.60432 
L 263.12693 95.872626 
L 263.194651 99.708012 
L 263.25168 120.808236 
L 263.383559 155.74753 
L 263.415637 156.00106 
L 263.461973 155.370821 
L 263.529695 149.468297 
L 263.583159 115.888125 
L 263.722167 95.652284 
L 263.73286 95.607356 
L 263.775631 96.087254 
L 263.836224 100.037403 
L 263.889689 119.724837 
L 264.025132 155.78053 
L 264.053646 156.003152 
L 264.103546 155.278699 
L 264.164139 150.292227 
L 264.214039 124.599816 
L 264.342354 95.854151 
L 264.374433 95.607778 
L 264.420768 96.2479 
L 264.48849 102.203001 
L 264.541954 135.988845 
L 264.680962 155.95696 
L 264.691655 156.001394 
L 264.734426 155.509877 
L 264.795019 151.520877 
L 264.848484 131.510647 
L 264.980363 95.870895 
L 265.012441 95.604451 
L 265.058777 96.21783 
L 265.126499 102.028679 
L 265.176399 132.315787 
L 265.315406 155.936215 
L 265.333228 155.997652 
L 265.365307 155.689104 
L 265.4259 152.499894 
L 265.486493 132.480484 
L 265.6255 95.780872 
L 265.65045 95.604809 
L 265.696786 96.192344 
L 265.764508 101.856515 
L 265.814408 131.315542 
L 265.949851 155.883653 
L 265.971237 156.001986 
L 266.014008 155.466318 
L 266.074601 151.278537 
L 266.128066 129.383945 
L 266.25638 95.91407 
L 266.288459 95.608672 
L 266.341923 96.392152 
L 266.402516 101.682248 
L 266.452416 130.122564 
L 266.58786 155.877464 
L 266.609245 156.003052 
L 266.652017 155.490458 
L 266.709046 151.88918 
L 266.766074 130.690639 
L 266.897953 95.858292 
L 266.930032 95.606572 
L 266.976368 96.239263 
L 267.044089 102.154895 
L 267.097554 135.786749 
L 267.236561 155.914421 
L 267.247254 155.938694 
L 267.282897 155.544568 
L 267.34349 152.202145 
L 267.400519 134.730109 
L 267.553783 96.307963 
L 267.568041 96.282101 
L 267.592991 96.494625 
L 267.657148 99.371661 
L 267.714177 113.146685 
L 267.881699 154.708367 
L 267.888827 154.704966 
L 267.938727 153.878513 
L 267.99932 148.82834 
L 268.04922 122.53539 
L 268.181099 97.630373 
L 268.206049 97.509211 
L 268.248821 98.053202 
L 268.309414 101.888235 
L 268.362878 120.603021 
L 268.494757 153.301237 
L 268.519707 153.484451 
L 268.566043 153.014081 
L 268.637329 148.004945 
L 268.687229 124.047566 
L 268.819108 98.864044 
L 268.844058 98.739009 
L 268.890394 99.323353 
L 268.954551 103.749394 
L 269.008016 129.30952 
L 269.143459 152.1866 
L 269.157716 152.258203 
L 269.200488 151.887977 
L 269.257516 149.227333 
L 269.318109 133.157292 
L 269.46781 99.998323 
L 269.478503 99.964382 
L 269.514145 100.219337 
L 269.578303 103.040026 
L 269.638896 119.508568 
L 269.781468 150.959363 
L 269.802853 151.02811 
L 269.834932 150.762634 
L 269.902654 147.544892 
L 269.959682 130.967379 
L 270.095125 101.320713 
L 270.116511 101.189601 
L 270.166411 101.692554 
L 270.227004 105.105833 
L 270.280469 121.958307 
L 270.412348 149.659184 
L 270.437298 149.801185 
L 270.483634 149.367226 
L 270.551355 145.412916 
L 270.60482 123.407288 
L 270.736699 102.514565 
L 270.75452 102.417586 
L 270.80442 102.876765 
L 270.868577 106.445056 
L 270.922042 125.226606 
L 271.050356 148.430417 
L 271.075306 148.576669 
L 271.121642 148.179154 
L 271.192928 144.071696 
L 271.242828 124.688135 
L 271.371143 103.770863 
L 271.396093 103.647801 
L 271.442429 104.062094 
L 271.51015 107.751509 
L 271.563615 128.393474 
L 271.695494 147.266571 
L 271.713315 147.349898 
L 271.763215 146.911063 
L 271.827373 143.58862 
L 271.880837 125.910067 
L 272.009152 104.997706 
L 272.034102 104.871939 
L 272.080438 105.250573 
L 272.151723 109.070845 
L 272.201624 127.224794 
L 272.333502 146.036524 
L 272.351324 146.120693 
L 272.401224 145.724252 
L 272.468946 142.304188 
L 272.52241 123.101531 
L 272.657853 106.143883 
L 272.67211 106.097725 
L 272.711318 106.337173 
L 272.782604 109.243922 
L 272.836068 122.526044 
L 272.967947 144.78753 
L 272.992897 144.893806 
L 273.039233 144.535033 
L 273.106954 141.390245 
L 273.160419 124.158603 
L 273.292298 107.397128 
L 273.310119 107.325768 
L 273.360019 107.70271 
L 273.424177 110.52281 
L 273.477641 125.079434 
L 273.605956 143.561122 
L 273.630906 143.668739 
L 273.677242 143.341862 
L 273.748527 140.122742 
L 273.798428 125.190608 
L 273.926742 108.642877 
L 273.951692 108.555062 
L 273.994464 108.841908 
L 274.058621 111.176467 
L 274.11565 124.242035 
L 274.243964 142.334468 
L 274.268914 142.441743 
L 274.318815 142.086191 
L 274.382972 139.516562 
L 274.436436 126.130471 
L 274.564751 109.867579 
L 274.589701 109.779681 
L 274.636037 110.08657 
L 274.707323 113.012041 
L 274.757223 126.660177 
L 274.889102 141.156391 
L 274.906923 141.213088 
L 274.956823 140.894638 
L 275.024545 138.295314 
L 275.078009 123.950671 
L 275.209888 111.051752 
L 275.22771 111.005807 
L 275.274046 111.284244 
L 275.345331 113.922166 
L 275.398796 128.397931 
L 275.534239 139.963474 
L 275.548496 139.98623 
L 275.587703 139.78204 
L 275.655425 137.83438 
L 275.712454 127.506953 
L 275.840768 112.316981 
L 275.865718 112.23353 
L 275.915619 112.531118 
L 275.98334 114.850635 
L 276.036805 127.646532 
L 276.172248 138.73991 
L 276.186505 138.760763 
L 276.222148 138.604595 
L 276.282741 137.32914 
L 276.343334 130.457999 
L 276.503727 113.461996 
L 276.535806 113.565021 
L 276.607092 115.027675 
L 276.667685 122.895205 
L 276.810257 137.516359 
L 276.824514 137.533887 
L 276.856592 137.423075 
L 276.927878 135.977064 
L 276.988471 128.102829 
L 277.123914 114.723741 
L 277.1453 114.687536 
L 277.188072 114.894169 
L 277.252229 116.386 
L 277.309258 124.175044 
L 277.441137 136.268978 
L 277.462522 136.306142 
L 277.50173 136.157595 
L 277.573016 134.634862 
L 277.630044 126.696346 
L 277.758359 115.957689 
L 277.783309 115.913703 
L 277.82608 116.099525 
L 277.890238 117.408129 
L 277.947266 123.993181 
L 278.079145 135.04817 
L 278.104095 135.078498 
L 278.143303 134.920924 
L 278.214589 133.46739 
L 278.268053 127.014542 
L 278.396368 117.178005 
L 278.421318 117.140734 
L 278.467654 117.331552 
L 278.538939 118.866377 
L 278.592404 126.862348 
L 278.724283 133.843746 
L 278.742104 133.852866 
L 278.777747 133.731152 
L 278.841904 132.813965 
L 278.902497 127.998315 
L 279.052198 118.3656 
L 279.094969 118.472339 
L 279.162691 119.373929 
L 279.223284 124.029648 
L 279.365856 132.627523 
L 279.415756 132.517181 
L 279.479913 131.740358 
L 279.540506 127.812266 
L 279.693771 119.590291 
L 279.754364 119.816005 
L 279.829214 121.381266 
L 280.010993 131.405207 
L 280.128615 130.430716 
L 280.185644 126.337775 
L 280.313958 120.820665 
L 280.33178 120.814675 
L 280.370987 120.903909 
L 280.452966 121.821288 
L 280.50643 125.663853 
L 280.634745 130.180781 
L 280.691773 130.086947 
L 280.770188 129.322478 
L 280.823652 126.399131 
L 280.951967 122.037029 
L 280.976917 122.047265 
L 281.008996 122.122311 
L 281.094539 122.895697 
L 281.148003 126.195732 
L 281.272753 128.963778 
L 281.279882 128.961983 
L 281.340475 128.830484 
L 281.415325 128.183929 
L 281.472354 125.01437 
L 281.586411 123.250054 
L 281.607797 123.263121 
L 281.69334 123.537665 
L 281.764626 124.575955 
L 281.896505 127.752924 
L 281.957098 127.676848 
L 282.04977 127.22759 
L 282.106798 125.595455 
L 282.210163 124.452553 
L 282.235113 124.471588 
L 282.34917 124.777827 
L 282.420456 125.63361 
L 282.505999 126.569705 
L 282.548771 126.534955 
L 282.702035 126.142252 
L 282.794707 125.58385 
L 282.898072 125.735193 
L 283.058465 125.803636 
L 340.885581 125.803636 
L 340.885581 125.803636 
" clip-path="url(#pe30da1caf0)" style="fill: none; stroke: #0000ff; stroke-width: 2; stroke-linecap: square"/>
   </g>
   <g id="line2d_3">
    <defs>
     <path id="m97a72adc90" d="M 3 0 
L -3 -3 
L -3 3 
z
" style="stroke: #000000; stroke-linejoin: miter"/>
    </defs>
    <g>
     <use xlink:href="#m97a72adc90" x="356.603942" y="125.803636" style="stroke: #000000; stroke-linejoin: miter"/>
    </g>
   </g>
   <g id="line2d_4">
    <defs>
     <path id="m8a9597d052" d="M 0 -3 
L -3 3 
L 3 3 
z
" style="stroke: #000000; stroke-linejoin: miter"/>
    </defs>
    <g>
     <use xlink:href="#m8a9597d052" x="26.518361" y="30.528" style="stroke: #000000; stroke-linejoin: miter"/>
    </g>
   </g>
   <g id="patch_3">
    <path d="M 26.518361 205.2 
L 26.518361 30.528 
" style="fill: none; stroke: #000000; stroke-width: 2; stroke-linejoin: miter; stroke-linecap: square"/>
   </g>
   <g id="patch_4">
    <path d="M 10.8 125.803636 
L 356.603942 125.803636 
" style="fill: none; stroke: #000000; stroke-width: 2; stroke-linejoin: miter; stroke-linecap: square"/>
   </g>
   <g id="text_2">
    <!-- t / s -->
    <g transform="translate(395.900468 129.666761) scale(0.14 -0.14)">
     <defs>
      <path id="DejaVuSans-74" d="M 1172 4494 
L 1172 3500 
L 2356 3500 
L 2356 3053 
L 1172 3053 
L 1172 1153 
Q 1172 725 1289 603 
Q 1406 481 1766 481 
L 2356 481 
L 2356 0 
L 1766 0 
Q 1100 0 847 248 
Q 594 497 594 1153 
L 594 3053 
L 172 3053 
L 172 3500 
L 594 3500 
L 594 4494 
L 1172 4494 
z
" transform="scale(0.015625)"/>
      <path id="DejaVuSans-20" transform="scale(0.015625)"/>
      <path id="DejaVuSans-2f" d="M 1625 4666 
L 2156 4666 
L 531 -594 
L 0 -594 
L 1625 4666 
z
" transform="scale(0.015625)"/>
      <path id="DejaVuSans-73" d="M 2834 3397 
L 2834 2853 
Q 2591 2978 2328 3040 
Q 2066 3103 1784 3103 
Q 1356 3103 1142 2972 
Q 928 2841 928 2578 
Q 928 2378 1081 2264 
Q 1234 2150 1697 2047 
L 1894 2003 
Q 2506 1872 2764 1633 
Q 3022 1394 3022 966 
Q 3022 478 2636 193 
Q 2250 -91 1575 -91 
Q 1294 -91 989 -36 
Q 684 19 347 128 
L 347 722 
Q 666 556 975 473 
Q 1284 391 1588 391 
Q 1994 391 2212 530 
Q 2431 669 2431 922 
Q 2431 1156 2273 1281 
Q 2116 1406 1581 1522 
L 1381 1569 
Q 847 1681 609 1914 
Q 372 2147 372 2553 
Q 372 3047 722 3315 
Q 1072 3584 1716 3584 
Q 2034 3584 2315 3537 
Q 2597 3491 2834 3397 
z
" transform="scale(0.015625)"/>
     </defs>
     <use xlink:href="#DejaVuSans-74"/>
     <use xlink:href="#DejaVuSans-20" x="39.208984"/>
     <use xlink:href="#DejaVuSans-2f" x="70.996094"/>
     <use xlink:href="#DejaVuSans-20" x="104.6875"/>
     <use xlink:href="#DejaVuSans-73" x="136.474609"/>
    </g>
   </g>
   <g id="text_3">
    <!-- A -->
    <g transform="translate(21.729923 21.264728) scale(0.14 -0.14)">
     <defs>
      <path id="DejaVuSans-41" d="M 2188 4044 
L 1331 1722 
L 3047 1722 
L 2188 4044 
z
M 1831 4666 
L 2547 4666 
L 4325 0 
L 3669 0 
L 3244 1197 
L 1141 1197 
L 716 0 
L 50 0 
L 1831 4666 
z
" transform="scale(0.015625)"/>
     </defs>
     <use xlink:href="#DejaVuSans-41"/>
    </g>
   </g>
  </g>
 </g>
 <defs>
  <clipPath id="pe30da1caf0">
   <rect x="10.8" y="30.528" width="345.803942" height="174.672"/>
  </clipPath>
 </defs>
</svg>
