<?xml version="1.0" encoding="utf-8" standalone="no"?>
<!DOCTYPE svg PUBLIC "-//W3C//DTD SVG 1.1//EN"
  "http://www.w3.org/Graphics/SVG/1.1/DTD/svg11.dtd">
<svg xmlns:xlink="http://www.w3.org/1999/xlink" width="432pt" height="216pt" viewBox="0 0 432 216" xmlns="http://www.w3.org/2000/svg" version="1.1">
 <metadata>
  <rdf:RDF xmlns:dc="http://purl.org/dc/elements/1.1/" xmlns:cc="http://creativecommons.org/ns#" xmlns:rdf="http://www.w3.org/1999/02/22-rdf-syntax-ns#">
   <cc:Work>
    <dc:type rdf:resource="http://purl.org/dc/dcmitype/StillImage"/>
    <dc:date>2025-10-20T10:54:32.628194</dc:date>
    <dc:format>image/svg+xml</dc:format>
    <dc:creator>
     <cc:Agent>
      <dc:title>Matplotlib v3.9.4, https://matplotlib.org/</dc:title>
     </cc:Agent>
    </dc:creator>
   </cc:Work>
  </rdf:RDF>
 </metadata>
 <defs>
  <style type="text/css">*{stroke-linejoin: round; stroke-linecap: butt}</style>
 </defs>
 <g id="figure_1">
  <g id="patch_1">
   <path d="M 0 216 
L 432 216 
L 432 0 
L 0 0 
L 0 216 
z
" style="fill: none"/>
  </g>
  <g id="axes_1">
   <g id="patch_2">
    <path d="M 10.8 205.2 
L 387.343227 205.2 
L 387.343227 30.528 
L 10.8 30.528 
L 10.8 205.2 
z
" style="fill: none"/>
   </g>
   <g id="matplotlib.axis_1"/>
   <g id="matplotlib.axis_2">
    <g id="ytick_1">
     <g id="line2d_1">
      <defs>
       <path id="m302540ba55" d="M 4 0 
L -4 -0 
" style="stroke: #000000; stroke-width: 2"/>
      </defs>
      <g>
       <use xlink:href="#m302540ba55" x="27.915601" y="46.407273" style="stroke: #000000; stroke-width: 2"/>
      </g>
     </g>
     <g id="text_1">
      <!-- 1 -->
      <g transform="translate(14.053101 50.206491) scale(0.1 -0.1)">
       <defs>
        <path id="DejaVuSans-31" d="M 794 531 
L 1825 531 
L 1825 4091 
L 703 3866 
L 703 4441 
L 1819 4666 
L 2450 4666 
L 2450 531 
L 3481 531 
L 3481 0 
L 794 0 
L 794 531 
z
" transform="scale(0.015625)"/>
       </defs>
       <use xlink:href="#DejaVuSans-31"/>
      </g>
     </g>
    </g>
   </g>
   <g id="line2d_2">
    <path d="M 27.915601 125.803636 
L 31.75103 103.871454 
L 34.627602 88.701534 
L 36.545316 79.64371 
L 38.463031 71.657225 
L 40.380745 64.889545 
L 42.298459 59.440059 
L 43.257317 57.226667 
L 44.216174 55.356669 
L 45.175031 53.827817 
L 46.133888 52.634623 
L 47.092745 51.768452 
L 48.051603 51.21764 
L 49.01046 50.967651 
L 49.969317 51.001263 
L 50.928174 51.298787 
L 51.887031 51.838303 
L 52.845889 52.59593 
L 53.804746 53.546111 
L 55.72246 55.915372 
L 57.640175 58.720013 
L 62.434461 66.126284 
L 64.352175 68.681924 
L 66.26989 70.73143 
L 67.228747 71.522733 
L 68.187604 72.140365 
L 69.146461 72.574358 
L 70.105318 72.817741 
L 71.064176 72.866614 
L 72.023033 72.720193 
L 72.98189 72.380823 
L 73.940747 71.85395 
L 74.899605 71.148054 
L 75.858462 70.274558 
L 77.776176 68.084338 
L 79.693891 65.427703 
L 86.405891 55.273221 
L 88.323605 53.048606 
L 89.282463 52.191414 
L 90.24132 51.539746 
L 91.200177 51.118357 
L 92.159034 50.950182 
L 93.117892 51.056058 
L 94.076749 51.45447 
L 95.035606 52.16132 
L 95.994463 53.18973 
L 96.95332 54.549868 
L 97.912178 56.248808 
L 98.871035 58.290426 
L 99.829892 60.675331 
L 101.747606 66.460905 
L 103.665321 73.544557 
L 105.583035 81.814475 
L 107.50075 91.111954 
L 110.377321 106.538927 
L 119.965893 160.495319 
L 121.883608 169.792798 
L 123.801322 178.062715 
L 125.719037 185.146367 
L 127.636751 190.931941 
L 128.595608 193.316846 
L 129.554466 195.358465 
L 130.513323 197.057405 
L 131.47218 198.417543 
L 132.431037 199.445953 
L 133.389894 200.152803 
L 134.348752 200.551215 
L 135.307609 200.657091 
L 136.266466 200.488916 
L 137.225323 200.067527 
L 138.18418 199.415859 
L 139.143038 198.558667 
L 141.060752 196.334052 
L 142.978466 193.61654 
L 148.73161 184.803452 
L 150.649324 182.35958 
L 152.567039 180.459219 
L 153.525896 179.753323 
L 154.484753 179.226449 
L 155.44361 178.88708 
L 156.402467 178.740659 
L 157.361325 178.789531 
L 158.320182 179.032914 
L 159.279039 179.466908 
L 160.237896 180.08454 
L 161.196753 180.875842 
L 163.114468 182.925349 
L 165.032182 185.480989 
L 167.908754 189.879485 
L 170.785326 194.329505 
L 172.70304 196.945354 
L 174.620754 199.011343 
L 175.579612 199.76897 
L 176.538469 200.308486 
L 177.497326 200.60601 
L 178.456183 200.639622 
L 179.41504 200.389633 
L 180.373898 199.83882 
L 181.332755 198.972649 
L 182.291612 197.779456 
L 183.250469 196.250604 
L 184.209327 194.380606 
L 185.168184 192.167214 
L 186.127041 189.61147 
L 188.044755 183.493628 
L 189.96247 176.101011 
L 191.880184 167.55761 
L 193.797899 158.032989 
L 196.67447 142.371448 
L 205.304185 93.574284 
L 207.2219 84.049663 
L 209.139614 75.506262 
L 211.057328 68.113645 
L 212.975043 61.995802 
L 213.9339 59.440059 
L 214.892757 57.226667 
L 215.851614 55.356669 
L 216.810472 53.827817 
L 217.769329 52.634623 
L 218.728186 51.768452 
L 219.687043 51.21764 
L 220.645901 50.967651 
L 221.604758 51.001263 
L 222.563615 51.298787 
L 223.522472 51.838303 
L 224.481329 52.59593 
L 225.440187 53.546111 
L 227.357901 55.915372 
L 229.275615 58.720013 
L 234.069901 66.126284 
L 235.987616 68.681924 
L 237.90533 70.73143 
L 238.864188 71.522733 
L 239.823045 72.140365 
L 240.781902 72.574358 
L 241.740759 72.817741 
L 242.699616 72.866614 
L 243.658474 72.720193 
L 244.617331 72.380823 
L 245.576188 71.85395 
L 246.535045 71.148054 
L 247.493902 70.274558 
L 249.411617 68.084338 
L 251.329331 65.427703 
L 258.041332 55.273221 
L 259.959046 53.048606 
L 260.917903 52.191414 
L 261.876761 51.539746 
L 262.835618 51.118357 
L 263.794475 50.950182 
L 264.753332 51.056058 
L 265.712189 51.45447 
L 266.671047 52.16132 
L 267.629904 53.18973 
L 268.588761 54.549868 
L 269.547618 56.248808 
L 270.506475 58.290426 
L 271.465333 60.675331 
L 273.383047 66.460905 
L 275.300762 73.544557 
L 277.218476 81.814475 
L 279.13619 91.111954 
L 282.012762 106.538927 
L 291.601334 160.495319 
L 293.519049 169.792798 
L 295.436763 178.062715 
L 297.354477 185.146367 
L 299.272192 190.931941 
L 300.231049 193.316846 
L 301.189906 195.358465 
L 302.148763 197.057405 
L 303.107621 198.417543 
L 304.066478 199.445953 
L 305.025335 200.152803 
L 305.984192 200.551215 
L 306.943049 200.657091 
L 307.901907 200.488916 
L 308.860764 200.067527 
L 309.819621 199.415859 
L 310.778478 198.558667 
L 312.696193 196.334052 
L 314.613907 193.61654 
L 320.36705 184.803452 
L 322.284765 182.35958 
L 324.202479 180.459219 
L 325.161336 179.753323 
L 326.120194 179.226449 
L 327.079051 178.88708 
L 328.037908 178.740659 
L 328.996765 178.789531 
L 329.955623 179.032914 
L 330.91448 179.466908 
L 331.873337 180.08454 
L 332.832194 180.875842 
L 334.749909 182.925349 
L 336.667623 185.480989 
L 339.544195 189.879485 
L 342.420766 194.329505 
L 344.338481 196.945354 
L 346.256195 199.011343 
L 347.215052 199.76897 
L 348.17391 200.308486 
L 349.132767 200.60601 
L 350.091624 200.639622 
L 351.050481 200.389633 
L 352.009338 199.83882 
L 352.968196 198.972649 
L 353.927053 197.779456 
L 354.88591 196.250604 
L 355.844767 194.380606 
L 356.803624 192.167214 
L 357.762482 189.61147 
L 359.680196 183.493628 
L 361.59791 176.101011 
L 363.515625 167.55761 
L 365.433339 158.032989 
L 368.309911 142.371448 
L 370.227625 131.371794 
L 370.227625 131.371794 
" clip-path="url(#p1c601f8fe3)" style="fill: none; stroke: #0000ff; stroke-width: 2; stroke-linecap: square"/>
   </g>
   <g id="line2d_3">
    <defs>
     <path id="m9a4c66d72f" d="M 3 0 
L -3 -3 
L -3 3 
z
" style="stroke: #000000; stroke-linejoin: miter"/>
    </defs>
    <g>
     <use xlink:href="#m9a4c66d72f" x="387.343227" y="125.803636" style="stroke: #000000; stroke-linejoin: miter"/>
    </g>
   </g>
   <g id="line2d_4">
    <defs>
     <path id="m43a4c44da6" d="M 0 -3 
L -3 3 
L 3 3 
z
" style="stroke: #000000; stroke-linejoin: miter"/>
    </defs>
    <g>
     <use xlink:href="#m43a4c44da6" x="27.915601" y="30.528" style="stroke: #000000; stroke-linejoin: miter"/>
    </g>
   </g>
   <g id="patch_3">
    <path d="M 27.915601 205.2 
L 27.915601 30.528 
" style="fill: none; stroke: #000000; stroke-width: 2; stroke-linejoin: miter; stroke-linecap: square"/>
   </g>
   <g id="patch_4">
    <path d="M 10.8 125.803636 
L 387.343227 125.803636 
" style="fill: none; stroke: #000000; stroke-width: 2; stroke-linejoin: miter; stroke-linecap: square"/>
   </g>
   <g id="text_2">
    <!-- t / s -->
    <g transform="translate(395.561016 129.666761) scale(0.14 -0.14)">
     <defs>
      <path id="DejaVuSans-74" d="M 1172 4494 
L 1172 3500 
L 2356 3500 
L 2356 3053 
L 1172 3053 
L 1172 1153 
Q 1172 725 1289 603 
Q 1406 481 1766 481 
L 2356 481 
L 2356 0 
L 1766 0 
Q 1100 0 847 248 
Q 594 497 594 1153 
L 594 3053 
L 172 3053 
L 172 3500 
L 594 3500 
L 594 4494 
L 1172 4494 
z
" transform="scale(0.015625)"/>
      <path id="DejaVuSans-20" transform="scale(0.015625)"/>
      <path id="DejaVuSans-2f" d="M 1625 4666 
L 2156 4666 
L 531 -594 
L 0 -594 
L 1625 4666 
z
" transform="scale(0.015625)"/>
      <path id="DejaVuSans-73" d="M 2834 3397 
L 2834 2853 
Q 2591 2978 2328 3040 
Q 2066 3103 1784 3103 
Q 1356 3103 1142 2972 
Q 928 2841 928 2578 
Q 928 2378 1081 2264 
Q 1234 2150 1697 2047 
L 1894 2003 
Q 2506 1872 2764 1633 
Q 3022 1394 3022 966 
Q 3022 478 2636 193 
Q 2250 -91 1575 -91 
Q 1294 -91 989 -36 
Q 684 19 347 128 
L 347 722 
Q 666 556 975 473 
Q 1284 391 1588 391 
Q 1994 391 2212 530 
Q 2431 669 2431 922 
Q 2431 1156 2273 1281 
Q 2116 1406 1581 1522 
L 1381 1569 
Q 847 1681 609 1914 
Q 372 2147 372 2553 
Q 372 3047 722 3315 
Q 1072 3584 1716 3584 
Q 2034 3584 2315 3537 
Q 2597 3491 2834 3397 
z
" transform="scale(0.015625)"/>
     </defs>
     <use xlink:href="#DejaVuSans-74"/>
     <use xlink:href="#DejaVuSans-20" x="39.208984"/>
     <use xlink:href="#DejaVuSans-2f" x="70.996094"/>
     <use xlink:href="#DejaVuSans-20" x="104.6875"/>
     <use xlink:href="#DejaVuSans-73" x="136.474609"/>
    </g>
   </g>
   <g id="text_3">
    <!-- A -->
    <g transform="translate(23.127164 21.264728) scale(0.14 -0.14)">
     <defs>
      <path id="DejaVuSans-41" d="M 2188 4044 
L 1331 1722 
L 3047 1722 
L 2188 4044 
z
M 1831 4666 
L 2547 4666 
L 4325 0 
L 3669 0 
L 3244 1197 
L 1141 1197 
L 716 0 
L 50 0 
L 1831 4666 
z
" transform="scale(0.015625)"/>
     </defs>
     <use xlink:href="#DejaVuSans-41"/>
    </g>
   </g>
  </g>
 </g>
 <defs>
  <clipPath id="p1c601f8fe3">
   <rect x="10.8" y="30.528" width="376.543227" height="174.672"/>
  </clipPath>
 </defs>
</svg>
