<?xml version="1.0" encoding="utf-8" standalone="no"?>
<!DOCTYPE svg PUBLIC "-//W3C//DTD SVG 1.1//EN"
  "http://www.w3.org/Graphics/SVG/1.1/DTD/svg11.dtd">
<svg xmlns:xlink="http://www.w3.org/1999/xlink" width="432pt" height="216pt" viewBox="0 0 432 216" xmlns="http://www.w3.org/2000/svg" version="1.1">
 <metadata>
  <rdf:RDF xmlns:dc="http://purl.org/dc/elements/1.1/" xmlns:cc="http://creativecommons.org/ns#" xmlns:rdf="http://www.w3.org/1999/02/22-rdf-syntax-ns#">
   <cc:Work>
    <dc:type rdf:resource="http://purl.org/dc/dcmitype/StillImage"/>
    <dc:date>2025-10-20T10:54:32.573433</dc:date>
    <dc:format>image/svg+xml</dc:format>
    <dc:creator>
     <cc:Agent>
      <dc:title>Matplotlib v3.9.4, https://matplotlib.org/</dc:title>
     </cc:Agent>
    </dc:creator>
   </cc:Work>
  </rdf:RDF>
 </metadata>
 <defs>
  <style type="text/css">*{stroke-linejoin: round; stroke-linecap: butt}</style>
 </defs>
 <g id="figure_1">
  <g id="patch_1">
   <path d="M 0 216 
L 432 216 
L 432 0 
L 0 0 
L 0 216 
z
" style="fill: none"/>
  </g>
  <g id="axes_1">
   <g id="patch_2">
    <path d="M 10.8 205.2 
L 387.343227 205.2 
L 387.343227 30.528 
L 10.8 30.528 
L 10.8 205.2 
z
" style="fill: none"/>
   </g>
   <g id="matplotlib.axis_1"/>
   <g id="matplotlib.axis_2">
    <g id="ytick_1">
     <g id="line2d_1">
      <defs>
       <path id="m5045aa14b9" d="M 4 0 
L -4 -0 
" style="stroke: #000000; stroke-width: 2"/>
      </defs>
      <g>
       <use xlink:href="#m5045aa14b9" x="27.915601" y="46.407273" style="stroke: #000000; stroke-width: 2"/>
      </g>
     </g>
     <g id="text_1">
      <!-- 1 -->
      <g transform="translate(14.053101 50.206491) scale(0.1 -0.1)">
       <defs>
        <path id="DejaVuSans-31" d="M 794 531 
L 1825 531 
L 1825 4091 
L 703 3866 
L 703 4441 
L 1819 4666 
L 2450 4666 
L 2450 531 
L 3481 531 
L 3481 0 
L 794 0 
L 794 531 
z
" transform="scale(0.015625)"/>
       </defs>
       <use xlink:href="#DejaVuSans-31"/>
      </g>
     </g>
    </g>
   </g>
   <g id="line2d_2">
    <path d="M 27.915601 125.803636 
L 31.75103 114.982618 
L 33.668744 110.172572 
L 35.586459 106.053305 
L 36.545316 104.311025 
L 37.504173 102.806858 
L 38.463031 101.557469 
L 39.421888 100.5767 
L 40.380745 99.875416 
L 41.339602 99.461388 
L 42.298459 99.339201 
L 43.257317 99.51021 
L 44.216174 99.972519 
L 45.175031 100.721008 
L 46.133888 101.747384 
L 47.092745 103.040276 
L 48.051603 104.585359 
L 49.969317 108.361026 
L 51.887031 112.907529 
L 53.804746 118.023945 
L 61.475604 139.50286 
L 63.393318 143.934026 
L 65.311032 147.563962 
L 66.26989 149.026749 
L 67.228747 150.23225 
L 68.187604 151.167111 
L 69.146461 151.820973 
L 70.105318 152.186593 
L 71.064176 152.25992 
L 72.023033 152.040142 
L 72.98189 151.529694 
L 73.940747 150.73423 
L 74.899605 149.662564 
L 75.858462 148.326568 
L 76.817319 146.741044 
L 78.735033 142.894244 
L 80.652748 138.292165 
L 83.529319 130.424725 
L 89.282463 114.141679 
L 91.200177 109.432716 
L 93.117892 105.447228 
L 94.076749 103.7823 
L 95.035606 102.361343 
L 95.994463 101.2001 
L 96.95332 100.311436 
L 97.912178 99.705197 
L 98.871035 99.388098 
L 99.829892 99.363653 
L 100.788749 99.632133 
L 101.747606 100.190563 
L 102.706464 101.032757 
L 103.665321 102.149383 
L 104.624178 103.528072 
L 105.583035 105.153548 
L 107.50075 109.070295 
L 109.418464 113.726534 
L 112.295036 121.64059 
L 117.089322 135.338578 
L 119.007036 140.289099 
L 120.924751 144.599469 
L 122.842465 148.079201 
L 123.801322 149.45789 
L 124.760179 150.574516 
L 125.719037 151.41671 
L 126.677894 151.97514 
L 127.636751 152.243619 
L 128.595608 152.219175 
L 129.554466 151.902076 
L 130.513323 151.295836 
L 131.47218 150.407172 
L 132.431037 149.245929 
L 133.389894 147.824973 
L 134.348752 146.160045 
L 136.266466 142.174557 
L 138.18418 137.465593 
L 141.060752 129.507358 
L 145.855038 115.836888 
L 147.772753 110.931686 
L 149.690467 106.683715 
L 151.608181 103.280705 
L 152.567039 101.944709 
L 153.525896 100.873043 
L 154.484753 100.077579 
L 155.44361 99.567131 
L 156.402467 99.347352 
L 157.361325 99.42068 
L 158.320182 99.7863 
L 159.279039 100.440162 
L 160.237896 101.375022 
L 161.196753 102.580524 
L 162.155611 104.043311 
L 164.073325 107.673247 
L 165.99104 112.104412 
L 167.908754 117.140984 
L 171.744183 128.123106 
L 174.620754 136.199121 
L 176.538469 141.057493 
L 178.456183 145.241756 
L 179.41504 147.021914 
L 180.373898 148.566997 
L 181.332755 149.859888 
L 182.291612 150.886264 
L 183.250469 151.634753 
L 184.209327 152.097063 
L 185.168184 152.268072 
L 186.127041 152.145885 
L 187.085898 151.731856 
L 188.044755 151.030573 
L 189.003613 150.049804 
L 189.96247 148.800415 
L 190.921327 147.296248 
L 192.839041 143.592876 
L 194.756756 139.10335 
L 196.67447 134.026075 
L 204.345328 112.503922 
L 206.263042 108.014397 
L 208.180757 104.311025 
L 209.139614 102.806858 
L 210.098471 101.557469 
L 211.057328 100.5767 
L 212.016186 99.875416 
L 212.975043 99.461388 
L 213.9339 99.339201 
L 214.892757 99.51021 
L 215.851614 99.972519 
L 216.810472 100.721008 
L 217.769329 101.747384 
L 218.728186 103.040276 
L 219.687043 104.585359 
L 221.604758 108.361026 
L 223.522472 112.907529 
L 225.440187 118.023945 
L 233.111044 139.50286 
L 235.028759 143.934026 
L 236.946473 147.563962 
L 237.90533 149.026749 
L 238.864188 150.23225 
L 239.823045 151.167111 
L 240.781902 151.820973 
L 241.740759 152.186593 
L 242.699616 152.25992 
L 243.658474 152.040142 
L 244.617331 151.529694 
L 245.576188 150.73423 
L 246.535045 149.662564 
L 247.493902 148.326568 
L 248.45276 146.741044 
L 250.370474 142.894244 
L 252.288188 138.292165 
L 255.16476 130.424725 
L 260.917903 114.141679 
L 262.835618 109.432716 
L 264.753332 105.447228 
L 265.712189 103.7823 
L 266.671047 102.361343 
L 267.629904 101.2001 
L 268.588761 100.311436 
L 269.547618 99.705197 
L 270.506475 99.388098 
L 271.465333 99.363653 
L 272.42419 99.632133 
L 273.383047 100.190563 
L 274.341904 101.032757 
L 275.300762 102.149383 
L 276.259619 103.528072 
L 277.218476 105.153548 
L 279.13619 109.070295 
L 281.053905 113.726534 
L 283.930476 121.64059 
L 288.724762 135.338578 
L 290.642477 140.289099 
L 292.560191 144.599469 
L 294.477906 148.079201 
L 295.436763 149.45789 
L 296.39562 150.574516 
L 297.354477 151.41671 
L 298.313335 151.97514 
L 299.272192 152.243619 
L 300.231049 152.219175 
L 301.189906 151.902076 
L 302.148763 151.295836 
L 303.107621 150.407172 
L 304.066478 149.245929 
L 305.025335 147.824973 
L 305.984192 146.160045 
L 307.901907 142.174557 
L 309.819621 137.465593 
L 312.696193 129.507358 
L 317.490479 115.836888 
L 319.408193 110.931686 
L 321.325908 106.683715 
L 323.243622 103.280705 
L 324.202479 101.944709 
L 325.161336 100.873043 
L 326.120194 100.077579 
L 327.079051 99.567131 
L 328.037908 99.347352 
L 328.996765 99.42068 
L 329.955623 99.7863 
L 330.91448 100.440162 
L 331.873337 101.375022 
L 332.832194 102.580524 
L 333.791051 104.043311 
L 335.708766 107.673247 
L 337.62648 112.104412 
L 339.544195 117.140984 
L 343.379623 128.123106 
L 346.256195 136.199121 
L 348.17391 141.057493 
L 350.091624 145.241756 
L 351.050481 147.021914 
L 352.009338 148.566997 
L 352.968196 149.859888 
L 353.927053 150.886264 
L 354.88591 151.634753 
L 355.844767 152.097063 
L 356.803624 152.268072 
L 357.762482 152.145885 
L 358.721339 151.731856 
L 359.680196 151.030573 
L 360.639053 150.049804 
L 361.59791 148.800415 
L 362.556768 147.296248 
L 364.474482 143.592876 
L 366.392197 139.10335 
L 368.309911 134.026075 
L 370.227625 128.585427 
L 370.227625 128.585427 
" clip-path="url(#pfebe749ba7)" style="fill: none; stroke: #0000ff; stroke-width: 2; stroke-linecap: square"/>
   </g>
   <g id="line2d_3">
    <defs>
     <path id="mbd0be50d01" d="M 3 0 
L -3 -3 
L -3 3 
z
" style="stroke: #000000; stroke-linejoin: miter"/>
    </defs>
    <g>
     <use xlink:href="#mbd0be50d01" x="387.343227" y="125.803636" style="stroke: #000000; stroke-linejoin: miter"/>
    </g>
   </g>
   <g id="line2d_4">
    <defs>
     <path id="m7ae509e65e" d="M 0 -3 
L -3 3 
L 3 3 
z
" style="stroke: #000000; stroke-linejoin: miter"/>
    </defs>
    <g>
     <use xlink:href="#m7ae509e65e" x="27.915601" y="30.528" style="stroke: #000000; stroke-linejoin: miter"/>
    </g>
   </g>
   <g id="patch_3">
    <path d="M 27.915601 205.2 
L 27.915601 30.528 
" style="fill: none; stroke: #000000; stroke-width: 2; stroke-linejoin: miter; stroke-linecap: square"/>
   </g>
   <g id="patch_4">
    <path d="M 10.8 125.803636 
L 387.343227 125.803636 
" style="fill: none; stroke: #000000; stroke-width: 2; stroke-linejoin: miter; stroke-linecap: square"/>
   </g>
   <g id="text_2">
    <!-- t / s -->
    <g transform="translate(395.561016 129.666761) scale(0.14 -0.14)">
     <defs>
      <path id="DejaVuSans-74" d="M 1172 4494 
L 1172 3500 
L 2356 3500 
L 2356 3053 
L 1172 3053 
L 1172 1153 
Q 1172 725 1289 603 
Q 1406 481 1766 481 
L 2356 481 
L 2356 0 
L 1766 0 
Q 1100 0 847 248 
Q 594 497 594 1153 
L 594 3053 
L 172 3053 
L 172 3500 
L 594 3500 
L 594 4494 
L 1172 4494 
z
" transform="scale(0.015625)"/>
      <path id="DejaVuSans-20" transform="scale(0.015625)"/>
      <path id="DejaVuSans-2f" d="M 1625 4666 
L 2156 4666 
L 531 -594 
L 0 -594 
L 1625 4666 
z
" transform="scale(0.015625)"/>
      <path id="DejaVuSans-73" d="M 2834 3397 
L 2834 2853 
Q 2591 2978 2328 3040 
Q 2066 3103 1784 3103 
Q 1356 3103 1142 2972 
Q 928 2841 928 2578 
Q 928 2378 1081 2264 
Q 1234 2150 1697 2047 
L 1894 2003 
Q 2506 1872 2764 1633 
Q 3022 1394 3022 966 
Q 3022 478 2636 193 
Q 2250 -91 1575 -91 
Q 1294 -91 989 -36 
Q 684 19 347 128 
L 347 722 
Q 666 556 975 473 
Q 1284 391 1588 391 
Q 1994 391 2212 530 
Q 2431 669 2431 922 
Q 2431 1156 2273 1281 
Q 2116 1406 1581 1522 
L 1381 1569 
Q 847 1681 609 1914 
Q 372 2147 372 2553 
Q 372 3047 722 3315 
Q 1072 3584 1716 3584 
Q 2034 3584 2315 3537 
Q 2597 3491 2834 3397 
z
" transform="scale(0.015625)"/>
     </defs>
     <use xlink:href="#DejaVuSans-74"/>
     <use xlink:href="#DejaVuSans-20" x="39.208984"/>
     <use xlink:href="#DejaVuSans-2f" x="70.996094"/>
     <use xlink:href="#DejaVuSans-20" x="104.6875"/>
     <use xlink:href="#DejaVuSans-73" x="136.474609"/>
    </g>
   </g>
   <g id="text_3">
    <!-- A -->
    <g transform="translate(23.127164 21.264728) scale(0.14 -0.14)">
     <defs>
      <path id="DejaVuSans-41" d="M 2188 4044 
L 1331 1722 
L 3047 1722 
L 2188 4044 
z
M 1831 4666 
L 2547 4666 
L 4325 0 
L 3669 0 
L 3244 1197 
L 1141 1197 
L 716 0 
L 50 0 
L 1831 4666 
z
" transform="scale(0.015625)"/>
     </defs>
     <use xlink:href="#DejaVuSans-41"/>
    </g>
   </g>
  </g>
 </g>
 <defs>
  <clipPath id="pfebe749ba7">
   <rect x="10.8" y="30.528" width="376.543227" height="174.672"/>
  </clipPath>
 </defs>
</svg>
