<?xml version="1.0" encoding="utf-8" standalone="no"?>
<!DOCTYPE svg PUBLIC "-//W3C//DTD SVG 1.1//EN"
  "http://www.w3.org/Graphics/SVG/1.1/DTD/svg11.dtd">
<svg xmlns:xlink="http://www.w3.org/1999/xlink" width="432pt" height="216pt" viewBox="0 0 432 216" xmlns="http://www.w3.org/2000/svg" version="1.1">
 <metadata>
  <rdf:RDF xmlns:dc="http://purl.org/dc/elements/1.1/" xmlns:cc="http://creativecommons.org/ns#" xmlns:rdf="http://www.w3.org/1999/02/22-rdf-syntax-ns#">
   <cc:Work>
    <dc:type rdf:resource="http://purl.org/dc/dcmitype/StillImage"/>
    <dc:date>2025-10-21T17:25:25.686570</dc:date>
    <dc:format>image/svg+xml</dc:format>
    <dc:creator>
     <cc:Agent>
      <dc:title>Matplotlib v3.9.4, https://matplotlib.org/</dc:title>
     </cc:Agent>
    </dc:creator>
   </cc:Work>
  </rdf:RDF>
 </metadata>
 <defs>
  <style type="text/css">*{stroke-linejoin: round; stroke-linecap: butt}</style>
 </defs>
 <g id="figure_1">
  <g id="patch_1">
   <path d="M 0 216 
L 432 216 
L 432 0 
L 0 0 
L 0 216 
z
" style="fill: none"/>
  </g>
  <g id="axes_1">
   <g id="patch_2">
    <path d="M 10.8 205.2 
L 356.603942 205.2 
L 356.603942 30.528 
L 10.8 30.528 
L 10.8 205.2 
z
" style="fill: none"/>
   </g>
   <g id="matplotlib.axis_1"/>
   <g id="matplotlib.axis_2">
    <g id="ytick_1">
     <g id="line2d_1">
      <defs>
       <path id="m04f708a755" d="M 4 0 
L -4 -0 
" style="stroke: #000000; stroke-width: 2"/>
      </defs>
      <g>
       <use xlink:href="#m04f708a755" x="26.518361" y="46.407273" style="stroke: #000000; stroke-width: 2"/>
      </g>
     </g>
     <g id="text_1">
      <!-- 1 -->
      <g transform="translate(12.655861 50.206491) scale(0.1 -0.1)">
       <defs>
        <path id="DejaVuSans-31" d="M 794 531 
L 1825 531 
L 1825 4091 
L 703 3866 
L 703 4441 
L 1819 4666 
L 2450 4666 
L 2450 531 
L 3481 531 
L 3481 0 
L 794 0 
L 794 531 
z
" transform="scale(0.015625)"/>
       </defs>
       <use xlink:href="#DejaVuSans-31"/>
      </g>
     </g>
    </g>
   </g>
   <g id="line2d_2">
    <path d="M 26.518361 125.803636 
L 63.597718 125.803636 
L 63.711775 65.40643 
L 63.758111 66.647521 
L 63.825833 78.347875 
L 63.875733 139.318702 
L 64.01474 186.073952 
L 64.028997 186.192628 
L 64.061076 185.710282 
L 64.128798 178.293672 
L 64.185826 138.659722 
L 64.32127 65.857635 
L 64.349784 65.405003 
L 64.399684 66.828891 
L 64.460277 76.702605 
L 64.510177 127.012813 
L 64.638492 185.691424 
L 64.67057 186.198483 
L 64.716906 184.938005 
L 64.784628 173.132957 
L 64.838092 105.972613 
L 64.9771 65.500931 
L 64.987793 65.411075 
L 65.030564 66.370872 
L 65.091157 74.271169 
L 65.144622 113.646037 
L 65.280065 185.757424 
L 65.308579 186.202667 
L 65.358479 184.753761 
L 65.419072 174.780817 
L 65.468972 123.395996 
L 65.597287 65.904665 
L 65.629366 65.411919 
L 65.675701 66.692164 
L 65.743423 78.602366 
L 65.796887 146.174053 
L 65.935895 186.110284 
L 65.946588 186.199152 
L 65.989359 185.216118 
L 66.049952 177.238118 
L 66.103417 137.217657 
L 66.235296 65.938153 
L 66.267374 65.405266 
L 66.31371 66.632023 
L 66.381432 78.253722 
L 66.431332 138.827937 
L 66.570339 186.068794 
L 66.588161 186.191667 
L 66.62024 185.574571 
L 66.680833 179.196151 
L 66.741426 139.157331 
L 66.880433 65.758108 
L 66.905383 65.405981 
L 66.951719 66.581051 
L 67.019441 77.909395 
L 67.069341 136.827447 
L 67.204784 185.963669 
L 67.22617 186.200335 
L 67.268941 185.128999 
L 67.329534 176.753438 
L 67.382999 132.964254 
L 67.511313 66.024503 
L 67.543392 65.413707 
L 67.596856 66.980667 
L 67.657449 77.56086 
L 67.707349 134.441492 
L 67.842793 185.951291 
L 67.864178 186.202468 
L 67.90695 185.177279 
L 67.963979 177.974723 
L 68.021007 135.577642 
L 68.152886 65.912947 
L 68.184965 65.409507 
L 68.231301 66.674889 
L 68.299022 78.506153 
L 68.352487 145.769863 
L 68.491494 186.107251 
L 68.502187 186.197003 
L 68.544959 185.231293 
L 68.605552 177.311811 
L 68.659016 137.779769 
L 68.794459 65.847848 
L 68.822974 65.404672 
L 68.872874 66.859569 
L 68.933467 76.857749 
L 68.983367 128.507997 
L 69.115246 185.794295 
L 69.14376 186.194475 
L 69.190096 184.909223 
L 69.257818 172.972569 
L 69.311282 105.299081 
L 69.450289 65.495875 
L 69.460982 65.407502 
L 69.503754 66.396153 
L 69.564347 74.393973 
L 69.617811 114.58313 
L 69.74969 185.672515 
L 69.781769 186.20168 
L 69.828105 184.970163 
L 69.895826 173.322212 
L 69.945726 112.613497 
L 70.084734 65.536695 
L 70.102555 65.416586 
L 70.134634 66.036772 
L 70.195227 72.430871 
L 70.25582 112.613497 
L 70.394828 185.852412 
L 70.419778 186.20168 
L 70.466113 185.021935 
L 70.533835 173.666478 
L 70.583735 114.58313 
L 70.719178 65.642392 
L 70.740564 65.407502 
L 70.783336 66.482372 
L 70.843929 74.879647 
L 70.897393 118.900875 
L 71.025708 185.586891 
L 71.057786 186.194475 
L 71.111251 184.621545 
L 71.171844 174.01448 
L 71.221744 116.931576 
L 71.357187 65.654855 
L 71.378573 65.404672 
L 71.421344 66.43464 
L 71.478373 73.652785 
L 71.535402 116.24989 
L 71.667281 185.697156 
L 71.699359 186.197003 
L 71.745695 184.926692 
L 71.813417 173.069173 
L 71.866881 105.702421 
L 72.005889 65.499062 
L 72.016582 65.409507 
L 72.059353 66.381065 
L 72.119946 74.319893 
L 72.173411 114.011872 
L 72.308854 185.761454 
L 72.337368 186.202468 
L 72.387268 184.741692 
L 72.447861 174.718115 
L 72.497761 122.804027 
L 72.62964 65.810261 
L 72.658155 65.413707 
L 72.70449 66.703994 
L 72.772212 78.667191 
L 72.825676 146.441972 
L 72.964684 186.112562 
L 72.975377 186.200335 
L 73.018148 185.206158 
L 73.078741 177.188364 
L 73.132206 136.827447 
L 73.264085 65.931429 
L 73.296163 65.405981 
L 73.342499 66.642276 
L 73.410221 78.316443 
L 73.460121 139.157331 
L 73.599128 186.072298 
L 73.613386 186.191667 
L 73.649029 185.566455 
L 73.706057 179.8725 
L 73.763086 149.904793 
L 73.927043 65.433321 
L 73.930608 65.436416 
L 73.934172 65.405266 
L 73.966251 65.938153 
L 74.033972 73.592288 
L 74.091001 115.599483 
L 74.22288 185.688451 
L 74.254959 186.199152 
L 74.301294 184.943555 
L 74.369016 173.164693 
L 74.42248 106.107997 
L 74.561488 65.501789 
L 74.572181 65.411919 
L 74.614952 66.365747 
L 74.675545 74.24702 
L 74.72901 113.467394 
L 74.864453 185.755448 
L 74.892967 186.202667 
L 74.942867 184.75986 
L 75.00346 174.811985 
L 75.053361 123.694034 
L 75.181675 65.907356 
L 75.213754 65.411075 
L 75.26009 66.68634 
L 75.327811 78.570168 
L 75.381276 146.039594 
L 75.520283 186.109221 
L 75.530976 186.198483 
L 75.573748 185.221148 
L 75.634341 177.262813 
L 75.687805 137.408054 
L 75.823248 65.843757 
L 75.851763 65.405003 
L 75.901663 66.871547 
L 75.962256 76.920676 
L 76.012156 129.096873 
L 76.144035 185.799778 
L 76.172549 186.192628 
L 76.218885 184.897279 
L 76.286607 172.907437 
L 76.340071 105.031915 
L 76.479078 65.493495 
L 76.489771 65.40643 
L 76.532543 66.406038 
L 76.593136 74.443956 
L 76.5967 75.487174 
L 76.710758 125.803636 
L 80.927318 125.803636 
L 80.962961 65.404804 
L 81.041376 69.581745 
L 81.105533 95.518628 
L 81.283748 186.197765 
L 81.301569 185.996035 
L 81.347905 183.526299 
L 81.408498 168.19462 
L 81.60097 65.41027 
L 81.682949 69.987071 
L 81.743542 94.547849 
L 81.921756 186.202601 
L 81.939578 186.021339 
L 81.993042 182.882867 
L 82.057199 161.899192 
L 82.242543 65.412797 
L 82.288879 66.69805 
L 82.3566 78.634704 
L 82.410065 146.308191 
L 82.549072 186.111398 
L 82.559765 186.199771 
L 82.602537 185.21112 
L 82.66313 177.213299 
L 82.716594 137.024142 
L 82.848473 65.934757 
L 82.880552 65.405592 
L 82.926887 66.63711 
L 82.994609 78.285061 
L 83.044509 138.993775 
L 83.183517 186.070578 
L 83.201338 186.190687 
L 83.233417 185.5705 
L 83.29401 179.176402 
L 83.354603 138.993775 
L 83.49361 65.75486 
L 83.51856 65.405592 
L 83.564896 66.585338 
L 83.632618 77.940794 
L 83.682518 137.024142 
L 83.817961 185.96488 
L 83.839347 186.199771 
L 83.882118 185.124901 
L 83.942711 176.727626 
L 83.996176 132.706398 
L 84.12449 66.020381 
L 84.156569 65.412797 
L 84.210033 66.985728 
L 84.270626 77.592793 
L 84.320527 134.675697 
L 84.45597 185.952418 
L 84.477356 186.202601 
L 84.520127 185.172633 
L 84.577156 177.954488 
L 84.634184 135.357383 
L 84.766063 65.910117 
L 84.798142 65.41027 
L 84.844478 66.680581 
L 84.912199 78.5381 
L 84.965664 145.904852 
L 85.104671 186.10821 
L 85.115364 186.197765 
L 85.158136 185.226208 
L 85.218729 177.28738 
L 85.272193 137.595401 
L 85.407636 65.845819 
L 85.436151 65.404804 
L 85.486051 66.865581 
L 85.546644 76.889158 
L 85.596544 128.803246 
L 85.728423 185.797012 
L 85.756937 186.193565 
L 85.803273 184.903279 
L 85.870995 172.940082 
L 85.924459 105.1653 
L 86.063467 65.49471 
L 86.074159 65.406938 
L 86.116931 66.401115 
L 86.177524 74.418909 
L 86.230988 114.779826 
L 86.362867 185.675843 
L 86.394946 186.201292 
L 86.441282 184.964997 
L 86.509003 173.29083 
L 86.558904 112.449942 
L 86.697911 65.534975 
L 86.712168 65.415605 
L 86.747811 66.040818 
L 86.80484 71.734773 
L 86.861869 101.70248 
L 87.025826 186.173951 
L 87.02939 186.170856 
L 87.032955 186.202007 
L 87.065033 185.66912 
L 87.132755 178.014985 
L 87.189784 136.00779 
L 87.321663 65.918822 
L 87.353741 65.40812 
L 87.400077 66.663718 
L 87.467799 78.44258 
L 87.521263 145.499276 
L 87.660271 186.105483 
L 87.670963 186.195354 
L 87.713735 185.241526 
L 87.774328 177.360252 
L 87.827792 138.139879 
L 87.963236 65.851825 
L 87.99175 65.404605 
L 88.04165 66.847412 
L 88.102243 76.795288 
L 88.152143 127.913239 
L 88.280458 185.699916 
L 88.312536 186.196198 
L 88.358872 184.920933 
L 88.426594 173.037105 
L 88.480058 105.567679 
L 88.619066 65.498051 
L 88.629759 65.40879 
L 88.67253 66.386124 
L 88.733123 74.344459 
L 88.786588 114.199218 
L 88.922031 185.763516 
L 88.950545 186.20227 
L 89.000445 184.735725 
L 89.061038 174.686597 
L 89.110938 122.5104 
L 89.242817 65.807495 
L 89.271332 65.414645 
L 89.317668 66.709994 
L 89.385389 78.699836 
L 89.438854 146.575358 
L 89.577861 186.113777 
L 89.588554 186.200842 
L 89.631325 185.201234 
L 89.691919 177.163317 
L 89.745383 136.627514 
L 89.877262 65.928171 
L 89.90934 65.40643 
L 89.955676 66.647521 
L 90.023398 78.347875 
L 90.073298 139.318702 
L 90.212306 186.073952 
L 90.226563 186.192628 
L 90.258641 185.710282 
L 90.326363 178.293672 
L 90.383392 138.659722 
L 90.518835 65.857635 
L 90.547349 65.405003 
L 90.597249 66.828891 
L 90.657842 76.702605 
L 90.707742 127.012813 
L 90.836057 185.691424 
L 90.868136 186.198483 
L 90.914472 184.938005 
L 90.982193 173.132957 
L 91.035658 105.972613 
L 91.174665 65.500931 
L 91.185358 65.411075 
L 91.228129 66.370872 
L 91.288722 74.271169 
L 91.342187 113.646037 
L 91.47763 185.757424 
L 91.506144 186.202667 
L 91.556045 184.753761 
L 91.616638 174.780817 
L 91.666538 123.395996 
L 91.794852 65.904665 
L 91.826931 65.411919 
L 91.873267 66.692164 
L 91.940988 78.602366 
L 91.994453 146.174053 
L 92.13346 186.110284 
L 92.144153 186.199152 
L 92.186925 185.216118 
L 92.247518 177.238118 
L 92.300982 137.217657 
L 92.432861 65.938153 
L 92.46494 65.405266 
L 92.511276 66.632023 
L 92.578997 78.253722 
L 92.628897 138.827937 
L 92.767905 186.068794 
L 92.785726 186.191667 
L 92.817805 185.574571 
L 92.878398 179.196151 
L 92.938991 139.157331 
L 93.077998 65.758108 
L 93.102948 65.405981 
L 93.149284 66.581051 
L 93.217006 77.909395 
L 93.266906 136.827447 
L 93.402349 185.963669 
L 93.423735 186.200335 
L 93.466506 185.128999 
L 93.527099 176.753438 
L 93.580564 132.964254 
L 93.708879 66.024503 
L 93.740957 65.413707 
L 93.794422 66.980667 
L 93.855015 77.56086 
L 93.904915 134.441492 
L 93.9263 161.831598 
L 93.929865 125.803636 
L 94.008279 125.803636 
L 98.256918 125.803636 
L 98.260483 66.556439 
L 98.367412 107.873465 
L 98.520676 186.094216 
L 98.534933 186.202468 
L 98.567012 185.643604 
L 98.634734 177.872682 
L 98.691762 134.441492 
L 98.823641 65.899484 
L 98.85572 65.413707 
L 98.902056 66.703994 
L 98.969777 78.667191 
L 99.023242 146.441972 
L 99.162249 186.112562 
L 99.172942 186.200335 
L 99.215714 185.206158 
L 99.276307 177.188364 
L 99.329771 136.827447 
L 99.46165 65.931429 
L 99.493729 65.405981 
L 99.540064 66.642276 
L 99.607786 78.316443 
L 99.657686 139.157331 
L 99.796694 186.072298 
L 99.810951 186.191667 
L 99.846594 185.566455 
L 99.903623 179.8725 
L 99.960651 149.904793 
L 100.124609 65.433321 
L 100.128173 65.436416 
L 100.131737 65.405266 
L 100.163816 65.938153 
L 100.231538 73.592288 
L 100.288566 115.599483 
L 100.420445 185.688451 
L 100.452524 186.199152 
L 100.49886 184.943555 
L 100.566581 173.164693 
L 100.620046 106.107997 
L 100.759053 65.501789 
L 100.769746 65.411919 
L 100.812518 66.365747 
L 100.873111 74.24702 
L 100.926575 113.467394 
L 101.062018 185.755448 
L 101.090533 186.202667 
L 101.140433 184.75986 
L 101.201026 174.811985 
L 101.250926 123.694034 
L 101.379241 65.907356 
L 101.411319 65.411075 
L 101.457655 66.68634 
L 101.525377 78.570168 
L 101.578841 146.039594 
L 101.717848 186.109221 
L 101.728541 186.198483 
L 101.771313 185.221148 
L 101.831906 177.262813 
L 101.88537 137.408054 
L 102.020814 65.843757 
L 102.049328 65.405003 
L 102.099228 66.871547 
L 102.159821 76.920676 
L 102.209721 129.096873 
L 102.3416 185.799778 
L 102.370114 186.192628 
L 102.41645 184.897279 
L 102.484172 172.907437 
L 102.537636 105.031915 
L 102.676644 65.493495 
L 102.687337 65.40643 
L 102.730108 66.406038 
L 102.790701 74.443956 
L 102.844166 114.979759 
L 102.976044 185.679102 
L 103.008123 186.200842 
L 103.054459 184.959752 
L 103.122181 173.259397 
L 103.172081 112.288571 
L 103.311088 65.53332 
L 103.325345 65.414645 
L 103.357424 65.896991 
L 103.425146 73.3136 
L 103.482174 112.947551 
L 103.617618 185.749637 
L 103.646132 186.20227 
L 103.696032 184.778382 
L 103.756625 174.904668 
L 103.806525 124.59446 
L 103.93484 65.915849 
L 103.966918 65.40879 
L 104.013254 66.669267 
L 104.080976 78.474316 
L 104.13444 145.63466 
L 104.273448 186.106342 
L 104.284141 186.196198 
L 104.326912 185.2364 
L 104.387505 177.336104 
L 104.44097 137.961235 
L 104.576413 65.849849 
L 104.604927 65.404605 
L 104.654827 66.853511 
L 104.71542 76.826456 
L 104.76532 128.211276 
L 104.893635 185.702608 
L 104.925714 186.195354 
L 104.972049 184.915109 
L 105.039771 173.004907 
L 105.093235 105.43322 
L 105.232243 65.496989 
L 105.242936 65.40812 
L 105.285707 66.391155 
L 105.3463 74.369155 
L 105.399765 114.389615 
L 105.531644 185.66912 
L 105.563722 186.202007 
L 105.610058 184.97525 
L 105.67778 173.353551 
L 105.72768 112.779335 
L 105.866687 65.538479 
L 105.884509 65.415605 
L 105.916588 66.032702 
L 105.977181 72.411121 
L 106.037774 112.449942 
L 106.176781 185.849165 
L 106.201731 186.201292 
L 106.248067 185.026222 
L 106.315789 173.697878 
L 106.365689 114.779826 
L 106.501132 65.643604 
L 106.522518 65.406938 
L 106.565289 66.478274 
L 106.625882 74.853835 
L 106.679347 118.643019 
L 106.807661 185.58277 
L 106.83974 186.193565 
L 106.893204 184.626606 
L 106.953797 174.046412 
L 107.003697 117.16578 
L 107.139141 65.655982 
L 107.160526 65.404804 
L 107.203298 66.429994 
L 107.260327 73.63255 
L 107.317355 116.02963 
L 107.449234 185.694325 
L 107.481313 186.197765 
L 107.527649 184.932384 
L 107.59537 173.10112 
L 107.648835 105.83741 
L 107.787842 65.500022 
L 107.798535 65.41027 
L 107.841307 66.37598 
L 107.9019 74.295461 
L 107.955364 113.827503 
L 108.090807 185.759424 
L 108.119322 186.202601 
L 108.169222 184.747704 
L 108.229815 174.749524 
L 108.279715 123.099276 
L 108.411594 65.812978 
L 108.440108 65.412797 
L 108.486444 66.69805 
L 108.554166 78.634704 
L 108.60763 146.308191 
L 108.746637 186.111398 
L 108.75733 186.199771 
L 108.800102 185.21112 
L 108.860695 177.213299 
L 108.914159 137.024142 
L 109.046038 65.934757 
L 109.078117 65.405592 
L 109.124453 66.63711 
L 109.192174 78.285061 
L 109.242074 138.993775 
L 109.381082 186.070578 
L 109.398903 186.190687 
L 109.430982 185.5705 
L 109.491575 179.176402 
L 109.552168 138.993775 
L 109.691176 65.75486 
L 109.716126 65.405592 
L 109.762461 66.585338 
L 109.830183 77.940794 
L 109.880083 137.024142 
L 110.015526 185.96488 
L 110.036912 186.199771 
L 110.079684 185.124901 
L 110.140277 176.727626 
L 110.193741 132.706398 
L 110.322056 66.020381 
L 110.354134 65.412797 
L 110.407599 66.985728 
L 110.468192 77.592793 
L 110.518092 134.675697 
L 110.653535 185.952418 
L 110.674921 186.202601 
L 110.717692 185.172633 
L 110.774721 177.954488 
L 110.83175 135.357383 
L 110.963629 65.910117 
L 110.995707 65.41027 
L 111.042043 66.680581 
L 111.109765 78.5381 
L 111.163229 145.904852 
L 111.255901 184.160924 
L 111.259465 125.803636 
L 115.586519 125.803636 
L 115.590083 81.858322 
L 115.689883 178.598249 
L 115.786119 186.200842 
L 115.828891 185.201234 
L 115.889484 177.163317 
L 115.942948 136.627514 
L 116.074827 65.928171 
L 116.106906 65.40643 
L 116.153242 66.647521 
L 116.220963 78.347875 
L 116.270863 139.318702 
L 116.409871 186.073952 
L 116.424128 186.192628 
L 116.456207 185.710282 
L 116.523928 178.293672 
L 116.580957 138.659722 
L 116.7164 65.857635 
L 116.744915 65.405003 
L 116.794815 66.828891 
L 116.855408 76.702605 
L 116.905308 127.012813 
L 117.033622 185.691424 
L 117.065701 186.198483 
L 117.112037 184.938005 
L 117.179758 173.132957 
L 117.233223 105.972613 
L 117.37223 65.500931 
L 117.382923 65.411075 
L 117.425695 66.370872 
L 117.486288 74.271169 
L 117.539752 113.646037 
L 117.675195 185.757424 
L 117.70371 186.202667 
L 117.75361 184.753761 
L 117.814203 174.780817 
L 117.864103 123.395996 
L 117.992418 65.904665 
L 118.024496 65.411919 
L 118.070832 66.692164 
L 118.138554 78.602366 
L 118.192018 146.174053 
L 118.331026 186.110284 
L 118.341719 186.199152 
L 118.38449 185.216118 
L 118.445083 177.238118 
L 118.498547 137.217657 
L 118.630426 65.938153 
L 118.662505 65.405266 
L 118.708841 66.632023 
L 118.776562 78.253722 
L 118.826463 138.827937 
L 118.96547 186.068794 
L 118.983292 186.191667 
L 119.01537 185.574571 
L 119.075963 179.196151 
L 119.136556 139.157331 
L 119.275564 65.758108 
L 119.300514 65.405981 
L 119.34685 66.581051 
L 119.414571 77.909395 
L 119.464471 136.827447 
L 119.599915 185.963669 
L 119.6213 186.200335 
L 119.664072 185.128999 
L 119.724665 176.753438 
L 119.778129 132.964254 
L 119.906444 66.024503 
L 119.938522 65.413707 
L 119.991987 66.980667 
L 120.05258 77.56086 
L 120.10248 134.441492 
L 120.237923 185.951291 
L 120.259309 186.202468 
L 120.302081 185.177279 
L 120.359109 177.974723 
L 120.416138 135.577642 
L 120.548017 65.912947 
L 120.580096 65.409507 
L 120.626431 66.674889 
L 120.694153 78.506153 
L 120.747617 145.769863 
L 120.886625 186.107251 
L 120.897318 186.197003 
L 120.940089 185.231293 
L 121.000682 177.311811 
L 121.054147 137.779769 
L 121.18959 65.847848 
L 121.218104 65.404672 
L 121.268004 66.859569 
L 121.328597 76.857749 
L 121.378498 128.507997 
L 121.510376 185.794295 
L 121.538891 186.194475 
L 121.585227 184.909223 
L 121.652948 172.972569 
L 121.706413 105.299081 
L 121.84542 65.495875 
L 121.856113 65.407502 
L 121.898885 66.396153 
L 121.959478 74.393973 
L 122.012942 114.58313 
L 122.144821 185.672515 
L 122.1769 186.20168 
L 122.223235 184.970163 
L 122.290957 173.322212 
L 122.340857 112.613497 
L 122.479865 65.536695 
L 122.497686 65.416586 
L 122.529765 66.036772 
L 122.590358 72.430871 
L 122.650951 112.613497 
L 122.789958 185.852412 
L 122.814908 186.20168 
L 122.861244 185.021935 
L 122.928966 173.666478 
L 122.978866 114.58313 
L 123.114309 65.642392 
L 123.135695 65.407502 
L 123.178466 66.482372 
L 123.239059 74.879647 
L 123.292524 118.900875 
L 123.420838 185.586891 
L 123.452917 186.194475 
L 123.506381 184.621545 
L 123.566974 174.01448 
L 123.616875 116.931576 
L 123.752318 65.654855 
L 123.773703 65.404672 
L 123.816475 66.43464 
L 123.873504 73.652785 
L 123.930532 116.24989 
L 124.062411 185.697156 
L 124.09449 186.197003 
L 124.140826 184.926692 
L 124.208547 173.069173 
L 124.262012 105.702421 
L 124.401019 65.499062 
L 124.411712 65.409507 
L 124.454484 66.381065 
L 124.515077 74.319893 
L 124.568541 114.011872 
L 124.703984 185.761454 
L 124.732499 186.202468 
L 124.782399 184.741692 
L 124.842992 174.718115 
L 124.892892 122.804027 
L 125.024771 65.810261 
L 125.053285 65.413707 
L 125.099621 66.703994 
L 125.167343 78.667191 
L 125.220807 146.441972 
L 125.359815 186.112562 
L 125.370507 186.200335 
L 125.413279 185.206158 
L 125.473872 177.188364 
L 125.527336 136.827447 
L 125.659215 65.931429 
L 125.691294 65.405981 
L 125.73763 66.642276 
L 125.805351 78.316443 
L 125.855252 139.157331 
L 125.994259 186.072298 
L 126.008516 186.191667 
L 126.044159 185.566455 
L 126.101188 179.8725 
L 126.158217 149.904793 
L 126.322174 65.433321 
L 126.325738 65.436416 
L 126.329303 65.405266 
L 126.361381 65.938153 
L 126.429103 73.592288 
L 126.486132 115.599483 
L 126.618011 185.688451 
L 126.650089 186.199152 
L 126.696425 184.943555 
L 126.764147 173.164693 
L 126.817611 106.107997 
L 126.956619 65.501789 
L 126.967311 65.411919 
L 127.010083 66.365747 
L 127.070676 74.24702 
L 127.12414 113.467394 
L 127.259584 185.755448 
L 127.288098 186.202667 
L 127.337998 184.75986 
L 127.398591 174.811985 
L 127.448491 123.694034 
L 127.576806 65.907356 
L 127.608884 65.411075 
L 127.65522 66.68634 
L 127.722942 78.570168 
L 127.776406 146.039594 
L 127.915414 186.109221 
L 127.926107 186.198483 
L 127.968878 185.221148 
L 128.029471 177.262813 
L 128.082936 137.408054 
L 128.218379 65.843757 
L 128.246893 65.405003 
L 128.296793 66.871547 
L 128.357386 76.920676 
L 128.407286 129.096873 
L 128.539165 185.799778 
L 128.56768 186.192628 
L 128.585501 185.984289 
L 128.699559 125.803636 
L 132.916119 125.803636 
L 133.030177 186.162173 
L 133.037305 186.193565 
L 133.058691 185.975896 
L 133.105027 183.426425 
L 133.16562 167.641455 
L 133.358092 65.404804 
L 133.44007 70.137366 
L 133.500663 95.518628 
L 133.678878 186.197765 
L 133.6967 185.996035 
L 133.743035 183.526299 
L 133.803628 168.19462 
L 133.9961 65.41027 
L 134.078079 69.987071 
L 134.138672 94.547849 
L 134.316887 186.202601 
L 134.334708 186.021339 
L 134.388173 182.882867 
L 134.45233 161.899192 
L 134.637673 65.412797 
L 134.684009 66.69805 
L 134.751731 78.634704 
L 134.805195 146.308191 
L 134.944203 186.111398 
L 134.954896 186.199771 
L 134.997667 185.21112 
L 135.05826 177.213299 
L 135.111725 137.024142 
L 135.243604 65.934757 
L 135.275682 65.405592 
L 135.322018 66.63711 
L 135.38974 78.285061 
L 135.43964 138.993775 
L 135.578647 186.070578 
L 135.596469 186.190687 
L 135.628547 185.5705 
L 135.68914 179.176402 
L 135.749733 138.993775 
L 135.888741 65.75486 
L 135.913691 65.405592 
L 135.960027 66.585338 
L 136.027748 77.940794 
L 136.077648 137.024142 
L 136.213092 185.96488 
L 136.234477 186.199771 
L 136.277249 185.124901 
L 136.337842 176.727626 
L 136.391306 132.706398 
L 136.519621 66.020381 
L 136.5517 65.412797 
L 136.605164 66.985728 
L 136.665757 77.592793 
L 136.715657 134.675697 
L 136.8511 185.952418 
L 136.872486 186.202601 
L 136.915258 185.172633 
L 136.972286 177.954488 
L 137.029315 135.357383 
L 137.161194 65.910117 
L 137.193273 65.41027 
L 137.239608 66.680581 
L 137.30733 78.5381 
L 137.360795 145.904852 
L 137.499802 186.10821 
L 137.510495 186.197765 
L 137.553266 185.226208 
L 137.613859 177.28738 
L 137.667324 137.595401 
L 137.802767 65.845819 
L 137.831281 65.404804 
L 137.881182 66.865581 
L 137.941775 76.889158 
L 137.991675 128.803246 
L 138.123554 185.797012 
L 138.152068 186.193565 
L 138.198404 184.903279 
L 138.266125 172.940082 
L 138.31959 105.1653 
L 138.458597 65.49471 
L 138.46929 65.406938 
L 138.512062 66.401115 
L 138.572655 74.418909 
L 138.626119 114.779826 
L 138.757998 185.675843 
L 138.790077 186.201292 
L 138.836412 184.964997 
L 138.904134 173.29083 
L 138.954034 112.449942 
L 139.093042 65.534975 
L 139.107299 65.415605 
L 139.142942 66.040818 
L 139.199971 71.734773 
L 139.256999 101.70248 
L 139.420957 186.173951 
L 139.424521 186.170856 
L 139.428085 186.202007 
L 139.460164 185.66912 
L 139.527886 178.014985 
L 139.584914 136.00779 
L 139.716793 65.918822 
L 139.748872 65.40812 
L 139.795208 66.663718 
L 139.862929 78.44258 
L 139.916394 145.499276 
L 140.055401 186.105483 
L 140.066094 186.195354 
L 140.108866 185.241526 
L 140.169459 177.360252 
L 140.222923 138.139879 
L 140.358366 65.851825 
L 140.386881 65.404605 
L 140.436781 66.847412 
L 140.497374 76.795288 
L 140.547274 127.913239 
L 140.675588 185.699916 
L 140.707667 186.196198 
L 140.754003 184.920933 
L 140.821725 173.037105 
L 140.875189 105.567679 
L 141.014196 65.498051 
L 141.024889 65.40879 
L 141.067661 66.386124 
L 141.128254 74.344459 
L 141.181718 114.199218 
L 141.317162 185.763516 
L 141.345676 186.20227 
L 141.395576 184.735725 
L 141.456169 174.686597 
L 141.506069 122.5104 
L 141.637948 65.807495 
L 141.666462 65.414645 
L 141.712798 66.709994 
L 141.78052 78.699836 
L 141.833984 146.575358 
L 141.972992 186.113777 
L 141.983685 186.200842 
L 142.026456 185.201234 
L 142.087049 177.163317 
L 142.140514 136.627514 
L 142.272392 65.928171 
L 142.304471 65.40643 
L 142.350807 66.647521 
L 142.418529 78.347875 
L 142.468429 139.318702 
L 142.607436 186.073952 
L 142.621693 186.192628 
L 142.653772 185.710282 
L 142.721494 178.293672 
L 142.778522 138.659722 
L 142.913965 65.857635 
L 142.94248 65.405003 
L 142.99238 66.828891 
L 143.052973 76.702605 
L 143.102873 127.012813 
L 143.231188 185.691424 
L 143.263266 186.198483 
L 143.309602 184.938005 
L 143.377324 173.132957 
L 143.430788 105.972613 
L 143.569796 65.500931 
L 143.580489 65.411075 
L 143.62326 66.370872 
L 143.683853 74.271169 
L 143.737318 113.646037 
L 143.872761 185.757424 
L 143.901275 186.202667 
L 143.951175 184.753761 
L 144.011768 174.780817 
L 144.061668 123.395996 
L 144.189983 65.904665 
L 144.222062 65.411919 
L 144.268397 66.692164 
L 144.336119 78.602366 
L 144.389583 146.174053 
L 144.528591 186.110284 
L 144.539284 186.199152 
L 144.582055 185.216118 
L 144.642648 177.238118 
L 144.696113 137.217657 
L 144.827992 65.938153 
L 144.86007 65.405266 
L 144.906406 66.632023 
L 144.974128 78.253722 
L 145.024028 138.827937 
L 145.163035 186.068794 
L 145.180857 186.191667 
L 145.212936 185.574571 
L 145.273529 179.196151 
L 145.334122 139.157331 
L 145.473129 65.758108 
L 145.498079 65.405981 
L 145.544415 66.581051 
L 145.612137 77.909395 
L 145.662037 136.827447 
L 145.79748 185.963669 
L 145.818866 186.200335 
L 145.861637 185.128999 
L 145.92223 176.753438 
L 145.975695 132.964254 
L 146.104009 66.024503 
L 146.136088 65.413707 
L 146.189552 66.980667 
L 146.250145 77.56086 
L 146.300045 134.441492 
L 146.435489 185.951291 
L 146.456874 186.202468 
L 146.499646 185.177279 
L 146.556675 177.974723 
L 146.613703 135.577642 
L 146.745582 65.912947 
L 146.777661 65.409507 
L 146.823997 66.674889 
L 146.891718 78.506153 
L 146.945183 145.769863 
L 147.08419 186.107251 
L 147.094883 186.197003 
L 147.137655 185.231293 
L 147.198248 177.311811 
L 147.251712 137.779769 
L 147.387155 65.847848 
L 147.41567 65.404672 
L 147.46557 66.859569 
L 147.526163 76.857749 
L 147.576063 128.507997 
L 147.707942 185.794295 
L 147.736456 186.194475 
L 147.782792 184.909223 
L 147.850514 172.972569 
L 147.903978 105.299081 
L 148.042985 65.495875 
L 148.053678 65.407502 
L 148.09645 66.396153 
L 148.157043 74.393973 
L 148.210507 114.58313 
L 148.342386 185.672515 
L 148.374465 186.20168 
L 148.420801 184.970163 
L 148.488522 173.322212 
L 148.538422 112.613497 
L 148.67743 65.536695 
L 148.695251 65.416586 
L 148.72733 66.036772 
L 148.787923 72.430871 
L 148.848516 112.613497 
L 148.987524 185.852412 
L 149.012474 186.20168 
L 149.058809 185.021935 
L 149.126531 173.666478 
L 149.176431 114.58313 
L 149.311874 65.642392 
L 149.33326 65.407502 
L 149.376032 66.482372 
L 149.436625 74.879647 
L 149.490089 118.900875 
L 149.618404 185.586891 
L 149.650482 186.194475 
L 149.703947 184.621545 
L 149.76454 174.01448 
L 149.81444 116.931576 
L 149.949883 65.654855 
L 149.971269 65.404672 
L 150.01404 66.43464 
L 150.071069 73.652785 
L 150.128098 116.24989 
L 150.259977 185.697156 
L 150.292055 186.197003 
L 150.338391 184.926692 
L 150.406113 173.069173 
L 150.459577 105.702421 
L 150.598585 65.499062 
L 150.609278 65.409507 
L 150.652049 66.381065 
L 150.712642 74.319893 
L 150.766107 114.011872 
L 150.90155 185.761454 
L 150.930064 186.202468 
L 150.979964 184.741692 
L 151.040557 174.718115 
L 151.090457 122.804027 
L 151.222336 65.810261 
L 151.250851 65.413707 
L 151.297186 66.703994 
L 151.364908 78.667191 
L 151.418372 146.441972 
L 151.55738 186.112562 
L 151.568073 186.200335 
L 151.610844 185.206158 
L 151.671437 177.188364 
L 151.724902 136.827447 
L 151.856781 65.931429 
L 151.888859 65.405981 
L 151.935195 66.642276 
L 152.002917 78.316443 
L 152.052817 139.157331 
L 152.191824 186.072298 
L 152.206082 186.191667 
L 152.241724 185.566455 
L 152.298753 179.8725 
L 152.355782 149.904793 
L 152.519739 65.433321 
L 152.523304 65.436416 
L 152.526868 65.405266 
L 152.558947 65.938153 
L 152.626668 73.592288 
L 152.683697 115.599483 
L 152.815576 185.688451 
L 152.847655 186.199152 
L 152.89399 184.943555 
L 152.961712 173.164693 
L 153.015176 106.107997 
L 153.154184 65.501789 
L 153.164877 65.411919 
L 153.207648 66.365747 
L 153.268241 74.24702 
L 153.321706 113.467394 
L 153.457149 185.755448 
L 153.485663 186.202667 
L 153.535563 184.75986 
L 153.596156 174.811985 
L 153.646057 123.694034 
L 153.774371 65.907356 
L 153.80645 65.411075 
L 153.852786 66.68634 
L 153.920507 78.570168 
L 153.973972 146.039594 
L 154.112979 186.109221 
L 154.123672 186.198483 
L 154.166444 185.221148 
L 154.227037 177.262813 
L 154.280501 137.408054 
L 154.415944 65.843757 
L 154.444459 65.405003 
L 154.494359 66.871547 
L 154.554952 76.920676 
L 154.604852 129.096873 
L 154.736731 185.799778 
L 154.765245 186.192628 
L 154.811581 184.897279 
L 154.879302 172.907437 
L 154.932767 105.031915 
L 155.071774 65.493495 
L 155.082467 65.40643 
L 155.125239 66.406038 
L 155.185832 74.443956 
L 155.239296 114.979759 
L 155.371175 185.679102 
L 155.403254 186.200842 
L 155.44959 184.959752 
L 155.517311 173.259397 
L 155.567211 112.288571 
L 155.706219 65.53332 
L 155.720476 65.414645 
L 155.752555 65.896991 
L 155.820276 73.3136 
L 155.877305 112.947551 
L 156.012748 185.749637 
L 156.041263 186.20227 
L 156.091163 184.778382 
L 156.151756 174.904668 
L 156.201656 124.59446 
L 156.32997 65.915849 
L 156.362049 65.40879 
L 156.408385 66.669267 
L 156.476106 78.474316 
L 156.529571 145.63466 
L 156.668578 186.106342 
L 156.679271 186.196198 
L 156.722043 185.2364 
L 156.782636 177.336104 
L 156.8361 137.961235 
L 156.971543 65.849849 
L 157.000058 65.404605 
L 157.049958 66.853511 
L 157.110551 76.826456 
L 157.160451 128.211276 
L 157.288766 185.702608 
L 157.320844 186.195354 
L 157.36718 184.915109 
L 157.434902 173.004907 
L 157.488366 105.43322 
L 157.627374 65.496989 
L 157.638066 65.40812 
L 157.680838 66.391155 
L 157.741431 74.369155 
L 157.794895 114.389615 
L 157.926774 185.66912 
L 157.958853 186.202007 
L 158.005189 184.97525 
L 158.07291 173.353551 
L 158.122811 112.779335 
L 158.261818 65.538479 
L 158.27964 65.415605 
L 158.311718 66.032702 
L 158.372311 72.411121 
L 158.432904 112.449942 
L 158.571912 185.849165 
L 158.596862 186.201292 
L 158.643198 185.026222 
L 158.710919 173.697878 
L 158.760819 114.779826 
L 158.896262 65.643604 
L 158.917648 65.406938 
L 158.96042 66.478274 
L 159.021013 74.853835 
L 159.074477 118.643019 
L 159.202792 185.58277 
L 159.23487 186.193565 
L 159.288335 184.626606 
L 159.348928 174.046412 
L 159.398828 117.16578 
L 159.534271 65.655982 
L 159.555657 65.404804 
L 159.598429 66.429994 
L 159.655457 73.63255 
L 159.712486 116.02963 
L 159.844365 185.694325 
L 159.876444 186.197765 
L 159.922779 184.932384 
L 159.990501 173.10112 
L 160.043965 105.83741 
L 160.182973 65.500022 
L 160.193666 65.41027 
L 160.236437 66.37598 
L 160.29703 74.295461 
L 160.350495 113.827503 
L 160.485938 185.759424 
L 160.514452 186.202601 
L 160.564352 184.747704 
L 160.624945 174.749524 
L 160.674846 123.099276 
L 160.806724 65.812978 
L 160.835239 65.412797 
L 160.881575 66.69805 
L 160.949296 78.634704 
L 161.002761 146.308191 
L 161.141768 186.111398 
L 161.152461 186.199771 
L 161.195233 185.21112 
L 161.255826 177.213299 
L 161.30929 137.024142 
L 161.441169 65.934757 
L 161.473247 65.405592 
L 161.519583 66.63711 
L 161.587305 78.285061 
L 161.637205 138.993775 
L 161.776213 186.070578 
L 161.794034 186.190687 
L 161.826113 185.5705 
L 161.886706 179.176402 
L 161.947299 138.993775 
L 162.086306 65.75486 
L 162.111256 65.405592 
L 162.157592 66.585338 
L 162.225314 77.940794 
L 162.275214 137.024142 
L 162.410657 185.96488 
L 162.432043 186.199771 
L 162.474814 185.124901 
L 162.535407 176.727626 
L 162.588872 132.706398 
L 162.717186 66.020381 
L 162.749265 65.412797 
L 162.802729 66.985728 
L 162.863322 77.592793 
L 162.913223 134.675697 
L 163.048666 185.952418 
L 163.070051 186.202601 
L 163.112823 185.172633 
L 163.169852 177.954488 
L 163.22688 135.357383 
L 163.25183 91.459036 
L 163.340938 125.803636 
L 167.582448 125.803636 
L 167.586013 185.150182 
L 167.692942 147.104172 
L 167.853335 65.452232 
L 167.864028 65.414645 
L 167.888978 65.795953 
L 167.942442 69.861623 
L 168.003035 93.795964 
L 168.18125 186.200842 
L 168.202636 185.962485 
L 168.252536 182.979491 
L 168.316693 162.505803 
L 168.502036 65.40643 
L 168.548372 66.647521 
L 168.616094 78.347875 
L 168.665994 139.318702 
L 168.805001 186.073952 
L 168.819259 186.192628 
L 168.851337 185.710282 
L 168.919059 178.293672 
L 168.976088 138.659722 
L 169.111531 65.857635 
L 169.140045 65.405003 
L 169.189945 66.828891 
L 169.250538 76.702605 
L 169.300438 127.012813 
L 169.428753 185.691424 
L 169.460832 186.198483 
L 169.507168 184.938005 
L 169.574889 173.132957 
L 169.628354 105.972613 
L 169.767361 65.500931 
L 169.778054 65.411075 
L 169.820825 66.370872 
L 169.881418 74.271169 
L 169.934883 113.646037 
L 170.070326 185.757424 
L 170.09884 186.202667 
L 170.148741 184.753761 
L 170.209334 174.780817 
L 170.259234 123.395996 
L 170.387548 65.904665 
L 170.419627 65.411919 
L 170.465963 66.692164 
L 170.533684 78.602366 
L 170.587149 146.174053 
L 170.726156 186.110284 
L 170.736849 186.199152 
L 170.779621 185.216118 
L 170.840214 177.238118 
L 170.893678 137.217657 
L 171.025557 65.938153 
L 171.057636 65.405266 
L 171.103972 66.632023 
L 171.171693 78.253722 
L 171.221593 138.827937 
L 171.360601 186.068794 
L 171.378422 186.191667 
L 171.410501 185.574571 
L 171.471094 179.196151 
L 171.531687 139.157331 
L 171.670694 65.758108 
L 171.695644 65.405981 
L 171.74198 66.581051 
L 171.809702 77.909395 
L 171.859602 136.827447 
L 171.995045 185.963669 
L 172.016431 186.200335 
L 172.059202 185.128999 
L 172.119795 176.753438 
L 172.17326 132.964254 
L 172.301574 66.024503 
L 172.333653 65.413707 
L 172.387118 66.980667 
L 172.447711 77.56086 
L 172.497611 134.441492 
L 172.633054 185.951291 
L 172.65444 186.202468 
L 172.697211 185.177279 
L 172.75424 177.974723 
L 172.811269 135.577642 
L 172.943148 65.912947 
L 172.975226 65.409507 
L 173.021562 66.674889 
L 173.089284 78.506153 
L 173.142748 145.769863 
L 173.281756 186.107251 
L 173.292448 186.197003 
L 173.33522 185.231293 
L 173.395813 177.311811 
L 173.449277 137.779769 
L 173.584721 65.847848 
L 173.613235 65.404672 
L 173.663135 66.859569 
L 173.723728 76.857749 
L 173.773628 128.507997 
L 173.905507 185.794295 
L 173.934021 186.194475 
L 173.980357 184.909223 
L 174.048079 172.972569 
L 174.101543 105.299081 
L 174.240551 65.495875 
L 174.251244 65.407502 
L 174.294015 66.396153 
L 174.354608 74.393973 
L 174.408073 114.58313 
L 174.539952 185.672515 
L 174.57203 186.20168 
L 174.618366 184.970163 
L 174.686088 173.322212 
L 174.735988 112.613497 
L 174.874995 65.536695 
L 174.892817 65.416586 
L 174.924895 66.036772 
L 174.985488 72.430871 
L 175.046081 112.613497 
L 175.185089 185.852412 
L 175.210039 186.20168 
L 175.256375 185.021935 
L 175.324096 173.666478 
L 175.373996 114.58313 
L 175.50944 65.642392 
L 175.530825 65.407502 
L 175.573597 66.482372 
L 175.63419 74.879647 
L 175.687654 118.900875 
L 175.815969 185.586891 
L 175.848048 186.194475 
L 175.901512 184.621545 
L 175.962105 174.01448 
L 176.012005 116.931576 
L 176.147448 65.654855 
L 176.168834 65.404672 
L 176.211606 66.43464 
L 176.268634 73.652785 
L 176.325663 116.24989 
L 176.457542 185.697156 
L 176.489621 186.197003 
L 176.535956 184.926692 
L 176.603678 173.069173 
L 176.657142 105.702421 
L 176.79615 65.499062 
L 176.806843 65.409507 
L 176.849614 66.381065 
L 176.910207 74.319893 
L 176.963672 114.011872 
L 177.099115 185.761454 
L 177.127629 186.202468 
L 177.17753 184.741692 
L 177.238123 174.718115 
L 177.288023 122.804027 
L 177.419902 65.810261 
L 177.448416 65.413707 
L 177.494752 66.703994 
L 177.562473 78.667191 
L 177.615938 146.441972 
L 177.754945 186.112562 
L 177.765638 186.200335 
L 177.80841 185.206158 
L 177.869003 177.188364 
L 177.922467 136.827447 
L 178.054346 65.931429 
L 178.086425 65.405981 
L 178.13276 66.642276 
L 178.200482 78.316443 
L 178.250382 139.157331 
L 178.38939 186.072298 
L 178.403647 186.191667 
L 178.43929 185.566455 
L 178.496319 179.8725 
L 178.553347 149.904793 
L 178.717305 65.433321 
L 178.720869 65.436416 
L 178.724433 65.405266 
L 178.756512 65.938153 
L 178.824234 73.592288 
L 178.881262 115.599483 
L 179.013141 185.688451 
L 179.04522 186.199152 
L 179.091556 184.943555 
L 179.159277 173.164693 
L 179.212742 106.107997 
L 179.351749 65.501789 
L 179.362442 65.411919 
L 179.405214 66.365747 
L 179.465807 74.24702 
L 179.519271 113.467394 
L 179.654714 185.755448 
L 179.683229 186.202667 
L 179.733129 184.75986 
L 179.793722 174.811985 
L 179.843622 123.694034 
L 179.971936 65.907356 
L 180.004015 65.411075 
L 180.050351 66.68634 
L 180.118073 78.570168 
L 180.171537 146.039594 
L 180.310544 186.109221 
L 180.321237 186.198483 
L 180.364009 185.221148 
L 180.424602 177.262813 
L 180.478066 137.408054 
L 180.581431 67.61478 
L 180.592124 125.803636 
L 184.912049 125.803636 
L 184.915613 170.746073 
L 185.015413 73.512386 
L 185.115214 65.406938 
L 185.154421 66.280008 
L 185.222142 75.888484 
L 185.275607 130.535699 
L 185.407486 185.814314 
L 185.432436 186.193565 
L 185.482336 184.866588 
L 185.546493 174.046412 
L 185.596393 117.16578 
L 185.731837 65.655982 
L 185.753222 65.404804 
L 185.795994 66.429994 
L 185.853023 73.63255 
L 185.910051 116.02963 
L 186.04193 185.694325 
L 186.074009 186.197765 
L 186.120345 184.932384 
L 186.188066 173.10112 
L 186.241531 105.83741 
L 186.380538 65.500022 
L 186.391231 65.41027 
L 186.434003 66.37598 
L 186.494596 74.295461 
L 186.54806 113.827503 
L 186.683503 185.759424 
L 186.712018 186.202601 
L 186.761918 184.747704 
L 186.822511 174.749524 
L 186.872411 123.099276 
L 187.00429 65.812978 
L 187.032804 65.412797 
L 187.07914 66.69805 
L 187.146862 78.634704 
L 187.200326 146.308191 
L 187.339333 186.111398 
L 187.350026 186.199771 
L 187.392798 185.21112 
L 187.453391 177.213299 
L 187.506855 137.024142 
L 187.638734 65.934757 
L 187.670813 65.405592 
L 187.717149 66.63711 
L 187.78487 78.285061 
L 187.83477 138.993775 
L 187.973778 186.070578 
L 187.991599 186.190687 
L 188.023678 185.5705 
L 188.084271 179.176402 
L 188.144864 138.993775 
L 188.283871 65.75486 
L 188.308822 65.405592 
L 188.355157 66.585338 
L 188.422879 77.940794 
L 188.472779 137.024142 
L 188.608222 185.96488 
L 188.629608 186.199771 
L 188.67238 185.124901 
L 188.732973 176.727626 
L 188.786437 132.706398 
L 188.914752 66.020381 
L 188.94683 65.412797 
L 189.000295 66.985728 
L 189.060888 77.592793 
L 189.110788 134.675697 
L 189.246231 185.952418 
L 189.267617 186.202601 
L 189.310388 185.172633 
L 189.367417 177.954488 
L 189.424446 135.357383 
L 189.556325 65.910117 
L 189.588403 65.41027 
L 189.634739 66.680581 
L 189.702461 78.5381 
L 189.755925 145.904852 
L 189.894933 186.10821 
L 189.905626 186.197765 
L 189.948397 185.226208 
L 190.00899 177.28738 
L 190.062454 137.595401 
L 190.197898 65.845819 
L 190.226412 65.404804 
L 190.276312 66.865581 
L 190.336905 76.889158 
L 190.386805 128.803246 
L 190.518684 185.797012 
L 190.547199 186.193565 
L 190.593534 184.903279 
L 190.661256 172.940082 
L 190.71472 105.1653 
L 190.853728 65.49471 
L 190.864421 65.406938 
L 190.907192 66.401115 
L 190.967785 74.418909 
L 191.02125 114.779826 
L 191.153129 185.675843 
L 191.185207 186.201292 
L 191.231543 184.964997 
L 191.299265 173.29083 
L 191.349165 112.449942 
L 191.488172 65.534975 
L 191.50243 65.415605 
L 191.538072 66.040818 
L 191.595101 71.734773 
L 191.65213 101.70248 
L 191.816087 186.173951 
L 191.819652 186.170856 
L 191.823216 186.202007 
L 191.855295 185.66912 
L 191.923016 178.014985 
L 191.980045 136.00779 
L 192.111924 65.918822 
L 192.144003 65.40812 
L 192.190338 66.663718 
L 192.25806 78.44258 
L 192.311524 145.499276 
L 192.450532 186.105483 
L 192.461225 186.195354 
L 192.503996 185.241526 
L 192.564589 177.360252 
L 192.618054 138.139879 
L 192.753497 65.851825 
L 192.782011 65.404605 
L 192.831911 66.847412 
L 192.892504 76.795288 
L 192.942405 127.913239 
L 193.070719 185.699916 
L 193.102798 186.196198 
L 193.149134 184.920933 
L 193.216855 173.037105 
L 193.27032 105.567679 
L 193.409327 65.498051 
L 193.42002 65.40879 
L 193.462792 66.386124 
L 193.523385 74.344459 
L 193.576849 114.199218 
L 193.712292 185.763516 
L 193.740807 186.20227 
L 193.790707 184.735725 
L 193.8513 174.686597 
L 193.9012 122.5104 
L 194.033079 65.807495 
L 194.061593 65.414645 
L 194.107929 66.709994 
L 194.17565 78.699836 
L 194.229115 146.575358 
L 194.368122 186.113777 
L 194.378815 186.200842 
L 194.421587 185.201234 
L 194.48218 177.163317 
L 194.535644 136.627514 
L 194.667523 65.928171 
L 194.699602 65.40643 
L 194.745938 66.647521 
L 194.813659 78.347875 
L 194.863559 139.318702 
L 195.002567 186.073952 
L 195.016824 186.192628 
L 195.048903 185.710282 
L 195.116624 178.293672 
L 195.173653 138.659722 
L 195.309096 65.857635 
L 195.337611 65.405003 
L 195.387511 66.828891 
L 195.448104 76.702605 
L 195.498004 127.012813 
L 195.626318 185.691424 
L 195.658397 186.198483 
L 195.704733 184.938005 
L 195.772454 173.132957 
L 195.825919 105.972613 
L 195.964926 65.500931 
L 195.975619 65.411075 
L 196.018391 66.370872 
L 196.078984 74.271169 
L 196.132448 113.646037 
L 196.267891 185.757424 
L 196.296406 186.202667 
L 196.346306 184.753761 
L 196.406899 174.780817 
L 196.456799 123.395996 
L 196.585114 65.904665 
L 196.617192 65.411919 
L 196.663528 66.692164 
L 196.73125 78.602366 
L 196.784714 146.174053 
L 196.923722 186.110284 
L 196.934414 186.199152 
L 196.977186 185.216118 
L 197.037779 177.238118 
L 197.091243 137.217657 
L 197.223122 65.938153 
L 197.255201 65.405266 
L 197.301537 66.632023 
L 197.369258 78.253722 
L 197.419159 138.827937 
L 197.558166 186.068794 
L 197.575988 186.191667 
L 197.608066 185.574571 
L 197.668659 179.196151 
L 197.729252 139.157331 
L 197.86826 65.758108 
L 197.89321 65.405981 
L 197.911031 65.566433 
L 198.025089 125.803636 
L 202.241649 125.803636 
L 202.355707 65.485227 
L 202.366399 65.404672 
L 202.405607 66.23574 
L 202.473328 75.636321 
L 202.526793 127.614042 
L 202.655107 185.697156 
L 202.687186 186.197003 
L 202.733522 184.926692 
L 202.801243 173.069173 
L 202.854708 105.702421 
L 202.993715 65.499062 
L 203.004408 65.409507 
L 203.04718 66.381065 
L 203.107773 74.319893 
L 203.161237 114.011872 
L 203.29668 185.761454 
L 203.325195 186.202468 
L 203.375095 184.741692 
L 203.435688 174.718115 
L 203.485588 122.804027 
L 203.617467 65.810261 
L 203.645981 65.413707 
L 203.692317 66.703994 
L 203.760039 78.667191 
L 203.813503 146.441972 
L 203.952511 186.112562 
L 203.963203 186.200335 
L 204.005975 185.206158 
L 204.066568 177.188364 
L 204.120032 136.827447 
L 204.251911 65.931429 
L 204.28399 65.405981 
L 204.330326 66.642276 
L 204.398047 78.316443 
L 204.447948 139.157331 
L 204.586955 186.072298 
L 204.601212 186.191667 
L 204.636855 185.566455 
L 204.693884 179.8725 
L 204.750913 149.904793 
L 204.91487 65.433321 
L 204.918434 65.436416 
L 204.921999 65.405266 
L 204.954077 65.938153 
L 205.021799 73.592288 
L 205.078828 115.599483 
L 205.210707 185.688451 
L 205.242785 186.199152 
L 205.289121 184.943555 
L 205.356843 173.164693 
L 205.410307 106.107997 
L 205.549315 65.501789 
L 205.560007 65.411919 
L 205.602779 66.365747 
L 205.663372 74.24702 
L 205.716836 113.467394 
L 205.85228 185.755448 
L 205.880794 186.202667 
L 205.930694 184.75986 
L 205.991287 174.811985 
L 206.041187 123.694034 
L 206.169502 65.907356 
L 206.20158 65.411075 
L 206.247916 66.68634 
L 206.315638 78.570168 
L 206.369102 146.039594 
L 206.50811 186.109221 
L 206.518803 186.198483 
L 206.561574 185.221148 
L 206.622167 177.262813 
L 206.675632 137.408054 
L 206.811075 65.843757 
L 206.839589 65.405003 
L 206.889489 66.871547 
L 206.950082 76.920676 
L 206.999982 129.096873 
L 207.131861 185.799778 
L 207.160376 186.192628 
L 207.206712 184.897279 
L 207.274433 172.907437 
L 207.327898 105.031915 
L 207.466905 65.493495 
L 207.477598 65.40643 
L 207.520369 66.406038 
L 207.580962 74.443956 
L 207.634427 114.979759 
L 207.766306 185.679102 
L 207.798384 186.200842 
L 207.84472 184.959752 
L 207.912442 173.259397 
L 207.962342 112.288571 
L 208.101349 65.53332 
L 208.115607 65.414645 
L 208.147685 65.896991 
L 208.215407 73.3136 
L 208.272436 112.947551 
L 208.407879 185.749637 
L 208.436393 186.20227 
L 208.486293 184.778382 
L 208.546886 174.904668 
L 208.596786 124.59446 
L 208.725101 65.915849 
L 208.75718 65.40879 
L 208.803516 66.669267 
L 208.871237 78.474316 
L 208.924702 145.63466 
L 209.063709 186.106342 
L 209.074402 186.196198 
L 209.117173 185.2364 
L 209.177766 177.336104 
L 209.231231 137.961235 
L 209.366674 65.849849 
L 209.395188 65.404605 
L 209.445089 66.853511 
L 209.505682 76.826456 
L 209.555582 128.211276 
L 209.683896 185.702608 
L 209.715975 186.195354 
L 209.762311 184.915109 
L 209.830032 173.004907 
L 209.883497 105.43322 
L 210.022504 65.496989 
L 210.033197 65.40812 
L 210.075969 66.391155 
L 210.136562 74.369155 
L 210.190026 114.389615 
L 210.321905 185.66912 
L 210.353984 186.202007 
L 210.400319 184.97525 
L 210.468041 173.353551 
L 210.517941 112.779335 
L 210.656949 65.538479 
L 210.67477 65.415605 
L 210.706849 66.032702 
L 210.767442 72.411121 
L 210.828035 112.449942 
L 210.967042 185.849165 
L 210.991992 186.201292 
L 211.038328 185.026222 
L 211.10605 173.697878 
L 211.15595 114.779826 
L 211.291393 65.643604 
L 211.312779 65.406938 
L 211.35555 66.478274 
L 211.416143 74.853835 
L 211.469608 118.643019 
L 211.597922 185.58277 
L 211.630001 186.193565 
L 211.683466 184.626606 
L 211.744059 174.046412 
L 211.793959 117.16578 
L 211.929402 65.655982 
L 211.950788 65.404804 
L 211.993559 66.429994 
L 212.050588 73.63255 
L 212.107617 116.02963 
L 212.239496 185.694325 
L 212.271574 186.197765 
L 212.31791 184.932384 
L 212.385632 173.10112 
L 212.439096 105.83741 
L 212.578103 65.500022 
L 212.588796 65.41027 
L 212.631568 66.37598 
L 212.692161 74.295461 
L 212.745625 113.827503 
L 212.881069 185.759424 
L 212.909583 186.202601 
L 212.959483 184.747704 
L 213.020076 174.749524 
L 213.069976 123.099276 
L 213.201855 65.812978 
L 213.230369 65.412797 
L 213.276705 66.69805 
L 213.344427 78.634704 
L 213.397891 146.308191 
L 213.536899 186.111398 
L 213.547592 186.199771 
L 213.590363 185.21112 
L 213.650956 177.213299 
L 213.704421 137.024142 
L 213.836299 65.934757 
L 213.868378 65.405592 
L 213.914714 66.63711 
L 213.982436 78.285061 
L 214.032336 138.993775 
L 214.171343 186.070578 
L 214.189165 186.190687 
L 214.221243 185.5705 
L 214.281836 179.176402 
L 214.342429 138.993775 
L 214.481437 65.75486 
L 214.506387 65.405592 
L 214.552723 66.585338 
L 214.620444 77.940794 
L 214.670344 137.024142 
L 214.805788 185.96488 
L 214.827173 186.199771 
L 214.869945 185.124901 
L 214.930538 176.727626 
L 214.984002 132.706398 
L 215.112317 66.020381 
L 215.144396 65.412797 
L 215.19786 66.985728 
L 215.240632 72.51098 
L 215.354689 125.803636 
L 219.57125 125.803636 
L 219.617585 65.40879 
L 219.685307 68.232749 
L 219.7459 84.274311 
L 219.938372 186.20227 
L 220.020351 181.390485 
L 220.080944 155.543586 
L 220.259158 65.414645 
L 220.273416 65.53332 
L 220.337573 69.861623 
L 220.398166 93.795964 
L 220.576381 186.200842 
L 220.597766 185.962485 
L 220.647666 182.979491 
L 220.711824 162.505803 
L 220.897167 65.40643 
L 220.943503 66.647521 
L 221.011225 78.347875 
L 221.061125 139.318702 
L 221.200132 186.073952 
L 221.214389 186.192628 
L 221.246468 185.710282 
L 221.31419 178.293672 
L 221.371218 138.659722 
L 221.506661 65.857635 
L 221.535176 65.405003 
L 221.585076 66.828891 
L 221.645669 76.702605 
L 221.695569 127.012813 
L 221.823884 185.691424 
L 221.855962 186.198483 
L 221.902298 184.938005 
L 221.97002 173.132957 
L 222.023484 105.972613 
L 222.162492 65.500931 
L 222.173185 65.411075 
L 222.215956 66.370872 
L 222.276549 74.271169 
L 222.330014 113.646037 
L 222.465457 185.757424 
L 222.493971 186.202667 
L 222.543871 184.753761 
L 222.604464 174.780817 
L 222.654364 123.395996 
L 222.782679 65.904665 
L 222.814758 65.411919 
L 222.861093 66.692164 
L 222.928815 78.602366 
L 222.982279 146.174053 
L 223.121287 186.110284 
L 223.13198 186.199152 
L 223.174751 185.216118 
L 223.235344 177.238118 
L 223.288809 137.217657 
L 223.420688 65.938153 
L 223.452766 65.405266 
L 223.499102 66.632023 
L 223.566824 78.253722 
L 223.616724 138.827937 
L 223.755731 186.068794 
L 223.773553 186.191667 
L 223.805631 185.574571 
L 223.866224 179.196151 
L 223.926818 139.157331 
L 224.065825 65.758108 
L 224.090775 65.405981 
L 224.137111 66.581051 
L 224.204832 77.909395 
L 224.254733 136.827447 
L 224.390176 185.963669 
L 224.411562 186.200335 
L 224.454333 185.128999 
L 224.514926 176.753438 
L 224.568391 132.964254 
L 224.696705 66.024503 
L 224.728784 65.413707 
L 224.782248 66.980667 
L 224.842841 77.56086 
L 224.892741 134.441492 
L 225.028185 185.951291 
L 225.04957 186.202468 
L 225.092342 185.177279 
L 225.149371 177.974723 
L 225.206399 135.577642 
L 225.338278 65.912947 
L 225.370357 65.409507 
L 225.416693 66.674889 
L 225.484414 78.506153 
L 225.537879 145.769863 
L 225.676886 186.107251 
L 225.687579 186.197003 
L 225.730351 185.231293 
L 225.790944 177.311811 
L 225.844408 137.779769 
L 225.979851 65.847848 
L 226.008366 65.404672 
L 226.058266 66.859569 
L 226.118859 76.857749 
L 226.168759 128.507997 
L 226.300638 185.794295 
L 226.329152 186.194475 
L 226.375488 184.909223 
L 226.443209 172.972569 
L 226.496674 105.299081 
L 226.635681 65.495875 
L 226.646374 65.407502 
L 226.689146 66.396153 
L 226.749739 74.393973 
L 226.803203 114.58313 
L 226.935082 185.672515 
L 226.967161 186.20168 
L 227.013497 184.970163 
L 227.081218 173.322212 
L 227.131118 112.613497 
L 227.270126 65.536695 
L 227.287947 65.416586 
L 227.320026 66.036772 
L 227.380619 72.430871 
L 227.441212 112.613497 
L 227.580219 185.852412 
L 227.60517 186.20168 
L 227.651505 185.021935 
L 227.719227 173.666478 
L 227.769127 114.58313 
L 227.90457 65.642392 
L 227.925956 65.407502 
L 227.968728 66.482372 
L 228.029321 74.879647 
L 228.082785 118.900875 
L 228.2111 185.586891 
L 228.243178 186.194475 
L 228.296643 184.621545 
L 228.357236 174.01448 
L 228.407136 116.931576 
L 228.542579 65.654855 
L 228.563965 65.404672 
L 228.606736 66.43464 
L 228.663765 73.652785 
L 228.720794 116.24989 
L 228.852673 185.697156 
L 228.884751 186.197003 
L 228.931087 184.926692 
L 228.998809 173.069173 
L 229.052273 105.702421 
L 229.191281 65.499062 
L 229.201974 65.409507 
L 229.244745 66.381065 
L 229.305338 74.319893 
L 229.358802 114.011872 
L 229.494246 185.761454 
L 229.52276 186.202468 
L 229.57266 184.741692 
L 229.633253 174.718115 
L 229.683153 122.804027 
L 229.815032 65.810261 
L 229.843547 65.413707 
L 229.889882 66.703994 
L 229.957604 78.667191 
L 230.011068 146.441972 
L 230.150076 186.112562 
L 230.160769 186.200335 
L 230.20354 185.206158 
L 230.264133 177.188364 
L 230.317598 136.827447 
L 230.449477 65.931429 
L 230.481555 65.405981 
L 230.527891 66.642276 
L 230.595613 78.316443 
L 230.645513 139.157331 
L 230.78452 186.072298 
L 230.798777 186.191667 
L 230.83442 185.566455 
L 230.891449 179.8725 
L 230.948478 149.904793 
L 231.112435 65.433321 
L 231.116 65.436416 
L 231.119564 65.405266 
L 231.151643 65.938153 
L 231.219364 73.592288 
L 231.276393 115.599483 
L 231.408272 185.688451 
L 231.440351 186.199152 
L 231.486686 184.943555 
L 231.554408 173.164693 
L 231.607872 106.107997 
L 231.74688 65.501789 
L 231.757573 65.411919 
L 231.800344 66.365747 
L 231.860937 74.24702 
L 231.914402 113.467394 
L 232.049845 185.755448 
L 232.078359 186.202667 
L 232.128259 184.75986 
L 232.188852 174.811985 
L 232.238753 123.694034 
L 232.367067 65.907356 
L 232.399146 65.411075 
L 232.445482 66.68634 
L 232.513203 78.570168 
L 232.566668 146.039594 
L 232.570232 150.965465 
L 232.573796 125.803636 
L 232.662904 125.803636 
L 236.90085 125.803636 
L 236.904414 66.032702 
L 237.011343 93.877281 
L 237.189558 186.201292 
L 237.210943 185.961324 
L 237.260844 182.969094 
L 237.325001 162.438714 
L 237.510344 65.406938 
L 237.55668 66.652843 
L 237.624402 78.379369 
L 237.674302 139.477986 
L 237.813309 186.07554 
L 237.827566 186.193565 
L 237.859645 185.707789 
L 237.927367 178.273731 
L 237.984395 138.489034 
L 238.119839 65.855714 
L 238.148353 65.404804 
L 238.198253 66.835099 
L 238.258846 76.733355 
L 238.308746 127.313846 
L 238.437061 185.694325 
L 238.469139 186.197765 
L 238.515475 184.932384 
L 238.583197 173.10112 
L 238.636661 105.83741 
L 238.775669 65.500022 
L 238.786362 65.41027 
L 238.829133 66.37598 
L 238.889726 74.295461 
L 238.943191 113.827503 
L 239.078634 185.759424 
L 239.107148 186.202601 
L 239.157048 184.747704 
L 239.217641 174.749524 
L 239.267541 123.099276 
L 239.39942 65.812978 
L 239.427935 65.412797 
L 239.474271 66.69805 
L 239.541992 78.634704 
L 239.595457 146.308191 
L 239.734464 186.111398 
L 239.745157 186.199771 
L 239.787928 185.21112 
L 239.848521 177.213299 
L 239.901986 137.024142 
L 240.033865 65.934757 
L 240.065943 65.405592 
L 240.112279 66.63711 
L 240.180001 78.285061 
L 240.229901 138.993775 
L 240.368909 186.070578 
L 240.38673 186.190687 
L 240.418809 185.5705 
L 240.479402 179.176402 
L 240.539995 138.993775 
L 240.679002 65.75486 
L 240.703952 65.405592 
L 240.750288 66.585338 
L 240.81801 77.940794 
L 240.86791 137.024142 
L 241.003353 185.96488 
L 241.024739 186.199771 
L 241.06751 185.124901 
L 241.128103 176.727626 
L 241.181568 132.706398 
L 241.309882 66.020381 
L 241.341961 65.412797 
L 241.395425 66.985728 
L 241.456018 77.592793 
L 241.505918 134.675697 
L 241.641362 185.952418 
L 241.662747 186.202601 
L 241.705519 185.172633 
L 241.762548 177.954488 
L 241.819576 135.357383 
L 241.951455 65.910117 
L 241.983534 65.41027 
L 242.02987 66.680581 
L 242.097591 78.5381 
L 242.151056 145.904852 
L 242.290063 186.10821 
L 242.300756 186.197765 
L 242.343528 185.226208 
L 242.404121 177.28738 
L 242.457585 137.595401 
L 242.593028 65.845819 
L 242.621543 65.404804 
L 242.671443 66.865581 
L 242.732036 76.889158 
L 242.781936 128.803246 
L 242.913815 185.797012 
L 242.942329 186.193565 
L 242.988665 184.903279 
L 243.056387 172.940082 
L 243.109851 105.1653 
L 243.248859 65.49471 
L 243.259551 65.406938 
L 243.302323 66.401115 
L 243.362916 74.418909 
L 243.41638 114.779826 
L 243.548259 185.675843 
L 243.580338 186.201292 
L 243.626674 184.964997 
L 243.694395 173.29083 
L 243.744295 112.449942 
L 243.883303 65.534975 
L 243.89756 65.415605 
L 243.933203 66.040818 
L 243.990232 71.734773 
L 244.047261 101.70248 
L 244.211218 186.173951 
L 244.214782 186.170856 
L 244.218347 186.202007 
L 244.250425 185.66912 
L 244.318147 178.014985 
L 244.375176 136.00779 
L 244.507055 65.918822 
L 244.539133 65.40812 
L 244.585469 66.663718 
L 244.653191 78.44258 
L 244.706655 145.499276 
L 244.845663 186.105483 
L 244.856355 186.195354 
L 244.899127 185.241526 
L 244.95972 177.360252 
L 245.013184 138.139879 
L 245.148628 65.851825 
L 245.177142 65.404605 
L 245.227042 66.847412 
L 245.287635 76.795288 
L 245.337535 127.913239 
L 245.46585 185.699916 
L 245.497928 186.196198 
L 245.544264 184.920933 
L 245.611986 173.037105 
L 245.66545 105.567679 
L 245.804458 65.498051 
L 245.815151 65.40879 
L 245.857922 66.386124 
L 245.918515 74.344459 
L 245.97198 114.199218 
L 246.107423 185.763516 
L 246.135937 186.20227 
L 246.185837 184.735725 
L 246.24643 174.686597 
L 246.29633 122.5104 
L 246.428209 65.807495 
L 246.456724 65.414645 
L 246.50306 66.709994 
L 246.570781 78.699836 
L 246.624246 146.575358 
L 246.763253 186.113777 
L 246.773946 186.200842 
L 246.816717 185.201234 
L 246.87731 177.163317 
L 246.930775 136.627514 
L 247.062654 65.928171 
L 247.094732 65.40643 
L 247.141068 66.647521 
L 247.20879 78.347875 
L 247.25869 139.318702 
L 247.397697 186.073952 
L 247.411955 186.192628 
L 247.444033 185.710282 
L 247.511755 178.293672 
L 247.568784 138.659722 
L 247.704227 65.857635 
L 247.732741 65.405003 
L 247.782641 66.828891 
L 247.843234 76.702605 
L 247.893134 127.012813 
L 248.021449 185.691424 
L 248.053528 186.198483 
L 248.099863 184.938005 
L 248.167585 173.132957 
L 248.22105 105.972613 
L 248.360057 65.500931 
L 248.37075 65.411075 
L 248.413521 66.370872 
L 248.474114 74.271169 
L 248.527579 113.646037 
L 248.663022 185.757424 
L 248.691536 186.202667 
L 248.741437 184.753761 
L 248.80203 174.780817 
L 248.85193 123.395996 
L 248.980244 65.904665 
L 249.012323 65.411919 
L 249.058659 66.692164 
L 249.12638 78.602366 
L 249.179845 146.174053 
L 249.318852 186.110284 
L 249.329545 186.199152 
L 249.372317 185.216118 
L 249.43291 177.238118 
L 249.486374 137.217657 
L 249.618253 65.938153 
L 249.650332 65.405266 
L 249.696667 66.632023 
L 249.764389 78.253722 
L 249.814289 138.827937 
L 249.899832 183.096683 
L 249.903397 125.803636 
L 249.914089 125.803636 
L 254.23045 125.803636 
L 254.234015 77.111577 
L 254.337379 176.547717 
L 254.440744 186.194475 
L 254.476387 185.5545 
L 254.533415 179.824746 
L 254.590444 149.567925 
L 254.754402 65.43217 
L 254.757966 65.435273 
L 254.76153 65.404672 
L 254.793609 65.948733 
L 254.86133 73.652785 
L 254.918359 116.24989 
L 255.050238 185.697156 
L 255.082317 186.197003 
L 255.128652 184.926692 
L 255.196374 173.069173 
L 255.249838 105.702421 
L 255.388846 65.499062 
L 255.399539 65.409507 
L 255.44231 66.381065 
L 255.502903 74.319893 
L 255.556368 114.011872 
L 255.691811 185.761454 
L 255.720325 186.202468 
L 255.770225 184.741692 
L 255.830818 174.718115 
L 255.880719 122.804027 
L 256.012598 65.810261 
L 256.041112 65.413707 
L 256.087448 66.703994 
L 256.155169 78.667191 
L 256.208634 146.441972 
L 256.347641 186.112562 
L 256.358334 186.200335 
L 256.401106 185.206158 
L 256.461699 177.188364 
L 256.515163 136.827447 
L 256.647042 65.931429 
L 256.679121 65.405981 
L 256.725456 66.642276 
L 256.793178 78.316443 
L 256.843078 139.157331 
L 256.982086 186.072298 
L 256.996343 186.191667 
L 257.031986 185.566455 
L 257.089014 179.8725 
L 257.146043 149.904793 
L 257.310001 65.433321 
L 257.313565 65.436416 
L 257.317129 65.405266 
L 257.349208 65.938153 
L 257.41693 73.592288 
L 257.473958 115.599483 
L 257.605837 185.688451 
L 257.637916 186.199152 
L 257.684252 184.943555 
L 257.751973 173.164693 
L 257.805438 106.107997 
L 257.944445 65.501789 
L 257.955138 65.411919 
L 257.99791 66.365747 
L 258.058503 74.24702 
L 258.111967 113.467394 
L 258.24741 185.755448 
L 258.275925 186.202667 
L 258.325825 184.75986 
L 258.386418 174.811985 
L 258.436318 123.694034 
L 258.564632 65.907356 
L 258.596711 65.411075 
L 258.643047 66.68634 
L 258.710769 78.570168 
L 258.764233 146.039594 
L 258.90324 186.109221 
L 258.913933 186.198483 
L 258.956705 185.221148 
L 259.017298 177.262813 
L 259.070762 137.408054 
L 259.206205 65.843757 
L 259.23472 65.405003 
L 259.28462 66.871547 
L 259.345213 76.920676 
L 259.395113 129.096873 
L 259.526992 185.799778 
L 259.555506 186.192628 
L 259.601842 184.897279 
L 259.669564 172.907437 
L 259.723028 105.031915 
L 259.862036 65.493495 
L 259.872729 65.40643 
L 259.9155 66.406038 
L 259.976093 74.443956 
L 260.029558 114.979759 
L 260.161436 185.679102 
L 260.193515 186.200842 
L 260.239851 184.959752 
L 260.307573 173.259397 
L 260.357473 112.288571 
L 260.49648 65.53332 
L 260.510737 65.414645 
L 260.542816 65.896991 
L 260.610538 73.3136 
L 260.667566 112.947551 
L 260.803009 185.749637 
L 260.831524 186.20227 
L 260.881424 184.778382 
L 260.942017 174.904668 
L 260.991917 124.59446 
L 261.120232 65.915849 
L 261.15231 65.40879 
L 261.198646 66.669267 
L 261.266368 78.474316 
L 261.319832 145.63466 
L 261.45884 186.106342 
L 261.469533 186.196198 
L 261.512304 185.2364 
L 261.572897 177.336104 
L 261.626362 137.961235 
L 261.761805 65.849849 
L 261.790319 65.404605 
L 261.840219 66.853511 
L 261.900812 76.826456 
L 261.950712 128.211276 
L 262.079027 185.702608 
L 262.111106 186.195354 
L 262.157441 184.915109 
L 262.225163 173.004907 
L 262.278627 105.43322 
L 262.417635 65.496989 
L 262.428328 65.40812 
L 262.471099 66.391155 
L 262.531692 74.369155 
L 262.585157 114.389615 
L 262.717036 185.66912 
L 262.749114 186.202007 
L 262.79545 184.97525 
L 262.863172 173.353551 
L 262.913072 112.779335 
L 263.052079 65.538479 
L 263.069901 65.415605 
L 263.101979 66.032702 
L 263.162572 72.411121 
L 263.223165 112.449942 
L 263.362173 185.849165 
L 263.387123 186.201292 
L 263.433459 185.026222 
L 263.50118 173.697878 
L 263.551081 114.779826 
L 263.686524 65.643604 
L 263.70791 65.406938 
L 263.750681 66.478274 
L 263.811274 74.853835 
L 263.864739 118.643019 
L 263.993053 185.58277 
L 264.025132 186.193565 
L 264.078596 184.626606 
L 264.139189 174.046412 
L 264.189089 117.16578 
L 264.324533 65.655982 
L 264.345918 65.404804 
L 264.38869 66.429994 
L 264.445719 73.63255 
L 264.502747 116.02963 
L 264.634626 185.694325 
L 264.666705 186.197765 
L 264.713041 184.932384 
L 264.780762 173.10112 
L 264.834227 105.83741 
L 264.973234 65.500022 
L 264.983927 65.41027 
L 265.026699 66.37598 
L 265.087292 74.295461 
L 265.140756 113.827503 
L 265.276199 185.759424 
L 265.304714 186.202601 
L 265.354614 184.747704 
L 265.415207 174.749524 
L 265.465107 123.099276 
L 265.596986 65.812978 
L 265.6255 65.412797 
L 265.671836 66.69805 
L 265.739557 78.634704 
L 265.793022 146.308191 
L 265.932029 186.111398 
L 265.942722 186.199771 
L 265.985494 185.21112 
L 266.046087 177.213299 
L 266.099551 137.024142 
L 266.23143 65.934757 
L 266.263509 65.405592 
L 266.309845 66.63711 
L 266.377566 78.285061 
L 266.427466 138.993775 
L 266.566474 186.070578 
L 266.584295 186.190687 
L 266.616374 185.5705 
L 266.676967 179.176402 
L 266.73756 138.993775 
L 266.876567 65.75486 
L 266.901518 65.405592 
L 266.947853 66.585338 
L 267.015575 77.940794 
L 267.065475 137.024142 
L 267.200918 185.96488 
L 267.222304 186.199771 
L 267.229433 186.170718 
L 267.34349 125.803636 
L 271.560051 125.803636 
L 271.674108 185.971451 
L 271.695494 186.196198 
L 271.74183 184.920933 
L 271.809551 173.037105 
L 271.863016 105.567679 
L 272.002023 65.498051 
L 272.012716 65.40879 
L 272.055488 66.386124 
L 272.116081 74.344459 
L 272.169545 114.199218 
L 272.304988 185.763516 
L 272.333502 186.20227 
L 272.383403 184.735725 
L 272.443996 174.686597 
L 272.493896 122.5104 
L 272.625775 65.807495 
L 272.654289 65.414645 
L 272.700625 66.709994 
L 272.768346 78.699836 
L 272.821811 146.575358 
L 272.960818 186.113777 
L 272.971511 186.200842 
L 273.014283 185.201234 
L 273.074876 177.163317 
L 273.12834 136.627514 
L 273.260219 65.928171 
L 273.292298 65.40643 
L 273.338634 66.647521 
L 273.406355 78.347875 
L 273.456255 139.318702 
L 273.595263 186.073952 
L 273.60952 186.192628 
L 273.641599 185.710282 
L 273.70932 178.293672 
L 273.766349 138.659722 
L 273.901792 65.857635 
L 273.930306 65.405003 
L 273.980207 66.828891 
L 274.0408 76.702605 
L 274.0907 127.012813 
L 274.219014 185.691424 
L 274.251093 186.198483 
L 274.297429 184.938005 
L 274.36515 173.132957 
L 274.418615 105.972613 
L 274.557622 65.500931 
L 274.568315 65.411075 
L 274.611087 66.370872 
L 274.67168 74.271169 
L 274.725144 113.646037 
L 274.860587 185.757424 
L 274.889102 186.202667 
L 274.939002 184.753761 
L 274.999595 174.780817 
L 275.049495 123.395996 
L 275.17781 65.904665 
L 275.209888 65.411919 
L 275.256224 66.692164 
L 275.323946 78.602366 
L 275.37741 146.174053 
L 275.516418 186.110284 
L 275.52711 186.199152 
L 275.569882 185.216118 
L 275.630475 177.238118 
L 275.683939 137.217657 
L 275.815818 65.938153 
L 275.847897 65.405266 
L 275.894233 66.632023 
L 275.961954 78.253722 
L 276.011855 138.827937 
L 276.150862 186.068794 
L 276.168683 186.191667 
L 276.200762 185.574571 
L 276.261355 179.196151 
L 276.321948 139.157331 
L 276.460956 65.758108 
L 276.485906 65.405981 
L 276.532242 66.581051 
L 276.599963 77.909395 
L 276.649863 136.827447 
L 276.785306 185.963669 
L 276.806692 186.200335 
L 276.849464 185.128999 
L 276.910057 176.753438 
L 276.963521 132.964254 
L 277.091836 66.024503 
L 277.123914 65.413707 
L 277.177379 66.980667 
L 277.237972 77.56086 
L 277.287872 134.441492 
L 277.423315 185.951291 
L 277.444701 186.202468 
L 277.487472 185.177279 
L 277.544501 177.974723 
L 277.60153 135.577642 
L 277.733409 65.912947 
L 277.765487 65.409507 
L 277.811823 66.674889 
L 277.879545 78.506153 
L 277.933009 145.769863 
L 278.072017 186.107251 
L 278.08271 186.197003 
L 278.125481 185.231293 
L 278.186074 177.311811 
L 278.239539 137.779769 
L 278.374982 65.847848 
L 278.403496 65.404672 
L 278.453396 66.859569 
L 278.513989 76.857749 
L 278.563889 128.507997 
L 278.695768 185.794295 
L 278.724283 186.194475 
L 278.770619 184.909223 
L 278.83834 172.972569 
L 278.891805 105.299081 
L 279.030812 65.495875 
L 279.041505 65.407502 
L 279.084276 66.396153 
L 279.144869 74.393973 
L 279.198334 114.58313 
L 279.330213 185.672515 
L 279.362291 186.20168 
L 279.408627 184.970163 
L 279.476349 173.322212 
L 279.526249 112.613497 
L 279.665256 65.536695 
L 279.683078 65.416586 
L 279.715157 66.036772 
L 279.77575 72.430871 
L 279.836343 112.613497 
L 279.97535 185.852412 
L 280.0003 186.20168 
L 280.046636 185.021935 
L 280.114358 173.666478 
L 280.164258 114.58313 
L 280.299701 65.642392 
L 280.321087 65.407502 
L 280.363858 66.482372 
L 280.424451 74.879647 
L 280.477916 118.900875 
L 280.60623 185.586891 
L 280.638309 186.194475 
L 280.691773 184.621545 
L 280.752366 174.01448 
L 280.802266 116.931576 
L 280.93771 65.654855 
L 280.959095 65.404672 
L 281.001867 66.43464 
L 281.058896 73.652785 
L 281.115924 116.24989 
L 281.247803 185.697156 
L 281.279882 186.197003 
L 281.326218 184.926692 
L 281.393939 173.069173 
L 281.447404 105.702421 
L 281.586411 65.499062 
L 281.597104 65.409507 
L 281.639876 66.381065 
L 281.700469 74.319893 
L 281.753933 114.011872 
L 281.889376 185.761454 
L 281.917891 186.202468 
L 281.967791 184.741692 
L 282.028384 174.718115 
L 282.078284 122.804027 
L 282.210163 65.810261 
L 282.238677 65.413707 
L 282.285013 66.703994 
L 282.352735 78.667191 
L 282.406199 146.441972 
L 282.545207 186.112562 
L 282.555899 186.200335 
L 282.598671 185.206158 
L 282.659264 177.188364 
L 282.712728 136.827447 
L 282.844607 65.931429 
L 282.876686 65.405981 
L 282.923022 66.642276 
L 282.990743 78.316443 
L 283.040643 139.157331 
L 283.179651 186.072298 
L 283.193908 186.191667 
L 283.229551 185.566455 
L 283.28658 179.8725 
L 283.343609 149.904793 
L 283.507566 65.433321 
L 283.51113 65.436416 
L 283.514695 65.405266 
L 283.546773 65.938153 
L 283.614495 73.592288 
L 283.671524 115.599483 
L 283.803403 185.688451 
L 283.835481 186.199152 
L 283.881817 184.943555 
L 283.949539 173.164693 
L 284.003003 106.107997 
L 284.142011 65.501789 
L 284.152703 65.411919 
L 284.195475 66.365747 
L 284.256068 74.24702 
L 284.309532 113.467394 
L 284.444976 185.755448 
L 284.47349 186.202667 
L 284.52339 184.75986 
L 284.583983 174.811985 
L 284.633883 123.694034 
L 284.762198 65.907356 
L 284.794276 65.411075 
L 284.840612 66.68634 
L 284.908334 78.570168 
L 284.961798 146.039594 
L 285.100806 186.109221 
L 285.111499 186.198483 
L 285.15427 185.221148 
L 285.214863 177.262813 
L 285.268328 137.408054 
L 285.403771 65.843757 
L 285.432285 65.405003 
L 285.482185 66.871547 
L 285.542778 76.920676 
L 285.592678 129.096873 
L 285.724557 185.799778 
L 285.753072 186.192628 
L 285.799407 184.897279 
L 285.867129 172.907437 
L 285.920594 105.031915 
L 286.059601 65.493495 
L 286.070294 65.40643 
L 286.113065 66.406038 
L 286.173658 74.443956 
L 286.227123 114.979759 
L 286.359002 185.679102 
L 286.39108 186.200842 
L 286.437416 184.959752 
L 286.505138 173.259397 
L 286.555038 112.288571 
L 286.694045 65.53332 
L 286.708303 65.414645 
L 286.740381 65.896991 
L 286.808103 73.3136 
L 286.865132 112.947551 
L 287.000575 185.749637 
L 287.029089 186.20227 
L 287.078989 184.778382 
L 287.139582 174.904668 
L 287.189482 124.59446 
L 287.317797 65.915849 
L 287.349876 65.40879 
L 287.396211 66.669267 
L 287.463933 78.474316 
L 287.517397 145.63466 
L 287.656405 186.106342 
L 287.667098 186.196198 
L 287.709869 185.2364 
L 287.770462 177.336104 
L 287.823927 137.961235 
L 287.95937 65.849849 
L 287.987884 65.404605 
L 288.037785 66.853511 
L 288.098378 76.826456 
L 288.148278 128.211276 
L 288.276592 185.702608 
L 288.308671 186.195354 
L 288.355007 184.915109 
L 288.422728 173.004907 
L 288.476193 105.43322 
L 288.6152 65.496989 
L 288.625893 65.40812 
L 288.668665 66.391155 
L 288.729258 74.369155 
L 288.782722 114.389615 
L 288.914601 185.66912 
L 288.94668 186.202007 
L 288.993015 184.97525 
L 289.060737 173.353551 
L 289.110637 112.779335 
L 289.249645 65.538479 
L 289.267466 65.415605 
L 289.299545 66.032702 
L 289.360138 72.411121 
L 289.420731 112.449942 
L 289.559738 185.849165 
L 289.584688 186.201292 
L 289.631024 185.026222 
L 289.698746 173.697878 
L 289.748646 114.779826 
L 289.884089 65.643604 
L 289.905475 65.406938 
L 289.948246 66.478274 
L 290.008839 74.853835 
L 290.062304 118.643019 
L 290.190618 185.58277 
L 290.222697 186.193565 
L 290.276162 184.626606 
L 290.336755 174.046412 
L 290.386655 117.16578 
L 290.522098 65.655982 
L 290.543484 65.404804 
L 290.586255 66.429994 
L 290.643284 73.63255 
L 290.700313 116.02963 
L 290.832191 185.694325 
L 290.86427 186.197765 
L 290.910606 184.932384 
L 290.978328 173.10112 
L 291.031792 105.83741 
L 291.170799 65.500022 
L 291.181492 65.41027 
L 291.224264 66.37598 
L 291.284857 74.295461 
L 291.338321 113.827503 
L 291.473765 185.759424 
L 291.502279 186.202601 
L 291.552179 184.747704 
L 291.612772 174.749524 
L 291.662672 123.099276 
L 291.794551 65.812978 
L 291.823065 65.412797 
L 291.869401 66.69805 
L 291.937123 78.634704 
L 291.990587 146.308191 
L 292.129595 186.111398 
L 292.140288 186.199771 
L 292.183059 185.21112 
L 292.243652 177.213299 
L 292.297117 137.024142 
L 292.428995 65.934757 
L 292.461074 65.405592 
L 292.50741 66.63711 
L 292.575132 78.285061 
L 292.625032 138.993775 
L 292.764039 186.070578 
L 292.781861 186.190687 
L 292.813939 185.5705 
L 292.874532 179.176402 
L 292.935125 138.993775 
L 293.074133 65.75486 
L 293.099083 65.405592 
L 293.145419 66.585338 
L 293.21314 77.940794 
L 293.26304 137.024142 
L 293.398484 185.96488 
L 293.419869 186.199771 
L 293.462641 185.124901 
L 293.523234 176.727626 
L 293.576698 132.706398 
L 293.705013 66.020381 
L 293.737092 65.412797 
L 293.790556 66.985728 
L 293.851149 77.592793 
L 293.901049 134.675697 
L 294.036492 185.952418 
L 294.057878 186.202601 
L 294.10065 185.172633 
L 294.157678 177.954488 
L 294.214707 135.357383 
L 294.346586 65.910117 
L 294.378665 65.41027 
L 294.425 66.680581 
L 294.492722 78.5381 
L 294.546186 145.904852 
L 294.685194 186.10821 
L 294.695887 186.197765 
L 294.738658 185.226208 
L 294.799251 177.28738 
L 294.852716 137.595401 
L 294.988159 65.845819 
L 295.016673 65.404804 
L 295.066573 66.865581 
L 295.127166 76.889158 
L 295.177067 128.803246 
L 295.308945 185.797012 
L 295.33746 186.193565 
L 295.383796 184.903279 
L 295.451517 172.940082 
L 295.504982 105.1653 
L 295.643989 65.49471 
L 295.654682 65.406938 
L 295.697454 66.401115 
L 295.758047 74.418909 
L 295.811511 114.779826 
L 295.94339 185.675843 
L 295.975469 186.201292 
L 296.021804 184.964997 
L 296.089526 173.29083 
L 296.139426 112.449942 
L 296.278434 65.534975 
L 296.292691 65.415605 
L 296.328334 66.040818 
L 296.385362 71.734773 
L 296.442391 101.70248 
L 296.606349 186.173951 
L 296.609913 186.170856 
L 296.613477 186.202007 
L 296.645556 185.66912 
L 296.713278 178.014985 
L 296.770306 136.00779 
L 296.902185 65.918822 
L 296.934264 65.40812 
L 296.9806 66.663718 
L 297.048321 78.44258 
L 297.101786 145.499276 
L 297.240793 186.105483 
L 297.251486 186.195354 
L 297.294258 185.241526 
L 297.354851 177.360252 
L 297.408315 138.139879 
L 297.543758 65.851825 
L 297.572273 65.404605 
L 297.622173 66.847412 
L 297.682766 76.795288 
L 297.732666 127.913239 
L 297.86098 185.699916 
L 297.893059 186.196198 
L 297.939395 184.920933 
L 298.007117 173.037105 
L 298.060581 105.567679 
L 298.199588 65.498051 
L 298.210281 65.40879 
L 298.253053 66.386124 
L 298.313646 74.344459 
L 298.36711 114.199218 
L 298.502553 185.763516 
L 298.531068 186.20227 
L 298.580968 184.735725 
L 298.641561 174.686597 
L 298.691461 122.5104 
L 298.82334 65.807495 
L 298.851854 65.414645 
L 298.89819 66.709994 
L 298.965912 78.699836 
L 299.019376 146.575358 
L 299.158384 186.113777 
L 299.169077 186.200842 
L 299.211848 185.201234 
L 299.272441 177.163317 
L 299.325906 136.627514 
L 299.457784 65.928171 
L 299.489863 65.40643 
L 299.536199 66.647521 
L 299.60392 78.347875 
L 299.653821 139.318702 
L 299.792828 186.073952 
L 299.807085 186.192628 
L 299.839164 185.710282 
L 299.906886 178.293672 
L 299.963914 138.659722 
L 300.099357 65.857635 
L 300.127872 65.405003 
L 300.177772 66.828891 
L 300.238365 76.702605 
L 300.288265 127.012813 
L 300.41658 185.691424 
L 300.448658 186.198483 
L 300.494994 184.938005 
L 300.562716 173.132957 
L 300.61618 105.972613 
L 300.755188 65.500931 
L 300.765881 65.411075 
L 300.808652 66.370872 
L 300.869245 74.271169 
L 300.922709 113.646037 
L 301.058153 185.757424 
L 301.086667 186.202667 
L 301.136567 184.753761 
L 301.19716 174.780817 
L 301.24706 123.395996 
L 301.375375 65.904665 
L 301.407454 65.411919 
L 301.453789 66.692164 
L 301.521511 78.602366 
L 301.574975 146.174053 
L 301.713983 186.110284 
L 301.724676 186.199152 
L 301.767447 185.216118 
L 301.82804 177.238118 
L 301.881505 137.217657 
L 301.895762 103.475915 
L 301.995562 125.803636 
L 306.22638 125.803636 
L 306.229944 110.109777 
L 306.322616 181.687354 
L 306.358259 183.229027 
L 306.404595 179.415017 
L 306.461623 150.93376 
L 306.589938 68.378755 
L 306.629145 70.229463 
L 306.689738 90.995863 
L 306.828746 183.228418 
L 306.900032 174.847739 
L 306.949932 128.035669 
L 307.067553 68.382555 
L 307.078246 68.492973 
L 307.113889 71.328005 
L 307.174482 98.891258 
L 307.309925 183.224718 
L 307.352697 180.174645 
L 307.41329 152.025921 
L 307.548733 68.378855 
L 307.58794 71.014177 
L 307.644969 93.05651 
L 307.787541 183.228518 
L 307.841005 177.927055 
L 307.898034 139.8716 
L 308.01922 68.378246 
L 308.037042 68.686922 
L 308.083377 74.65948 
L 308.136842 112.936676 
L 308.258028 183.226899 
L 308.272285 183.055059 
L 308.325749 175.803374 
L 308.379214 126.923834 
L 308.5004 68.385126 
L 308.507528 68.498143 
L 308.543171 71.379559 
L 308.603764 99.233627 
L 308.739208 183.226899 
L 308.778415 180.632842 
L 308.835444 158.827804 
L 308.978015 68.378246 
L 309.03148 73.613214 
L 309.084944 105.591362 
L 309.209694 183.228518 
L 309.241773 182.074591 
L 309.302366 165.603829 
L 309.448502 68.378855 
L 309.53761 84.336786 
L 309.68731 183.224718 
L 309.783546 162.324415 
L 309.929682 68.382555 
L 310.000968 78.433356 
L 310.050868 138.020474 
L 310.16849 183.228418 
L 310.186311 182.655919 
L 310.24334 171.515557 
L 310.300369 97.546149 
L 310.407297 68.378755 
L 310.435812 69.859759 
L 310.489276 83.779845 
L 310.638977 183.229027 
L 310.735213 163.054049 
L 310.877784 68.380374 
L 310.956199 79.397051 
L 311.013228 152.373645 
L 311.120156 183.222147 
L 311.152235 181.571764 
L 311.209264 164.626457 
L 311.358964 68.380374 
L 311.433814 79.948721 
L 311.490843 153.726166 
L 311.597772 183.229027 
L 311.626286 181.778749 
L 311.679751 168.010333 
L 311.829451 68.378755 
L 311.925687 88.314869 
L 312.068259 183.228418 
L 312.146673 172.341091 
L 312.203702 99.581352 
L 312.307066 68.382555 
L 312.342709 70.006585 
L 312.399738 86.776887 
L 312.549438 183.224718 
L 312.627853 170.225097 
L 312.699139 84.336786 
L 312.788246 68.378855 
L 312.831018 71.542292 
L 312.891611 100.299659 
L 313.027054 183.228518 
L 313.059133 181.413681 
L 313.119726 160.855378 
L 313.258733 68.378246 
L 313.330019 76.65299 
L 313.379919 122.476224 
L 313.497541 183.226899 
L 313.508234 183.120137 
L 313.540312 180.790542 
L 313.597341 159.871064 
L 313.739913 68.385126 
L 313.800506 75.016556 
L 313.85397 115.784283 
L 313.978721 183.226899 
L 313.985849 183.100063 
L 314.025056 179.518461 
L 314.082085 151.671141 
L 314.217528 68.378246 
L 314.253171 70.606841 
L 314.3102 90.508074 
L 314.449208 183.228518 
L 314.524058 173.837668 
L 314.573958 118.397546 
L 314.688015 68.378855 
L 314.705837 68.703367 
L 314.752173 74.747701 
L 314.805637 113.586799 
L 314.926823 183.224718 
L 314.94108 183.04407 
L 314.994545 175.716596 
L 315.048009 125.803636 
L 315.169195 68.382555 
L 315.176324 68.502815 
L 315.215531 72.036821 
L 315.27256 99.581352 
L 315.408003 183.228418 
L 315.44721 180.593096 
L 315.504239 158.550762 
L 315.64681 68.378755 
L 315.700275 73.680218 
L 315.757304 111.735673 
L 315.87849 183.229027 
L 315.896311 182.920351 
L 315.942647 176.947793 
L 315.996111 138.670597 
L 316.117297 68.380374 
L 316.131555 68.552213 
L 316.185019 75.803899 
L 316.238483 124.683438 
L 316.359669 183.222147 
L 316.366798 183.10913 
L 316.402441 180.227714 
L 316.463034 152.373645 
L 316.598477 68.380374 
L 316.637684 70.974431 
L 316.694713 92.779469 
L 316.837285 183.229027 
L 316.890749 177.994059 
L 316.944214 146.015911 
L 317.068964 68.378755 
L 317.101043 69.532681 
L 317.161636 86.003444 
L 317.307772 183.228418 
L 317.396879 167.270487 
L 317.54658 68.382555 
L 317.642815 89.282858 
L 317.788952 183.224718 
L 317.860237 173.173917 
L 317.910138 113.586799 
L 318.027759 68.378855 
L 318.045581 68.951354 
L 318.102609 80.091716 
L 318.159638 154.061123 
L 318.266567 183.228518 
L 318.295081 181.747513 
L 318.348546 167.827428 
L 318.498246 68.378246 
L 318.594482 88.553224 
L 318.737054 183.226899 
L 318.815468 172.210221 
L 318.872497 99.233627 
L 318.979426 68.385126 
L 319.011505 70.035509 
L 319.068533 86.980816 
L 319.218234 183.226899 
L 319.232491 125.803636 
L 323.55598 125.803636 
L 323.559545 177.927055 
L 323.662909 80.235754 
L 323.737759 68.378246 
L 323.791224 72.351048 
L 323.848252 101.869176 
L 323.976567 183.226899 
L 324.01221 181.629401 
L 324.069239 165.029484 
L 324.218939 68.385126 
L 324.297353 81.240571 
L 324.361511 162.569267 
L 324.457747 183.226899 
L 324.496954 180.632842 
L 324.553983 158.827804 
L 324.696554 68.378246 
L 324.750019 73.613214 
L 324.803483 105.591362 
L 324.928234 183.228518 
L 324.960312 182.074591 
L 325.020905 165.603829 
L 325.167041 68.378855 
L 325.256149 84.336786 
L 325.405849 183.224718 
L 325.502085 162.324415 
L 325.648221 68.382555 
L 325.719507 78.433356 
L 325.769407 138.020474 
L 325.887029 183.228418 
L 325.90485 182.655919 
L 325.961879 171.515557 
L 326.018908 97.546149 
L 326.125837 68.378755 
L 326.154351 69.859759 
L 326.207815 83.779845 
L 326.357516 183.229027 
L 326.453752 163.054049 
L 326.596324 68.380374 
L 326.674738 79.397051 
L 326.731767 152.373645 
L 326.838696 183.222147 
L 326.870774 181.571764 
L 326.927803 164.626457 
L 327.077503 68.380374 
L 327.152353 79.948721 
L 327.209382 153.726166 
L 327.316311 183.229027 
L 327.344825 181.778749 
L 327.39829 168.010333 
L 327.54799 68.378755 
L 327.644226 88.314869 
L 327.786798 183.228418 
L 327.865212 172.341091 
L 327.922241 99.581352 
L 328.025606 68.382555 
L 328.061249 70.006585 
L 328.118277 86.776887 
L 328.267978 183.224718 
L 328.346392 170.225097 
L 328.417678 84.336786 
L 328.506785 68.378855 
L 328.549557 71.542292 
L 328.61015 100.299659 
L 328.745593 183.228518 
L 328.777672 181.413681 
L 328.838265 160.855378 
L 328.977272 68.378246 
L 329.048558 76.65299 
L 329.098458 122.476224 
L 329.21608 183.226899 
L 329.226773 183.120137 
L 329.258852 180.790542 
L 329.31588 159.871064 
L 329.458452 68.385126 
L 329.519045 75.016556 
L 329.57251 115.784283 
L 329.69726 183.226899 
L 329.704388 183.100063 
L 329.743596 179.518461 
L 329.800624 151.671141 
L 329.936068 68.378246 
L 329.971711 70.606841 
L 330.028739 90.508074 
L 330.167747 183.228518 
L 330.242597 173.837668 
L 330.292497 118.397546 
L 330.406554 68.378855 
L 330.424376 68.703367 
L 330.470712 74.747701 
L 330.524176 113.586799 
L 330.645362 183.224718 
L 330.659619 183.04407 
L 330.713084 175.716596 
L 330.766548 125.803636 
L 330.887734 68.382555 
L 330.894863 68.502815 
L 330.93407 72.036821 
L 330.991099 99.581352 
L 331.126542 183.228418 
L 331.165749 180.593096 
L 331.222778 158.550762 
L 331.36535 68.378755 
L 331.418814 73.680218 
L 331.475843 111.735673 
L 331.597029 183.229027 
L 331.61485 182.920351 
L 331.661186 176.947793 
L 331.714651 138.670597 
L 331.835837 68.380374 
L 331.850094 68.552213 
L 331.903558 75.803899 
L 331.957023 124.683438 
L 332.078209 183.222147 
L 332.085337 183.10913 
L 332.12098 180.227714 
L 332.181573 152.373645 
L 332.317016 68.380374 
L 332.356224 70.974431 
L 332.413252 92.779469 
L 332.555824 183.229027 
L 332.609289 177.994059 
L 332.662753 146.015911 
L 332.787503 68.378755 
L 332.819582 69.532681 
L 332.880175 86.003444 
L 333.026311 183.228418 
L 333.115418 167.270487 
L 333.265119 68.382555 
L 333.361355 89.282858 
L 333.507491 183.224718 
L 333.578777 173.173917 
L 333.628677 113.586799 
L 333.746298 68.378855 
L 333.76412 68.951354 
L 333.821149 80.091716 
L 333.878177 154.061123 
L 333.985106 183.228518 
L 334.013621 181.747513 
L 334.067085 167.827428 
L 334.216785 68.378246 
L 334.313021 88.553224 
L 334.455593 183.226899 
L 334.534008 172.210221 
L 334.591036 99.233627 
L 334.697965 68.385126 
L 334.730044 70.035509 
L 334.787073 86.980816 
L 334.936773 183.226899 
L 335.011623 171.658552 
L 335.068652 97.881107 
L 335.175581 68.378246 
L 335.204095 69.828524 
L 335.257559 83.596939 
L 335.40726 183.228518 
L 335.503496 163.292403 
L 335.646068 68.378855 
L 335.724482 79.266182 
L 335.781511 152.025921 
L 335.884875 183.224718 
L 335.920518 181.600688 
L 335.977547 164.830385 
L 336.127247 68.382555 
L 336.205662 81.382176 
L 336.276948 167.270487 
L 336.366055 183.228418 
L 336.408827 180.064981 
L 336.46942 151.307614 
L 336.554963 71.710859 
L 336.597734 125.803636 
L 340.885581 125.803636 
L 340.885581 125.803636 
" clip-path="url(#p145d3930fa)" style="fill: none; stroke: #0000ff; stroke-width: 2; stroke-linecap: square"/>
   </g>
   <g id="line2d_3">
    <defs>
     <path id="m94b2f7dc7b" d="M 3 0 
L -3 -3 
L -3 3 
z
" style="stroke: #000000; stroke-linejoin: miter"/>
    </defs>
    <g>
     <use xlink:href="#m94b2f7dc7b" x="356.603942" y="125.803636" style="stroke: #000000; stroke-linejoin: miter"/>
    </g>
   </g>
   <g id="line2d_4">
    <defs>
     <path id="mb98cba226f" d="M 0 -3 
L -3 3 
L 3 3 
z
" style="stroke: #000000; stroke-linejoin: miter"/>
    </defs>
    <g>
     <use xlink:href="#mb98cba226f" x="26.518361" y="30.528" style="stroke: #000000; stroke-linejoin: miter"/>
    </g>
   </g>
   <g id="patch_3">
    <path d="M 26.518361 205.2 
L 26.518361 30.528 
" style="fill: none; stroke: #000000; stroke-width: 2; stroke-linejoin: miter; stroke-linecap: square"/>
   </g>
   <g id="patch_4">
    <path d="M 10.8 125.803636 
L 356.603942 125.803636 
" style="fill: none; stroke: #000000; stroke-width: 2; stroke-linejoin: miter; stroke-linecap: square"/>
   </g>
   <g id="text_2">
    <!-- t / s -->
    <g transform="translate(395.900468 129.666761) scale(0.14 -0.14)">
     <defs>
      <path id="DejaVuSans-74" d="M 1172 4494 
L 1172 3500 
L 2356 3500 
L 2356 3053 
L 1172 3053 
L 1172 1153 
Q 1172 725 1289 603 
Q 1406 481 1766 481 
L 2356 481 
L 2356 0 
L 1766 0 
Q 1100 0 847 248 
Q 594 497 594 1153 
L 594 3053 
L 172 3053 
L 172 3500 
L 594 3500 
L 594 4494 
L 1172 4494 
z
" transform="scale(0.015625)"/>
      <path id="DejaVuSans-20" transform="scale(0.015625)"/>
      <path id="DejaVuSans-2f" d="M 1625 4666 
L 2156 4666 
L 531 -594 
L 0 -594 
L 1625 4666 
z
" transform="scale(0.015625)"/>
      <path id="DejaVuSans-73" d="M 2834 3397 
L 2834 2853 
Q 2591 2978 2328 3040 
Q 2066 3103 1784 3103 
Q 1356 3103 1142 2972 
Q 928 2841 928 2578 
Q 928 2378 1081 2264 
Q 1234 2150 1697 2047 
L 1894 2003 
Q 2506 1872 2764 1633 
Q 3022 1394 3022 966 
Q 3022 478 2636 193 
Q 2250 -91 1575 -91 
Q 1294 -91 989 -36 
Q 684 19 347 128 
L 347 722 
Q 666 556 975 473 
Q 1284 391 1588 391 
Q 1994 391 2212 530 
Q 2431 669 2431 922 
Q 2431 1156 2273 1281 
Q 2116 1406 1581 1522 
L 1381 1569 
Q 847 1681 609 1914 
Q 372 2147 372 2553 
Q 372 3047 722 3315 
Q 1072 3584 1716 3584 
Q 2034 3584 2315 3537 
Q 2597 3491 2834 3397 
z
" transform="scale(0.015625)"/>
     </defs>
     <use xlink:href="#DejaVuSans-74"/>
     <use xlink:href="#DejaVuSans-20" x="39.208984"/>
     <use xlink:href="#DejaVuSans-2f" x="70.996094"/>
     <use xlink:href="#DejaVuSans-20" x="104.6875"/>
     <use xlink:href="#DejaVuSans-73" x="136.474609"/>
    </g>
   </g>
   <g id="text_3">
    <!-- A -->
    <g transform="translate(21.729923 21.264728) scale(0.14 -0.14)">
     <defs>
      <path id="DejaVuSans-41" d="M 2188 4044 
L 1331 1722 
L 3047 1722 
L 2188 4044 
z
M 1831 4666 
L 2547 4666 
L 4325 0 
L 3669 0 
L 3244 1197 
L 1141 1197 
L 716 0 
L 50 0 
L 1831 4666 
z
" transform="scale(0.015625)"/>
     </defs>
     <use xlink:href="#DejaVuSans-41"/>
    </g>
   </g>
  </g>
 </g>
 <defs>
  <clipPath id="p145d3930fa">
   <rect x="10.8" y="30.528" width="345.803942" height="174.672"/>
  </clipPath>
 </defs>
</svg>
