<?xml version="1.0" encoding="utf-8" standalone="no"?>
<!DOCTYPE svg PUBLIC "-//W3C//DTD SVG 1.1//EN"
  "http://www.w3.org/Graphics/SVG/1.1/DTD/svg11.dtd">
<svg xmlns:xlink="http://www.w3.org/1999/xlink" width="432pt" height="216pt" viewBox="0 0 432 216" xmlns="http://www.w3.org/2000/svg" version="1.1">
 <metadata>
  <rdf:RDF xmlns:dc="http://purl.org/dc/elements/1.1/" xmlns:cc="http://creativecommons.org/ns#" xmlns:rdf="http://www.w3.org/1999/02/22-rdf-syntax-ns#">
   <cc:Work>
    <dc:type rdf:resource="http://purl.org/dc/dcmitype/StillImage"/>
    <dc:date>2025-10-20T10:54:33.777081</dc:date>
    <dc:format>image/svg+xml</dc:format>
    <dc:creator>
     <cc:Agent>
      <dc:title>Matplotlib v3.9.4, https://matplotlib.org/</dc:title>
     </cc:Agent>
    </dc:creator>
   </cc:Work>
  </rdf:RDF>
 </metadata>
 <defs>
  <style type="text/css">*{stroke-linejoin: round; stroke-linecap: butt}</style>
 </defs>
 <g id="figure_1">
  <g id="patch_1">
   <path d="M 0 216 
L 432 216 
L 432 0 
L 0 0 
L 0 216 
z
" style="fill: none"/>
  </g>
  <g id="axes_1">
   <g id="patch_2">
    <path d="M 10.8 205.2 
L 387.343227 205.2 
L 387.343227 30.528 
L 10.8 30.528 
L 10.8 205.2 
z
" style="fill: none"/>
   </g>
   <g id="matplotlib.axis_1"/>
   <g id="matplotlib.axis_2">
    <g id="ytick_1">
     <g id="line2d_1">
      <defs>
       <path id="m59810eb2c8" d="M 4 0 
L -4 -0 
" style="stroke: #000000; stroke-width: 2"/>
      </defs>
      <g>
       <use xlink:href="#m59810eb2c8" x="27.915601" y="46.407273" style="stroke: #000000; stroke-width: 2"/>
      </g>
     </g>
     <g id="text_1">
      <!-- 1 -->
      <g transform="translate(14.053101 50.206491) scale(0.1 -0.1)">
       <defs>
        <path id="DejaVuSans-31" d="M 794 531 
L 1825 531 
L 1825 4091 
L 703 3866 
L 703 4441 
L 1819 4666 
L 2450 4666 
L 2450 531 
L 3481 531 
L 3481 0 
L 794 0 
L 794 531 
z
" transform="scale(0.015625)"/>
       </defs>
       <use xlink:href="#DejaVuSans-31"/>
      </g>
     </g>
    </g>
   </g>
   <g id="line2d_2">
    <path d="M 27.915601 125.803636 
L 28.874458 108.025501 
L 29.833316 98.95887 
L 30.792173 91.703384 
L 31.75103 86.61587 
L 32.709887 82.421566 
L 33.668744 79.138579 
L 34.627602 76.533137 
L 35.586459 74.284718 
L 37.504173 71.029795 
L 39.421888 68.8066 
L 41.339602 67.270411 
L 44.216174 65.807781 
L 46.133888 65.13258 
L 49.969317 64.307595 
L 52.845889 64.027709 
L 54.763603 63.86609 
L 58.599032 63.652592 
L 61.475604 63.613543 
L 63.393318 63.578676 
L 66.26989 63.512692 
L 85.447034 63.741179 
L 88.323605 63.979944 
L 90.24132 64.156552 
L 93.117892 64.601409 
L 94.076749 64.752024 
L 97.912178 65.959154 
L 100.788749 67.673971 
L 101.747606 68.412409 
L 102.706464 69.34432 
L 104.624178 71.751426 
L 106.541892 75.281616 
L 108.459607 80.582094 
L 110.377321 88.852018 
L 111.336179 95.231769 
L 112.295036 102.8485 
L 113.253893 115.790294 
L 114.21275 135.816979 
L 115.171607 148.758772 
L 116.130465 156.375504 
L 117.089322 162.755254 
L 119.007036 171.025179 
L 120.924751 176.325657 
L 122.842465 179.855847 
L 124.760179 182.262952 
L 125.719037 183.194864 
L 127.636751 184.636827 
L 130.513323 185.951418 
L 131.47218 186.357792 
L 136.266466 187.333069 
L 140.101895 187.745365 
L 142.978466 187.857353 
L 144.896181 187.935991 
L 147.772753 188.030012 
L 156.402467 188.117979 
L 160.237896 188.085394 
L 165.032182 188.061984 
L 167.908754 187.951006 
L 170.785326 187.863801 
L 175.579612 187.539738 
L 181.332755 186.474693 
L 183.250469 185.799492 
L 184.209327 185.407586 
L 186.127041 184.336862 
L 188.044755 182.800673 
L 189.96247 180.577477 
L 191.880184 177.322554 
L 192.839041 175.074136 
L 193.797899 172.468694 
L 194.756756 169.185707 
L 195.715613 164.991403 
L 196.67447 159.903888 
L 197.633327 152.648403 
L 198.592185 143.581772 
L 200.509899 108.025501 
L 201.468756 98.95887 
L 202.427614 91.703384 
L 203.386471 86.61587 
L 204.345328 82.421566 
L 205.304185 79.138579 
L 206.263042 76.533137 
L 207.2219 74.284718 
L 209.139614 71.029795 
L 211.057328 68.8066 
L 212.975043 67.270411 
L 215.851614 65.807781 
L 217.769329 65.13258 
L 221.604758 64.307595 
L 224.481329 64.027709 
L 226.399044 63.86609 
L 230.234473 63.652592 
L 233.111044 63.613543 
L 235.028759 63.578676 
L 237.90533 63.512692 
L 257.082475 63.741179 
L 259.959046 63.979944 
L 261.876761 64.156552 
L 264.753332 64.601409 
L 265.712189 64.752024 
L 269.547618 65.959154 
L 272.42419 67.673971 
L 273.383047 68.412409 
L 274.341904 69.34432 
L 276.259619 71.751426 
L 278.177333 75.281616 
L 280.095048 80.582094 
L 282.012762 88.852018 
L 282.971619 95.231769 
L 283.930476 102.8485 
L 284.889334 115.790294 
L 285.848191 135.816979 
L 286.807048 148.758772 
L 287.765905 156.375504 
L 288.724762 162.755254 
L 290.642477 171.025179 
L 292.560191 176.325657 
L 294.477906 179.855847 
L 296.39562 182.262952 
L 297.354477 183.194864 
L 299.272192 184.636827 
L 302.148763 185.951418 
L 303.107621 186.357792 
L 307.901907 187.333069 
L 311.737336 187.745365 
L 314.613907 187.857353 
L 316.531622 187.935991 
L 319.408193 188.030012 
L 328.037908 188.117979 
L 331.873337 188.085394 
L 336.667623 188.061984 
L 339.544195 187.951006 
L 342.420766 187.863801 
L 347.215052 187.539738 
L 352.968196 186.474693 
L 354.88591 185.799492 
L 355.844767 185.407586 
L 357.762482 184.336862 
L 359.680196 182.800673 
L 361.59791 180.577477 
L 363.515625 177.322554 
L 364.474482 175.074136 
L 365.433339 172.468694 
L 366.392197 169.185707 
L 367.351054 164.991403 
L 368.309911 159.903888 
L 369.268768 152.648403 
L 370.227625 143.581772 
L 370.227625 143.581772 
" clip-path="url(#p3b194040a4)" style="fill: none; stroke: #0000ff; stroke-width: 2; stroke-linecap: square"/>
   </g>
   <g id="line2d_3">
    <defs>
     <path id="m35bf5ea791" d="M 3 0 
L -3 -3 
L -3 3 
z
" style="stroke: #000000; stroke-linejoin: miter"/>
    </defs>
    <g>
     <use xlink:href="#m35bf5ea791" x="387.343227" y="125.803636" style="stroke: #000000; stroke-linejoin: miter"/>
    </g>
   </g>
   <g id="line2d_4">
    <defs>
     <path id="ma738fec804" d="M 0 -3 
L -3 3 
L 3 3 
z
" style="stroke: #000000; stroke-linejoin: miter"/>
    </defs>
    <g>
     <use xlink:href="#ma738fec804" x="27.915601" y="30.528" style="stroke: #000000; stroke-linejoin: miter"/>
    </g>
   </g>
   <g id="patch_3">
    <path d="M 27.915601 205.2 
L 27.915601 30.528 
" style="fill: none; stroke: #000000; stroke-width: 2; stroke-linejoin: miter; stroke-linecap: square"/>
   </g>
   <g id="patch_4">
    <path d="M 10.8 125.803636 
L 387.343227 125.803636 
" style="fill: none; stroke: #000000; stroke-width: 2; stroke-linejoin: miter; stroke-linecap: square"/>
   </g>
   <g id="text_2">
    <!-- t / s -->
    <g transform="translate(395.561016 129.666761) scale(0.14 -0.14)">
     <defs>
      <path id="DejaVuSans-74" d="M 1172 4494 
L 1172 3500 
L 2356 3500 
L 2356 3053 
L 1172 3053 
L 1172 1153 
Q 1172 725 1289 603 
Q 1406 481 1766 481 
L 2356 481 
L 2356 0 
L 1766 0 
Q 1100 0 847 248 
Q 594 497 594 1153 
L 594 3053 
L 172 3053 
L 172 3500 
L 594 3500 
L 594 4494 
L 1172 4494 
z
" transform="scale(0.015625)"/>
      <path id="DejaVuSans-20" transform="scale(0.015625)"/>
      <path id="DejaVuSans-2f" d="M 1625 4666 
L 2156 4666 
L 531 -594 
L 0 -594 
L 1625 4666 
z
" transform="scale(0.015625)"/>
      <path id="DejaVuSans-73" d="M 2834 3397 
L 2834 2853 
Q 2591 2978 2328 3040 
Q 2066 3103 1784 3103 
Q 1356 3103 1142 2972 
Q 928 2841 928 2578 
Q 928 2378 1081 2264 
Q 1234 2150 1697 2047 
L 1894 2003 
Q 2506 1872 2764 1633 
Q 3022 1394 3022 966 
Q 3022 478 2636 193 
Q 2250 -91 1575 -91 
Q 1294 -91 989 -36 
Q 684 19 347 128 
L 347 722 
Q 666 556 975 473 
Q 1284 391 1588 391 
Q 1994 391 2212 530 
Q 2431 669 2431 922 
Q 2431 1156 2273 1281 
Q 2116 1406 1581 1522 
L 1381 1569 
Q 847 1681 609 1914 
Q 372 2147 372 2553 
Q 372 3047 722 3315 
Q 1072 3584 1716 3584 
Q 2034 3584 2315 3537 
Q 2597 3491 2834 3397 
z
" transform="scale(0.015625)"/>
     </defs>
     <use xlink:href="#DejaVuSans-74"/>
     <use xlink:href="#DejaVuSans-20" x="39.208984"/>
     <use xlink:href="#DejaVuSans-2f" x="70.996094"/>
     <use xlink:href="#DejaVuSans-20" x="104.6875"/>
     <use xlink:href="#DejaVuSans-73" x="136.474609"/>
    </g>
   </g>
   <g id="text_3">
    <!-- A -->
    <g transform="translate(23.127164 21.264728) scale(0.14 -0.14)">
     <defs>
      <path id="DejaVuSans-41" d="M 2188 4044 
L 1331 1722 
L 3047 1722 
L 2188 4044 
z
M 1831 4666 
L 2547 4666 
L 4325 0 
L 3669 0 
L 3244 1197 
L 1141 1197 
L 716 0 
L 50 0 
L 1831 4666 
z
" transform="scale(0.015625)"/>
     </defs>
     <use xlink:href="#DejaVuSans-41"/>
    </g>
   </g>
  </g>
 </g>
 <defs>
  <clipPath id="p3b194040a4">
   <rect x="10.8" y="30.528" width="376.543227" height="174.672"/>
  </clipPath>
 </defs>
</svg>
