<?xml version="1.0" encoding="utf-8" standalone="no"?>
<!DOCTYPE svg PUBLIC "-//W3C//DTD SVG 1.1//EN"
  "http://www.w3.org/Graphics/SVG/1.1/DTD/svg11.dtd">
<svg xmlns:xlink="http://www.w3.org/1999/xlink" width="432pt" height="216pt" viewBox="0 0 432 216" xmlns="http://www.w3.org/2000/svg" version="1.1">
 <metadata>
  <rdf:RDF xmlns:dc="http://purl.org/dc/elements/1.1/" xmlns:cc="http://creativecommons.org/ns#" xmlns:rdf="http://www.w3.org/1999/02/22-rdf-syntax-ns#">
   <cc:Work>
    <dc:type rdf:resource="http://purl.org/dc/dcmitype/StillImage"/>
    <dc:date>2025-10-21T17:25:24.636814</dc:date>
    <dc:format>image/svg+xml</dc:format>
    <dc:creator>
     <cc:Agent>
      <dc:title>Matplotlib v3.9.4, https://matplotlib.org/</dc:title>
     </cc:Agent>
    </dc:creator>
   </cc:Work>
  </rdf:RDF>
 </metadata>
 <defs>
  <style type="text/css">*{stroke-linejoin: round; stroke-linecap: butt}</style>
 </defs>
 <g id="figure_1">
  <g id="patch_1">
   <path d="M 0 216 
L 432 216 
L 432 0 
L 0 0 
L 0 216 
z
" style="fill: none"/>
  </g>
  <g id="axes_1">
   <g id="patch_2">
    <path d="M 10.8 205.2 
L 387.343227 205.2 
L 387.343227 30.528 
L 10.8 30.528 
L 10.8 205.2 
z
" style="fill: none"/>
   </g>
   <g id="matplotlib.axis_1"/>
   <g id="matplotlib.axis_2">
    <g id="ytick_1">
     <g id="line2d_1">
      <defs>
       <path id="me4d3531a60" d="M 4 0 
L -4 -0 
" style="stroke: #000000; stroke-width: 2"/>
      </defs>
      <g>
       <use xlink:href="#me4d3531a60" x="27.915601" y="46.407273" style="stroke: #000000; stroke-width: 2"/>
      </g>
     </g>
     <g id="text_1">
      <!-- 1 -->
      <g transform="translate(14.053101 50.206491) scale(0.1 -0.1)">
       <defs>
        <path id="DejaVuSans-31" d="M 794 531 
L 1825 531 
L 1825 4091 
L 703 3866 
L 703 4441 
L 1819 4666 
L 2450 4666 
L 2450 531 
L 3481 531 
L 3481 0 
L 794 0 
L 794 531 
z
" transform="scale(0.015625)"/>
       </defs>
       <use xlink:href="#DejaVuSans-31"/>
      </g>
     </g>
    </g>
   </g>
   <g id="line2d_2">
    <path d="M 27.915601 125.803636 
L 28.874458 84.992242 
L 29.833316 75.173043 
L 30.792173 68.401368 
L 31.75103 66.447798 
L 32.709887 64.824487 
L 33.668744 64.155124 
L 34.627602 63.988149 
L 35.586459 63.467099 
L 36.545316 63.792812 
L 37.504173 63.262842 
L 38.463031 63.72503 
L 39.421888 63.235797 
L 40.380745 63.658495 
L 41.339602 63.286083 
L 42.298459 63.572815 
L 43.257317 63.368919 
L 44.216174 63.480634 
L 46.133888 63.398596 
L 47.092745 63.526627 
L 48.051603 63.342164 
L 49.01046 63.566702 
L 49.969317 63.319114 
L 50.928174 63.572199 
L 51.887031 63.329375 
L 52.845889 63.545325 
L 53.804746 63.368368 
L 54.763603 63.496564 
L 56.681318 63.439181 
L 57.640175 63.47918 
L 58.599032 63.38902 
L 59.557889 63.523171 
L 60.516746 63.355291 
L 61.475604 63.542689 
L 62.434461 63.346707 
L 63.393318 63.538187 
L 64.352175 63.364414 
L 65.311032 63.509189 
L 66.26989 63.402664 
L 68.187604 63.451766 
L 69.146461 63.415649 
L 70.105318 63.499063 
L 71.064176 63.376205 
L 72.023033 63.53089 
L 72.98189 63.353009 
L 73.940747 63.540339 
L 74.899605 63.355137 
L 75.858462 63.524847 
L 76.817319 63.3821 
L 77.776176 63.487835 
L 79.693891 63.437808 
L 80.652748 63.47813 
L 81.611605 63.389014 
L 82.570462 63.524764 
L 83.529319 63.351394 
L 84.488177 63.5508 
L 85.447034 63.336559 
L 86.405891 63.551537 
L 87.364748 63.350838 
L 88.323605 63.522382 
L 89.282463 63.393297 
L 91.200177 63.456168 
L 92.159034 63.402712 
L 93.117892 63.523676 
L 94.076749 63.338648 
L 95.035606 63.580424 
L 95.994463 63.293791 
L 96.95332 63.609746 
L 97.912178 63.284846 
L 98.871035 63.598978 
L 99.829892 63.323238 
L 100.788749 63.545107 
L 101.747606 63.416406 
L 103.665321 63.573409 
L 104.624178 63.376424 
L 105.583035 63.838789 
L 106.541892 63.425185 
L 107.50075 64.401048 
L 108.459607 64.009355 
L 109.418464 66.012755 
L 110.377321 66.648368 
L 111.336179 71.888899 
L 112.295036 78.063031 
L 113.253893 101.23103 
L 114.21275 150.376243 
L 115.171607 173.544242 
L 116.130465 179.718374 
L 117.089322 184.958905 
L 118.048179 185.594518 
L 119.007036 187.597917 
L 119.965893 187.206225 
L 120.924751 188.182087 
L 121.883608 187.768484 
L 122.842465 188.230849 
L 123.801322 188.033864 
L 125.719037 188.190867 
L 126.677894 188.062166 
L 127.636751 188.284034 
L 128.595608 188.008295 
L 129.554466 188.322427 
L 130.513323 187.997527 
L 131.47218 188.313482 
L 132.431037 188.026848 
L 133.389894 188.268625 
L 134.348752 188.083597 
L 135.307609 188.204561 
L 137.225323 188.13832 
L 138.18418 188.213975 
L 139.143038 188.08489 
L 140.101895 188.256435 
L 141.060752 188.055736 
L 142.019609 188.270714 
L 142.978466 188.056473 
L 143.937324 188.255879 
L 144.896181 188.082509 
L 145.855038 188.218259 
L 146.813895 188.129143 
L 148.73161 188.180352 
L 149.690467 188.119437 
L 150.649324 188.225173 
L 151.608181 188.082426 
L 152.567039 188.252136 
L 153.525896 188.066934 
L 154.484753 188.254264 
L 155.44361 188.076383 
L 156.402467 188.231067 
L 157.361325 188.108209 
L 158.320182 188.191624 
L 160.237896 188.142975 
L 161.196753 188.204608 
L 162.155611 188.098083 
L 163.114468 188.242859 
L 164.073325 188.069086 
L 165.032182 188.260565 
L 165.99104 188.064584 
L 166.949897 188.251981 
L 167.908754 188.084102 
L 168.867611 188.218252 
L 169.826468 188.128093 
L 171.744183 188.183769 
L 172.70304 188.110709 
L 173.661897 188.238904 
L 174.620754 188.061947 
L 175.579612 188.277897 
L 176.538469 188.035074 
L 177.497326 188.288158 
L 178.456183 188.040571 
L 179.41504 188.265109 
L 180.373898 188.080645 
L 181.332755 188.208677 
L 183.250469 188.126639 
L 184.209327 188.238353 
L 185.168184 188.034458 
L 186.127041 188.32119 
L 187.085898 187.948778 
L 188.044755 188.371476 
L 189.003613 187.882242 
L 189.96247 188.34443 
L 190.921327 187.814461 
L 191.880184 188.140174 
L 192.839041 187.619123 
L 193.797899 187.452149 
L 194.756756 186.782785 
L 195.715613 185.159474 
L 196.67447 183.205904 
L 197.633327 176.43423 
L 198.592185 166.615031 
L 200.509899 84.992242 
L 201.468756 75.173043 
L 202.427614 68.401368 
L 203.386471 66.447798 
L 204.345328 64.824487 
L 205.304185 64.155124 
L 206.263042 63.988149 
L 207.2219 63.467099 
L 208.180757 63.792812 
L 209.139614 63.262842 
L 210.098471 63.72503 
L 211.057328 63.235797 
L 212.016186 63.658495 
L 212.975043 63.286083 
L 213.9339 63.572815 
L 214.892757 63.368919 
L 215.851614 63.480634 
L 217.769329 63.398596 
L 218.728186 63.526627 
L 219.687043 63.342164 
L 220.645901 63.566702 
L 221.604758 63.319114 
L 222.563615 63.572199 
L 223.522472 63.329375 
L 224.481329 63.545325 
L 225.440187 63.368368 
L 226.399044 63.496564 
L 228.316758 63.439181 
L 229.275615 63.47918 
L 230.234473 63.38902 
L 231.19333 63.523171 
L 232.152187 63.355291 
L 233.111044 63.542689 
L 234.069901 63.346707 
L 235.028759 63.538187 
L 235.987616 63.364414 
L 236.946473 63.509189 
L 237.90533 63.402664 
L 239.823045 63.451766 
L 240.781902 63.415649 
L 241.740759 63.499063 
L 242.699616 63.376205 
L 243.658474 63.53089 
L 244.617331 63.353009 
L 245.576188 63.540339 
L 246.535045 63.355137 
L 247.493902 63.524847 
L 248.45276 63.3821 
L 249.411617 63.487835 
L 251.329331 63.437808 
L 252.288188 63.47813 
L 253.247046 63.389014 
L 254.205903 63.524764 
L 255.16476 63.351394 
L 256.123617 63.5508 
L 257.082475 63.336559 
L 258.041332 63.551537 
L 259.000189 63.350838 
L 259.959046 63.522382 
L 260.917903 63.393297 
L 262.835618 63.456168 
L 263.794475 63.402712 
L 264.753332 63.523676 
L 265.712189 63.338648 
L 266.671047 63.580424 
L 267.629904 63.293791 
L 268.588761 63.609746 
L 269.547618 63.284846 
L 270.506475 63.598978 
L 271.465333 63.323238 
L 272.42419 63.545107 
L 273.383047 63.416406 
L 275.300762 63.573409 
L 276.259619 63.376424 
L 277.218476 63.838789 
L 278.177333 63.425185 
L 279.13619 64.401048 
L 280.095048 64.009355 
L 281.053905 66.012755 
L 282.012762 66.648368 
L 282.971619 71.888899 
L 283.930476 78.063031 
L 284.889334 101.23103 
L 285.848191 150.376243 
L 286.807048 173.544242 
L 287.765905 179.718374 
L 288.724762 184.958905 
L 289.68362 185.594518 
L 290.642477 187.597917 
L 291.601334 187.206225 
L 292.560191 188.182087 
L 293.519049 187.768484 
L 294.477906 188.230849 
L 295.436763 188.033864 
L 297.354477 188.190867 
L 298.313335 188.062166 
L 299.272192 188.284034 
L 300.231049 188.008295 
L 301.189906 188.322427 
L 302.148763 187.997527 
L 303.107621 188.313482 
L 304.066478 188.026848 
L 305.025335 188.268625 
L 305.984192 188.083597 
L 306.943049 188.204561 
L 308.860764 188.13832 
L 309.819621 188.213975 
L 310.778478 188.08489 
L 311.737336 188.256435 
L 312.696193 188.055736 
L 313.65505 188.270714 
L 314.613907 188.056473 
L 315.572764 188.255879 
L 316.531622 188.082509 
L 317.490479 188.218259 
L 318.449336 188.129143 
L 320.36705 188.180352 
L 321.325908 188.119437 
L 322.284765 188.225173 
L 323.243622 188.082426 
L 324.202479 188.252136 
L 325.161336 188.066934 
L 326.120194 188.254264 
L 327.079051 188.076383 
L 328.037908 188.231067 
L 328.996765 188.108209 
L 329.955623 188.191624 
L 331.873337 188.142975 
L 332.832194 188.204608 
L 333.791051 188.098083 
L 334.749909 188.242859 
L 335.708766 188.069086 
L 336.667623 188.260565 
L 337.62648 188.064584 
L 338.585337 188.251981 
L 339.544195 188.084102 
L 340.503052 188.218252 
L 341.461909 188.128093 
L 343.379623 188.183769 
L 344.338481 188.110709 
L 345.297338 188.238904 
L 346.256195 188.061947 
L 347.215052 188.277897 
L 348.17391 188.035074 
L 349.132767 188.288158 
L 350.091624 188.040571 
L 351.050481 188.265109 
L 352.009338 188.080645 
L 352.968196 188.208677 
L 354.88591 188.126639 
L 355.844767 188.238353 
L 356.803624 188.034458 
L 357.762482 188.32119 
L 358.721339 187.948778 
L 359.680196 188.371476 
L 360.639053 187.882242 
L 361.59791 188.34443 
L 362.556768 187.814461 
L 363.515625 188.140174 
L 364.474482 187.619123 
L 365.433339 187.452149 
L 366.392197 186.782785 
L 367.351054 185.159474 
L 368.309911 183.205904 
L 369.268768 176.43423 
L 370.227625 166.615031 
L 370.227625 166.615031 
" clip-path="url(#p7289f56969)" style="fill: none; stroke: #0000ff; stroke-width: 2; stroke-linecap: square"/>
   </g>
   <g id="line2d_3">
    <defs>
     <path id="mc3a474ba9c" d="M 3 0 
L -3 -3 
L -3 3 
z
" style="stroke: #000000; stroke-linejoin: miter"/>
    </defs>
    <g>
     <use xlink:href="#mc3a474ba9c" x="387.343227" y="125.803636" style="stroke: #000000; stroke-linejoin: miter"/>
    </g>
   </g>
   <g id="line2d_4">
    <defs>
     <path id="m40b2b597ac" d="M 0 -3 
L -3 3 
L 3 3 
z
" style="stroke: #000000; stroke-linejoin: miter"/>
    </defs>
    <g>
     <use xlink:href="#m40b2b597ac" x="27.915601" y="30.528" style="stroke: #000000; stroke-linejoin: miter"/>
    </g>
   </g>
   <g id="patch_3">
    <path d="M 27.915601 205.2 
L 27.915601 30.528 
" style="fill: none; stroke: #000000; stroke-width: 2; stroke-linejoin: miter; stroke-linecap: square"/>
   </g>
   <g id="patch_4">
    <path d="M 10.8 125.803636 
L 387.343227 125.803636 
" style="fill: none; stroke: #000000; stroke-width: 2; stroke-linejoin: miter; stroke-linecap: square"/>
   </g>
   <g id="text_2">
    <!-- t / s -->
    <g transform="translate(395.561016 129.666761) scale(0.14 -0.14)">
     <defs>
      <path id="DejaVuSans-74" d="M 1172 4494 
L 1172 3500 
L 2356 3500 
L 2356 3053 
L 1172 3053 
L 1172 1153 
Q 1172 725 1289 603 
Q 1406 481 1766 481 
L 2356 481 
L 2356 0 
L 1766 0 
Q 1100 0 847 248 
Q 594 497 594 1153 
L 594 3053 
L 172 3053 
L 172 3500 
L 594 3500 
L 594 4494 
L 1172 4494 
z
" transform="scale(0.015625)"/>
      <path id="DejaVuSans-20" transform="scale(0.015625)"/>
      <path id="DejaVuSans-2f" d="M 1625 4666 
L 2156 4666 
L 531 -594 
L 0 -594 
L 1625 4666 
z
" transform="scale(0.015625)"/>
      <path id="DejaVuSans-73" d="M 2834 3397 
L 2834 2853 
Q 2591 2978 2328 3040 
Q 2066 3103 1784 3103 
Q 1356 3103 1142 2972 
Q 928 2841 928 2578 
Q 928 2378 1081 2264 
Q 1234 2150 1697 2047 
L 1894 2003 
Q 2506 1872 2764 1633 
Q 3022 1394 3022 966 
Q 3022 478 2636 193 
Q 2250 -91 1575 -91 
Q 1294 -91 989 -36 
Q 684 19 347 128 
L 347 722 
Q 666 556 975 473 
Q 1284 391 1588 391 
Q 1994 391 2212 530 
Q 2431 669 2431 922 
Q 2431 1156 2273 1281 
Q 2116 1406 1581 1522 
L 1381 1569 
Q 847 1681 609 1914 
Q 372 2147 372 2553 
Q 372 3047 722 3315 
Q 1072 3584 1716 3584 
Q 2034 3584 2315 3537 
Q 2597 3491 2834 3397 
z
" transform="scale(0.015625)"/>
     </defs>
     <use xlink:href="#DejaVuSans-74"/>
     <use xlink:href="#DejaVuSans-20" x="39.208984"/>
     <use xlink:href="#DejaVuSans-2f" x="70.996094"/>
     <use xlink:href="#DejaVuSans-20" x="104.6875"/>
     <use xlink:href="#DejaVuSans-73" x="136.474609"/>
    </g>
   </g>
   <g id="text_3">
    <!-- A -->
    <g transform="translate(23.127164 21.264728) scale(0.14 -0.14)">
     <defs>
      <path id="DejaVuSans-41" d="M 2188 4044 
L 1331 1722 
L 3047 1722 
L 2188 4044 
z
M 1831 4666 
L 2547 4666 
L 4325 0 
L 3669 0 
L 3244 1197 
L 1141 1197 
L 716 0 
L 50 0 
L 1831 4666 
z
" transform="scale(0.015625)"/>
     </defs>
     <use xlink:href="#DejaVuSans-41"/>
    </g>
   </g>
  </g>
 </g>
 <defs>
  <clipPath id="p7289f56969">
   <rect x="10.8" y="30.528" width="376.543227" height="174.672"/>
  </clipPath>
 </defs>
</svg>
