<?xml version="1.0" encoding="utf-8" standalone="no"?>
<!DOCTYPE svg PUBLIC "-//W3C//DTD SVG 1.1//EN"
  "http://www.w3.org/Graphics/SVG/1.1/DTD/svg11.dtd">
<svg xmlns:xlink="http://www.w3.org/1999/xlink" width="432pt" height="216pt" viewBox="0 0 432 216" xmlns="http://www.w3.org/2000/svg" version="1.1">
 <metadata>
  <rdf:RDF xmlns:dc="http://purl.org/dc/elements/1.1/" xmlns:cc="http://creativecommons.org/ns#" xmlns:rdf="http://www.w3.org/1999/02/22-rdf-syntax-ns#">
   <cc:Work>
    <dc:type rdf:resource="http://purl.org/dc/dcmitype/StillImage"/>
    <dc:date>2025-10-20T10:54:33.927993</dc:date>
    <dc:format>image/svg+xml</dc:format>
    <dc:creator>
     <cc:Agent>
      <dc:title>Matplotlib v3.9.4, https://matplotlib.org/</dc:title>
     </cc:Agent>
    </dc:creator>
   </cc:Work>
  </rdf:RDF>
 </metadata>
 <defs>
  <style type="text/css">*{stroke-linejoin: round; stroke-linecap: butt}</style>
 </defs>
 <g id="figure_1">
  <g id="patch_1">
   <path d="M 0 216 
L 432 216 
L 432 0 
L 0 0 
L 0 216 
z
" style="fill: none"/>
  </g>
  <g id="axes_1">
   <g id="patch_2">
    <path d="M 10.8 205.2 
L 387.343227 205.2 
L 387.343227 30.528 
L 10.8 30.528 
L 10.8 205.2 
z
" style="fill: none"/>
   </g>
   <g id="matplotlib.axis_1"/>
   <g id="matplotlib.axis_2">
    <g id="ytick_1">
     <g id="line2d_1">
      <defs>
       <path id="m08033d152f" d="M 4 0 
L -4 -0 
" style="stroke: #000000; stroke-width: 2"/>
      </defs>
      <g>
       <use xlink:href="#m08033d152f" x="27.915601" y="46.407273" style="stroke: #000000; stroke-width: 2"/>
      </g>
     </g>
     <g id="text_1">
      <!-- 1 -->
      <g transform="translate(14.053101 50.206491) scale(0.1 -0.1)">
       <defs>
        <path id="DejaVuSans-31" d="M 794 531 
L 1825 531 
L 1825 4091 
L 703 3866 
L 703 4441 
L 1819 4666 
L 2450 4666 
L 2450 531 
L 3481 531 
L 3481 0 
L 794 0 
L 794 531 
z
" transform="scale(0.015625)"/>
       </defs>
       <use xlink:href="#DejaVuSans-31"/>
      </g>
     </g>
    </g>
   </g>
   <g id="line2d_2">
    <path d="M 27.915601 125.803636 
L 28.874458 114.967378 
L 29.833316 108.535911 
L 30.792173 103.08133 
L 31.75103 98.79458 
L 32.709887 95.044413 
L 33.668744 91.842633 
L 35.586459 86.57269 
L 37.504173 82.457814 
L 39.421888 79.186969 
L 41.339602 76.555444 
L 43.257317 74.419328 
L 45.175031 72.673135 
L 47.092745 71.237333 
L 49.01046 70.051233 
L 50.928174 69.068403 
L 52.845889 68.253031 
L 54.763603 67.577858 
L 57.640175 66.791749 
L 60.516746 66.205218 
L 65.311032 65.641904 
L 68.187604 65.466111 
L 72.023033 65.437339 
L 74.899605 65.522519 
L 79.693891 65.996919 
L 83.529319 66.66684 
L 87.364748 67.714464 
L 90.24132 68.837414 
L 92.159034 69.766552 
L 94.076749 70.893799 
L 95.994463 72.264509 
L 97.912178 73.936133 
L 99.829892 75.981923 
L 101.747606 78.497605 
L 103.665321 81.612115 
L 104.624178 83.408531 
L 106.541892 87.747668 
L 108.459607 93.332832 
L 110.377321 100.773119 
L 111.336179 105.74915 
L 112.295036 111.42182 
L 113.253893 119.819669 
L 114.21275 131.787604 
L 115.171607 140.185453 
L 116.130465 145.858122 
L 117.089322 150.834154 
L 119.007036 158.274441 
L 120.924751 163.859605 
L 122.842465 168.198742 
L 124.760179 171.640637 
L 126.677894 174.410067 
L 128.595608 176.661962 
L 129.554466 177.67114 
L 131.47218 179.342764 
L 134.348752 181.284805 
L 136.266466 182.325127 
L 138.18418 183.185036 
L 141.060752 184.170084 
L 142.978466 184.691893 
L 144.896181 185.118819 
L 147.772753 185.610353 
L 151.608181 186.000169 
L 154.484753 186.169969 
L 160.237896 186.097135 
L 163.114468 185.899243 
L 167.908754 185.211259 
L 170.785326 184.585489 
L 173.661897 183.727586 
L 176.538469 182.53887 
L 178.456183 181.55604 
L 180.373898 180.36994 
L 182.291612 178.934138 
L 184.209327 177.187945 
L 186.127041 175.051828 
L 188.044755 172.420303 
L 189.96247 169.149459 
L 191.880184 165.034583 
L 193.797899 159.76464 
L 194.756756 156.56286 
L 195.715613 152.812693 
L 196.67447 148.525942 
L 197.633327 143.071362 
L 198.592185 136.639895 
L 200.509899 114.967378 
L 201.468756 108.535911 
L 202.427614 103.08133 
L 203.386471 98.79458 
L 204.345328 95.044413 
L 205.304185 91.842633 
L 207.2219 86.57269 
L 209.139614 82.457814 
L 211.057328 79.186969 
L 212.975043 76.555444 
L 214.892757 74.419328 
L 216.810472 72.673135 
L 218.728186 71.237333 
L 220.645901 70.051233 
L 222.563615 69.068403 
L 224.481329 68.253031 
L 226.399044 67.577858 
L 229.275615 66.791749 
L 232.152187 66.205218 
L 236.946473 65.641904 
L 239.823045 65.466111 
L 243.658474 65.437339 
L 246.535045 65.522519 
L 251.329331 65.996919 
L 255.16476 66.66684 
L 259.000189 67.714464 
L 261.876761 68.837414 
L 263.794475 69.766552 
L 265.712189 70.893799 
L 267.629904 72.264509 
L 269.547618 73.936133 
L 271.465333 75.981923 
L 273.383047 78.497605 
L 275.300762 81.612115 
L 276.259619 83.408531 
L 278.177333 87.747668 
L 280.095048 93.332832 
L 282.012762 100.773119 
L 282.971619 105.74915 
L 283.930476 111.42182 
L 284.889334 119.819669 
L 285.848191 131.787604 
L 286.807048 140.185453 
L 287.765905 145.858122 
L 288.724762 150.834154 
L 290.642477 158.274441 
L 292.560191 163.859605 
L 294.477906 168.198742 
L 296.39562 171.640637 
L 298.313335 174.410067 
L 300.231049 176.661962 
L 301.189906 177.67114 
L 303.107621 179.342764 
L 305.984192 181.284805 
L 307.901907 182.325127 
L 309.819621 183.185036 
L 312.696193 184.170084 
L 314.613907 184.691893 
L 316.531622 185.118819 
L 319.408193 185.610353 
L 323.243622 186.000169 
L 326.120194 186.169969 
L 331.873337 186.097135 
L 334.749909 185.899243 
L 339.544195 185.211259 
L 342.420766 184.585489 
L 345.297338 183.727586 
L 348.17391 182.53887 
L 350.091624 181.55604 
L 352.009338 180.36994 
L 353.927053 178.934138 
L 355.844767 177.187945 
L 357.762482 175.051828 
L 359.680196 172.420303 
L 361.59791 169.149459 
L 363.515625 165.034583 
L 365.433339 159.76464 
L 366.392197 156.56286 
L 367.351054 152.812693 
L 368.309911 148.525942 
L 369.268768 143.071362 
L 370.227625 136.639895 
L 370.227625 136.639895 
" clip-path="url(#p9fed33b0d6)" style="fill: none; stroke: #0000ff; stroke-width: 2; stroke-linecap: square"/>
   </g>
   <g id="line2d_3">
    <defs>
     <path id="m8a46178312" d="M 3 0 
L -3 -3 
L -3 3 
z
" style="stroke: #000000; stroke-linejoin: miter"/>
    </defs>
    <g>
     <use xlink:href="#m8a46178312" x="387.343227" y="125.803636" style="stroke: #000000; stroke-linejoin: miter"/>
    </g>
   </g>
   <g id="line2d_4">
    <defs>
     <path id="m24c8ca7694" d="M 0 -3 
L -3 3 
L 3 3 
z
" style="stroke: #000000; stroke-linejoin: miter"/>
    </defs>
    <g>
     <use xlink:href="#m24c8ca7694" x="27.915601" y="30.528" style="stroke: #000000; stroke-linejoin: miter"/>
    </g>
   </g>
   <g id="patch_3">
    <path d="M 27.915601 205.2 
L 27.915601 30.528 
" style="fill: none; stroke: #000000; stroke-width: 2; stroke-linejoin: miter; stroke-linecap: square"/>
   </g>
   <g id="patch_4">
    <path d="M 10.8 125.803636 
L 387.343227 125.803636 
" style="fill: none; stroke: #000000; stroke-width: 2; stroke-linejoin: miter; stroke-linecap: square"/>
   </g>
   <g id="text_2">
    <!-- t / s -->
    <g transform="translate(395.561016 129.666761) scale(0.14 -0.14)">
     <defs>
      <path id="DejaVuSans-74" d="M 1172 4494 
L 1172 3500 
L 2356 3500 
L 2356 3053 
L 1172 3053 
L 1172 1153 
Q 1172 725 1289 603 
Q 1406 481 1766 481 
L 2356 481 
L 2356 0 
L 1766 0 
Q 1100 0 847 248 
Q 594 497 594 1153 
L 594 3053 
L 172 3053 
L 172 3500 
L 594 3500 
L 594 4494 
L 1172 4494 
z
" transform="scale(0.015625)"/>
      <path id="DejaVuSans-20" transform="scale(0.015625)"/>
      <path id="DejaVuSans-2f" d="M 1625 4666 
L 2156 4666 
L 531 -594 
L 0 -594 
L 1625 4666 
z
" transform="scale(0.015625)"/>
      <path id="DejaVuSans-73" d="M 2834 3397 
L 2834 2853 
Q 2591 2978 2328 3040 
Q 2066 3103 1784 3103 
Q 1356 3103 1142 2972 
Q 928 2841 928 2578 
Q 928 2378 1081 2264 
Q 1234 2150 1697 2047 
L 1894 2003 
Q 2506 1872 2764 1633 
Q 3022 1394 3022 966 
Q 3022 478 2636 193 
Q 2250 -91 1575 -91 
Q 1294 -91 989 -36 
Q 684 19 347 128 
L 347 722 
Q 666 556 975 473 
Q 1284 391 1588 391 
Q 1994 391 2212 530 
Q 2431 669 2431 922 
Q 2431 1156 2273 1281 
Q 2116 1406 1581 1522 
L 1381 1569 
Q 847 1681 609 1914 
Q 372 2147 372 2553 
Q 372 3047 722 3315 
Q 1072 3584 1716 3584 
Q 2034 3584 2315 3537 
Q 2597 3491 2834 3397 
z
" transform="scale(0.015625)"/>
     </defs>
     <use xlink:href="#DejaVuSans-74"/>
     <use xlink:href="#DejaVuSans-20" x="39.208984"/>
     <use xlink:href="#DejaVuSans-2f" x="70.996094"/>
     <use xlink:href="#DejaVuSans-20" x="104.6875"/>
     <use xlink:href="#DejaVuSans-73" x="136.474609"/>
    </g>
   </g>
   <g id="text_3">
    <!-- A -->
    <g transform="translate(23.127164 21.264728) scale(0.14 -0.14)">
     <defs>
      <path id="DejaVuSans-41" d="M 2188 4044 
L 1331 1722 
L 3047 1722 
L 2188 4044 
z
M 1831 4666 
L 2547 4666 
L 4325 0 
L 3669 0 
L 3244 1197 
L 1141 1197 
L 716 0 
L 50 0 
L 1831 4666 
z
" transform="scale(0.015625)"/>
     </defs>
     <use xlink:href="#DejaVuSans-41"/>
    </g>
   </g>
  </g>
 </g>
 <defs>
  <clipPath id="p9fed33b0d6">
   <rect x="10.8" y="30.528" width="376.543227" height="174.672"/>
  </clipPath>
 </defs>
</svg>
