<?xml version="1.0" encoding="utf-8" standalone="no"?>
<!DOCTYPE svg PUBLIC "-//W3C//DTD SVG 1.1//EN"
  "http://www.w3.org/Graphics/SVG/1.1/DTD/svg11.dtd">
<svg xmlns:xlink="http://www.w3.org/1999/xlink" width="432pt" height="216pt" viewBox="0 0 432 216" xmlns="http://www.w3.org/2000/svg" version="1.1">
 <metadata>
  <rdf:RDF xmlns:dc="http://purl.org/dc/elements/1.1/" xmlns:cc="http://creativecommons.org/ns#" xmlns:rdf="http://www.w3.org/1999/02/22-rdf-syntax-ns#">
   <cc:Work>
    <dc:type rdf:resource="http://purl.org/dc/dcmitype/StillImage"/>
    <dc:date>2025-10-20T10:54:33.627776</dc:date>
    <dc:format>image/svg+xml</dc:format>
    <dc:creator>
     <cc:Agent>
      <dc:title>Matplotlib v3.9.4, https://matplotlib.org/</dc:title>
     </cc:Agent>
    </dc:creator>
   </cc:Work>
  </rdf:RDF>
 </metadata>
 <defs>
  <style type="text/css">*{stroke-linejoin: round; stroke-linecap: butt}</style>
 </defs>
 <g id="figure_1">
  <g id="patch_1">
   <path d="M 0 216 
L 432 216 
L 432 0 
L 0 0 
L 0 216 
z
" style="fill: none"/>
  </g>
  <g id="axes_1">
   <g id="patch_2">
    <path d="M 10.8 205.2 
L 387.343227 205.2 
L 387.343227 30.528 
L 10.8 30.528 
L 10.8 205.2 
z
" style="fill: none"/>
   </g>
   <g id="matplotlib.axis_1"/>
   <g id="matplotlib.axis_2">
    <g id="ytick_1">
     <g id="line2d_1">
      <defs>
       <path id="m0b05e7cf89" d="M 4 0 
L -4 -0 
" style="stroke: #000000; stroke-width: 2"/>
      </defs>
      <g>
       <use xlink:href="#m0b05e7cf89" x="27.915601" y="46.407273" style="stroke: #000000; stroke-width: 2"/>
      </g>
     </g>
     <g id="text_1">
      <!-- 1 -->
      <g transform="translate(14.053101 50.206491) scale(0.1 -0.1)">
       <defs>
        <path id="DejaVuSans-31" d="M 794 531 
L 1825 531 
L 1825 4091 
L 703 3866 
L 703 4441 
L 1819 4666 
L 2450 4666 
L 2450 531 
L 3481 531 
L 3481 0 
L 794 0 
L 794 531 
z
" transform="scale(0.015625)"/>
       </defs>
       <use xlink:href="#DejaVuSans-31"/>
      </g>
     </g>
    </g>
   </g>
   <g id="line2d_2">
    <path d="M 27.915601 125.803636 
L 28.874458 97.95822 
L 29.833316 86.981177 
L 30.792173 78.91823 
L 31.75103 74.449737 
L 32.709887 71.059391 
L 33.668744 68.83774 
L 35.586459 66.119778 
L 36.545316 65.560582 
L 37.504173 64.765374 
L 38.463031 64.617492 
L 39.421888 64.091331 
L 40.380745 64.103343 
L 41.339602 63.767066 
L 42.298459 63.804858 
L 43.257317 63.622968 
L 45.175031 63.567755 
L 48.051603 63.439857 
L 49.01046 63.541561 
L 49.969317 63.40696 
L 50.928174 63.528684 
L 51.887031 63.400604 
L 52.845889 63.506497 
L 53.804746 63.414083 
L 55.72246 63.438629 
L 70.105318 63.472997 
L 71.064176 63.410689 
L 72.023033 63.489121 
L 72.98189 63.398851 
L 73.940747 63.493838 
L 74.899605 63.399879 
L 75.858462 63.485977 
L 76.817319 63.413606 
L 78.735033 63.436525 
L 95.994463 63.468758 
L 96.95332 63.664996 
L 97.912178 63.549311 
L 98.871035 63.775846 
L 99.829892 63.727825 
L 100.788749 63.966384 
L 101.747606 64.073672 
L 102.706464 64.331721 
L 104.624178 65.065299 
L 105.583035 65.917086 
L 106.541892 66.557827 
L 107.50075 68.222506 
L 108.459607 69.631154 
L 110.377321 76.16124 
L 111.336179 82.842245 
L 112.295036 91.267816 
L 113.253893 109.676811 
L 114.21275 141.930462 
L 115.171607 160.339457 
L 116.130465 168.765028 
L 117.089322 175.446032 
L 119.007036 181.976118 
L 119.965893 183.384767 
L 120.924751 185.049446 
L 121.883608 185.690187 
L 122.842465 186.541973 
L 125.719037 187.533601 
L 126.677894 187.640889 
L 127.636751 187.879448 
L 128.595608 187.831426 
L 129.554466 188.057961 
L 130.513323 187.942277 
L 131.47218 188.138514 
L 132.431037 188.019528 
L 133.389894 188.161498 
L 134.348752 188.081926 
L 136.266466 188.134387 
L 184.209327 187.984304 
L 185.168184 187.802415 
L 186.127041 187.840207 
L 187.085898 187.503929 
L 188.044755 187.515942 
L 189.003613 186.989781 
L 189.96247 186.841899 
L 190.921327 186.046691 
L 191.880184 185.487495 
L 192.839041 184.225336 
L 193.797899 182.769532 
L 194.756756 180.547882 
L 195.715613 177.157536 
L 196.67447 172.689043 
L 197.633327 164.626096 
L 198.592185 153.649053 
L 200.509899 97.95822 
L 201.468756 86.981177 
L 202.427614 78.91823 
L 203.386471 74.449737 
L 204.345328 71.059391 
L 205.304185 68.83774 
L 207.2219 66.119778 
L 208.180757 65.560582 
L 209.139614 64.765374 
L 210.098471 64.617492 
L 211.057328 64.091331 
L 212.016186 64.103343 
L 212.975043 63.767066 
L 213.9339 63.804858 
L 214.892757 63.622968 
L 216.810472 63.567755 
L 219.687043 63.439857 
L 220.645901 63.541561 
L 221.604758 63.40696 
L 222.563615 63.528684 
L 223.522472 63.400604 
L 224.481329 63.506497 
L 225.440187 63.414083 
L 227.357901 63.438629 
L 241.740759 63.472997 
L 242.699616 63.410689 
L 243.658474 63.489121 
L 244.617331 63.398851 
L 245.576188 63.493838 
L 246.535045 63.399879 
L 247.493902 63.485977 
L 248.45276 63.413606 
L 250.370474 63.436525 
L 267.629904 63.468758 
L 268.588761 63.664996 
L 269.547618 63.549311 
L 270.506475 63.775846 
L 271.465333 63.727825 
L 272.42419 63.966384 
L 273.383047 64.073672 
L 274.341904 64.331721 
L 276.259619 65.065299 
L 277.218476 65.917086 
L 278.177333 66.557827 
L 279.13619 68.222506 
L 280.095048 69.631154 
L 282.012762 76.16124 
L 282.971619 82.842245 
L 283.930476 91.267816 
L 284.889334 109.676811 
L 285.848191 141.930462 
L 286.807048 160.339457 
L 287.765905 168.765028 
L 288.724762 175.446032 
L 290.642477 181.976118 
L 291.601334 183.384767 
L 292.560191 185.049446 
L 293.519049 185.690187 
L 294.477906 186.541973 
L 297.354477 187.533601 
L 298.313335 187.640889 
L 299.272192 187.879448 
L 300.231049 187.831426 
L 301.189906 188.057961 
L 302.148763 187.942277 
L 303.107621 188.138514 
L 304.066478 188.019528 
L 305.025335 188.161498 
L 305.984192 188.081926 
L 307.901907 188.134387 
L 355.844767 187.984304 
L 356.803624 187.802415 
L 357.762482 187.840207 
L 358.721339 187.503929 
L 359.680196 187.515942 
L 360.639053 186.989781 
L 361.59791 186.841899 
L 362.556768 186.046691 
L 363.515625 185.487495 
L 364.474482 184.225336 
L 365.433339 182.769532 
L 366.392197 180.547882 
L 367.351054 177.157536 
L 368.309911 172.689043 
L 369.268768 164.626096 
L 370.227625 153.649053 
L 370.227625 153.649053 
" clip-path="url(#pab75806870)" style="fill: none; stroke: #0000ff; stroke-width: 2; stroke-linecap: square"/>
   </g>
   <g id="line2d_3">
    <defs>
     <path id="m795804f5b5" d="M 3 0 
L -3 -3 
L -3 3 
z
" style="stroke: #000000; stroke-linejoin: miter"/>
    </defs>
    <g>
     <use xlink:href="#m795804f5b5" x="387.343227" y="125.803636" style="stroke: #000000; stroke-linejoin: miter"/>
    </g>
   </g>
   <g id="line2d_4">
    <defs>
     <path id="ma2dbc515ab" d="M 0 -3 
L -3 3 
L 3 3 
z
" style="stroke: #000000; stroke-linejoin: miter"/>
    </defs>
    <g>
     <use xlink:href="#ma2dbc515ab" x="27.915601" y="30.528" style="stroke: #000000; stroke-linejoin: miter"/>
    </g>
   </g>
   <g id="patch_3">
    <path d="M 27.915601 205.2 
L 27.915601 30.528 
" style="fill: none; stroke: #000000; stroke-width: 2; stroke-linejoin: miter; stroke-linecap: square"/>
   </g>
   <g id="patch_4">
    <path d="M 10.8 125.803636 
L 387.343227 125.803636 
" style="fill: none; stroke: #000000; stroke-width: 2; stroke-linejoin: miter; stroke-linecap: square"/>
   </g>
   <g id="text_2">
    <!-- t / s -->
    <g transform="translate(395.561016 129.666761) scale(0.14 -0.14)">
     <defs>
      <path id="DejaVuSans-74" d="M 1172 4494 
L 1172 3500 
L 2356 3500 
L 2356 3053 
L 1172 3053 
L 1172 1153 
Q 1172 725 1289 603 
Q 1406 481 1766 481 
L 2356 481 
L 2356 0 
L 1766 0 
Q 1100 0 847 248 
Q 594 497 594 1153 
L 594 3053 
L 172 3053 
L 172 3500 
L 594 3500 
L 594 4494 
L 1172 4494 
z
" transform="scale(0.015625)"/>
      <path id="DejaVuSans-20" transform="scale(0.015625)"/>
      <path id="DejaVuSans-2f" d="M 1625 4666 
L 2156 4666 
L 531 -594 
L 0 -594 
L 1625 4666 
z
" transform="scale(0.015625)"/>
      <path id="DejaVuSans-73" d="M 2834 3397 
L 2834 2853 
Q 2591 2978 2328 3040 
Q 2066 3103 1784 3103 
Q 1356 3103 1142 2972 
Q 928 2841 928 2578 
Q 928 2378 1081 2264 
Q 1234 2150 1697 2047 
L 1894 2003 
Q 2506 1872 2764 1633 
Q 3022 1394 3022 966 
Q 3022 478 2636 193 
Q 2250 -91 1575 -91 
Q 1294 -91 989 -36 
Q 684 19 347 128 
L 347 722 
Q 666 556 975 473 
Q 1284 391 1588 391 
Q 1994 391 2212 530 
Q 2431 669 2431 922 
Q 2431 1156 2273 1281 
Q 2116 1406 1581 1522 
L 1381 1569 
Q 847 1681 609 1914 
Q 372 2147 372 2553 
Q 372 3047 722 3315 
Q 1072 3584 1716 3584 
Q 2034 3584 2315 3537 
Q 2597 3491 2834 3397 
z
" transform="scale(0.015625)"/>
     </defs>
     <use xlink:href="#DejaVuSans-74"/>
     <use xlink:href="#DejaVuSans-20" x="39.208984"/>
     <use xlink:href="#DejaVuSans-2f" x="70.996094"/>
     <use xlink:href="#DejaVuSans-20" x="104.6875"/>
     <use xlink:href="#DejaVuSans-73" x="136.474609"/>
    </g>
   </g>
   <g id="text_3">
    <!-- A -->
    <g transform="translate(23.127164 21.264728) scale(0.14 -0.14)">
     <defs>
      <path id="DejaVuSans-41" d="M 2188 4044 
L 1331 1722 
L 3047 1722 
L 2188 4044 
z
M 1831 4666 
L 2547 4666 
L 4325 0 
L 3669 0 
L 3244 1197 
L 1141 1197 
L 716 0 
L 50 0 
L 1831 4666 
z
" transform="scale(0.015625)"/>
     </defs>
     <use xlink:href="#DejaVuSans-41"/>
    </g>
   </g>
  </g>
 </g>
 <defs>
  <clipPath id="pab75806870">
   <rect x="10.8" y="30.528" width="376.543227" height="174.672"/>
  </clipPath>
 </defs>
</svg>
