<?xml version="1.0" encoding="utf-8" standalone="no"?>
<!DOCTYPE svg PUBLIC "-//W3C//DTD SVG 1.1//EN"
  "http://www.w3.org/Graphics/SVG/1.1/DTD/svg11.dtd">
<svg xmlns:xlink="http://www.w3.org/1999/xlink" width="432pt" height="216pt" viewBox="0 0 432 216" xmlns="http://www.w3.org/2000/svg" version="1.1">
 <metadata>
  <rdf:RDF xmlns:dc="http://purl.org/dc/elements/1.1/" xmlns:cc="http://creativecommons.org/ns#" xmlns:rdf="http://www.w3.org/1999/02/22-rdf-syntax-ns#">
   <cc:Work>
    <dc:type rdf:resource="http://purl.org/dc/dcmitype/StillImage"/>
    <dc:date>2025-10-20T10:54:32.689523</dc:date>
    <dc:format>image/svg+xml</dc:format>
    <dc:creator>
     <cc:Agent>
      <dc:title>Matplotlib v3.9.4, https://matplotlib.org/</dc:title>
     </cc:Agent>
    </dc:creator>
   </cc:Work>
  </rdf:RDF>
 </metadata>
 <defs>
  <style type="text/css">*{stroke-linejoin: round; stroke-linecap: butt}</style>
 </defs>
 <g id="figure_1">
  <g id="patch_1">
   <path d="M 0 216 
L 432 216 
L 432 0 
L 0 0 
L 0 216 
z
" style="fill: none"/>
  </g>
  <g id="axes_1">
   <g id="patch_2">
    <path d="M 10.8 205.2 
L 387.343227 205.2 
L 387.343227 30.528 
L 10.8 30.528 
L 10.8 205.2 
z
" style="fill: none"/>
   </g>
   <g id="matplotlib.axis_1"/>
   <g id="matplotlib.axis_2">
    <g id="ytick_1">
     <g id="line2d_1">
      <defs>
       <path id="m73dca64007" d="M 4 0 
L -4 -0 
" style="stroke: #000000; stroke-width: 2"/>
      </defs>
      <g>
       <use xlink:href="#m73dca64007" x="27.915601" y="46.407273" style="stroke: #000000; stroke-width: 2"/>
      </g>
     </g>
     <g id="text_1">
      <!-- 1 -->
      <g transform="translate(14.053101 50.206491) scale(0.1 -0.1)">
       <defs>
        <path id="DejaVuSans-31" d="M 794 531 
L 1825 531 
L 1825 4091 
L 703 3866 
L 703 4441 
L 1819 4666 
L 2450 4666 
L 2450 531 
L 3481 531 
L 3481 0 
L 794 0 
L 794 531 
z
" transform="scale(0.015625)"/>
       </defs>
       <use xlink:href="#DejaVuSans-31"/>
      </g>
     </g>
    </g>
   </g>
   <g id="line2d_2">
    <path d="M 27.915601 125.803636 
L 30.792173 101.255997 
L 32.709887 86.426811 
L 34.627602 73.743178 
L 35.586459 68.390599 
L 36.545316 63.765049 
L 37.504173 59.89586 
L 38.463031 56.794697 
L 39.421888 54.455629 
L 40.380745 52.85567 
L 41.339602 51.955798 
L 42.298459 51.702395 
L 43.257317 52.029075 
L 44.216174 52.858841 
L 45.175031 54.106496 
L 46.133888 55.681248 
L 48.051603 59.437174 
L 50.928174 65.232654 
L 51.887031 66.887879 
L 52.845889 68.298832 
L 53.804746 69.419881 
L 54.763603 70.218851 
L 55.72246 70.677494 
L 56.681318 70.791526 
L 57.640175 70.570211 
L 58.599032 70.035521 
L 59.557889 69.220904 
L 60.516746 68.169711 
L 62.434461 65.569011 
L 65.311032 61.322593 
L 67.228747 58.960289 
L 68.187604 58.074989 
L 69.146461 57.438197 
L 70.105318 57.075838 
L 71.064176 57.002624 
L 72.023033 57.221523 
L 72.98189 57.723655 
L 73.940747 58.488611 
L 74.899605 59.485182 
L 76.817319 62.001432 
L 80.652748 67.571194 
L 81.611605 68.721833 
L 82.570462 69.660705 
L 83.529319 70.340199 
L 84.488177 70.721699 
L 85.447034 70.777317 
L 86.405891 70.491306 
L 87.364748 69.861096 
L 88.323605 68.897929 
L 89.282463 67.627048 
L 90.24132 66.087446 
L 92.159034 62.422135 
L 95.035606 56.562048 
L 95.994463 54.858805 
L 96.95332 53.436007 
L 97.912178 52.386235 
L 98.871035 51.797815 
L 99.829892 51.752161 
L 100.788749 52.321252 
L 101.747606 53.565338 
L 102.706464 55.530948 
L 103.665321 58.249237 
L 104.624178 61.734764 
L 105.583035 65.984701 
L 106.541892 70.978525 
L 108.459607 83.028855 
L 110.377321 97.386614 
L 113.253893 121.625731 
L 117.089322 154.220659 
L 119.007036 168.578418 
L 120.924751 180.628748 
L 121.883608 185.622572 
L 122.842465 189.872508 
L 123.801322 193.358035 
L 124.760179 196.076325 
L 125.719037 198.041934 
L 126.677894 199.286021 
L 127.636751 199.855111 
L 128.595608 199.809457 
L 129.554466 199.221038 
L 130.513323 198.171265 
L 131.47218 196.748468 
L 133.389894 193.155629 
L 136.266466 187.276114 
L 138.18418 183.980225 
L 139.143038 182.709344 
L 140.101895 181.746177 
L 141.060752 181.115967 
L 142.019609 180.829955 
L 142.978466 180.885573 
L 143.937324 181.267073 
L 144.896181 181.946567 
L 145.855038 182.885439 
L 147.772753 185.343874 
L 151.608181 190.934789 
L 152.567039 192.122091 
L 153.525896 193.118662 
L 154.484753 193.883618 
L 155.44361 194.38575 
L 156.402467 194.604649 
L 157.361325 194.531435 
L 158.320182 194.169076 
L 159.279039 193.532284 
L 160.237896 192.646984 
L 162.155611 190.28468 
L 166.949897 183.437562 
L 167.908754 182.386368 
L 168.867611 181.571752 
L 169.826468 181.037061 
L 170.785326 180.815746 
L 171.744183 180.929779 
L 172.70304 181.388422 
L 173.661897 182.187391 
L 174.620754 183.308441 
L 175.579612 184.719393 
L 177.497326 188.215956 
L 181.332755 195.926025 
L 182.291612 197.500776 
L 183.250469 198.748431 
L 184.209327 199.578197 
L 185.168184 199.904878 
L 186.127041 199.651475 
L 187.085898 198.751603 
L 188.044755 197.151644 
L 189.003613 194.812576 
L 189.96247 191.711413 
L 190.921327 187.842224 
L 191.880184 183.216674 
L 192.839041 177.864095 
L 194.756756 165.180462 
L 196.67447 150.351276 
L 199.551042 125.803636 
L 202.427614 101.255997 
L 204.345328 86.426811 
L 206.263042 73.743178 
L 207.2219 68.390599 
L 208.180757 63.765049 
L 209.139614 59.89586 
L 210.098471 56.794697 
L 211.057328 54.455629 
L 212.016186 52.85567 
L 212.975043 51.955798 
L 213.9339 51.702395 
L 214.892757 52.029075 
L 215.851614 52.858841 
L 216.810472 54.106496 
L 217.769329 55.681248 
L 219.687043 59.437174 
L 222.563615 65.232654 
L 223.522472 66.887879 
L 224.481329 68.298832 
L 225.440187 69.419881 
L 226.399044 70.218851 
L 227.357901 70.677494 
L 228.316758 70.791526 
L 229.275615 70.570211 
L 230.234473 70.035521 
L 231.19333 69.220904 
L 232.152187 68.169711 
L 234.069901 65.569011 
L 236.946473 61.322593 
L 238.864188 58.960289 
L 239.823045 58.074989 
L 240.781902 57.438197 
L 241.740759 57.075838 
L 242.699616 57.002624 
L 243.658474 57.221523 
L 244.617331 57.723655 
L 245.576188 58.488611 
L 246.535045 59.485182 
L 248.45276 62.001432 
L 252.288188 67.571194 
L 253.247046 68.721833 
L 254.205903 69.660705 
L 255.16476 70.340199 
L 256.123617 70.721699 
L 257.082475 70.777317 
L 258.041332 70.491306 
L 259.000189 69.861096 
L 259.959046 68.897929 
L 260.917903 67.627048 
L 261.876761 66.087446 
L 263.794475 62.422135 
L 266.671047 56.562048 
L 267.629904 54.858805 
L 268.588761 53.436007 
L 269.547618 52.386235 
L 270.506475 51.797815 
L 271.465333 51.752161 
L 272.42419 52.321252 
L 273.383047 53.565338 
L 274.341904 55.530948 
L 275.300762 58.249237 
L 276.259619 61.734764 
L 277.218476 65.984701 
L 278.177333 70.978525 
L 280.095048 83.028855 
L 282.012762 97.386614 
L 284.889334 121.625731 
L 288.724762 154.220659 
L 290.642477 168.578418 
L 292.560191 180.628748 
L 293.519049 185.622572 
L 294.477906 189.872508 
L 295.436763 193.358035 
L 296.39562 196.076325 
L 297.354477 198.041934 
L 298.313335 199.286021 
L 299.272192 199.855111 
L 300.231049 199.809457 
L 301.189906 199.221038 
L 302.148763 198.171265 
L 303.107621 196.748468 
L 305.025335 193.155629 
L 307.901907 187.276114 
L 309.819621 183.980225 
L 310.778478 182.709344 
L 311.737336 181.746177 
L 312.696193 181.115967 
L 313.65505 180.829955 
L 314.613907 180.885573 
L 315.572764 181.267073 
L 316.531622 181.946567 
L 317.490479 182.885439 
L 319.408193 185.343874 
L 323.243622 190.934789 
L 324.202479 192.122091 
L 325.161336 193.118662 
L 326.120194 193.883618 
L 327.079051 194.38575 
L 328.037908 194.604649 
L 328.996765 194.531435 
L 329.955623 194.169076 
L 330.91448 193.532284 
L 331.873337 192.646984 
L 333.791051 190.28468 
L 338.585337 183.437562 
L 339.544195 182.386368 
L 340.503052 181.571752 
L 341.461909 181.037061 
L 342.420766 180.815746 
L 343.379623 180.929779 
L 344.338481 181.388422 
L 345.297338 182.187391 
L 346.256195 183.308441 
L 347.215052 184.719393 
L 349.132767 188.215956 
L 352.968196 195.926025 
L 353.927053 197.500776 
L 354.88591 198.748431 
L 355.844767 199.578197 
L 356.803624 199.904878 
L 357.762482 199.651475 
L 358.721339 198.751603 
L 359.680196 197.151644 
L 360.639053 194.812576 
L 361.59791 191.711413 
L 362.556768 187.842224 
L 363.515625 183.216674 
L 364.474482 177.864095 
L 366.392197 165.180462 
L 368.309911 150.351276 
L 370.227625 134.144447 
L 370.227625 134.144447 
" clip-path="url(#pa3d8639651)" style="fill: none; stroke: #0000ff; stroke-width: 2; stroke-linecap: square"/>
   </g>
   <g id="line2d_3">
    <defs>
     <path id="m359ac2885d" d="M 3 0 
L -3 -3 
L -3 3 
z
" style="stroke: #000000; stroke-linejoin: miter"/>
    </defs>
    <g>
     <use xlink:href="#m359ac2885d" x="387.343227" y="125.803636" style="stroke: #000000; stroke-linejoin: miter"/>
    </g>
   </g>
   <g id="line2d_4">
    <defs>
     <path id="m28e5a5f864" d="M 0 -3 
L -3 3 
L 3 3 
z
" style="stroke: #000000; stroke-linejoin: miter"/>
    </defs>
    <g>
     <use xlink:href="#m28e5a5f864" x="27.915601" y="30.528" style="stroke: #000000; stroke-linejoin: miter"/>
    </g>
   </g>
   <g id="patch_3">
    <path d="M 27.915601 205.2 
L 27.915601 30.528 
" style="fill: none; stroke: #000000; stroke-width: 2; stroke-linejoin: miter; stroke-linecap: square"/>
   </g>
   <g id="patch_4">
    <path d="M 10.8 125.803636 
L 387.343227 125.803636 
" style="fill: none; stroke: #000000; stroke-width: 2; stroke-linejoin: miter; stroke-linecap: square"/>
   </g>
   <g id="text_2">
    <!-- t / s -->
    <g transform="translate(395.561016 129.666761) scale(0.14 -0.14)">
     <defs>
      <path id="DejaVuSans-74" d="M 1172 4494 
L 1172 3500 
L 2356 3500 
L 2356 3053 
L 1172 3053 
L 1172 1153 
Q 1172 725 1289 603 
Q 1406 481 1766 481 
L 2356 481 
L 2356 0 
L 1766 0 
Q 1100 0 847 248 
Q 594 497 594 1153 
L 594 3053 
L 172 3053 
L 172 3500 
L 594 3500 
L 594 4494 
L 1172 4494 
z
" transform="scale(0.015625)"/>
      <path id="DejaVuSans-20" transform="scale(0.015625)"/>
      <path id="DejaVuSans-2f" d="M 1625 4666 
L 2156 4666 
L 531 -594 
L 0 -594 
L 1625 4666 
z
" transform="scale(0.015625)"/>
      <path id="DejaVuSans-73" d="M 2834 3397 
L 2834 2853 
Q 2591 2978 2328 3040 
Q 2066 3103 1784 3103 
Q 1356 3103 1142 2972 
Q 928 2841 928 2578 
Q 928 2378 1081 2264 
Q 1234 2150 1697 2047 
L 1894 2003 
Q 2506 1872 2764 1633 
Q 3022 1394 3022 966 
Q 3022 478 2636 193 
Q 2250 -91 1575 -91 
Q 1294 -91 989 -36 
Q 684 19 347 128 
L 347 722 
Q 666 556 975 473 
Q 1284 391 1588 391 
Q 1994 391 2212 530 
Q 2431 669 2431 922 
Q 2431 1156 2273 1281 
Q 2116 1406 1581 1522 
L 1381 1569 
Q 847 1681 609 1914 
Q 372 2147 372 2553 
Q 372 3047 722 3315 
Q 1072 3584 1716 3584 
Q 2034 3584 2315 3537 
Q 2597 3491 2834 3397 
z
" transform="scale(0.015625)"/>
     </defs>
     <use xlink:href="#DejaVuSans-74"/>
     <use xlink:href="#DejaVuSans-20" x="39.208984"/>
     <use xlink:href="#DejaVuSans-2f" x="70.996094"/>
     <use xlink:href="#DejaVuSans-20" x="104.6875"/>
     <use xlink:href="#DejaVuSans-73" x="136.474609"/>
    </g>
   </g>
   <g id="text_3">
    <!-- A -->
    <g transform="translate(23.127164 21.264728) scale(0.14 -0.14)">
     <defs>
      <path id="DejaVuSans-41" d="M 2188 4044 
L 1331 1722 
L 3047 1722 
L 2188 4044 
z
M 1831 4666 
L 2547 4666 
L 4325 0 
L 3669 0 
L 3244 1197 
L 1141 1197 
L 716 0 
L 50 0 
L 1831 4666 
z
" transform="scale(0.015625)"/>
     </defs>
     <use xlink:href="#DejaVuSans-41"/>
    </g>
   </g>
  </g>
 </g>
 <defs>
  <clipPath id="pa3d8639651">
   <rect x="10.8" y="30.528" width="376.543227" height="174.672"/>
  </clipPath>
 </defs>
</svg>
