<?xml version="1.0" encoding="utf-8" standalone="no"?>
<!DOCTYPE svg PUBLIC "-//W3C//DTD SVG 1.1//EN"
  "http://www.w3.org/Graphics/SVG/1.1/DTD/svg11.dtd">
<svg xmlns:xlink="http://www.w3.org/1999/xlink" width="432pt" height="216pt" viewBox="0 0 432 216" xmlns="http://www.w3.org/2000/svg" version="1.1">
 <metadata>
  <rdf:RDF xmlns:dc="http://purl.org/dc/elements/1.1/" xmlns:cc="http://creativecommons.org/ns#" xmlns:rdf="http://www.w3.org/1999/02/22-rdf-syntax-ns#">
   <cc:Work>
    <dc:type rdf:resource="http://purl.org/dc/dcmitype/StillImage"/>
    <dc:date>2025-10-21T17:25:23.930774</dc:date>
    <dc:format>image/svg+xml</dc:format>
    <dc:creator>
     <cc:Agent>
      <dc:title>Matplotlib v3.9.4, https://matplotlib.org/</dc:title>
     </cc:Agent>
    </dc:creator>
   </cc:Work>
  </rdf:RDF>
 </metadata>
 <defs>
  <style type="text/css">*{stroke-linejoin: round; stroke-linecap: butt}</style>
 </defs>
 <g id="figure_1">
  <g id="patch_1">
   <path d="M 0 216 
L 432 216 
L 432 0 
L 0 0 
L 0 216 
z
" style="fill: none"/>
  </g>
  <g id="axes_1">
   <g id="patch_2">
    <path d="M 10.8 205.2 
L 387.343227 205.2 
L 387.343227 30.528 
L 10.8 30.528 
L 10.8 205.2 
z
" style="fill: none"/>
   </g>
   <g id="matplotlib.axis_1"/>
   <g id="matplotlib.axis_2">
    <g id="ytick_1">
     <g id="line2d_1">
      <defs>
       <path id="mc680673277" d="M 4 0 
L -4 -0 
" style="stroke: #000000; stroke-width: 2"/>
      </defs>
      <g>
       <use xlink:href="#mc680673277" x="27.915601" y="46.407273" style="stroke: #000000; stroke-width: 2"/>
      </g>
     </g>
     <g id="text_1">
      <!-- 1 -->
      <g transform="translate(14.053101 50.206491) scale(0.1 -0.1)">
       <defs>
        <path id="DejaVuSans-31" d="M 794 531 
L 1825 531 
L 1825 4091 
L 703 3866 
L 703 4441 
L 1819 4666 
L 2450 4666 
L 2450 531 
L 3481 531 
L 3481 0 
L 794 0 
L 794 531 
z
" transform="scale(0.015625)"/>
       </defs>
       <use xlink:href="#DejaVuSans-31"/>
      </g>
     </g>
    </g>
   </g>
   <g id="line2d_2">
    <path d="M 27.915601 125.803636 
L 30.792173 93.624413 
L 32.709887 75.731586 
L 33.668744 68.475392 
L 34.627602 62.515603 
L 35.586459 57.910724 
L 36.545316 54.662408 
L 37.504173 52.717256 
L 38.463031 51.971356 
L 39.421888 52.277292 
L 40.380745 53.453192 
L 41.339602 55.293285 
L 43.257317 60.092488 
L 45.175031 64.987427 
L 46.133888 67.024001 
L 47.092745 68.612624 
L 48.051603 69.672654 
L 49.01046 70.166116 
L 49.969317 70.097043 
L 50.928174 69.508389 
L 51.887031 68.476776 
L 52.845889 67.105443 
L 56.681318 60.734783 
L 57.640175 59.533733 
L 58.599032 58.682278 
L 59.557889 58.232896 
L 60.516746 58.206995 
L 61.475604 58.59436 
L 62.434461 59.354747 
L 63.393318 60.421491 
L 65.311032 63.10854 
L 67.228747 65.825772 
L 68.187604 66.933877 
L 69.146461 67.758329 
L 70.105318 68.237275 
L 71.064176 68.33489 
L 72.023033 68.043878 
L 72.98189 67.385993 
L 73.940747 66.410506 
L 75.858462 63.819005 
L 77.776176 61.042968 
L 78.735033 59.854888 
L 79.693891 58.931528 
L 80.652748 58.350864 
L 81.611605 58.166916 
L 82.570462 58.405244 
L 83.529319 59.060319 
L 84.488177 60.094992 
L 85.447034 61.442138 
L 89.282463 67.826304 
L 90.24132 69.042031 
L 91.200177 69.863589 
L 92.159034 70.200072 
L 93.117892 69.990914 
L 94.076749 69.212091 
L 95.035606 67.880337 
L 95.994463 66.055035 
L 97.912178 61.368383 
L 99.829892 56.394378 
L 100.788749 54.303699 
L 101.747606 52.768929 
L 102.706464 52.003522 
L 103.665321 52.202691 
L 104.624178 53.532318 
L 105.583035 56.119083 
L 106.541892 60.042371 
L 107.50075 65.328457 
L 108.459607 71.947305 
L 109.418464 79.812221 
L 111.336179 98.668247 
L 114.21275 131.372898 
L 116.130465 152.939026 
L 118.048179 171.795052 
L 119.007036 179.659967 
L 119.965893 186.278816 
L 120.924751 191.564902 
L 121.883608 195.48819 
L 122.842465 198.074954 
L 123.801322 199.404582 
L 124.760179 199.603751 
L 125.719037 198.838344 
L 126.677894 197.303574 
L 127.636751 195.212895 
L 131.47218 185.552238 
L 132.431037 183.726936 
L 133.389894 182.395182 
L 134.348752 181.616359 
L 135.307609 181.407201 
L 136.266466 181.743684 
L 137.225323 182.565242 
L 138.18418 183.780969 
L 140.101895 186.927254 
L 142.019609 190.165135 
L 142.978466 191.512281 
L 143.937324 192.546953 
L 144.896181 193.202028 
L 145.855038 193.440356 
L 146.813895 193.256409 
L 147.772753 192.675745 
L 148.73161 191.752385 
L 150.649324 189.207391 
L 152.567039 186.416514 
L 153.525896 185.196767 
L 154.484753 184.22128 
L 155.44361 183.563394 
L 156.402467 183.272383 
L 157.361325 183.369997 
L 158.320182 183.848944 
L 159.279039 184.673396 
L 160.237896 185.781501 
L 162.155611 188.498733 
L 164.073325 191.185782 
L 165.032182 192.252526 
L 165.99104 193.012913 
L 166.949897 193.400277 
L 167.908754 193.374377 
L 168.867611 192.924995 
L 169.826468 192.07354 
L 170.785326 190.87249 
L 172.70304 187.768488 
L 174.620754 184.501829 
L 175.579612 183.130497 
L 176.538469 182.098884 
L 177.497326 181.51023 
L 178.456183 181.441157 
L 179.41504 181.934619 
L 180.373898 182.994649 
L 181.332755 184.583272 
L 182.291612 186.619846 
L 184.209327 191.514785 
L 186.127041 196.313988 
L 187.085898 198.154081 
L 188.044755 199.329981 
L 189.003613 199.635917 
L 189.96247 198.890017 
L 190.921327 196.944865 
L 191.880184 193.696549 
L 192.839041 189.091669 
L 193.797899 183.131881 
L 194.756756 175.875686 
L 195.715613 167.437337 
L 197.633327 147.723398 
L 202.427614 93.624413 
L 204.345328 75.731586 
L 205.304185 68.475392 
L 206.263042 62.515603 
L 207.2219 57.910724 
L 208.180757 54.662408 
L 209.139614 52.717256 
L 210.098471 51.971356 
L 211.057328 52.277292 
L 212.016186 53.453192 
L 212.975043 55.293285 
L 214.892757 60.092488 
L 216.810472 64.987427 
L 217.769329 67.024001 
L 218.728186 68.612624 
L 219.687043 69.672654 
L 220.645901 70.166116 
L 221.604758 70.097043 
L 222.563615 69.508389 
L 223.522472 68.476776 
L 224.481329 67.105443 
L 228.316758 60.734783 
L 229.275615 59.533733 
L 230.234473 58.682278 
L 231.19333 58.232896 
L 232.152187 58.206995 
L 233.111044 58.59436 
L 234.069901 59.354747 
L 235.028759 60.421491 
L 236.946473 63.10854 
L 238.864188 65.825772 
L 239.823045 66.933877 
L 240.781902 67.758329 
L 241.740759 68.237275 
L 242.699616 68.33489 
L 243.658474 68.043878 
L 244.617331 67.385993 
L 245.576188 66.410506 
L 247.493902 63.819005 
L 249.411617 61.042968 
L 250.370474 59.854888 
L 251.329331 58.931528 
L 252.288188 58.350864 
L 253.247046 58.166916 
L 254.205903 58.405244 
L 255.16476 59.060319 
L 256.123617 60.094992 
L 257.082475 61.442138 
L 260.917903 67.826304 
L 261.876761 69.042031 
L 262.835618 69.863589 
L 263.794475 70.200072 
L 264.753332 69.990914 
L 265.712189 69.212091 
L 266.671047 67.880337 
L 267.629904 66.055035 
L 269.547618 61.368383 
L 271.465333 56.394378 
L 272.42419 54.303699 
L 273.383047 52.768929 
L 274.341904 52.003522 
L 275.300762 52.202691 
L 276.259619 53.532318 
L 277.218476 56.119083 
L 278.177333 60.042371 
L 279.13619 65.328457 
L 280.095048 71.947305 
L 281.053905 79.812221 
L 282.971619 98.668247 
L 285.848191 131.372898 
L 287.765905 152.939026 
L 289.68362 171.795052 
L 290.642477 179.659967 
L 291.601334 186.278816 
L 292.560191 191.564902 
L 293.519049 195.48819 
L 294.477906 198.074954 
L 295.436763 199.404582 
L 296.39562 199.603751 
L 297.354477 198.838344 
L 298.313335 197.303574 
L 299.272192 195.212895 
L 303.107621 185.552238 
L 304.066478 183.726936 
L 305.025335 182.395182 
L 305.984192 181.616359 
L 306.943049 181.407201 
L 307.901907 181.743684 
L 308.860764 182.565242 
L 309.819621 183.780969 
L 311.737336 186.927254 
L 313.65505 190.165135 
L 314.613907 191.512281 
L 315.572764 192.546953 
L 316.531622 193.202028 
L 317.490479 193.440356 
L 318.449336 193.256409 
L 319.408193 192.675745 
L 320.36705 191.752385 
L 322.284765 189.207391 
L 324.202479 186.416514 
L 325.161336 185.196767 
L 326.120194 184.22128 
L 327.079051 183.563394 
L 328.037908 183.272383 
L 328.996765 183.369997 
L 329.955623 183.848944 
L 330.91448 184.673396 
L 331.873337 185.781501 
L 333.791051 188.498733 
L 335.708766 191.185782 
L 336.667623 192.252526 
L 337.62648 193.012913 
L 338.585337 193.400277 
L 339.544195 193.374377 
L 340.503052 192.924995 
L 341.461909 192.07354 
L 342.420766 190.87249 
L 344.338481 187.768488 
L 346.256195 184.501829 
L 347.215052 183.130497 
L 348.17391 182.098884 
L 349.132767 181.51023 
L 350.091624 181.441157 
L 351.050481 181.934619 
L 352.009338 182.994649 
L 352.968196 184.583272 
L 353.927053 186.619846 
L 355.844767 191.514785 
L 357.762482 196.313988 
L 358.721339 198.154081 
L 359.680196 199.329981 
L 360.639053 199.635917 
L 361.59791 198.890017 
L 362.556768 196.944865 
L 363.515625 193.696549 
L 364.474482 189.091669 
L 365.433339 183.131881 
L 366.392197 175.875686 
L 367.351054 167.437337 
L 369.268768 147.723398 
L 370.227625 136.906187 
L 370.227625 136.906187 
" clip-path="url(#pdb66115629)" style="fill: none; stroke: #0000ff; stroke-width: 2; stroke-linecap: square"/>
   </g>
   <g id="line2d_3">
    <defs>
     <path id="m013ce1e845" d="M 3 0 
L -3 -3 
L -3 3 
z
" style="stroke: #000000; stroke-linejoin: miter"/>
    </defs>
    <g>
     <use xlink:href="#m013ce1e845" x="387.343227" y="125.803636" style="stroke: #000000; stroke-linejoin: miter"/>
    </g>
   </g>
   <g id="line2d_4">
    <defs>
     <path id="m85a35c6b3c" d="M 0 -3 
L -3 3 
L 3 3 
z
" style="stroke: #000000; stroke-linejoin: miter"/>
    </defs>
    <g>
     <use xlink:href="#m85a35c6b3c" x="27.915601" y="30.528" style="stroke: #000000; stroke-linejoin: miter"/>
    </g>
   </g>
   <g id="patch_3">
    <path d="M 27.915601 205.2 
L 27.915601 30.528 
" style="fill: none; stroke: #000000; stroke-width: 2; stroke-linejoin: miter; stroke-linecap: square"/>
   </g>
   <g id="patch_4">
    <path d="M 10.8 125.803636 
L 387.343227 125.803636 
" style="fill: none; stroke: #000000; stroke-width: 2; stroke-linejoin: miter; stroke-linecap: square"/>
   </g>
   <g id="text_2">
    <!-- t / s -->
    <g transform="translate(395.561016 129.666761) scale(0.14 -0.14)">
     <defs>
      <path id="DejaVuSans-74" d="M 1172 4494 
L 1172 3500 
L 2356 3500 
L 2356 3053 
L 1172 3053 
L 1172 1153 
Q 1172 725 1289 603 
Q 1406 481 1766 481 
L 2356 481 
L 2356 0 
L 1766 0 
Q 1100 0 847 248 
Q 594 497 594 1153 
L 594 3053 
L 172 3053 
L 172 3500 
L 594 3500 
L 594 4494 
L 1172 4494 
z
" transform="scale(0.015625)"/>
      <path id="DejaVuSans-20" transform="scale(0.015625)"/>
      <path id="DejaVuSans-2f" d="M 1625 4666 
L 2156 4666 
L 531 -594 
L 0 -594 
L 1625 4666 
z
" transform="scale(0.015625)"/>
      <path id="DejaVuSans-73" d="M 2834 3397 
L 2834 2853 
Q 2591 2978 2328 3040 
Q 2066 3103 1784 3103 
Q 1356 3103 1142 2972 
Q 928 2841 928 2578 
Q 928 2378 1081 2264 
Q 1234 2150 1697 2047 
L 1894 2003 
Q 2506 1872 2764 1633 
Q 3022 1394 3022 966 
Q 3022 478 2636 193 
Q 2250 -91 1575 -91 
Q 1294 -91 989 -36 
Q 684 19 347 128 
L 347 722 
Q 666 556 975 473 
Q 1284 391 1588 391 
Q 1994 391 2212 530 
Q 2431 669 2431 922 
Q 2431 1156 2273 1281 
Q 2116 1406 1581 1522 
L 1381 1569 
Q 847 1681 609 1914 
Q 372 2147 372 2553 
Q 372 3047 722 3315 
Q 1072 3584 1716 3584 
Q 2034 3584 2315 3537 
Q 2597 3491 2834 3397 
z
" transform="scale(0.015625)"/>
     </defs>
     <use xlink:href="#DejaVuSans-74"/>
     <use xlink:href="#DejaVuSans-20" x="39.208984"/>
     <use xlink:href="#DejaVuSans-2f" x="70.996094"/>
     <use xlink:href="#DejaVuSans-20" x="104.6875"/>
     <use xlink:href="#DejaVuSans-73" x="136.474609"/>
    </g>
   </g>
   <g id="text_3">
    <!-- A -->
    <g transform="translate(23.127164 21.264728) scale(0.14 -0.14)">
     <defs>
      <path id="DejaVuSans-41" d="M 2188 4044 
L 1331 1722 
L 3047 1722 
L 2188 4044 
z
M 1831 4666 
L 2547 4666 
L 4325 0 
L 3669 0 
L 3244 1197 
L 1141 1197 
L 716 0 
L 50 0 
L 1831 4666 
z
" transform="scale(0.015625)"/>
     </defs>
     <use xlink:href="#DejaVuSans-41"/>
    </g>
   </g>
  </g>
 </g>
 <defs>
  <clipPath id="pdb66115629">
   <rect x="10.8" y="30.528" width="376.543227" height="174.672"/>
  </clipPath>
 </defs>
</svg>
